<svg width="67" height="67" fill="none" xmlns="http://www.w3.org/2000/svg"><path d="M33.4 61.7C17.7 61.7 5 49 5 33.4 5 17.7 17.7 5 33.4 5 49 5 61.7 17.7 61.7 33.4 61.7 49 49 61.7 33.4 61.7z" stroke="#000" stroke-width="4" stroke-miterlimit="10"/><path d="M27.7 33.1c5 0 5 8.2 0 8.2h-6.1v-8.2m6.1 0h-6.1m6.1 0c5 0 5-7.6 0-7.6h-6.1v7.6m13.8 3.3c0-1.3.5-2.6 1.4-3.5.9-.9 2.2-1.4 3.5-1.4 1.3 0 2.6.5 3.5 1.4.9.9 1.4 2.2 1.4 3.5h-9.8zm0 0c0 1.3.5 2.6 1.4 3.5.9.9 2.2 1.4 3.5 1.4 1.8 0 2.9-.6 3.6-1.2m-.6-13.6h-5.9" stroke="#000" stroke-width="2.961" stroke-linecap="round" stroke-linejoin="round"/></svg>