<svg xmlns="http://www.w3.org/2000/svg" width="14" height="24"><path d="M.298.011C-.224 2.356.005 4.377.682 6.112c1.615 1.79 3.807 3.044 6.084 4.256-.771-.743-1.502-1.477-2.137-2.228h3.714c.271-.313.522-.627.754-.943H3.895a9.717 9.717 0 01-.675-1.084 8.982 8.982 0 01-.288-.592h7.158c.139-.307.256-.619.35-.942H2.588a6.954 6.954 0 01-.265-1.989h8.362a8.081 8.081 0 00-.085-.944H2.385c.061-.508.167-1.052.327-1.635zm10.997 0c.511 1.857.49 3.3.126 4.568h-.008a8.035 8.035 0 01-.732 1.892c-.799 1.504-2.046 2.834-3.415 4.161.649.344 1.301.686 1.947 1.04 1.361-1.319 2.688-2.732 3.616-4.478 1.042-1.96 1.519-4.333.885-7.183zM4.728 12.808c-1.035 1.07-2.008 2.236-2.746 3.615-1.085 2.03-1.583 4.536-.989 7.536h2.322a10.432 10.432 0 01-.256-3.126 8.17 8.17 0 01.14-1.082h.008c.064-.319.146-.633.245-.943.002-.003.002-.007.003-.011a8.56 8.56 0 01.57-1.355c.762-1.448 1.826-2.588 2.876-3.621-.718-.339-1.448-.672-2.173-1.013zm2.423 1.133c.735.734 1.419 1.472 1.995 2.247H5.999c-.244.302-.475.615-.689.942h4.468c.073.124.144.249.211.375.224.418.415.85.568 1.303H4.455a7.58 7.58 0 00-.279.943h6.634a8.23 8.23 0 01.15 1.988H3.981c.007.305.029.619.07.942h6.825c-.055.407-.135.832-.242 1.278h2.383c.485-2.451.241-4.572-.457-6.373-1.448-1.606-3.374-2.671-5.409-3.645z" fill="#fff"/></svg>