<svg width="67" height="67" fill="none" xmlns="http://www.w3.org/2000/svg"><path d="M53.2 61.7H13.6c-4.7 0-8.5-3.8-8.5-8.5V13.6C5 8.9 8.9 5 13.6 5h39.7c4.7 0 8.5 3.8 8.5 8.5v39.7c-.1 4.7-3.9 8.5-8.6 8.5z" stroke="#000" stroke-width="4" stroke-miterlimit="10"/><path d="M33.4 44.702c6.24 0 11.3-5.06 11.3-11.3 0-6.241-5.06-11.3-11.3-11.3-6.241 0-11.3 5.059-11.3 11.3 0 6.24 5.059 11.3 11.3 11.3z" stroke="#000" stroke-width="4" stroke-miterlimit="10"/><path d="M53.2 13.602h-2.8v5.1h2.8v-5.1z" fill="#000"/></svg>