<svg xmlns="http://www.w3.org/2000/svg" width="65" height="60"><path d="M0 60V0h65v60z" fill="transparent"/><path d="M26.268 41.789c-.65-.387-1.28-.816-1.851-1.314-2.183-1.91-5.999-6.393-3.66-13.015a11.608 11.608 0 013.422-4.978c1.429-1.214 3.325-3.708 1.823-7.752.024.062-.062.238-.08.294-.093.29-.214.57-.349.847-.512 1.052-1.225 1.989-2 2.865-.754.847-1.636 1.612-2.294 2.539-1.619 2.283-4.785 8.192-.924 15.605 0 0-5.965-8.226-.405-17.086 1.827-2.913 5.654-4.881 5.052-8.856a5.978 5.978 0 00-.46-1.543 7.227 7.227 0 00-.446-.837c-.087-.138-.575-.664-.557-.796-.402 3.38-3.658 5.594-5.201 8.455-1.491 2.764-2.363 4.459-2.363 8.746 0 3.5.82 6.891 1.702 9.586 0 0-6.989-10.825.197-20.857a9.38 9.38 0 01.575-.716c1.391-1.602 7.529-9.31 0-12.98.104.052.156.661.173.758.121.688.166 1.39.149 2.089-.049 2.18-.686 4.39-1.91 6.196-.938 1.384-1.782 2.747-2.429 4.293a22.673 22.673 0 00-1.412 4.812c-.581 3.304-.405 6.708.394 9.963 0 0 1.291 8.448 9.99 13.312.401.225.813.425 1.231.616.848.387 2.969 1.504 3.516 3.203-.004.004 1.114-1.661-1.883-3.449zm25.791-23.641a22.527 22.527 0 00-1.411-4.812c-.647-1.547-1.491-2.906-2.429-4.294-1.225-1.805-1.858-4.016-1.91-6.195-.017-.699.028-1.401.149-2.09.017-.097.069-.706.173-.757-7.529 3.67-1.391 11.378 0 12.979.201.232.394.467.574.716 7.186 10.033.197 20.857.197 20.857.883-2.695 1.703-6.085 1.703-9.586 0-4.286-.872-5.981-2.363-8.745-1.544-2.861-4.796-5.075-5.197-8.455.017.131-.475.657-.558.796a6.84 6.84 0 00-.446.837 5.826 5.826 0 00-.46 1.543c-.602 3.975 3.225 5.943 5.051 8.856 5.561 8.859-.404 17.086-.404 17.086 3.861-7.414.695-13.322-.924-15.606-.658-.927-1.54-1.691-2.291-2.539-.771-.875-1.484-1.813-2-2.864a6.27 6.27 0 01-.349-.848c-.017-.055-.104-.232-.08-.294-1.501 4.044.392 6.538 1.824 7.753a11.578 11.578 0 013.422 4.978c2.339 6.621-1.474 11.105-3.661 13.014-.571.498-1.2.927-1.851 1.315-3 1.788-1.879 3.452-1.879 3.452.547-1.698 2.668-2.816 3.516-3.203.418-.191.83-.395 1.231-.616 8.695-4.864 9.989-13.312 9.989-13.312.793-3.259.969-6.663.384-9.966z" fill="#212121"/><path d="M23.452 33.514c.222 4.505 2.65 6.961 7.287 7.366-2.965-.865-6.024-3.38-7.287-7.366zm18.179 0c-1.263 3.986-4.321 6.501-7.287 7.366 4.637-.409 7.066-2.861 7.287-7.366z" fill="#212121"/><path d="M37.683 31.453c.46-.153 1.374-.502 1.623-.952.896 3.013-.491 6.071-3.149 8.946 3.668-1.899 5.903-6.877 3.747-11.267 0 0-.823 1.854-2.183 2.321.031-4.431-2.052-8.655-5.183-11.533-3.128 2.878-5.211 7.102-5.18 11.533-1.359-.467-2.183-2.321-2.183-2.321-2.156 4.39.08 9.372 3.747 11.267-2.657-2.875-4.044-5.936-3.148-8.946.249.45 1.162.799 1.622.952.225 2.978 1.426 6.012 3.924 8.762-3.034-7.555-2.948-13.789 1.218-17.809 4.169 4.017 4.256 10.254 1.218 17.809 2.502-2.75 3.702-5.784 3.927-8.762zM3.176 52.303l1.429-3.169a.87.87 0 00.09-.312c0-.114-.086-.186-.259-.221v-.128H6.28v.128c-.118.017-.197.048-.242.1-.045.049-.121.194-.232.436l-1.869 4.034c-.079.169-.117.283-.117.335 0 .135.083.215.249.239v.128H2.211v-.128c.166-.024.249-.104.249-.242 0-.049-.038-.159-.118-.332L.474 49.137c-.111-.239-.187-.384-.232-.436-.045-.048-.124-.083-.242-.1v-.128h1.917v.128c-.173.035-.26.107-.26.221a.87.87 0 00.09.312zm4.997-.803v1.477h3.467a.27.27 0 00.183-.055.443.443 0 00.104-.197h.128v1.393h-.128c-.028-.093-.059-.159-.104-.197-.042-.038-.104-.055-.183-.055H6.744v-.128a.424.424 0 00.197-.104c.038-.041.055-.103.055-.187v-4.562c0-.083-.017-.142-.055-.187a.433.433 0 00-.197-.104v-.128h4.802c.08 0 .139-.021.18-.059a.43.43 0 00.104-.2h.128v1.394h-.125c-.027-.094-.059-.156-.104-.194-.041-.038-.103-.056-.179-.056H8.176v1.281h2.19c.08 0 .139-.018.18-.056a.433.433 0 00.104-.197h.128v1.363h-.128a.422.422 0 00-.104-.197.262.262 0 00-.18-.059H8.173zm9.736-2.571l-.643 1.266-.111-.062c.003-.028.003-.048.003-.062 0-.09-.076-.187-.228-.287-.471-.325-1.021-.492-1.65-.492a2.37 2.37 0 00-.737.104.868.868 0 00-.378.239.503.503 0 00-.145.343c0 .204.121.342.367.415.128.038.398.076.813.117l.619.063c.371.038.668.093.896.162.229.069.43.166.606.287.18.128.322.298.426.509.103.211.155.436.155.674 0 .381-.121.716-.367 1.011-.221.27-.564.467-1.031.594a4.142 4.142 0 01-1.117.146c-.713 0-1.419-.17-2.114-.512-.149-.069-.236-.104-.263-.104-.035 0-.09.028-.163.087l-.114-.059.585-1.325.114.055v.052c0 .118.055.228.169.329.17.152.436.283.793.394.36.111.699.166 1.02.166.35 0 .651-.059.897-.176a.86.86 0 00.328-.263.561.561 0 00.121-.343c0-.18-.096-.308-.287-.384-.135-.052-.405-.1-.813-.145l-.609-.062a8.41 8.41 0 01-.865-.121 2.303 2.303 0 01-.505-.184 1.304 1.304 0 01-.564-.532 1.426 1.426 0 01-.187-.734c0-.456.156-.834.471-1.131.412-.391 1.027-.588 1.847-.588.346 0 .668.034.966.104.297.069.668.197 1.114.384.152.062.246.09.28.09.056 0 .121-.031.194-.09zm2.142 1.243v3.279c0 .083.017.142.055.187.038.045.104.076.197.104v.128h-1.584v-.128a.443.443 0 00.197-.104c.038-.042.055-.104.055-.187v-4.566c0-.08-.017-.139-.055-.18a.433.433 0 00-.197-.104v-.128h1.834v.128c-.115.028-.17.09-.17.18 0 .062.038.131.111.211l2.975 3.093v-3.2c0-.08-.017-.139-.055-.18a.433.433 0 00-.197-.104v-.128h1.585v.128a.432.432 0 00-.198.104c-.038.041-.055.103-.055.18v4.566c0 .083.017.142.055.187a.442.442 0 00.198.104v.128h-1.699v-.128c.11-.025.166-.08.166-.17 0-.052-.066-.145-.194-.277zm9.671 2.321h-2.45l-.363.758a.639.639 0 00-.077.249c0 .117.09.197.267.242v.128h-1.785v-.128a.5.5 0 00.242-.111c.055-.052.117-.156.19-.308l1.983-4.144a.811.811 0 00.093-.315c0-.121-.076-.207-.228-.259v-.128h1.913v.128c-.156.045-.232.121-.232.231 0 .076.024.163.076.26l2.056 4.155c.086.176.162.297.228.359a.497.497 0 00.266.128v.128h-1.982v-.128c.173-.027.259-.111.259-.245a.64.64 0 00-.079-.246zm-.34-.741l-.871-1.919-.886 1.919zm9.533-.238h-3.111v1.944c0 .079.021.142.059.183.038.045.104.076.197.101v.128h-1.681v-.128a.443.443 0 00.197-.104c.038-.042.055-.104.055-.184v-4.569c0-.08-.017-.139-.055-.18a.433.433 0 00-.197-.104v-.128h1.681v.128a.406.406 0 00-.197.1c-.038.045-.055.104-.055.184v1.736h3.11v-1.736c0-.08-.017-.142-.055-.184-.038-.045-.104-.076-.197-.1v-.128h1.681v.128a.433.433 0 00-.197.104c-.038.041-.055.103-.055.18v4.569c0 .08.017.139.055.184.038.045.104.076.197.104v.128h-1.681v-.128a.42.42 0 00.197-.101.272.272 0 00.059-.183v-1.944zm5.367-3.135c.94 0 1.684.253 2.234.762.582.532.873 1.217.873 2.061 0 .516-.139.996-.419 1.446-.547.876-1.44 1.311-2.681 1.311-.931 0-1.675-.252-2.226-.761a2.641 2.641 0 01-.671-.975 2.792 2.792 0 01-.2-1.055c0-.54.138-1.035.415-1.481.529-.854 1.419-1.29 2.675-1.308zm.003.914c-.512 0-.941.152-1.284.456-.405.36-.609.834-.609 1.419 0 .584.204 1.058.609 1.418.343.305.772.457 1.291.457.519 0 .948-.152 1.287-.457.204-.18.36-.405.467-.668.093-.235.142-.477.142-.726 0-.612-.204-1.09-.609-1.443-.343-.297-.775-.453-1.294-.456zm6.785.069v4.089c0 .083.017.142.055.187.038.045.104.076.197.104v.128h-1.681v-.128a.437.437 0 00.197-.104c.038-.041.056-.104.056-.187v-4.089h-1.675a.276.276 0 00-.18.052.41.41 0 00-.104.198h-.128v-1.395h.128a.423.423 0 00.104.201c.042.038.1.055.18.055h4.522c.083 0 .142-.017.187-.055a.439.439 0 00.104-.201h.128v1.395h-.128a.442.442 0 00-.104-.198.292.292 0 00-.187-.052zm4.055 2.138v1.477h3.467a.27.27 0 00.183-.055.433.433 0 00.104-.197h.128v1.393h-.128c-.028-.093-.059-.159-.104-.197-.041-.038-.104-.055-.183-.055h-4.899v-.128a.424.424 0 00.197-.104c.038-.041.055-.103.055-.187v-4.562c0-.083-.017-.142-.055-.187a.433.433 0 00-.197-.104v-.128h4.802c.08 0 .138-.021.18-.059a.43.43 0 00.104-.2h.128v1.394h-.128c-.028-.094-.059-.156-.104-.194-.042-.038-.104-.056-.18-.056h-3.374v1.281h2.191c.079 0 .138-.018.18-.056a.443.443 0 00.104-.197h.128v1.363h-.128a.422.422 0 00-.104-.197.263.263 0 00-.18-.059h-2.187zm6.149 1.477h3.314c.083 0 .142-.017.187-.055a.433.433 0 00.104-.197h.128v1.393h-.128a.433.433 0 00-.104-.197c-.041-.038-.104-.055-.187-.055h-4.744v-.128a.432.432 0 00.198-.104c.038-.041.055-.103.055-.187v-4.562c0-.083-.017-.142-.055-.187a.432.432 0 00-.198-.104v-.128h1.682v.128a.406.406 0 00-.197.1.282.282 0 00-.055.187zm-45.178 4.21v2.484c0 .062.01.107.031.134.021.028.059.049.118.063v.072h-.626v-.072c.058-.014.1-.035.117-.063.021-.027.028-.072.028-.134v-2.612c0-.066-.011-.111-.031-.139-.021-.027-.059-.048-.118-.062v-.072h.907v.072c-.073.024-.108.059-.108.104 0 .031.035.09.108.173l1.903 2.224v-2.304c0-.066-.011-.111-.032-.138-.02-.028-.058-.049-.117-.062v-.073h.626v.073c-.059.013-.097.034-.118.062-.02.027-.031.072-.031.138v2.612c0 .066.011.111.031.135a.223.223 0 00.118.062v.073h-.73v-.073c.069-.017.107-.048.107-.093 0-.035-.031-.09-.097-.166zm6.654 1.283h-2.163v1.201c0 .065.01.11.028.134.021.028.059.049.117.063v.072h-.66v-.072c.058-.014.1-.035.117-.063.021-.027.028-.072.028-.134v-2.612c0-.066-.01-.111-.031-.139-.021-.027-.059-.048-.118-.062v-.072h.661v.072c-.059.014-.097.035-.118.062-.02.028-.031.073-.031.135v1.111h2.163v-1.111c0-.066-.011-.111-.031-.138-.021-.028-.059-.049-.118-.062v-.073h.661v.073c-.059.013-.097.034-.118.062-.021.027-.031.072-.031.135v2.612c0 .062.01.107.031.134.021.028.059.049.118.063v.072h-.661v-.072c.059-.014.097-.035.118-.063.02-.027.031-.072.031-.134V58.47zm3.92.589h-1.692l-.277.598a.296.296 0 00-.038.121c0 .045.045.076.135.094v.072h-.702v-.072a.264.264 0 00.145-.07.942.942 0 00.131-.232l1.156-2.494a.367.367 0 00.042-.121c0-.041-.038-.069-.115-.09v-.073h.769v.073c-.077.024-.115.056-.115.097 0 .017.014.055.042.114l1.107 2.404c.083.177.135.281.163.312.027.031.083.055.169.08v.072h-.751v-.072c.09-.014.135-.045.135-.101a.41.41 0 00-.052-.142zm-.139-.302l-.709-1.56-.709 1.56zm4.924-1.67v2.584c0 .062.01.107.031.135.021.027.059.048.118.062v.073h-.661v-.073c.059-.014.097-.035.118-.062.02-.028.031-.073.031-.135v-2.584h-1.069a.275.275 0 00-.139.027c-.028.021-.048.059-.062.118h-.073v-.595h.073c.014.059.034.1.062.121.028.021.073.031.139.031h2.501c.066 0 .111-.01.139-.031.027-.021.048-.059.062-.121h.072v.595h-.072c-.014-.059-.035-.097-.062-.118-.028-.02-.073-.027-.139-.027zm2.723 1.432v1.148c0 .062.011.107.031.135.021.028.059.048.118.062v.073h-.661v-.073c.059-.014.097-.034.118-.062.02-.028.031-.073.031-.135v-2.612c0-.066-.011-.111-.031-.138-.021-.028-.059-.049-.118-.062v-.073H35.4c.238 0 .425.014.564.038.138.024.259.069.359.131a.746.746 0 01.256.267.86.86 0 01.111.432.771.771 0 01-.239.588c-.159.153-.38.239-.657.26l.803 1.249a.23.23 0 00.207.114v.072h-.73v-.072c.076-.014.114-.035.114-.066a.6.6 0 00-.079-.149l-.716-1.134h-1.215zm0-.298h1.28c.173 0 .305-.007.395-.021a.7.7 0 00.235-.079c.159-.094.239-.249.239-.464 0-.218-.083-.374-.246-.467a.684.684 0 00-.242-.08 3.112 3.112 0 00-.412-.02h-1.245v1.131zm5.844.838H38.33l-.277.598a.313.313 0 00-.038.121c0 .045.045.076.135.094v.072h-.702v-.072a.261.261 0 00.145-.07.969.969 0 00.132-.232l1.155-2.494a.367.367 0 00.042-.121c0-.041-.038-.069-.114-.09v-.073h.768v.073c-.077.024-.114.056-.114.097 0 .017.013.055.041.114l1.107 2.404c.083.177.135.281.163.312.028.031.083.055.169.08v.072h-.75v-.072c.09-.014.134-.045.134-.101a.423.423 0 00-.051-.142zm-.135-.302l-.709-1.56-.709 1.56zm2.339-1.57v2.484c0 .062.01.107.031.134.021.028.059.049.118.063v.072h-.626v-.072c.058-.014.1-.035.117-.063.021-.027.028-.072.028-.134v-2.612c0-.066-.01-.111-.031-.139-.021-.027-.059-.048-.118-.062v-.072h.907v.072c-.073.024-.107.059-.107.104 0 .031.034.09.107.173l1.903 2.224v-2.304c0-.066-.011-.111-.031-.138-.021-.028-.059-.049-.118-.062v-.073h.626v.073c-.059.013-.097.034-.117.062-.021.027-.032.072-.032.138v2.612c0 .066.011.111.032.135.02.028.058.048.117.062v.073h-.73v-.073c.069-.017.107-.048.107-.093 0-.035-.031-.09-.097-.166zm7.311-.097l-.353.564-.059-.041a.226.226 0 00.042-.104c0-.048-.083-.114-.249-.204a2.025 2.025 0 00-.976-.26c-.387 0-.713.107-.979.326-.305.245-.457.581-.457.999 0 .408.146.734.436.976.266.225.609.335 1.021.335.218 0 .429-.034.626-.103.197-.07.367-.166.502-.287v-.582h-.748c-.065 0-.11.01-.138.031-.028.021-.048.059-.062.118h-.073v-.595h.073c.014.059.034.097.062.118.028.021.073.031.138.031h1.242v.072c-.058.014-.096.035-.117.063-.021.027-.031.072-.031.134v.409c0 .066.01.111.031.135.021.027.059.048.117.062v.066a2.939 2.939 0 01-.491.363 2.312 2.312 0 01-1.145.284c-.526 0-.955-.142-1.28-.429a1.585 1.585 0 01-.381-.505 1.629 1.629 0 01-.159-.709c0-.357.104-.672.311-.948.194-.257.454-.44.779-.558.228-.083.477-.121.74-.121.232 0 .447.028.644.083.197.056.412.149.64.277a.413.413 0 00.121.056c.024 0 .062-.032.114-.097z" fill="#212121"/></svg>