<svg xmlns="http://www.w3.org/2000/svg" width="130" height="43"><path d="M74.584 13.53v-.014l-.241-1.02v-1.584c0-.013 0-.027-.014-.04 0 0 0-.014-.013-.014 0-.013-.014-.027-.014-.027 0-.013-.013-.013-.013-.026l-.779-.886-.349-1.934v-.027c0-.013-.014-.026-.014-.04l-.013-.013-.041-.041-.013-.013-1.209-.953-1.021-2.081-.013-.014c-.014-.013-.014-.026-.027-.026l-.013-.014c-.014-.013-.027-.027-.041-.027l-1.706-.939-1.773-2.162-.013-.013-.027-.027s-.013 0-.013-.014L64.94.064s-.013 0-.013-.013c-.014 0-.014-.013-.041-.013a.37.37 0 00-.295 0c-.014 0-.013.013-.027.013 0 0-.013 0-.013.013l-2.284 1.517-.013.014c-.014 0-.014.013-.027.027-.014 0-.013.013-.013.013L60.44 3.797l-1.705.939-.041.041-.013.013c-.014.013-.027.027-.027.04v.014c-.027.027-.054.067-.054.107l-.953 1.96c-.027.014-.041.041-.054.067l-1.155.913-.014.014c-.013.013-.027.027-.027.04l-.013.013c-.013.014-.013.027-.013.041 0 .013-.014.027-.014.027l-.013.08v.027l-.323 1.826-.779.899-.013.014c-.014.013-.014.013-.014.027 0 0-.013.013-.013.026 0 .014 0 .027-.014.027v1.584l-.241 1.034v.094l.309 1.276v.872c0 .027.013.041.013.054 0 0 0 .013.014.013l.55 1.048.094.631v.026a.146.146 0 00.094.161l.041.014.577.711.269.524c0 .013.013.027.013.027.014.013.027.04.041.04l.013.014.833.671.013.013 1.384.967c.027.027.067.04.107.054 0 0 2.378.469 2.378.456h.053a.16.16 0 00.108-.201c0-.014-.014-.027-.014-.054a3.571 3.571 0 01-.107-.658c0-.067-.014-.134-.014-.201 0-.054.001-.094.014-.148 0-.094.013-.188.027-.282.013-.121.04-.228.067-.335.027-.108.054-.202.094-.309.04-.108.08-.215.134-.309.067-.121.135-.255.215-.362.067-.095.134-.175.202-.256.08-.094.161-.174.241-.255.081-.08.162-.147.242-.215.161-.12.323-.228.497-.308.094-.054.188-.094.296-.134.268-.095.537-.162.832-.188.094-.014.189-.014.269-.014h.04c.296 0 .591.054.86.134.108.027.202.068.296.108.188.08.362.174.537.282.094.053.175.121.255.188.094.08.188.174.282.268.081.081.148.161.215.242.094.121.175.241.255.376.054.094.108.188.148.295l.121.322c.027.108.054.215.08.336.014.107.041.215.041.335 0 .081.013.162.013.242v.094a2.99 2.99 0 01-.121.765c0 .014-.013.027-.013.041-.027.08.027.174.107.201h.054c0 .013 2.243-.456 2.243-.456.041-.014.081-.027.108-.054l1.383-.967h.014l.819-.671.013-.013c.014-.014.027-.027.027-.041.014-.013.014-.013.014-.027l.282-.537.671-.819v-.013a.218.218 0 00.027-.067v-.027l.094-.631.551-1.047s0-.013.013-.013c.014-.014.014-.041.014-.054v-.873l.309-1.275v-.067c-.014-.041-.014-.054-.014-.054zm-.617-2.631c-.014.013-.027.013-.041.026l-4.607 5.196a.167.167 0 00.013.228.155.155 0 00.108.041c.04 0 .08-.014.121-.054l4.473-5.048v1.141c-.014 0-.027.014-.027.014l-6.219 5.893a2.927 2.927 0 00-.282-.416l5.883-7.706zm-1.156-2.887l-4.473 7.196c-.04.067-.026.175.054.215.027.013.054.027.081.027a.148.148 0 00.134-.081l4.325-6.954.269 1.517-5.924 7.76a3.386 3.386 0 00-.336-.296l4.823-10.203zm-5.547 6.726c.013 0 .04.014.054.014.067 0 .12-.041.147-.108l3.251-9.411.833 1.692-4.863 10.284a3.153 3.153 0 00-.604-.309l2.941-12.795 1.465.806-3.332 9.626c-.026.08.027.174.108.201zm-.296-12.995l-1.477 12.364c-.014.081.054.161.134.175h.014a.16.16 0 00.161-.135l1.45-12.109 1.518 1.839v.014L65.8 16.779a3.501 3.501 0 00-.927-.134L64.846.319zm-4.795.389l1.505 12.056c.013.08.08.134.161.134h.013c.081-.013.148-.094.134-.175L62.442 1.796 64.51.427l.027 16.244a3.354 3.354 0 00-.9.202L60.669 3.985zm-3.452 3.195l3.371 9.411c.027.067.081.108.148.108.014 0 .041 0 .054-.014.081-.027.121-.121.094-.201l-3.465-9.68 1.45-.805 2.955 12.848a4.032 4.032 0 00-.564.335l-4.876-10.31zm-2.444 4.672l.268-1.477 4.379 7.022c.027.053.081.08.134.08a.185.185 0 00.081-.027.168.168 0 00.054-.214l-4.554-7.317 1.034-.819 4.863 10.284a3.053 3.053 0 00-.296.295l-5.95-7.813c-.013 0-.013 0-.013-.014zm-.202.282l5.95 7.813c-.094.135-.174.269-.255.403l-6.313-5.987v-1.115l4.607 5.048c.027.04.067.054.121.054a.157.157 0 00.108-.04c.067-.054.067-.161.013-.229l-4.822-5.276zm-.551 4.565v-.027l-.188-.806 4.137 3.383a.145.145 0 00.094.041c.041 0 .094-.014.121-.054a.15.15 0 00-.027-.215l-4.432-3.611s-.014 0-.014-.014l.162-.671 6.245 5.921c-.04.107-.08.228-.12.349zm0 .389l5.91 4.215c-.026.121-.04.229-.053.35l-5.172-2.35-.027-.04-.094-.604 3.023 1.691a.162.162 0 00.08.014.148.148 0 00.135-.081c.04-.08.013-.174-.054-.215l-3.385-1.893c-.013 0-.013 0-.027-.013l-.336-.644zm3.828 5.196l-1.383-.967-.014-.014 1.908.712c.013.013.04.013.054.013.067 0 .12-.04.147-.107.027-.08-.013-.174-.094-.201l-2.726-1.007h-.027l-.054-.04-.269-.538c0-.013-.013-.013-.013-.026l-.188-.242 4.715 2.148c0 .242.026.483.094.725zm8.906-.39l4.62-2.108-.241.296c-.014.013-.014.013-.014.027l-.268.537-.068.053a.152.152 0 00-.107 0l-2.727 1.007c-.08.027-.121.121-.094.202.027.067.081.107.148.107.013 0 .04 0 .054-.013l2.055-.766-.094.067-1.384.967-1.974.443c.054-.255.094-.51.094-.779v-.04zm5.709-4.336l-.336.631c-.041-.014-.081 0-.121.013l-3.036 1.678a.158.158 0 00-.067.215.148.148 0 00.134.081c.027 0 .054 0 .081-.014l2.767-1.53c0 .013-.014.013-.014.027l-.094.604h-.013l-5.05 2.296a3.436 3.436 0 00-.068-.39l5.803-4.148v.537zm.013-.913a.099.099 0 00-.054.027l-5.843 4.175a3.825 3.825 0 00-.148-.362l6.152-5.84.175.724a.123.123 0 00-.094.041l-4.164 3.464a.154.154 0 00-.013.228c.026.04.08.053.121.053.04 0 .067-.013.094-.04l3.975-3.316zm-9.147 18.259c-.081 0-.094-.04-.108-.107a42.648 42.648 0 01-.215-1.289c0-.497-.04-2.645-.04-4.618 0-2.283-.336-3.746-1.316-4.538-.094-.081-.188-.134-.188-.242v-.255c0-.215.067-.228.161-.228h1.719" fill="#212121"/><path d="M64.819 21.774h1.72c.094 0 .161.013.161.228v.255c0 .108-.094.161-.188.242-.994.805-1.317 2.255-1.317 4.538 0 1.973-.04 4.121-.04 4.618 0 .04-.134.846-.215 1.289-.013.067-.027.107-.107.107m-57.597-.269v-.188c1.317-.013 1.572-.349 1.572-1.866v-2.363H3.516v2.363c0 1.531.255 1.853 1.571 1.866v.188H.158v-.188c1.302-.013 1.558-.349 1.558-1.866v-4.591c0-1.531-.256-1.853-1.558-1.866v-.175h4.929v.175c-1.316.013-1.571.349-1.571 1.866v1.812h5.292v-1.812c0-1.531-.255-1.853-1.572-1.866v-.175h4.943v.175c-1.316.013-1.571.349-1.571 1.866v4.591c0 1.531.255 1.853 1.571 1.866v.188zm16.857-.04v-.188c1.277-.013 1.518-.349 1.518-1.906v-4.686c0-1.557-.241-1.893-1.518-1.906v-.188h4.809v.188c-1.289.013-1.531.349-1.531 1.906v4.686c0 1.557.242 1.893 1.531 1.906v.188zm11.565 0v-.174c.739-.014 1.129-.134 1.29-.39.161-.268.04-.617-.108-.926l-.711-1.49h-3.358l-.686 1.49c-.188.416-.214.698-.08.913.161.269.551.376 1.276.389v.175h-3.627v-.175c1.061-.013 1.451-.308 1.961-1.382l3.439-7.384h.175l3.452 7.384c.443.926.685 1.356 1.947 1.382v.188zm-2.673-3.396h2.969l-1.478-3.222zm17.287 3.651l-6.809-7.384v5.128c0 1.49.241 1.813 1.531 1.826v.175h-3.533v-.175c1.276-.013 1.518-.336 1.518-1.826v-4.484c0-1.49-.242-1.812-1.518-1.826v-.174h3.022l5.521 5.988v-3.988c0-1.49-.242-1.812-1.531-1.826v-.174h3.546v.174c-1.29.014-1.532.336-1.532 1.826v6.726h-.215zm7.415-.255v-.174c.739-.014 1.128-.134 1.289-.39.162-.268.041-.617-.107-.926l-.712-1.49h-3.358l-.685 1.49c-.188.416-.215.698-.081.913.161.269.551.376 1.276.389v.175h-3.626v-.175c1.061-.013 1.45-.308 1.961-1.382l3.438-7.384h.188l3.453 7.384c.443.926.685 1.356 1.947 1.382v.188zm-2.673-3.396h2.968l-1.477-3.222zm16.83 3.651c-.806 0-1.397-.255-1.88-.47a2.91 2.91 0 00-.618-.228l-.054-.014-.04.041a1.26 1.26 0 00-.484.671h-.255V29.99h.255c.336 1.476 1.639 2.591 3.076 2.591 1.075 0 1.746-.605 1.746-1.585 0-.617-.497-1.248-1.262-1.611l-1.531-.738c-1.317-.604-2.123-1.262-2.123-2.685 0-1.155 1.209-2.094 2.687-2.094.953 0 1.464.295 1.907.59l.067.054.067-.054c.162-.121.376-.335.484-.658h.242v3.008h-.229c-.188-1.625-1.047-2.524-2.444-2.524-.699 0-1.438.456-1.438 1.302 0 .483.471 1.208 1.371 1.624l1.544.725c1.276.605 2.015 1.517 2.015 2.498-.013 1.597-1.585 2.564-3.103 2.564zm11.203-.256v-.188c1.329-.013 1.585-.349 1.585-1.879v-2.377h-5.306v2.377c0 1.53.255 1.852 1.585 1.879v.188h-4.956v-.188c1.316-.013 1.558-.349 1.558-1.879v-4.605c0-1.531-.256-1.853-1.558-1.88v-.188h4.956v.188c-1.33.014-1.585.349-1.585 1.88v1.812h5.306v-1.812c0-1.531-.256-1.853-1.585-1.88v-.188h4.969v.188c-1.329.014-1.585.349-1.585 1.88v4.605c0 1.53.256 1.852 1.585 1.879v.188zm23.895.001l-2.928-3.933h-.671v1.879c0 1.531.255 1.853 1.585 1.88v.188h-4.957v-.188c1.317-.014 1.558-.349 1.558-1.88v-4.605c0-1.53-.255-1.852-1.558-1.879v-.188h5.386c1.854 0 3.197 1.007 3.197 2.403 0 1.289-1.128 2.242-2.794 2.39l-.268.027 1.786 1.785c1.37 1.37 2.015 1.799 3.036 1.933v.202h-3.372zm-3.586-4.363h1.034c1.653 0 2.23-1.02 2.23-1.973 0-.954-.591-1.987-2.23-1.987h-1.034zm8.422 4.362v-.188c1.316-.013 1.558-.349 1.558-1.879v-4.605c0-1.531-.256-1.853-1.558-1.88v-.188h8.234l.12 1.853h-.241l-.054-.201c-.256-.9-.497-1.236-2.028-1.236h-2.647v3.478h1.035c1.572 0 2.014-.175 2.041-1.437h.228v3.289h-.228c-.027-1.288-.456-1.436-2.041-1.436h-1.035v2.121c0 1.584.27 1.88 1.706 1.88h1.478c1.545 0 1.8-.363 2.028-1.236l.054-.201h.242l-.122 1.853h-8.77zm14.143.256c-.819 0-1.423-.269-1.92-.484a3.345 3.345 0 00-.631-.228l-.054-.013-.04.04a1.45 1.45 0 00-.497.685h-.255v-3.061h.268c.336 1.503 1.666 2.631 3.129 2.631 1.089 0 1.774-.618 1.774-1.624 0-.631-.511-1.276-1.29-1.638l-1.558-.752c-1.343-.618-2.163-1.289-2.163-2.725 0-1.182 1.223-2.135 2.741-2.135.967 0 1.491.295 1.934.591l.08.053.068-.053c.175-.135.39-.349.497-.672h.241v3.061h-.241c-.189-1.664-1.074-2.577-2.485-2.577-.712 0-1.464.47-1.464 1.329 0 .497.483 1.222 1.397 1.651l1.584.738c1.304.618 2.056 1.544 2.056 2.551-.027 1.652-1.626 2.632-3.171 2.632zm-107.859-.001c-2.901 0-5.252-2.041-5.252-4.551 0-2.511 2.351-4.551 5.252-4.551 2.888 0 5.239 2.04 5.239 4.551-.014 2.497-2.364 4.551-5.239 4.551zm0-8.659c-2.283 0-3.331 2.121-3.331 4.094 0 1.974 1.034 4.095 3.331 4.095 2.284 0 3.331-2.121 3.331-4.095 0-1.973-1.047-4.094-3.331-4.094zm76.012 8.659c-2.901 0-5.252-2.041-5.252-4.551 0-2.511 2.351-4.551 5.252-4.551 2.888 0 5.239 2.04 5.239 4.551-.014 2.497-2.351 4.551-5.239 4.551zm0-8.659c-2.283 0-3.331 2.121-3.331 4.094 0 1.974 1.034 4.095 3.331 4.095 2.284 0 3.332-2.121 3.332-4.095 0-1.973-1.048-4.094-3.332-4.094zm-8.032 17.897h.389c1.129 0 1.303-.188 1.424-.698l.081-.282h.255l-.107 1.477-5.091-.014v-.295c.873 0 1.021-.202 1.021-1.316v-2c0-1.115-.135-1.302-1.021-1.302v-.296l3.116.014v.295c-.873 0-1.021.188-1.021 1.302v1.839c0 1.088.135 1.276.954 1.276zm-6.179.497l-3.129-.014v-.295c.873 0 1.02-.202 1.02-1.316v-2c0-1.115-.134-1.302-1.02-1.302v-.296l3.116.014v.295c-.873 0-1.021.188-1.021 1.302v1.839c0 1.115.215 1.477 1.034 1.477m14.224-.201h.39c1.128 0 1.303-.188 1.424-.698l.081-.282h.254l-.106 1.477-5.091-.014v-.295c.873 0 1.02-.202 1.02-1.316v-2c0-1.115-.134-1.302-1.02-1.302v-.296l3.116.014v.295c-.873 0-1.021.188-1.021 1.302v1.839c0 1.088.134 1.276.953 1.276zm8.194.416v-.107c.43 0 .645-.081.739-.228.094-.148.027-.363-.053-.538l-.404-.859h-1.921l-.389.859c-.107.242-.121.403-.054.524.095.148.309.215.726.228v.108h-2.069v-.108c.604-.013.832-.174 1.115-.792l1.961-4.269h.108l1.974 4.269c.255.537.389.779 1.115.792v.108h-2.848zm-1.531-1.96h1.693l-.847-1.866z" fill="#212121"/><path d="M105.209 42.73h-2.994v-.255h.066c.39 0 .605-.068.672-.188.081-.121.014-.296-.067-.457l-.39-.819h-1.826l-.376.819c-.121.282-.095.389-.055.457.081.12.283.188.672.188h.067v.255h-2.229v-.255h.067c.564-.014.779-.162 1.047-.752l1.989-4.31h.201l2.001 4.31c.242.523.376.738 1.048.752h.067v.255zm-2.458-.148h1.949c-.418-.107-.551-.376-.753-.792l-1.962-4.216h-.013l-1.947 4.216c-.229.483-.417.698-.766.792h1.182c-.161-.04-.268-.107-.335-.215-.095-.148-.081-.335.04-.604l.416-.899h2.015l.43.899c.093.201.175.43.053.604-.04.094-.134.175-.309.215zm-.188-1.812h-1.934l.967-2.122zm-1.692-.162h1.464l-.726-1.611zm-28.825-1.086l-.887 1.866-.873-1.866-.107-.242-.417-.859c-.08-.175-.161-.376-.067-.537.094-.148.323-.215.766-.228v-.108h-2.942v.108c.739.013.887.255 1.155.792l2.042 4.269h.107l2.042-4.269c.296-.618.537-.792 1.155-.792v-.108h-2.149v.108c.43.013.658.08.752.228.081.121.067.282-.053.537l-.403.859z" fill="#212121"/><path d="M70.877 42.797h-.201l-2.069-4.309c-.255-.524-.389-.739-1.074-.752h-.081v-.255h3.103v.255h-.081c-.403 0-.618.067-.698.188-.081.121-.014.295.067.456l.524 1.101.806 1.719 1.343-2.82c.134-.282.094-.389.054-.456-.081-.121-.296-.188-.685-.188h-.081v-.255h2.297v.255h-.081c-.591.013-.806.161-1.088.752zm-.121-.161l2.029-4.216c.228-.483.429-.698.792-.792h-1.236c.175.041.282.108.35.215.094.148.08.336-.041.604l-1.477 3.115-1.048-2.255-.416-.86c-.094-.201-.175-.429-.054-.604a.57.57 0 01.336-.215h-2.015c.43.108.577.376.779.792zm38.94.188c-.47 0-.833-.148-1.115-.269-.134-.054-.255-.107-.363-.134h-.026l-.027.013a.789.789 0 00-.283.39h-.148v-1.759h.148c.202.872.967 1.517 1.814 1.517.631 0 1.021-.363 1.021-.926 0-.363-.296-.726-.753-.94l-.9-.43c-.779-.362-1.262-.738-1.262-1.571 0-.671.712-1.221 1.585-1.221.564 0 .86.174 1.128.349l.04.027.04-.027c.095-.081.23-.202.283-.39h.135v1.759h-.135c-.108-.953-.618-1.477-1.438-1.477-.416 0-.845.269-.845.766 0 .281.281.711.805.953l.914.429c.752.363 1.182.9 1.182 1.464.026.913-.901 1.477-1.8 1.477z" fill="#212121"/><path d="M109.696 42.891c-.497 0-.86-.161-1.142-.282-.134-.054-.242-.107-.349-.121a.716.716 0 00-.255.349l-.014.054h-.282v-1.92h.296l.013.054c.189.832.941 1.463 1.747 1.463.59 0 .953-.322.953-.859 0-.336-.282-.671-.699-.873l-.913-.429c-.806-.363-1.303-.779-1.303-1.638 0-.725.752-1.302 1.666-1.302.577 0 .9.174 1.168.349a.745.745 0 00.256-.349l.013-.054h.269v1.92h-.282l-.013-.067c-.108-.913-.592-1.41-1.371-1.41-.376 0-.766.242-.766.685 0 .255.269.657.766.886l.913.429c.779.376 1.237.927 1.237 1.544 0 .98-.967 1.571-1.908 1.571zm-1.518-.564l.067.014a3 3 0 01.376.134c.283.121.618.268 1.089.268.859 0 1.746-.537 1.746-1.423 0-.55-.417-1.06-1.142-1.396l-.914-.43c-.564-.255-.846-.711-.846-1.02 0-.55.47-.846.927-.846.819 0 1.357.51 1.504 1.437v-1.558h-.013a.943.943 0 01-.295.363l-.082.067-.093-.054c-.255-.161-.538-.335-1.075-.335-.832 0-1.505.51-1.505 1.154 0 .792.444 1.155 1.21 1.504l.913.429c.484.229.793.618.793 1.007 0 .618-.431 1.007-1.102 1.007-.873 0-1.652-.631-1.88-1.517h-.014v1.611h.014a.878.878 0 01.296-.376zm-82.97-2.201c0-1.531 1.33-2.806 2.982-2.806.618 0 1.29.295 1.679.738.081-.12.134-.349.202-.536h.295v2.148h-.309c-.255-1.155-.913-1.867-1.867-1.867-1.41 0-1.786 1.316-1.786 2.323s.376 2.323 1.786 2.323c.806 0 1.464-.282 1.464-1.007 0-.537-.242-.739-.994-.739v-.295h2.969v.295c-.873 0-1.021.188-1.021 1.303v.469c-.672 0-1.76.47-2.418.47-1.652 0-2.982-1.275-2.982-2.819zm13.513 2.819c-1.719 0-3.13-1.275-3.13-2.819 0-1.531 1.411-2.806 3.13-2.806 1.719 0 3.13 1.275 3.13 2.806.013 1.544-1.397 2.819-3.13 2.819zm0-5.142c-1.437 0-1.948 1.303-1.948 2.323 0 1.034.497 2.323 1.948 2.323 1.464 0 1.961-1.289 1.961-2.323 0-1.02-.497-2.323-1.961-2.323zm9.993 4.444h.551c1.128 0 1.303-.188 1.424-.712l.08-.282h.256l-.108 1.477h-5.252v-.295c.873 0 1.021-.202 1.021-1.316v-2c0-1.115-.148-1.303-1.021-1.303v-.295h3.117v.295c-.874 0-1.021.188-1.021 1.303v1.839c0 1.101.134 1.289.953 1.289zm9.309.188v.295h-3.116v-.295c.873 0 1.02-.202 1.02-1.316v-2c0-1.115-.134-1.303-1.02-1.303v-.295h4.781l.121 1.477h-.268l-.081-.296c-.121-.523-.296-.711-1.424-.711h-1.034v1.759c1.222 0 1.316-.108 1.316-.927h.296v2.336h-.296c0-.819-.094-.926-1.316-.926v.899c0 1.101.148 1.303 1.021 1.303z" fill="#212121"/></svg>