<svg xmlns="http://www.w3.org/2000/svg" width="41" height="72"><path d="M5.066 61.709h-.828c0-.473-.181-.825-.544-1.058-.293-.189-.658-.282-1.094-.282-.407 0-.731.065-.972.193-.361.188-.54.509-.54.964 0 .252.08.446.239.587.116.103.295.184.535.237l1.9.439c.458.109.81.298 1.057.56.287.309.432.709.432 1.202 0 .711-.287 1.242-.864 1.592-.456.274-1.027.412-1.714.412-.546 0-.996-.073-1.355-.22a2.324 2.324 0 01-.656-.422 1.858 1.858 0 01-.519-.757A2.79 2.79 0 010 64.24h.827c0 .544.196.95.589 1.22.316.216.728.323 1.237.323.589 0 1.037-.113 1.345-.341a.91.91 0 00.387-.779c0-.337-.094-.581-.281-.731-.188-.151-.561-.293-1.119-.427l-1.367-.314c-.361-.09-.646-.218-.856-.386-.363-.28-.544-.672-.544-1.176 0-.568.175-1.035.526-1.402.405-.423.986-.632 1.742-.632 1.015 0 1.732.26 2.156.78.283.349.424.794.424 1.334zm7.152 3.873v.79H7.335v-6.591h4.828v.79H8.24v2.018h3.613v.79H8.24v2.205h3.978zm3.042-2.04v2.828h-.905v-6.59h3.061c.627 0 1.125.117 1.493.353.453.296.679.765.679 1.407 0 .438-.098.794-.294 1.062-.128.184-.338.357-.629.515.267.118.448.23.544.341.167.195.253.498.253.91l.053 1.192c0 .189.02.325.061.408.04.083.13.166.273.252v.148h-1.088c-.053-.165-.096-.431-.125-.798a12.202 12.202 0 01-.043-.857c0-.451-.11-.767-.332-.946-.189-.152-.47-.229-.845-.229H15.26zm0-3.011v2.241h2.06c.407 0 .715-.067.923-.201.281-.182.424-.495.424-.938 0-.438-.141-.749-.424-.928-.183-.115-.434-.174-.756-.174zm11.476 5.051v.79h-4.882v-6.591h4.827v.79h-3.922v2.018h3.612v.79h-3.612v2.205h3.977zm6.412-5.801h.864v6.591h-.994l-3.37-5.326-.019 5.326h-.868v-6.591h1.072l3.297 5.322zm8.106 5.801v.79h-4.882v-6.591h4.827v.79h-3.922v2.018h3.613v.79h-3.613v2.205h3.977zm-38.98 5.709c0 .193-.07.351-.206.475a.729.729 0 01-.505.185H.591v-2.278h.9c.196 0 .359.061.493.182.135.12.202.274.202.459a.549.549 0 01-.216.455.568.568 0 01.304.522zm-1.233-1.196v.501h.45a.24.24 0 00.245-.249.24.24 0 00-.245-.25h-.45zm.52 1.437a.259.259 0 00.264-.27.258.258 0 00-.264-.266h-.52v.536zm1.783-.008h.963v.43H2.893v-2.278h1.398v.431h-.947v.485h.866v.422h-.866zm3.109.43l-.137-.41h-.91l-.137.41h-.487l.801-2.278h.558l.803 2.278zm-.905-.83h.628l-.314-.93zm2.093.533a1.147 1.147 0 01-.336-.843c0-.335.11-.617.336-.842.226-.228.509-.342.852-.342.413 0 .786.21.982.536l-.389.226c-.115-.205-.333-.325-.595-.325a.715.715 0 00-.538.209.744.744 0 00-.202.54c0 .217.069.398.202.536.136.14.315.209.538.209.26 0 .486-.124.595-.323l.389.226a1.13 1.13 0 01-.982.536 1.16 1.16 0 01-.852-.343zm3.737-1.981h.448v2.278h-.448v-.944h-.85v.944h-.45v-2.278h.45v.906h.85zm3.639 0h.448v2.278h-.448v-.944h-.85v.944h-.45v-2.278h.45v.906h.85zm2.278 2.322c-.33 0-.611-.114-.841-.341a1.154 1.154 0 01-.343-.843c0-.331.114-.611.343-.838.232-.232.513-.346.841-.346.33 0 .611.114.842.346.232.227.346.507.346.838 0 .333-.114.611-.346.843a1.158 1.158 0 01-.842.341zm0-.439c.21 0 .385-.069.526-.209a.728.728 0 00.212-.536.728.728 0 00-.212-.536.717.717 0 00-.526-.211.717.717 0 00-.526.211.728.728 0 00-.212.536.719.719 0 00.738.745zm3.344-1.883v.431h-.617v1.847h-.451v-1.847h-.613v-.431zm1.027 1.848h.964v.43h-1.414v-2.278h1.398v.431h-.948v.485h.866v.422h-.866zm2.056 0h.872v.43h-1.322v-2.278h.45zm3.503-1.848c.313 0 .574.11.784.329.212.217.316.487.316.81 0 .323-.104.593-.316.81a1.05 1.05 0 01-.784.329h-.909v-2.278zm0 1.848a.634.634 0 00.482-.195.719.719 0 00.186-.514.703.703 0 00-.186-.511.62.62 0 00-.482-.199h-.457v1.419zm3.134.43l-.137-.41h-.911l-.136.41h-.487l.801-2.278h.558l.803 2.278zm-.905-.83h.628l-.314-.93zm3.264-1.448h.451v2.278h-.343l-.98-1.393v1.393h-.45v-2.278h.342l.98 1.389zm2.669 2.278l-.136-.41h-.911l-.136.41h-.487l.8-2.278h.559l.803 2.278zm-.904-.83h.627l-.313-.93zm3.264-1.448h.451v2.278h-.343l-.98-1.393v1.393h-.45v-2.278h.342l.98 1.389zm3.444 1.053v.175c0 .325-.104.588-.314.789-.21.201-.481.303-.809.303-.352 0-.646-.114-.878-.341a1.142 1.142 0 01-.346-.839c0-.331.114-.611.342-.842.232-.232.516-.345.856-.345.428 0 .801.209.996.53l-.385.221c-.108-.185-.342-.315-.613-.315a.724.724 0 00-.748.751c0 .216.071.394.212.534.145.14.334.209.568.209.351 0 .585-.162.667-.432h-.693v-.396h1.145zM29.195 32.713c-.273-1.362-.438-2.678-.817-3.935-.383-1.264-.874-2.521-1.501-3.69-2.729-5.106-6.929-8.903-11.894-11.989-2.374-1.476-4.834-2.838-7.126-4.422C5.44 7.008 3.37 4.97 2.07 2.339 1.732 1.651 1.504.914 1.147 0c-.699 4.097-.102 7.739 2.598 10.793 1.428 1.618 3.122 3.071 4.89 4.352 3.263 2.364 6.745 4.449 9.993 6.826 1.903 1.393 3.599 2.96 4.988 4.755-.057-.051-.112-.102-.171-.15-1.783-1.476-3.929-1.951-6.209-2.012a19.722 19.722 0 00-3.146.182c-.206.029-.409.063-.613.096-1.575-1.105-3.226-2.118-4.901-3.096-2.895-1.695-5.571-3.63-7.284-6.54-.017-.028-.114-.014-.198-.022.006 2.252.648 4.326 2.176 6.018 1.143 1.265 2.474 2.395 3.843 3.443.909.696 1.832 1.37 2.759 2.042.736.536 1.476 1.066 2.211 1.6 1.396 1.017 2.781 2.045 4.11 3.135 2.79 2.288 4.693 5.197 5.172 8.779.165 1.232.136 2.485.203 3.855.976-1.906 1.4-3.813 1.313-5.823-.157-3.587-1.924-6.49-4.341-9.087a26.605 26.605 0 00-2.2-2.105c-.125-.108-.255-.209-.383-.315a33.884 33.884 0 011.357-.162c2.292-.236 4.501.184 6.418 1.516.528.365.989.615 1.518 1.129.459.836.858 1.713 1.186 2.639 1.626 4.611.434 9.408-3.046 12.338-2.029 1.707-4.428 2.718-6.999 3.429-1.991.55-4.006 1.066-5.928 1.795-2.958 1.126-5.491 2.828-7.034 5.613-.204.368-.346.768-.517 1.153l.177.157c3.358-4.274 8.171-5.455 13.345-6.085 2.761-.337 5.517-.962 8.17-1.774 4.161-1.271 7.124-3.915 8.508-7.955.585-1.707 1.025-3.467 1.41-5.228.627-2.864 2.329-4.498 5.347-4.957.405-.061.813-.094 1.377-.157-4.442-1.378-9.031-1.445-12.051 2.536z" fill="#212121"/></svg>