<svg xmlns="http://www.w3.org/2000/svg" width="49" height="72"><path d="M8.202 59.034c-1.275 0-2.311.994-2.311 2.227 0 1.233 1.036 2.227 2.311 2.227a2.36 2.36 0 001.168-.305l.518.424.452-.57-.399-.318c.359-.398.571-.915.571-1.445-.013-1.233-1.049-2.24-2.31-2.24zm.783 2.876l-.465.557.213.186a1.526 1.526 0 01-.544.093c-.864 0-1.554-.663-1.554-1.472 0-.822.69-1.485 1.554-1.485.849 0 1.553.663 1.553 1.485 0 .358-.133.703-.385.968zm5.365-.291c0 .703-.399 1.114-1.076 1.114-.664 0-1.075-.424-1.075-1.114v-2.558h-.744v2.585c0 1.1.73 1.843 1.819 1.843 1.102 0 1.833-.743 1.833-1.843v-2.585h-.757zm3.438-.503l-1.248-2.055h-.876l1.739 2.877v1.524h.757v-1.524l1.753-2.877h-.89zm8.074.914l-2.43-2.97h-.253l-.079-.106v.106h-.213v4.402h.757v-2.97l2.43 2.97h.252l.08.119v-.119h.212V59.06h-.756zm4.647-.914h-1.992v-2.055h-.757v4.401h.757v-1.604h1.992v1.604h.743v-4.401h-.743zm4.01-2.082c-1.275 0-2.311.994-2.311 2.227 0 1.233 1.036 2.227 2.311 2.227 1.274 0 2.31-.994 2.31-2.227-.013-1.22-1.049-2.227-2.31-2.227zm0 3.712c-.863 0-1.554-.663-1.554-1.472 0-.822.691-1.485 1.554-1.485.85 0 1.553.663 1.553 1.485-.013.809-.703 1.472-1.553 1.472zm6.227-3.686v2.97l-2.43-2.97h-.252l-.093-.106v.106h-.199v4.402h.757v-2.97l2.43 2.97h.239l.093.119v-.119h.199V59.06zM25.556 7.304a2.38 2.38 0 01-1.54 3.819c-.079 0-.173.013-.265.026h-.027a4.094 4.094 0 00-2.018.835 4.07 4.07 0 00-1.235 4.839v.013a.599.599 0 01-.186.663.599.599 0 01-.744-.013l-.079-.08-.014-.013a2.98 2.98 0 01-.252-.305c-2.27-2.89-1.752-7.079 1.142-9.346a6.548 6.548 0 012.682-1.259c.014 0 .014 0 .027-.014l.438-.079h.027a2.386 2.386 0 012.044.914zm8.804 11.243a2.39 2.39 0 01-3.346-.411 2.344 2.344 0 01-.478-1.127c0-.08-.014-.172-.027-.265v-.027a4.078 4.078 0 00-.837-2.015 4.083 4.083 0 00-4.846-1.233h-.013a.6.6 0 01-.664-.185.596.596 0 01.013-.743l.08-.079.013-.013a2.74 2.74 0 01.305-.252c2.895-2.267 7.091-1.75 9.361 1.14a6.515 6.515 0 011.262 2.678c0 .013 0 .013.013.026l.08.438v.026a2.367 2.367 0 01-.916 2.042zm-11.233 8.657c-.837-1.074-.691-2.585.332-3.394a2.28 2.28 0 011.128-.464c.093 0 .173-.013.266-.013h.026a3.96 3.96 0 002.005-.809c1.487-1.166 1.899-3.195 1.142-4.905v-.013a.593.593 0 01.173-.676.601.601 0 01.757.026l.079.08.013.013c.094.106.173.199.266.318 2.35 2.996 1.925 7.252-.943 9.492a6.253 6.253 0 01-2.669 1.22h-.026c-.146.026-.292.053-.438.066h-.027c-.77.067-1.567-.278-2.084-.941z" fill="#212121"/><path d="M14.283 16.093a2.388 2.388 0 013.346.411c.266.345.425.729.478 1.127 0 .08.014.172.027.265v.027a4.085 4.085 0 005.683 3.248h.013a.6.6 0 01.664.185.597.597 0 01-.013.743l-.08.079-.013.013a2.662 2.662 0 01-.306.252c-2.894 2.267-7.09 1.75-9.361-1.14a6.531 6.531 0 01-1.261-2.678c0-.013 0-.013-.013-.026l-.08-.438v-.026a2.43 2.43 0 01.916-2.042zm25.268-4.985a2.383 2.383 0 01-3.266.822 2.325 2.325 0 01-.85-.875l-.119-.238s-.014-.013-.014-.027a4.104 4.104 0 00-1.513-1.577 4.086 4.086 0 00-4.966.596l-.014.013a.6.6 0 01-.69.067.593.593 0 01-.252-.703.376.376 0 01.053-.106l.013-.013c.053-.12.119-.226.186-.345 1.885-3.155 5.988-4.189 9.148-2.307a6.572 6.572 0 012.138 2.042c0 .013.013.013.013.026.08.12.16.252.226.372l.013.013a2.395 2.395 0 01-.106 2.24zm-7.887 21.08a2.375 2.375 0 01-.504-4.083c.079-.04.146-.093.212-.146l.013-.013a4.05 4.05 0 001.355-1.711 4.08 4.08 0 00-1.262-4.838l-.013-.014a.584.584 0 01-.146-.676.59.59 0 01.664-.344c.04.013.066.026.106.026l.013.013c.12.04.239.093.372.146 3.386 1.445 4.966 5.356 3.519 8.737a6.661 6.661 0 01-1.74 2.399c0 .013-.013.013-.026.013-.106.093-.226.186-.345.279l-.014.013c-.61.424-1.447.517-2.204.199zM9.755 25.665a2.366 2.366 0 013.054-1.405 2.39 2.39 0 011.009.703c.054.066.107.146.16.212l.013.013a4.063 4.063 0 001.779 1.273c1.793.663 3.731-.014 4.78-1.498l.014-.014a.58.58 0 01.664-.185.6.6 0 01.385.649c0 .04-.014.067-.027.106v.014c-.04.119-.08.252-.119.371a6.676 6.676 0 01-8.565 3.951 6.611 6.611 0 01-2.483-1.618c-.013 0-.013-.013-.026-.026a3.181 3.181 0 01-.292-.332l-.014-.013a2.286 2.286 0 01-.332-2.201zm6.188-22.816a2.396 2.396 0 011.368 3.076 2.51 2.51 0 01-.717.994c-.067.053-.146.106-.213.159l-.013.013a4.035 4.035 0 00-1.301 1.75c-.691 1.777-.053 3.725 1.42 4.799l.014.014a.592.592 0 01.172.662.61.61 0 01-.65.372c-.04-.014-.067-.014-.107-.027h-.013c-.119-.04-.252-.08-.372-.133a6.654 6.654 0 01-3.81-8.617 6.478 6.478 0 011.659-2.452c0-.014.014-.014.027-.027.106-.106.226-.199.332-.291l.013-.014c.598-.45 1.434-.57 2.191-.278z" fill="#212121"/><path d="M37.865 24.578a2.388 2.388 0 01-1.978-2.718c.066-.424.239-.808.504-1.113.067-.066.12-.133.173-.199l.013-.013a3.98 3.98 0 00.903-1.976 4.081 4.081 0 00-2.39-4.388h-.013c-.213-.119-.359-.358-.306-.61a.57.57 0 01.558-.49h.119c.133.013.266.026.386.053a6.668 6.668 0 015.537 7.623 6.684 6.684 0 01-1.103 2.744c0 .013-.013.013-.013.027a3.45 3.45 0 01-.265.344l-.014.013a2.46 2.46 0 01-2.111.703zm-18.974 7.623a2.375 2.375 0 013.465-2.214c.067.053.146.093.226.133 0 0 .013.013.027.013a4.09 4.09 0 005.948-2.731v-.013a.584.584 0 01.545-.424.597.597 0 01.597.45c.013.04.013.067.013.106v.014c.014.132.027.265.027.384.159 3.672-2.696 6.774-6.374 6.934a6.712 6.712 0 01-2.921-.531c-.013 0-.013-.013-.026-.013a5.093 5.093 0 01-.399-.186s-.013 0-.013-.013a2.349 2.349 0 01-1.115-1.909zM9.623 11.825a2.384 2.384 0 012.084 3.553c-.053.066-.093.146-.146.225 0 0-.013.014-.013.027a3.996 3.996 0 00-.571 2.095 4.1 4.1 0 003.067 3.95h.013c.24.08.412.292.412.557 0 .278-.199.53-.478.583-.04 0-.08.014-.106.014h-.013a4.091 4.091 0 01-.399.013c-3.678.013-6.679-2.957-6.692-6.629a6.59 6.59 0 01.651-2.89c0-.013.013-.013.013-.026.066-.133.133-.265.213-.385 0 0 0-.013.013-.013.398-.663 1.128-1.074 1.952-1.074zm21.085-8.458a2.382 2.382 0 01-2.629 2.094c-.425-.053-.823-.198-1.142-.45-.066-.053-.133-.106-.199-.173l-.013-.013a4.127 4.127 0 00-2.032-.809 4.086 4.086 0 00-4.275 2.599v.013a.602.602 0 01-.598.345.581.581 0 01-.518-.531v-.119c0-.132.014-.265.027-.384A6.673 6.673 0 0126.685.052a6.857 6.857 0 012.802.968c.013 0 .013.013.026.013.133.08.252.16.359.252l.013.014c.584.49.916 1.246.823 2.068zM6.144 50.085l-5.033-8.206H.129v12.369H1.47v-9.28l4.674 7.65 4.66-7.637v9.267h1.342V41.879h-.97zm14.951-8.206l-5.59 12.369h1.474l1.487-3.367h6.187l1.501 3.367h1.447l-5.563-12.369zm-2.072 7.742l2.523-5.727 2.55 5.727zm13.305-7.742h-1.341v12.369h1.341zm10.211 0h-.943l-5.59 12.369h1.474l1.487-3.367h6.188l1.5 3.367h1.447zm-3.001 7.742l2.523-5.727 2.549 5.727zM6.104 70.673c0-.517.385-.756.943-.756.239 0 .398.04.571.093v-.04c0-.278-.173-.424-.505-.424-.265 0-.438.04-.65.133l-.173-.504c.265-.106.518-.186.916-.186.372 0 .624.093.797.265.172.173.252.438.252.756v1.365h-.651v-.251c-.159.185-.385.305-.717.305-.411-.04-.783-.292-.783-.756zm1.54-.159v-.12a1.051 1.051 0 00-.425-.092c-.292 0-.464.119-.464.318v.013c0 .186.146.292.358.292.319 0 .531-.159.531-.411zm3.16-.954h-.278v-.544h.278v-.146c0-.251.067-.437.186-.57.12-.119.306-.185.545-.185.212 0 .345.026.478.066v.557a.78.78 0 00-.306-.053c-.159 0-.239.079-.239.252v.093h.545v.543h-.531v1.777h-.664v-1.79zm1.806.954v-1.525h.664v1.313c0 .318.146.477.398.477.266 0 .412-.159.412-.477v-1.313h.664v2.347h-.664v-.332c-.159.199-.358.371-.69.371-.492.014-.784-.318-.784-.861zm2.842.517l.292-.438c.266.186.518.279.743.279.2 0 .279-.066.279-.173v-.013c0-.146-.225-.185-.491-.278-.332-.093-.704-.252-.704-.703v-.013c0-.477.385-.742.863-.742.292 0 .624.106.877.278l-.253.464c-.239-.133-.464-.225-.637-.225-.159 0-.252.066-.252.159v.013c0 .119.225.199.478.278.332.106.717.265.717.703v.013c0 .517-.385.756-.903.756-.332 0-.704-.106-1.009-.358zm2.655-2.889h.704v.596h-.704zm.027.848h.664v2.347h-.664zm1.434 1.192c0-.689.544-1.232 1.275-1.232.73 0 1.274.53 1.274 1.219v.013c0 .677-.544 1.22-1.274 1.22-.731 0-1.275-.543-1.275-1.22zm1.899 0c0-.358-.253-.662-.624-.662-.386 0-.611.291-.611.636v.013c0 .345.252.65.624.65s.611-.279.611-.637zm1.394-1.193h.664v.332c.159-.199.358-.371.69-.371.505 0 .797.331.797.874v1.525h-.664v-1.312c0-.319-.146-.478-.398-.478-.253 0-.412.159-.412.478v1.312h-.664v-2.36zm4.581.001h.664v.477c.132-.318.345-.53.756-.517v.703h-.039c-.439 0-.717.265-.717.835v.875h-.664zm1.991 1.192c0-.676.478-1.232 1.169-1.232.783 0 1.142.609 1.142 1.272 0 .053 0 .106-.013.173h-1.634c.067.304.279.464.571.464.226 0 .385-.067.571-.239l.385.331c-.225.279-.531.438-.956.438-.717.013-1.235-.491-1.235-1.207zm1.66-.198c-.04-.292-.212-.504-.491-.504s-.452.199-.505.504zm1.222 1.047l.292-.438c.266.186.518.279.744.279.199 0 .279-.066.279-.173v-.013c0-.146-.226-.185-.492-.278-.332-.093-.704-.252-.704-.703v-.013c0-.477.386-.742.864-.742.292 0 .624.106.876.278l-.252.464c-.239-.133-.465-.225-.638-.225-.159 0-.252.066-.252.159v.013c0 .119.226.199.478.278.332.106.717.265.717.703v.013c0 .517-.385.756-.903.756-.332 0-.69-.106-1.009-.358zm2.536-.849c0-.689.544-1.232 1.275-1.232.73 0 1.274.53 1.274 1.219v.013c0 .677-.544 1.22-1.274 1.22-.731 0-1.275-.543-1.275-1.22zm1.885 0c0-.358-.252-.662-.624-.662-.385 0-.611.291-.611.636v.013c0 .345.253.65.625.65.385 0 .61-.279.61-.637zm1.408-1.192h.664v.477c.133-.318.345-.53.757-.517v.703h-.04c-.438 0-.717.265-.717.835v.875h-.664zm2.204 1.697v-1.113h-.279v-.571h.279v-.596h.664v.596h.558v.571h-.558v1.007c0 .159.066.225.212.225.12 0 .226-.026.332-.079v.53c-.146.08-.305.133-.531.133-.398 0-.677-.159-.677-.703z" fill="#212121"/></svg>