<svg xmlns="http://www.w3.org/2000/svg" width="65" height="60"><path d="M0 60V0h65v60z" fill="transparent"/><path d="M40.948 14.263a2.577 2.577 0 000 .569c-.156.01-.307.037-.457.063a.652.652 0 00.078-.095c.13-.179.265-.353.379-.537zm2.566.879c.514 2.503.675 5.127.477 7.672a36.878 36.878 0 01-1.059-.032c-.421-.01-.836-.053-1.252-.105-.021-.453-.068-.896-.109-1.328-.041-.4-.088-.806-.145-1.217.311-.09.586-.274.696-.553.14-.348.202-.696.187-1.028.633-.042 1.287-.574.966-1.185a2.595 2.595 0 00-.468-.632c.348-.143.623-.39.628-.696 0-.295.079-.585.068-.869 0-.005.005-.016.011-.027zm3.105-5.353c.057-.037.109-.074.167-.111.015.043.02.09.041.132a3.257 3.257 0 00-.208-.021z" fill="#212121"/><path d="M40.387 11.48h.015c-1.142.738-1.947 2.003-1.646 3.272.083.364.462.501.862.48a2.937 2.937 0 00-.664.537c-1.06-.211-2.182.222-2.982 1.022-.26.259-.202.685.083.891a.88.88 0 00.411.158c-.297.432-.442.943-.333 1.48.115.538.847.585 1.366.385.057.242.145.485.281.722.223.39.825.405 1.303.2.073.585.12 1.17.13 1.76-.254-.037-.514-.069-.774-.111-.826-.126-1.641-.29-2.467-.416-1.304-.2-2.618-.39-3.926-.585l-3.236-.474c-1.137-.169-2.28-.337-3.423-.495-1.21-.164-2.415-.327-3.63-.459-.925-.1-1.854-.174-2.774-.232-1.21-.073-2.42-.089-3.62.027a15.054 15.054 0 01-.036-1.086C15.317 8.314 23.938 0 34.57 0a19.7 19.7 0 0110.138 2.777c.166.105.338.205.499.316.618.39 1.205.822 1.771 1.285-1.564.506-2.633 1.676-3.085 3.267-.198.69 1.36.327 1.599.163.296-.195.691-.342.982-.564.01 0 .021-.005.026-.01.348-.158.758-.269 1.111-.453.016 0 .021-.005.037-.005-.099.094-.208.194-.302.3a3.053 3.053 0 00-.441.669c-1.496-.1-2.924.564-3.755 1.76-1.662-.575-3.516.026-4.789 1.322-.259.264-.208.659.073.875.322.237.862.2 1.205.026.244-.121.499-.179.748-.248zm8.585 1.539c-.197.875-.41 1.744-.644 2.608a54.442 54.442 0 01-1.485 4.689 46.29 46.29 0 00-.156-1.733 45.96 45.96 0 00-.343-2.724c.504.095 1.138-.137 1.319-.58.348-.853.411-1.712.063-2.465.166.058.342.105.493.174.218.105.499.105.753.031zm-.213-6.923l-.083.01.021-.079.016-.058.114.116c-.026.011-.042.011-.068.011zm.592 4.436c.047-.247.161-.511.224-.774a40.141 40.141 0 01-.255 1.559 4.384 4.384 0 00-.312-.384c.188-.116.317-.253.343-.401zm.26-1.017c.005-.042.016-.089.01-.132a1.321 1.321 0 00-.041-.221c.031-.021.057-.047.088-.074-.021.148-.031.285-.057.427zm4.217 9.052c0 1.033-.088 2.039-.254 3.024-.358.085-.717.174-1.08.248a63.869 63.869 0 01-3.273.611c.494-1.27.894-2.587 1.262-3.878a58.346 58.346 0 001.668-7.597 17.981 17.981 0 011.677 7.592z" fill="#212121"/><path d="M48.827 6.091c-.021.005-.042.005-.062.01l-.084.011.021-.079.016-.058c.031.037.072.074.109.116zm3.661 17.692c-2.041.432-4.103.811-6.191.938-1.116.068-2.249.042-3.365.005-.779-.026-1.558-.142-2.332-.227a50.28 50.28 0 01-2.171-.274c-.826-.126-1.641-.289-2.467-.416-1.304-.2-2.618-.39-3.927-.585l-3.236-.474c-1.137-.169-2.28-.337-3.422-.495a137.39 137.39 0 00-3.631-.459 62.29 62.29 0 00-2.773-.231c-1.21-.074-2.42-.09-3.62.026-.307.026-.608.063-.914.105a39.335 39.335 0 00-3.122.564c-.976.221-1.953.48-2.898.811-1.501.533-2.888 1.302-4.233 2.15-.384.242-.732.532-1.101.801l.042.037c.192-.095.384-.216.587-.285 1.412-.5 2.82-.995 4.238-1.48a21.707 21.707 0 016.404-1.159c.384-.016.768-.016 1.153-.021.851-.006 1.698.015 2.545.058 1.137.052 2.274.142 3.396.31 1.626.248 3.236.569 4.846.88 1.361.258 2.711.569 4.072.827a56.184 56.184 0 007.136.907c1.143.073 2.296.131 3.433.105a59.747 59.747 0 004.441-.263 22.99 22.99 0 003.184-.517c1.714-.405 3.376-1.006 4.976-1.733.01-.053.02-.111.025-.163-.353.089-.711.184-1.075.258z" fill="#212121"/><path d="M5.859 26.897c2.191-.996 4.451-1.744 6.824-2.108.8-.121 1.626-.147 2.436-.163.899-.021 1.808-.048 2.701.037 1.195.11 2.389.284 3.568.511 1.704.326 3.397.727 5.095 1.09 1.527.332 3.059.664 4.586.98 1.818.38 3.631.78 5.459 1.091 1.459.248 2.929.453 4.404.548 1.33.084 2.675.058 4.005-.026a29.223 29.223 0 006.559-1.165 7.54 7.54 0 011.34-.3c-.509.221-1.012.453-1.527.658a31.83 31.83 0 01-5.11 1.523c-1.881.4-3.781.49-5.698.453-1.153-.021-2.306-.053-3.459-.079-1.485-.026-2.95-.221-4.404-.521a268.685 268.685 0 01-6.399-1.376c-1.48-.342-2.934-.79-4.409-1.153-1.86-.464-3.756-.733-5.667-.886-1.459-.115-2.929-.142-4.383.011-1.958.205-3.917.4-5.833.88-.021.01-.057 0-.088-.005z" fill="#212121"/><path d="M32.659 26.507c1.402.132 2.809.311 4.217.384 1.366.074 2.732.074 4.098.053a29.05 29.05 0 002.945-.2 49.571 49.571 0 003.293-.506c1.163-.216 2.306-.511 3.469-.727 1.262-.226 2.529-.443 3.802-.585 1.267-.142 2.54-.089 3.812-.005 1.096.074 2.176.216 3.22.543.894.279 1.771.59 2.654.901.291.105.566.253.831.374-.841-.179-1.703-.364-2.566-.543-1.662-.348-3.339-.411-5.032-.379-1.439.026-2.872.084-4.285.379-1.631.342-3.257.722-4.893 1.033-1.62.311-3.241.642-4.877.827-2.851.321-5.661-.048-8.419-.801-.763-.211-1.516-.453-2.275-.685zm-.634 3.83c-.67.084-1.34.174-2.015.247-2.737.285-5.391-.237-8.04-.795a244.22 244.22 0 00-4.072-.811c-1.792-.353-3.615-.496-5.438-.612-2.623-.168-5.199.185-7.765.648-.633.116-1.262.232-1.921.285.441-.179.882-.358 1.329-.532 1.678-.648 3.402-1.122 5.194-1.328.846-.095 1.709-.079 2.56-.047.972.031 1.943.1 2.904.221 1.47.19 2.929.427 4.394.664.867.142 1.734.326 2.597.5 1.345.274 2.68.59 4.03.828 1.132.194 2.275.321 3.417.437.935.095 1.881.132 2.821.2-.006.026 0 .063.005.095zM52.603 5.369a6.403 6.403 0 011.22-1.017l-.779-.5 1.044.347c.286-.147.576-.252.883-.321l-.722-.532 1.08.479c.525-.052 1.086.011 1.704.222-2.176-1.539-4.477-1.154-5.817.39-.681-1.228-2.815-3.272-5.526-1.887 0 0 .566.095 1.288.332l.69-.326-.259.484c.218.085.441.185.665.295.306-.142.732-.295.732-.295l-.39.48c.187.11.369.226.535.358.348.026.8.079.8.079l-.431.258c.177.19.327.395.441.617 0 0-3.817-1.244-4.871 2.697 0 0 .353-.242.94-.537l.488-1.038-.187.89c.307-.142.654-.289 1.039-.421l.555-.927-.072.774c.26-.074.53-.137.805-.19l.524-.843-.213.796c.38-.053.774-.084 1.18-.074 0 0-3.901 1.46-1.569 4.689 0 0 .078-.442.27-1.011-.124-.39-.322-1.022-.322-1.022l.602.31a6.44 6.44 0 01.255-.495l-.343-.785.567.437c.15-.21.321-.4.513-.558l.016-.906.333.674a1.71 1.71 0 01.586-.19c-.296 4.532-2.15 12.219-5.058 17.698l1.189.4c2.244-3.756 4.576-13.714 4.503-17.871.057.042.114.084.182.132l.228-.633.109.896c.224.185.473.406.722.659.078-.353.193-.891.193-.891l.197 1.312c.187.222.369.464.53.722l.431-.753-.208 1.153c.166.327.291.675.364 1.044.457-1.275.462-3.694-1.886-4.368.234-.053.473-.084.712-.095l.187-.706.452.722c.374.037.753.116 1.132.253l-.462-.901 1.059 1.154c.25.126.504.274.753.448.037-.238.099-.664.099-.664l.358 1.006c.213.174.426.364.639.574.104-1.854-2.825-3.804-4.679-3.024z" fill="#212121"/><path d="M44.448 12.73c.109.01.213.037.312.068l.135-.558.161.695c.166.1.327.227.473.369l.348-.406-.125.643c.099.116.187.232.27.353l.395-.311s-.042.511-.073.827c.234.417.364.749.364.749 1.199-2.767-1.932-3.415-1.932-3.415.295-.058.592-.084.883-.084l-.291-.585.524.585c.213.005.426.021.629.048l-.182-.591.566.643c.306.053.592.121.841.195l-.285-.664s.291.401.529.738c.483.153.785.295.785.295-1.429-2.903-4.057-1.48-4.057-1.48.047-.19.125-.364.224-.533l-.364-.142s.327-.095.582-.158a3.51 3.51 0 01.337-.342l-.368-.322s.342.063.592.137c.145-.11.296-.216.446-.305l-.27-.338.566.169c.494-.274.899-.416.899-.416-2.239-.733-3.485 1.101-3.786 2.128-1.252-1.022-3.018-1.032-4.379.411a2.91 2.91 0 011.226-.379l.722-.501-.446.501c.238.01.472.058.706.137l.717-.395-.494.479c.353.148.706.358 1.07.632-1.501-.368-3.355 1.486-2.961 2.893.12-.19.25-.364.38-.522l.103-.816s.115.316.182.495c.156-.163.317-.311.483-.437l.598-1.017-.193.748c.26-.153.53-.258.8-.332l.218-.611.255.521a3.06 3.06 0 01.54-.015c-1.626.806-1.226 2.666-.675 3.588-.011-.29.031-.575.099-.849l-.343-.864.447.527c.077-.216.171-.427.275-.622l-.073-1.032s.171.4.286.664c.14-.227.29-.427.426-.596l-.068-.7.275.458c.104-.121.193-.211.255-.269.872 2.93 1.418 8.161.711 12.208l.92.01c.659-2.861-.13-9.773-1.19-12.307z" fill="#212121"/><path d="M40.013 16.939c.026-.111.073-.211.13-.305l-.208-.085s.192-.058.337-.089c.058-.069.125-.137.198-.201l-.218-.189s.197.037.343.079a2.78 2.78 0 01.259-.179l-.155-.195.327.095c.285-.159.524-.243.524-.243-1.298-.427-2.025.638-2.202 1.238-.727-.595-1.756-.6-2.545.243.244-.137.483-.206.712-.222l.42-.289-.259.289c.135.006.275.037.41.079l.416-.231-.286.279c.202.084.41.211.623.369-.873-.216-1.948.864-1.719 1.68.072-.11.145-.21.218-.3l.057-.474s.068.184.104.29a2.93 2.93 0 01.281-.253l.347-.59-.114.432c.151-.09.307-.153.462-.195l.125-.353.151.3c.104-.01.207-.016.316-.01-.945.468-.711 1.549-.394 2.086a1.7 1.7 0 01.057-.49l-.197-.501.259.306c.047-.126.099-.248.161-.364l-.041-.6s.098.232.166.384c.083-.131.171-.247.249-.342l-.036-.406s.093.158.161.269c.062-.068.114-.121.151-.158.508 1.702.825 4.742.415 7.092l.535.005c.384-1.67-.073-5.69-.691-7.155a.776.776 0 01.187.042l.078-.327.093.401c.099.058.193.132.276.211l.203-.237-.073.374c.057.063.109.137.155.205l.229-.179-.041.479c.134.243.212.432.212.432.696-1.606-1.122-1.981-1.122-1.981.172-.031.343-.047.515-.052l-.166-.337.306.337a3.8 3.8 0 01.364.026l-.109-.342.327.374c.176.031.343.073.488.116l-.166-.385.306.427c.28.089.457.174.457.174-.841-1.681-2.368-.854-2.368-.854zM11.219 36.654c-.79-.563-1.917-.832-3.376-.832H3.911v11.259H5.22v-4.035h2.482c1.361 0 2.467-.269 3.319-.817.977-.617 1.475-1.57 1.47-2.782 0-.084 0-.169-.005-.258-.052-1.112-.478-1.971-1.267-2.535zm-.068 3.209c-.125.691-.457 1.186-1.023 1.528-.561.343-1.366.522-2.41.522H5.22v-4.942h2.81c1.033 0 1.812.226 2.358.653.545.432.81.985.815 1.712.005.169-.016.343-.052.527zm10.263.843h-6.856v-4.889h-1.309v11.259h1.309v-5.912l3.428 1.17 3.428-1.17v5.912h1.309V35.817h-1.309zm11.245-7.797l-.146-.143-.634-.627-3.194 1.897.67.611zm-.437 2.908v6.559c0 1.07-.182 1.881-.53 2.434-.415.648-1.08 1.054-2.036 1.212-.207.037-.41.053-.618.053-.202 0-.405-.016-.607-.053-.961-.158-1.626-.564-2.036-1.212-.348-.553-.53-1.364-.53-2.434v-6.559h-1.324v6.833c0 1.312.301 2.36.914 3.135.612.775 1.537 1.254 2.737 1.444.285.047.571.068.857.068.285 0 .571-.021.851-.068 1.2-.195 2.119-.68 2.738-1.449.613-.775.914-1.823.914-3.125v-6.838zm15.654 4.889H41.02v-4.889h-1.308v11.259h1.308v-5.912l3.428 1.17 3.428-1.17v5.912h1.314V35.817h-1.314zm7.209-8.367a.757.757 0 01.473-.147c.083 0 .171.021.259.063.203.1.276.216.281.401l-.011.105c-.01.079-.062.174-.186.279l-.006.006-.13.131-.197.169-.005.005-.052.053c-.213.216-.312.521-.307.895v.353l.697-.174.025-.147v-.137c0-.316.125-.564.39-.78l.192-.158c.301-.242.473-.522.473-.817a.852.852 0 00-.395-.753 1.224 1.224 0 00-.685-.211c-.052 0-.104.006-.156.011-.083.01-.146.016-.187.026-.509.1-.873.353-1.024.754l-.01.021v1.038l.224-.511a1.05 1.05 0 01.337-.475zm-5.806 14.737h1.584l2.295-4.157 2.602 1.138 2.613-1.127 2.238 4.146h1.584l-6.456-11.775zm6.476-9.041l2.368 4.41h-4.757zm6.534-2.218v11.259h1.309V35.817zM6.409 52.629c0 .3-.104.553-.311.753-.208.2-.457.301-.759.301H3.818v-3.689H5.23c.291 0 .54.101.738.296a.972.972 0 01.306.727.902.902 0 01-.363.753.941.941 0 01.498.859zm-2.01-2.06v.969h.831c.26 0 .457-.21.457-.484s-.197-.485-.457-.485zm.945 2.545c.271 0 .483-.227.483-.517 0-.289-.212-.516-.483-.516h-.945v1.033zm2.717-.011H9.64v.58H7.479v-3.689h2.13v.58H8.056v.959h1.423v.574H8.056v.996zm5.033.58l-.25-.743h-1.516l-.25.743h-.633l1.293-3.689h.701l1.288 3.689zm-1.569-1.312h1.127l-.566-1.665zm3.355.832c-.353-.369-.53-.822-.53-1.364 0-.543.177-.996.53-1.36.353-.369.8-.553 1.335-.553.644 0 1.226.337 1.532.88l-.509.306c-.187-.364-.576-.596-1.023-.596-.379 0-.686.127-.924.374-.234.248-.354.564-.354.949 0 .384.12.7.354.948.238.248.545.374.924.374.447 0 .841-.232 1.023-.595l.509.3a1.704 1.704 0 01-.633.648 1.75 1.75 0 01-.894.237c-.54 0-.987-.184-1.34-.548zM20.895 50h.587v3.688h-.587v-1.596h-1.527v1.596h-.587V50h.587v1.512h1.527zm5.708 3.683l-.754-1.344h-.69v1.344h-.587v-3.689h1.423c.322 0 .592.116.81.348.223.227.338.506.338.838 0 .469-.286.896-.707 1.07l.811 1.433zm-1.449-3.114v1.233h.841c.312 0 .561-.274.561-.617 0-.342-.249-.616-.561-.616zm3.677 2.534h1.579v.58h-2.161v-3.689h2.135v.58h-1.553v.959h1.423v.574h-1.423zm2.477-.258l.504-.306c.14.417.436.622.883.622.441 0 .659-.195.659-.485a.391.391 0 00-.176-.342c-.115-.079-.333-.169-.629-.264-.342-.105-.509-.173-.748-.337-.228-.168-.348-.411-.348-.743 0-.326.115-.584.338-.774.223-.195.493-.29.81-.29.571 0 1.013.306 1.242.812l-.494.295c-.145-.343-.395-.517-.748-.517-.342 0-.561.179-.561.458 0 .275.172.401.717.575.135.047.234.079.296.105.068.021.151.058.265.106.119.047.203.1.26.147.187.153.389.406.368.759 0 .332-.119.6-.353.795-.228.195-.535.29-.909.29-.69 0-1.189-.342-1.376-.906zm5.365.906c-.514 0-.95-.184-1.314-.553a1.892 1.892 0 01-.535-1.359c0-.533.177-.986.535-1.354.364-.375.8-.559 1.314-.559.515 0 .951.184 1.309.559.364.368.54.821.54 1.354 0 .532-.176.985-.54 1.359a1.754 1.754 0 01-1.309.553zm0-.59c.359 0 .655-.126.894-.374.244-.253.368-.569.368-.948 0-.38-.124-.696-.368-.944a1.187 1.187 0 00-.894-.379c-.358 0-.654.127-.898.379a1.311 1.311 0 00-.364.944c0 .379.125.695.364.948a1.2 1.2 0 00.898.374zm4.966.522l-.754-1.344h-.69v1.344h-.587v-3.689h1.423c.322 0 .592.116.81.348.223.227.338.506.338.838 0 .469-.286.896-.707 1.07l.811 1.433zm-1.444-3.114v1.233h.836c.311 0 .561-.274.561-.617 0-.342-.25-.616-.561-.616zM45.513 50v.58h-1.002v3.108h-.587V50.58h-1.008V50zm5.739 3.498l-.472.285-.343-.38a1.513 1.513 0 01-.992.348c-.364 0-.655-.095-.883-.29-.224-.195-.338-.458-.338-.79 0-.442.218-.832.624-1.059a1.091 1.091 0 01-.203-.643.98.98 0 01.312-.753c.207-.195.467-.29.773-.29.489 0 .909.279 1.102.769l-.499.295c-.099-.295-.317-.474-.597-.474-.286 0-.504.19-.504.469 0 .074.016.148.047.221.062.148.119.216.259.369l.863.97c.088-.179.145-.395.181-.643l.499.295a2.406 2.406 0 01-.296.78zm-1.189-.505l-.873-.975c-.249.132-.374.332-.374.606 0 .342.239.563.66.563a.912.912 0 00.587-.194zm3.854-.148l.503-.306c.141.417.437.622.883.622.442 0 .66-.195.66-.485a.39.39 0 00-.177-.342c-.114-.079-.332-.169-.628-.264-.343-.105-.509-.173-.748-.337-.229-.168-.348-.411-.348-.743 0-.326.114-.584.338-.774.223-.195.493-.29.81-.29.571 0 1.013.306 1.241.812l-.493.295c-.146-.343-.395-.517-.748-.517-.343 0-.561.179-.561.458 0 .275.171.401.717.575.135.047.233.079.296.105.067.021.15.058.264.106.12.047.203.1.26.147.187.153.39.406.369.759 0 .332-.12.6-.353.795-.229.195-.535.29-.909.29-.691 0-1.19-.342-1.376-.906zM58.897 50c.338 0 .613.116.842.348.228.232.343.521.343.864 0 .342-.115.627-.343.864a1.12 1.12 0 01-.842.348h-.727v1.264h-.587V50zm0 1.849c.348 0 .598-.268.598-.643 0-.374-.25-.642-.598-.642h-.727v1.285zm4.207 1.834l-.249-.743h-1.517l-.249.743h-.634l1.294-3.689h.701l1.288 3.689zm-1.573-1.312h1.127l-.567-1.665zm-42.418 3.946c.338 0 .613.116.842.348.228.232.342.522.342.864 0 .343-.114.627-.342.864a1.12 1.12 0 01-.842.348h-.727v1.265h-.587v-3.689zm0 1.855c.348 0 .597-.269.597-.643s-.249-.643-.597-.643h-.727v1.286zm4.353-1.855h.586v3.689h-.586v-1.597h-1.527v1.597h-.587v-3.689h.587v1.513h1.527zM27.636 60l-.249-.743H25.87l-.249.743h-.634l1.293-3.688h.702L28.27 60zm-1.568-1.307h1.127l-.567-1.665zm5.271-2.376h.587v3.689h-.457l-1.678-2.503v2.503h-.586v-3.689h.457l1.677 2.503zm5.994 0v.58H36.33v3.109h-.586v-3.109h-1.008v-.58zm3.095 0h.587v3.689h-.587v-1.597h-1.527v1.597h-.587v-3.689h.587v1.513h1.527zm1.854 0h.587v3.689h-.587zm2.436 3.103h1.579V60h-2.16v-3.688h2.134v.579h-1.553v.959h1.423v.575h-1.423zm4.981-3.103v.58h-1.002v3.109h-.587v-3.109h-1.002v-.58z" fill="#212121"/></svg>