<svg xmlns="http://www.w3.org/2000/svg" width="88" height="60"><path d="M7.448 50.816l-5.24-5.475v2.082c0 1.378.053 2.359.106 2.571.105.345.237.478 1.224.504v.186c-.474-.013-.948-.027-1.409-.027-.46 0-.934.014-1.421.027v-.172c.697-.014.895-.186.987-.478.092-.278.092-1.233.092-2.611v-2.506c-.487-.504-.724-.716-1.158-.888v-.173c.289.014.592.027.908.027.619 0 1.211-.027 1.725-.053.671.809 2.567 3.023 3.818 4.255v-.967c0-1.379-.04-2.36-.119-2.572-.132-.332-.25-.477-1.224-.504v-.186c.46.014.934.027 1.408.027.461 0 .817-.013 1.317-.027v.173c-.606.013-.803.185-.882.477-.106.278-.106 1.233-.092 2.612l.013 3.685zm7.333-2.943c0 1.643-1.461 2.89-3.08 2.89-1.62 0-3.081-1.207-3.081-2.864 0-1.644 1.461-2.89 3.081-2.89 1.606 0 3.08 1.206 3.08 2.864zm-1.58.039c0-1.591-.632-2.664-1.5-2.664-.869 0-1.501 1.02-1.501 2.625 0 1.59.632 2.664 1.501 2.664.868 0 1.5-1.034 1.5-2.625zm7.241 2.919c-.908 0-1.422-.239-1.817-.783-.408-.556-.631-1.365-.79-1.895l-.75-.04c0 1.379.013 1.896.079 2.108.066.199.198.305.671.318v.146a46.88 46.88 0 00-1.408-.014c-.5 0-1.014.014-1.409.014v-.146c.474-.013.606-.119.672-.318.079-.212.079-.756.079-2.214v-.252c0-1.458-.014-1.989-.079-2.214-.066-.199-.224-.305-.698-.318v-.146c.329.013.724.013 1.145.013.579 0 1.146-.04 1.659-.04 1.369 0 2.33.491 2.33 1.499 0 .782-.684 1.233-1.303 1.365.329.597.882 1.405 1.198 1.737.487.503.908.888 1.461.888v.053c-.224.119-.684.239-1.04.239zm-3.37-2.904l.856-.04c.289-.013.79-.49.79-1.246 0-.795-.488-1.299-1.198-1.299-.119 0-.435.04-.435.04-.013.57-.013 1.22-.013 2.333z" fill="#212121"/><path d="M24.3 50.684c-.514-.013-1.093-.013-1.62-.013-.526 0-1.027.013-1.421.013v-.146c.473-.013.605-.119.671-.318.079-.212.079-.755.079-2.214v-.252c0-1.458-.013-1.988-.079-2.214-.066-.198-.211-.304-.698-.318v-.146h2.37c1.817 0 2.185-.053 2.185-.053.027.663.053 1.207.119 1.724l-.079.013c-.264-.862-.54-1.432-1.738-1.432-.303 0-.435.014-.724.093-.026.597-.04 1.153-.04 2.307v.053h.343c.855-.013 1.053-.186 1.079-.849h.145c-.013.305-.026.597-.026.968s.013.663.026.968h-.145c-.026-.663-.21-.848-1.079-.848l-.343-.014c0 1.127.014 1.949.066 2.121.066.252.211.372.922.398v.159zm7.951-2.811c0 1.643-1.461 2.89-3.08 2.89-1.62 0-3.081-1.207-3.081-2.864 0-1.644 1.461-2.89 3.081-2.89 1.619 0 3.08 1.206 3.08 2.864zm-1.58.039c0-1.591-.632-2.664-1.5-2.664-.869 0-1.501 1.02-1.501 2.625 0 1.59.632 2.664 1.501 2.664.868 0 1.5-1.034 1.5-2.625zm1.817 2.626c.474-.014.606-.12.672-.318.079-.213.079-.756.079-2.214v-.252c0-1.459-.014-1.989-.079-2.214-.066-.199-.198-.305-.672-.318v-.146c.395.013.909.013 1.409.013s1.014-.013 1.409-.013v.146c-.474.013-.606.119-.672.318-.079.212-.079.755-.079 2.214v1.922c0 .57.5.689 1.119.689.79 0 1.369-.464 1.804-1.789l.105.026a21.986 21.986 0 00-.25 2.081c-1.369-.013-2.291-.013-3.015-.013-.724 0-1.237.013-1.817.013v-.145zm11.572.147c-.5-.014-.987-.014-1.461-.014-.461 0-.908.014-1.317.014v-.146c.277-.027.356-.093.356-.212 0-.08-.04-.159-.092-.252l-1.106-1.71c-.277-.438-.487-.531-.658-.531v.186c0 1.458.013 1.989.079 2.214.065.199.197.305.671.318v.146c-.395-.013-.908-.013-1.409-.013-.5 0-1.013.013-1.408.013v-.146c.474-.013.605-.119.671-.318.079-.212.079-.756.079-2.214v-.252c0-1.458-.013-1.988-.079-2.214-.066-.199-.197-.305-.671-.318v-.146c.395.013.908.013 1.408.013.501 0 1.014-.013 1.409-.013v.146c-.474.013-.606.119-.671.318-.079.212-.079.756-.079 2.148.21 0 .434-.053.75-.371l1.606-1.631c.105-.106.171-.199.171-.265 0-.106-.079-.159-.711-.186v-.146c.369.014.698.014 1.027.014.329 0 .659-.014 1.027-.014v.146c-.461.04-.724.186-1.237.676l-1.291 1.22 2.001 2.824c.33.464.514.557.922.583v.133zm5.661.011h-.065l-2.212-5.939-.5 4.574c-.027.159-.027.331-.027.464 0 .57.237.689 1.146.716v.172c-.527-.013-.988-.026-1.409-.026-.421 0-.803.013-1.172.026v-.159c.724-.026.922-.331 1.027-1.087l.54-4.189c.013-.12.026-.239.026-.358 0-.597-.184-.862-.961-.862v-.172c.395.013.935.013 1.448.013.514 0 1.014-.013 1.343-.026l1.475 4.149 1.421-4.149c.316.013.817.026 1.422.026.382 0 .817 0 1.291-.013v.172c-.817 0-.975.279-.975.862 0 .106.013.252.027.358l.46 4.163c.093.822.185 1.073.975 1.1v.172a65.016 65.016 0 00-1.778-.026c-.658 0-1.29.013-1.685.026v-.172c.698-.027.83-.172.83-.623 0-.133-.014-.292-.027-.477l-.5-4.614zm11.23-.011c-.237-.014-.75-.014-1.29-.014s-1.119.014-1.488.014v-.146c.501-.027.659-.067.659-.332 0-.159-.079-.397-.185-.729l-.355-1.021h-1.527l-.343.981c-.118.332-.184.571-.184.73 0 .304.184.344.751.358v.145c-.369-.013-.698-.013-1.014-.013-.303 0-.658.013-.922.013v-.132c.553-.014.685-.186.922-.849l1.409-3.831-.145-.411c.434-.08 1-.358 1.25-.544 0 0 .277 1.008.685 2.108l.974 2.665c.237.65.316.862.83.862v.146zM58.2 48.232l-.698-1.975-.671 1.975zm8.346 2.558l-4.291-4.481v1.697c0 1.127.039 1.922.092 2.108.079.278.197.397 1 .411v.145c-.395-.013-.776-.013-1.145-.013-.382 0-.764.013-1.159.013v-.145c.567-.014.724-.146.803-.398.08-.226.08-1.008.08-2.135v-2.054c-.395-.411-.593-.584-.948-.73v-.145c.237.013.487.013.75.013.5 0 1.001-.013 1.422-.04.553.663 2.093 2.466 3.12 3.487v-.796c0-1.127-.04-1.922-.105-2.108-.106-.278-.211-.397-1.001-.411v-.145c.382.013.764.013 1.145.013.369 0 .672-.013 1.08-.013v.145c-.5.014-.658.146-.724.398-.079.226-.079 1.008-.079 2.135l.013 3.022zm1.014-.596l-.105-1.326.079-.04c.303 1.087.961 1.631 1.777 1.631.593 0 1.001-.345 1.001-.915 0-1.18-2.607-.941-2.607-2.824 0-1.034.948-1.697 2.027-1.697.58 0 1.106.186 1.488.478l.105 1.166-.092.014c-.237-.822-.724-1.379-1.527-1.379-.487 0-.843.318-.843.822 0 1.193 2.673 1.021 2.673 2.877 0 1.087-.974 1.763-2.185 1.763-.672 0-1.396-.239-1.791-.57zm6.306-2.174c0 1.458.013 1.989.079 2.214.066.199.198.305.672.318v.146c-.395-.013-.909-.013-1.409-.013s-1.014.013-1.409.013v-.146c.474-.013.606-.119.672-.318.079-.212.079-.756.079-2.214v-.252c0-1.458-.014-1.988-.079-2.214-.066-.199-.198-.305-.672-.318v-.146c.395.013.909.013 1.409.013s1.014-.013 1.409-.013v.146c-.474.013-.606.119-.672.318-.079.212-.079.756-.079 2.214zm7.149-.147c0 1.643-1.462 2.89-3.081 2.89s-3.08-1.207-3.08-2.864c0-1.644 1.461-2.89 3.08-2.89s3.081 1.206 3.081 2.864zm-1.58.039c0-1.591-.632-2.664-1.501-2.664-.869 0-1.501 1.02-1.501 2.625 0 1.59.632 2.664 1.501 2.664.869 0 1.501-1.034 1.501-2.625zm7.32 2.878l-4.292-4.481v1.697c0 1.127.039 1.922.092 2.108.079.278.198.397 1.001.411v.145c-.395-.013-.777-.013-1.146-.013-.382 0-.763.013-1.158.013v-.145c.566-.014.724-.146.803-.398.079-.226.079-1.008.079-2.135v-2.054c-.395-.411-.593-.584-.948-.73v-.145c.237.013.487.013.75.013.501 0 1.001-.013 1.422-.04.553.663 2.093 2.466 3.12 3.487v-.796c0-1.127-.039-1.922-.105-2.108-.105-.278-.211-.397-1.001-.411v-.145c.382.013.764.013 1.146.013.368 0 .671-.013 1.079-.013v.145c-.5.014-.658.146-.724.398-.079.226-.079 1.008-.079 2.135l.013 3.022zm-71.223 4.587h.408v2.692h1.527v.358h-1.935zm3.107.835v1.485c0 .119.013.212.052.278.066.133.185.199.356.199.25 0 .421-.119.513-.345.053-.119.079-.291.079-.517v-1.1h.369v2.227h-.356v-.331a.913.913 0 01-.171.212.755.755 0 01-.513.172c-.316 0-.527-.106-.632-.318-.066-.119-.092-.265-.092-.45v-1.512zm2.211 0h.488l.513.782.513-.782.448.013-.75 1.074.776 1.14h-.474l-.553-.835-.539.835h-.474l.776-1.14zm3.134 0v1.485c0 .119.013.212.052.278.066.133.185.199.356.199.25 0 .421-.119.513-.345.053-.119.079-.291.079-.517v-1.1h.369v2.227h-.356v-.331a.913.913 0 01-.171.212.755.755 0 01-.513.172c-.316 0-.527-.106-.632-.318-.066-.119-.092-.265-.092-.45v-1.512zm2.435.001h.356v.384c.026-.079.105-.172.21-.278a.556.556 0 01.395-.159h.04c.013 0 .039 0 .079.013v.398c-.026 0-.04-.013-.066-.013h-.066a.554.554 0 00-.434.185.612.612 0 00-.145.424v1.286h-.369zm3.226-.001h.408c-.053.146-.172.464-.356.981-.131.385-.25.69-.342.941-.211.57-.369.915-.461 1.034-.092.12-.237.186-.461.186h-.118a.408.408 0 01-.105-.026v-.345a.927.927 0 01.144.04h.079a.282.282 0 00.158-.04c.027-.027.066-.053.079-.08.014-.013.027-.066.079-.172.04-.106.079-.172.092-.225l-.816-2.294h.422l.592 1.816zm3.093 1.246a.959.959 0 00.119.425c.132.198.368.305.698.305.144 0 .289-.027.408-.067.237-.079.355-.238.355-.464 0-.172-.052-.291-.145-.358a1.681 1.681 0 00-.474-.185l-.394-.093c-.264-.066-.448-.133-.553-.199-.185-.133-.277-.318-.277-.57a.88.88 0 01.277-.676c.184-.172.447-.265.776-.265.316 0 .58.079.79.238.211.159.329.398.329.743h-.381c-.027-.159-.066-.292-.132-.371-.119-.16-.329-.239-.619-.239-.237 0-.395.053-.5.159a.497.497 0 00-.158.358c0 .146.066.265.184.331.079.04.264.106.54.173l.408.093c.198.053.356.106.461.198.184.146.276.345.276.623 0 .345-.118.584-.355.73a1.557 1.557 0 01-.83.212c-.368 0-.658-.093-.868-.292-.211-.199-.316-.451-.303-.782h.368zm4.305-1.179c.145.079.264.172.329.291a.895.895 0 01.145.398c.027.106.027.265.027.491h-1.607c.014.225.066.411.158.543.093.133.251.212.461.212a.578.578 0 00.593-.464h.368a.96.96 0 01-.276.531.933.933 0 01-.421.225 1.04 1.04 0 01-.303.04.942.942 0 01-.698-.305c-.184-.199-.29-.491-.29-.849 0-.357.092-.649.29-.874a.947.947 0 01.75-.332.717.717 0 01.474.093zm.132.875a.966.966 0 00-.105-.385c-.106-.185-.277-.265-.501-.265a.543.543 0 00-.421.186c-.118.119-.171.278-.184.477h1.211zm1.304-.941h.355v.384c.026-.079.105-.172.211-.278a.555.555 0 01.395-.159h.039c.013 0 .04 0 .079.013v.398c-.026 0-.039-.013-.066-.013h-.066a.554.554 0 00-.434.185.617.617 0 00-.145.424v1.286h-.368zm2.027-.001l.592 1.816.619-1.816h.408l-.829 2.227h-.395l-.817-2.227zm2.37-.835h.381v.425h-.381zm0 .849h.381v2.214h-.381zm2.83.105c.158.119.25.331.277.636h-.356a.901.901 0 00-.145-.344c-.079-.093-.21-.133-.382-.133-.236 0-.408.119-.513.345a1.349 1.349 0 00-.105.557c0 .225.052.411.145.57.092.146.237.225.447.225a.494.494 0 00.369-.146.701.701 0 00.184-.384h.356c-.04.291-.145.517-.316.649a1 1 0 01-.632.199.855.855 0 01-.698-.318 1.23 1.23 0 01-.263-.795c0-.398.092-.703.289-.915a.94.94 0 01.724-.332c.264 0 .461.067.619.186zm2.462-.052c.145.079.263.172.329.291a.895.895 0 01.145.398c.026.106.04.265.04.491h-1.607c.014.225.066.411.158.543.092.133.251.212.461.212a.578.578 0 00.593-.464h.368a.96.96 0 01-.276.531.932.932 0 01-.422.225c-.092.027-.184.04-.302.04a.942.942 0 01-.698-.305c-.184-.199-.29-.491-.29-.849 0-.357.092-.649.29-.874a.947.947 0 01.75-.332.712.712 0 01.461.093zm.132.875a.95.95 0 00-.106-.385c-.105-.185-.263-.265-.5-.265a.543.543 0 00-.421.186c-.119.119-.171.278-.184.477H48.3zm2.514-.876c.066.039.145.119.224.212v-1.127h.355v3.062h-.329v-.304c-.092.132-.184.238-.303.291a.81.81 0 01-.408.093c-.25 0-.46-.106-.645-.318-.184-.212-.263-.491-.263-.835 0-.319.079-.61.25-.849.158-.239.395-.358.698-.358.158.027.303.066.421.133zm-.842 1.67c.105.159.263.239.487.239.171 0 .316-.08.421-.226.105-.145.171-.358.171-.636s-.053-.491-.171-.623a.534.534 0 00-.421-.199.524.524 0 00-.448.212c-.118.146-.171.358-.171.637-.013.238.039.437.132.596zm4.726-2.571h.461l1.106 3.063h-.448l-.316-.915h-1.198l-.329.915h-.422zm.684 1.817l-.473-1.353-.488 1.353zm1.607-.968h.368v.292a.85.85 0 01.25-.239.845.845 0 01.448-.119.84.84 0 01.645.292c.171.198.263.464.263.835 0 .49-.131.835-.381 1.047a.844.844 0 01-.567.199.83.83 0 01-.421-.106 1.065 1.065 0 01-.224-.212v1.14h-.368v-3.129zm1.408 1.75c.119-.146.171-.371.171-.663 0-.172-.026-.331-.079-.464a.52.52 0 00-.526-.371c-.263 0-.435.133-.527.384a1.52 1.52 0 00-.079.531c0 .172.027.318.079.437a.531.531 0 00.527.345.487.487 0 00.434-.199zm2.607-.888c.079-.013.145-.053.171-.106.013-.04.027-.08.027-.146 0-.133-.04-.225-.132-.278a.773.773 0 00-.382-.093c-.197 0-.329.053-.408.159a.554.554 0 00-.092.265h-.342c.013-.278.092-.464.263-.57a1.1 1.1 0 01.592-.159c.263 0 .474.053.632.146a.514.514 0 01.237.464v1.286c0 .039.013.066.027.092.013.027.052.04.105.04h.052c.027 0 .04 0 .066-.013v.278a.689.689 0 01-.131.027h-.119c-.132 0-.224-.04-.276-.133a.647.647 0 01-.066-.212.97.97 0 01-.329.265.955.955 0 01-.474.106.705.705 0 01-.5-.185.614.614 0 01-.198-.477c0-.213.066-.372.198-.478a.907.907 0 01.5-.212zm-.79 1.021a.412.412 0 00.277.092.775.775 0 00.381-.092c.211-.106.316-.265.316-.491v-.305c-.039.027-.105.053-.171.08-.066.013-.145.04-.21.04l-.224.026a.756.756 0 00-.303.08c-.119.066-.171.172-.171.318a.267.267 0 00.105.252zm2.396-1.896h.356v.384c.026-.079.105-.172.21-.278a.556.556 0 01.395-.159h.04c.013 0 .039 0 .079.013v.398c-.027 0-.04-.013-.066-.013h-.066a.554.554 0 00-.434.185.612.612 0 00-.145.424v1.286h-.369zm1.922-.625h.382v.623h.355v.305h-.355v1.459c0 .079.026.132.079.159a.355.355 0 00.145.026h.052c.027 0 .04 0 .066-.013v.292a.468.468 0 01-.132.026c-.039 0-.092.013-.144.013-.171 0-.29-.039-.356-.132a.586.586 0 01-.092-.345V56.53h-.303v-.305h.303zm1.527.625h.369v.318c.092-.106.171-.186.237-.239a.759.759 0 01.421-.132c.171 0 .316.04.421.132.066.053.119.12.172.226a.785.785 0 01.671-.358c.303 0 .5.106.606.318.052.119.092.278.092.464v1.485h-.382v-1.551c0-.146-.039-.252-.105-.305a.457.457 0 00-.277-.08.572.572 0 00-.382.146c-.105.093-.158.265-.158.491v1.299h-.381v-1.458c0-.146-.013-.266-.053-.332-.053-.106-.158-.159-.316-.159a.549.549 0 00-.382.159c-.118.106-.171.305-.171.597v1.18h-.368v-2.201zm5.332.066c.145.079.264.172.329.291a.895.895 0 01.145.398c.027.106.027.265.027.491h-1.607c.014.225.066.411.158.543.092.133.25.212.461.212a.578.578 0 00.593-.464h.368a.96.96 0 01-.276.531.932.932 0 01-.422.225c-.092.027-.184.04-.302.04a.942.942 0 01-.698-.305c-.184-.199-.29-.491-.29-.849 0-.357.092-.649.29-.874a.945.945 0 01.75-.332.717.717 0 01.474.093zm.132.875a.966.966 0 00-.105-.385c-.106-.185-.277-.265-.501-.265a.543.543 0 00-.421.186c-.119.119-.171.278-.184.477h1.211zm1.29-.942h.356v.318a.9.9 0 01.329-.278.955.955 0 01.395-.08c.316 0 .526.107.631.332.066.119.093.292.093.517v1.432h-.382v-1.406a.771.771 0 00-.066-.331.37.37 0 00-.355-.212.835.835 0 00-.211.026.464.464 0 00-.263.186.472.472 0 00-.119.225c-.013.08-.026.186-.026.332v1.166h-.369v-2.227zm2.87-.624h.382v.623h.355v.305h-.355v1.459c0 .079.026.132.079.159a.355.355 0 00.145.026h.052c.027 0 .04 0 .079-.013v.292a.469.469 0 01-.131.026c-.053 0-.093.013-.145.013-.171 0-.29-.039-.356-.132a.594.594 0 01-.092-.345V56.53h-.303v-.305h.303v-.637zm1.764 2.148a.59.59 0 00.092.292c.092.119.264.186.501.186a.666.666 0 00.368-.093.313.313 0 00.158-.279c0-.092-.039-.172-.132-.212a1.612 1.612 0 00-.329-.106l-.302-.079a1.772 1.772 0 01-.422-.159c-.158-.106-.25-.239-.25-.425 0-.212.079-.384.224-.517.158-.132.355-.199.619-.199.342 0 .579.093.737.292a.582.582 0 01.132.398h-.356a.48.48 0 00-.092-.226c-.092-.092-.237-.145-.461-.145a.575.575 0 00-.329.079c-.079.053-.105.119-.105.212s.052.173.145.239c.052.04.144.066.25.093l.25.066c.276.066.461.133.553.186.145.092.21.251.21.45a.718.718 0 01-.223.517c-.145.146-.382.212-.698.212-.329 0-.566-.079-.711-.225-.145-.146-.211-.331-.224-.557zm-4.713-4.441H21.548a.09.09 0 01-.092-.093.09.09 0 01.092-.093h51.186a.09.09 0 01.092.093.09.09 0 01-.092.093zM62.531 19.556c0 10.009-7.636 18.215-17.365 19.037a21.33 21.33 0 01-1.619.067c-.54 0-1.08-.027-1.62-.067-9.729-.822-17.364-9.028-17.364-19.037C24.563 9.003 33.054.453 43.534.453c10.492-.014 18.997 8.55 18.997 19.103z" fill="#212121"/><path d="M55.909 32.31L45.14 34.709c-.079.013-.132.08-.119.159l.145 3.725c-.526.04-1.066.067-1.619.067-.54 0-1.08-.027-1.619-.067l.144-3.725a.157.157 0 00-.131-.159L31.172 32.31c-.185-.04-.158-.319.039-.319h10.822a.16.16 0 00.158-.159l.079-1.856c0-.079-.053-.146-.119-.159l-8.636-1.922c-.184-.04-.158-.318.039-.318h8.676a.161.161 0 00.158-.159l.079-1.724c0-.079-.052-.146-.118-.159l-6.872-1.538c-.185-.039-.158-.318.039-.318h6.899a.16.16 0 00.158-.159l.079-1.71c0-.08-.053-.146-.119-.159l-5.424-1.207c-.184-.039-.158-.318.04-.318h5.437c.079 0 .158-.066.158-.146l.079-1.816a.158.158 0 00-.132-.159l-4.239-.941c-.184-.04-.158-.318.039-.318h4.24c.079 0 .158-.067.158-.146l.065-1.697c0-.08-.052-.146-.118-.159l-3.265-.729c-.184-.04-.158-.319.039-.319h3.252a.16.16 0 00.158-.159l.066-1.697c0-.079-.053-.145-.118-.159l-2.475-.556c-.185-.04-.158-.319.039-.319h2.462a.153.153 0 00.158-.159l.053-1.312a.157.157 0 00-.132-.159l-1.817-.411c-.184-.04-.158-.318.04-.318h1.79c.079 0 .158-.067.158-.146l.066-1.445a.157.157 0 00-.132-.159l-1.277-.292c-.184-.04-.158-.318.04-.318h1.25c.079 0 .158-.066.158-.146l.053-1.365a.159.159 0 00-.132-.16l-.855-.185c-.185-.04-.158-.318.039-.318h.816c.079 0 .158-.067.158-.146l.04-1.074c0-.08-.053-.146-.119-.159l-.5-.106c-.184-.04-.158-.318.04-.318h.46c.079 0 .158-.067.158-.146l.066-1.511.066 1.511c0 .079.079.146.158.146h.461c.184 0 .224.278.039.318l-.5.106a.157.157 0 00-.132.159l.04 1.074c0 .079.079.146.158.146h.816c.184 0 .224.278.04.318l-.856.185c-.079.014-.132.08-.119.16l.053 1.365c0 .08.066.146.158.146h1.251c.184 0 .223.278.039.318l-1.29.292c-.079.013-.132.079-.119.159l.066 1.445c0 .079.079.146.158.146h1.791c.184 0 .224.278.039.318l-1.817.411c-.078.013-.131.079-.118.159l.053 1.312c0 .08.079.159.158.159h2.462c.184 0 .223.279.039.319l-2.475.556c-.079.014-.132.08-.119.159l.066 1.697c0 .08.079.159.158.159h3.252c.184 0 .224.279.039.319l-3.264.729a.157.157 0 00-.132.159l.066 1.697c0 .079.079.146.158.146h4.239c.184 0 .224.278.039.318l-4.239.941c-.079.013-.131.08-.118.159l.079 1.816c0 .08.079.146.158.146h5.437c.184 0 .224.279.039.318l-5.424 1.207c-.079.013-.131.079-.118.159l.066 1.71c0 .08.079.159.158.159h6.898c.185 0 .224.279.04.318l-6.872 1.538a.158.158 0 00-.132.159l.079 1.724c0 .079.079.159.158.159h8.676c.184 0 .223.278.039.318l-8.636 1.922a.158.158 0 00-.132.159l.079 1.856a.16.16 0 00.158.159h10.822c.158 0 .184.279 0 .319z" fill="#eaeaea"/></svg>