<svg xmlns="http://www.w3.org/2000/svg" width="120" height="50"><g fill="#212121"><path d="M45.075 6.252a18.584 18.584 0 0116.168.346 19.125 19.125 0 015.404 4.098l-1.201 1.862a19.348 19.348 0 00-7.677-2.828 19.562 19.562 0 00-10.807 1.529 19.914 19.914 0 01-1.887-5.007z"/><path d="M42.215 15.56c4.175-3.897 9.779-5.686 15.426-4.892 5.575.779 10.45 4.04 13.409 8.961-4.174 3.897-9.735 5.672-15.325 4.893-5.632-.794-10.55-4.056-13.51-8.962z"/><path d="M55.253 28.591c-1.143 0-2.287-.101-3.416-.317a20.296 20.296 0 004.889-2.699c.543.044 1.086.073 1.629.073 3.903 0 7.677-1.184 10.922-3.392-3.516 3.925-8.577 6.335-14.024 6.335zm21.544-20.06c-.071.058-.157.116-.272.217l-.257.231c-.071.058-.143.13-.257.231l-.243.245c-.072.087-.143.159-.158.188l-.071.072c-.157.173-.3.361-.457.577-.058.087-.115.159-.201.289l-.057.086-.157.246a7.709 7.709 0 00-.872 2.251s-.257 1.082-.343 1.472l-.043.043v.13a19.717 19.717 0 01-1.687 4.041 19.827 19.827 0 00-5.461-5.787l3.145-4.907.086-.13.143-.187c.1-.13.214-.246.357-.39l.186-.173c.129-.101.243-.202.429-.318l.186-.115c.214-.13.443-.231.743-.332.157-.043.3-.086.472-.13.157-.029.329-.057.543-.072a4.282 4.282 0 011.601.217c.129.043.258.101.386.158l.415.188 2.544 1.183a6.683 6.683 0 00-.7.476zM9.807 38.016H8.806v-1.501h1.001v-.591a2.64 2.64 0 01.643-1.963 2.374 2.374 0 011.773-.635c.271 0 .543.015.815.058.214.043.428.086.643.144v1.53c-.186-.058-.358-.101-.515-.145a2.331 2.331 0 00-.543-.057c-.701 0-1.044.404-1.044 1.212v.447h2.088v1.487h-2.059v6.378H9.807zm8.391 6.537a2.683 2.683 0 01-2.073-.823 3.211 3.211 0 01-.729-2.222v-5.051h1.802v4.503a2.123 2.123 0 00.443 1.428c.329.347.772.52 1.244.491.486.014.943-.159 1.286-.505.343-.39.529-.909.486-1.443v-4.474h1.801v7.937h-1.801v-1.255a3.768 3.768 0 01-.972.995 2.36 2.36 0 01-1.487.419zm9.707-.014a4.937 4.937 0 01-1.715-.303 5.687 5.687 0 01-1.616-.88l.801-1.226c.4.303.843.548 1.315.721.4.159.829.245 1.273.245.314.015.629-.057.9-.231a.726.726 0 00.315-.62v-.029a.55.55 0 00-.143-.39 1.52 1.52 0 00-.386-.288 6.627 6.627 0 00-.572-.231c-.215-.072-.429-.144-.658-.202a6.742 6.742 0 01-.872-.289 2.787 2.787 0 01-.786-.433 2.246 2.246 0 01-.572-.649 2.054 2.054 0 01-.229-.967v-.029c0-.346.072-.693.215-1.01a2.1 2.1 0 01.6-.765c.258-.216.572-.375.901-.476a3.593 3.593 0 011.101-.173c.514 0 1.015.086 1.501.245a5.56 5.56 0 011.386.664l-.714 1.299a6.475 6.475 0 00-1.144-.549 3.009 3.009 0 00-1.072-.202 1.364 1.364 0 00-.815.217.686.686 0 00-.286.563v.028c0 .145.057.275.143.39.114.116.257.217.4.289.186.086.372.173.572.245.215.072.429.144.658.216.286.087.571.203.872.318.271.115.543.26.786.447.229.174.429.39.572.635.157.274.229.592.229.924v.029c.014.375-.072.75-.229 1.096a2.32 2.32 0 01-.615.78 2.69 2.69 0 01-.929.462c-.415.086-.801.144-1.187.129zm5.275-11.04h1.945v1.732H33.18zm.072 2.944h1.801v7.937h-1.801zm8.377 8.126a4.336 4.336 0 01-1.658-.318 4.12 4.12 0 01-1.33-.88 4.11 4.11 0 01-1.186-2.915v-.029c0-.548.1-1.097.314-1.616.2-.491.501-.938.872-1.313a4.18 4.18 0 013.002-1.227 4.43 4.43 0 011.673.317c.5.202.944.506 1.329.881.773.765 1.187 1.818 1.187 2.915v.029c0 .548-.1 1.096-.314 1.601a4.028 4.028 0 01-2.216 2.208 3.668 3.668 0 01-1.673.347zm.029-1.588c.343 0 .686-.072.986-.202a2.37 2.37 0 00.758-.548c.214-.231.372-.505.472-.794.114-.317.171-.635.157-.967v-.028a2.96 2.96 0 00-.172-.996 2.471 2.471 0 00-.5-.808 2.388 2.388 0 00-.758-.549 2.435 2.435 0 00-1.958 0c-.286.13-.543.318-.758.534a2.191 2.191 0 00-.472.808c-.114.318-.171.65-.171.982v.029c0 .331.057.678.171.981.115.303.286.577.501.808.214.231.471.419.757.548.329.13.658.202.987.202zm6.504-6.538h1.802v1.227a3.65 3.65 0 01.429-.52c.157-.173.343-.317.528-.447.215-.13.429-.231.672-.303a3.21 3.21 0 01.83-.115 2.676 2.676 0 012.072.822c.515.621.772 1.4.729 2.208v5.065h-1.801v-4.517a2.193 2.193 0 00-.443-1.443 1.553 1.553 0 00-1.244-.505 1.725 1.725 0 00-1.286.52 1.994 1.994 0 00-.486 1.443v4.488h-1.802zm9.722 0h1.801v1.79a3.403 3.403 0 011.058-1.443 2.49 2.49 0 011.73-.491v1.919h-.1c-.372 0-.744.058-1.087.202-.329.13-.615.332-.843.592a2.679 2.679 0 00-.558.981c-.143.448-.2.91-.2 1.371v3.016h-1.801zm9.978 8.124a4.257 4.257 0 01-1.587-.303 3.848 3.848 0 01-2.144-2.15 4.471 4.471 0 01-.314-1.674v-.029c0-.549.085-1.097.285-1.616.186-.491.458-.938.801-1.314a3.663 3.663 0 012.773-1.197 3.582 3.582 0 011.644.346c.458.216.858.534 1.187.924.314.404.558.865.715 1.356.157.534.243 1.082.243 1.631 0 .072 0 .158-.015.245-.014.087-.014.173-.028.26h-5.776c.058.577.343 1.111.772 1.501.415.346.958.534 1.501.519.401.015.801-.072 1.158-.245.358-.188.687-.419.973-.707l1.057.952a4.23 4.23 0 01-1.343 1.082 4.05 4.05 0 01-1.902.419zm1.773-4.705a3.313 3.313 0 00-.2-.822 2.126 2.126 0 00-.4-.664 1.82 1.82 0 00-.601-.447 1.661 1.661 0 00-.801-.159 1.84 1.84 0 00-1.372.577 2.7 2.7 0 00-.658 1.515zm6.776 4.677a4.937 4.937 0 01-1.715-.303 5.674 5.674 0 01-1.616-.88l.801-1.226c.4.303.843.548 1.315.721.4.159.829.245 1.272.245.315.015.629-.057.901-.231a.723.723 0 00.314-.62v-.029a.55.55 0 00-.143-.39 1.502 1.502 0 00-.386-.288 6.377 6.377 0 00-.572-.231 8.855 8.855 0 00-.657-.202 6.742 6.742 0 01-.872-.289 2.787 2.787 0 01-.786-.433 2.246 2.246 0 01-.572-.649 2.042 2.042 0 01-.229-.967v-.029c0-.346.071-.693.215-1.01a2.09 2.09 0 01.6-.765c.257-.216.572-.375.901-.476a3.592 3.592 0 011.1-.173c.515 0 1.015.086 1.501.245s.958.375 1.387.664l-.715 1.299a6.433 6.433 0 00-1.143-.549 3.01 3.01 0 00-1.073-.202 1.362 1.362 0 00-.814.217.686.686 0 00-.286.563v.028c0 .145.057.289.143.39.114.116.243.217.4.289.186.086.372.173.572.245.214.072.429.144.657.216.286.087.572.203.872.318.272.115.544.26.787.447.228.174.429.39.571.635.158.274.229.592.229.924v.029c.015.375-.071.75-.229 1.096a2.305 2.305 0 01-.614.78 2.698 2.698 0 01-.929.462c-.415.086-.801.144-1.187.129zm31.551 0a4.947 4.947 0 01-1.716-.303 5.682 5.682 0 01-1.615-.88l.8-1.226c.401.303.844.548 1.316.721.4.159.829.245 1.272.245.314.015.629-.057.901-.231a.725.725 0 00.314-.62v-.029a.55.55 0 00-.143-.39 1.514 1.514 0 00-.385-.288 6.78 6.78 0 00-.573-.231 9.003 9.003 0 00-.657-.202 6.742 6.742 0 01-.872-.289 2.773 2.773 0 01-.786-.433 2.246 2.246 0 01-.572-.649 2.042 2.042 0 01-.229-.967v-.029c0-.346.071-.693.214-1.01.143-.303.343-.563.601-.765.257-.216.572-.375.9-.476a3.6 3.6 0 011.102-.173c.514 0 1.014.086 1.501.245.485.159.957.375 1.386.664l-.714 1.299a6.475 6.475 0 00-1.144-.549 3.013 3.013 0 00-1.072-.202 1.365 1.365 0 00-.816.217.689.689 0 00-.286.563v.028a.65.65 0 00.144.39c.114.116.257.217.4.289.186.086.372.173.572.245.214.072.429.144.658.216.285.087.571.203.872.318.27.115.542.26.786.447.228.174.428.39.571.635.158.274.229.592.229.924v.029a2.43 2.43 0 01-.229 1.096 2.308 2.308 0 01-.615.78c-.285.216-.6.375-.929.462-.4.086-.786.144-1.186.129zm-22.559.029a4.354 4.354 0 01-1.658-.317 4.12 4.12 0 01-1.33-.88 4.062 4.062 0 01-.872-1.314 3.855 3.855 0 01-.3-1.601v-.029c0-.549.1-1.097.315-1.617a4.138 4.138 0 012.201-2.207 4.171 4.171 0 011.673-.332c.572 0 1.143.101 1.672.317a4.067 4.067 0 012.202 2.194 3.84 3.84 0 01.3 1.601v.029c0 .549-.1 1.097-.314 1.602a4.072 4.072 0 01-2.216 2.208 3.744 3.744 0 01-1.673.346zm.029-1.587c.343 0 .672-.072.986-.202.286-.13.543-.317.758-.548.214-.231.372-.505.472-.794.114-.318.157-.635.157-.967v-.029c0-.346-.057-.678-.172-.996a2.471 2.471 0 00-.5-.808 2.374 2.374 0 00-.758-.548 2.401 2.401 0 00-1.944 0 2.58 2.58 0 00-.758.534 2.189 2.189 0 00-.471.808 2.564 2.564 0 00-.158.981v.029c0 .332.058.678.172.982.114.303.286.577.5.808.215.231.472.418.758.548.3.13.629.202.958.202zm6.49-6.538h1.801v1.79a3.541 3.541 0 011.058-1.443 2.492 2.492 0 011.73-.491v1.919h-.1c-.372 0-.743.058-1.086.202-.329.13-.615.332-.844.592a2.69 2.69 0 00-.557.981 4.49 4.49 0 00-.201 1.371v3.016h-1.801zm9.278 8.082c-.3 0-.615-.043-.915-.115a1.648 1.648 0 01-.715-.39 1.72 1.72 0 01-.472-.707 3.285 3.285 0 01-.157-1.111v-4.185H97.94v-1.573h1.001v-2.179h1.801v2.179h2.116v1.573h-2.116v3.896c-.028.275.072.549.258.765.2.173.457.246.715.231.385 0 .772-.086 1.115-.274v1.486c-.229.13-.472.231-.715.303a3.306 3.306 0 01-.915.101z"/></g></svg>