<svg xmlns="http://www.w3.org/2000/svg" width="90" height="51"><path d="M44.496 2.241c0 .719.162 1.397.458 1.994.296-.61.458-1.275.458-1.994 0-.719-.162-1.397-.458-1.994a4.706 4.706 0 00-.458 1.994z" fill="#212121"/><path d="M44.496 2.241c0 .719.162 1.397.458 1.994.296-.61.458-1.275.458-1.994 0-.719-.162-1.397-.458-1.994a4.706 4.706 0 00-.458 1.994zM11.778 50.312h2.114V36.504h-2.545s.243.583.337 1.152c.094.57.094.855.094 1.167v3.567h-8.59v-5.886H.643s.243.583.337 1.152c.094.57.094.855.094 1.167v11.489h2.114v-5.887h8.59zm17.558-6.918c0 3.31-2.02 5.453-5.13 5.453-3.164 0-5.13-2.089-5.13-5.453 0-3.31 2.019-5.453 5.13-5.453 3.164 0 5.13 2.089 5.13 5.453zm.592 4.91c1.05-1.261 1.629-3.011 1.629-4.896 0-1.94-.579-3.69-1.616-4.938-1.292-1.546-3.217-2.319-5.735-2.319-5.426 0-7.352 3.906-7.352 7.257 0 1.37.269 3.323 1.549 4.896 1.265 1.574 3.231 2.36 5.803 2.36 2.491 0 4.416-.8 5.722-2.36zm4.82 1.994h2.114V36.49h-2.545s.243.583.337 1.153c.081.57.094.854.094 1.166zm15.74-5.331h-6.005l3.002-6.429zm2.504 5.331h2.41L48.67 36.49h-3.069s.309.678-.391 2.306l-5.601 11.502h2.343l1.548-3.282h7.957zm15.686 0h2.114V36.49h-2.545s.229.583.337 1.153c.094.57.094.854.094 1.166v8.939L60.775 36.49h-3.339s.242.583.336 1.153c.081.57.095.854.095 1.166v11.489h2.113v-11.38l7.998 11.38zm15.673-5.331h-6.005l3.002-6.429zm4.914 5.331L82.533 36.49h-3.07s.31.678-.39 2.306l-5.601 11.502h2.342l1.549-3.282h7.944l1.535 3.282zM34.412 5.469a34.487 34.487 0 004.227 5.168 35.4 35.4 0 005.13 4.273 34.487 34.487 0 00-4.227-5.168 34.582 34.582 0 00-5.13-4.273z" fill="#212121"/><path d="M34.412 5.469a34.487 34.487 0 004.227 5.168 35.4 35.4 0 005.13 4.273 34.487 34.487 0 00-4.227-5.168 34.582 34.582 0 00-5.13-4.273zm11.687 11.787a34.433 34.433 0 004.228 5.168 34.358 34.358 0 005.129 4.259 34.588 34.588 0 00-4.227-5.168 33.698 33.698 0 00-5.13-4.259z" fill="#212121"/><path d="M46.099 17.256a34.433 34.433 0 004.228 5.168 34.358 34.358 0 005.129 4.259 34.588 34.588 0 00-4.227-5.168 33.698 33.698 0 00-5.13-4.259zm-15.538-5.059a34.619 34.619 0 006.234 2.346c2.194.597 4.389.95 6.557 1.112a34.619 34.619 0 00-6.234-2.346 34.818 34.818 0 00-6.557-1.112z" fill="#212121"/><path d="M30.561 12.197a34.619 34.619 0 006.234 2.346c2.194.597 4.389.95 6.557 1.112a34.619 34.619 0 00-6.234-2.346 34.818 34.818 0 00-6.557-1.112zm15.955 4.314a34.621 34.621 0 006.234 2.347c2.195.597 4.39.949 6.557 1.112a34.621 34.621 0 00-6.234-2.347 33.535 33.535 0 00-6.557-1.112z" fill="#212121"/><path d="M46.516 16.511a34.621 34.621 0 006.234 2.347c2.195.597 4.39.949 6.557 1.112a34.621 34.621 0 00-6.234-2.347 33.535 33.535 0 00-6.557-1.112zM30.561 19.97a33.802 33.802 0 006.557-1.112 34.621 34.621 0 006.234-2.347 33.865 33.865 0 00-6.557 1.112 33.67 33.67 0 00-6.234 2.347z" fill="#212121"/><path d="M30.561 19.97a33.802 33.802 0 006.557-1.112 34.621 34.621 0 006.234-2.347 33.865 33.865 0 00-6.557 1.112 33.67 33.67 0 00-6.234 2.347zm15.955-4.315a33.79 33.79 0 006.557-1.112 34.619 34.619 0 006.234-2.346 33.815 33.815 0 00-6.557 1.112 33.975 33.975 0 00-6.234 2.346z" fill="#212121"/><path d="M46.516 15.655a33.79 33.79 0 006.557-1.112 34.619 34.619 0 006.234-2.346 33.815 33.815 0 00-6.557 1.112 33.975 33.975 0 00-6.234 2.346zM34.412 26.683a34.416 34.416 0 005.13-4.259 34.487 34.487 0 004.227-5.168 34.477 34.477 0 00-5.13 4.259 34.588 34.588 0 00-4.227 5.168z" fill="#212121"/><path d="M34.412 26.683a34.416 34.416 0 005.13-4.259 34.487 34.487 0 004.227-5.168 34.477 34.477 0 00-5.13 4.259 34.588 34.588 0 00-4.227 5.168zm11.687-11.774a34.477 34.477 0 005.13-4.259 35.206 35.206 0 004.227-5.168 35.297 35.297 0 00-5.129 4.259 34.483 34.483 0 00-4.228 5.168z" fill="#212121"/><path d="M46.099 14.909a34.477 34.477 0 005.13-4.259 35.206 35.206 0 004.227-5.168 35.297 35.297 0 00-5.129 4.259 34.483 34.483 0 00-4.228 5.168zM41.09 30.563a35.168 35.168 0 002.329-6.28 35.538 35.538 0 001.104-6.606 35.168 35.168 0 00-2.329 6.28 33.51 33.51 0 00-1.104 6.606z" fill="#212121"/><path d="M41.09 30.563a35.168 35.168 0 002.329-6.28 35.538 35.538 0 001.104-6.606 35.168 35.168 0 00-2.329 6.28 33.51 33.51 0 00-1.104 6.606zm4.268-16.074a35.248 35.248 0 002.33-6.28 35.704 35.704 0 001.104-6.606 34.198 34.198 0 00-2.33 6.28 35.525 35.525 0 00-1.104 6.606z" fill="#212121"/><path d="M45.358 14.489a35.248 35.248 0 002.33-6.28 35.704 35.704 0 001.104-6.606 34.198 34.198 0 00-2.33 6.28 35.525 35.525 0 00-1.104 6.606zm3.434 16.074a34.572 34.572 0 00-1.104-6.606 35.248 35.248 0 00-2.33-6.28 34.572 34.572 0 001.104 6.606 34.878 34.878 0 002.33 6.28z" fill="#212121"/><path d="M48.792 30.563a34.572 34.572 0 00-1.104-6.606 35.248 35.248 0 00-2.33-6.28 34.572 34.572 0 001.104 6.606 34.878 34.878 0 002.33 6.28zM44.51 14.489a34.572 34.572 0 00-1.104-6.606 35.248 35.248 0 00-2.33-6.28 35.624 35.624 0 001.105 6.606 36.598 36.598 0 002.329 6.28z" fill="#212121"/><path d="M44.51 14.489a34.572 34.572 0 00-1.104-6.606 35.248 35.248 0 00-2.33-6.28 35.624 35.624 0 001.105 6.606 36.598 36.598 0 002.329 6.28zm-13.303 1.153c-.713 0-1.387.163-1.979.462a4.63 4.63 0 001.979.461c.714 0 1.387-.163 1.979-.461a4.375 4.375 0 00-1.979-.462z" fill="#212121"/><path d="M31.207 15.642c-.713 0-1.387.163-1.979.462a4.63 4.63 0 001.979.461c.714 0 1.387-.163 1.979-.461a4.375 4.375 0 00-1.979-.462zm25.528.462a4.63 4.63 0 001.98.461 4.39 4.39 0 001.979-.461 4.616 4.616 0 00-1.979-.462c-.714 0-1.387.163-1.98.462z" fill="#212121"/><path d="M56.735 16.104a4.63 4.63 0 001.98.461 4.39 4.39 0 001.979-.461 4.616 4.616 0 00-1.979-.462c-.714 0-1.387.163-1.98.462zm-25.407 7.92a4.604 4.604 0 001.939-.597 4.45 4.45 0 001.481-1.397 4.614 4.614 0 00-1.938.597 4.736 4.736 0 00-1.482 1.397z" fill="#212121"/><path d="M31.328 24.024a4.604 4.604 0 001.939-.597 4.45 4.45 0 001.481-1.397 4.614 4.614 0 00-1.938.597 4.736 4.736 0 00-1.482 1.397zm23.819-13.847a4.633 4.633 0 001.939-.597 4.642 4.642 0 001.494-1.397 4.604 4.604 0 00-1.939.597 4.485 4.485 0 00-1.494 1.397z" fill="#212121"/><path d="M55.147 10.177a4.633 4.633 0 001.939-.597 4.642 4.642 0 001.494-1.397 4.604 4.604 0 00-1.939.597 4.485 4.485 0 00-1.494 1.397zM37.683 27.876a4.762 4.762 0 00-.592 1.954 4.747 4.747 0 001.387-1.493c.35-.624.538-1.288.592-1.966a4.644 4.644 0 00-1.387 1.505z" fill="#212121"/><path d="M37.683 27.876a4.762 4.762 0 00-.592 1.954 4.747 4.747 0 001.387-1.493c.35-.624.538-1.288.592-1.966a4.644 4.644 0 00-1.387 1.505zM51.444 3.869a4.742 4.742 0 00-.592 1.953 4.596 4.596 0 001.386-1.492 4.561 4.561 0 00.593-1.967 4.771 4.771 0 00-1.387 1.506z" fill="#212121"/><path d="M51.444 3.869a4.742 4.742 0 00-.592 1.953 4.596 4.596 0 001.386-1.492 4.561 4.561 0 00.593-1.967 4.771 4.771 0 00-1.387 1.506zm-6.948 26.084c0 .719.162 1.397.458 1.994a4.52 4.52 0 00.458-1.994c0-.719-.162-1.397-.458-1.994a4.703 4.703 0 00-.458 1.994z" fill="#212121"/><path d="M44.496 29.953c0 .719.162 1.397.458 1.994a4.52 4.52 0 00.458-1.994c0-.719-.162-1.397-.458-1.994a4.703 4.703 0 00-.458 1.994zm6.356-3.582c.053.664.242 1.342.592 1.953a4.51 4.51 0 001.387 1.506 4.69 4.69 0 00-.593-1.954 4.788 4.788 0 00-1.386-1.505z" fill="#212121"/><path d="M50.852 26.371c.053.664.242 1.342.592 1.953a4.51 4.51 0 001.387 1.506 4.69 4.69 0 00-.593-1.954 4.788 4.788 0 00-1.386-1.505zM37.091 2.376c.054.665.242 1.343.592 1.953a4.658 4.658 0 001.387 1.506 4.703 4.703 0 00-.592-1.954 4.526 4.526 0 00-1.387-1.505z" fill="#212121"/><path d="M37.091 2.376c.054.665.242 1.343.592 1.953a4.658 4.658 0 001.387 1.506 4.703 4.703 0 00-.592-1.954 4.526 4.526 0 00-1.387-1.505zm20.008 20.251a4.479 4.479 0 00-1.939-.597 4.635 4.635 0 001.495 1.397 4.465 4.465 0 001.938.597 4.924 4.924 0 00-1.494-1.397z" fill="#212121"/><path d="M57.099 22.627a4.479 4.479 0 00-1.939-.597 4.635 4.635 0 001.495 1.397 4.465 4.465 0 001.938.597 4.924 4.924 0 00-1.494-1.397zM33.281 8.78a4.474 4.474 0 00-1.939-.597 4.642 4.642 0 001.494 1.397c.62.352 1.279.556 1.939.597a4.758 4.758 0 00-1.494-1.397z" fill="#212121"/><path d="M33.281 8.78a4.474 4.474 0 00-1.939-.597 4.642 4.642 0 001.494 1.397c.62.352 1.279.556 1.939.597a4.758 4.758 0 00-1.494-1.397z" fill="#212121"/></svg>