<svg xmlns="http://www.w3.org/2000/svg" width="87" height="44"><path d="M71.874 20.926l-.041-.014v-.013c-.591-.404-8.477-3.953-18.433-5.526l3.722-5.204v-1.21l-4.407-2.622-1.169 2.098a8.86 8.86 0 013.399.941 21.562 21.562 0 01-2.405 5.876 64.03 64.03 0 00-1.666-.216c1.33-2.137 2.136-5.015.094-6.668.202.027.39.04.578.067l1.276-3.536-.376-.995-5.562-1.654-1.075 4.276a9.718 9.718 0 013.923-1.089c.9 2.837 1.129 7.462.43 9.021-.08.175-.201.336-.336.471a23.448 23.448 0 00-1.37-.121c.134-.134.242-.309.309-.498.618-2.648.322-7.22-2.969-7.757l-.027.121.013-.121.699-5.473-.645-1.021h-5.804l.228 5.378-.577-2.447-.874-.579-5.455 1.52L35.41 9.86c1.935-.309 3.963-.511 4.864-.188 1.625.605 3.09 3.872 3.533 4.948H43.7c-.699-.995-2.755-3.872-3.682-4.034-1.115-.202-6.261.524-6.274 1.049-.013.323 1.062 2.044 2.539 3.321-.698.067-1.383.148-2.069.242a24.328 24.328 0 01-3.184-4.464s2.11-.511 4.367-.874l-1.465-2.783-1.209-.256-4.407 2.837 4.515 5.715a67.873 67.873 0 00-9.661 2.164c-8.155 2.703-8.907 3.496-9.243 3.711a.39.39 0 01-.094.067c-.121.121-.148.216-.134.242.013.027.12.068.322.027.215-.04.417-.107.605-.188 9.445-4.558 19.897-5.808 26.776-5.835 6.49-.067 12.791.833 16.768 2.111-.027.08-.054.148-.094.228a71.9 71.9 0 00-16.512-1.694c-2.889 0-5.778.229-8.626.672-10.278 1.802-11.46 2.77-11.89 2.945-.068.027-.108.067-.175.081-.121.107-.148.188-.134.215.027.067.174.094.416.067a11.643 11.643 0 001.505-.35c.134-.04.269-.067.403-.107a96.312 96.312 0 013.507-.834 70.44 70.44 0 019.915-1.385l.04.242c-.027 0-.053 0-.08.014-4.743.511-4.971.672-5.24.793l-.04.027c-.148.081-.189.161-.189.188.014.068.242.148.618.121.094 0 .202-.013.296-.04.054-.014.107-.013.161-.027.027 0 .054-.013.081-.013.08-.027.161-.054.228-.081l.027.04a63.022 63.022 0 014.058-.497 66.686 66.686 0 016.019-.282c2.593-.014 4.541.134 6.099.255.067 0 .121.013.188.013a69.43 69.43 0 011.72.175c1.787.188 2.607.283 3.037.309.161.014.309.014.47-.013.188-.027.268-.081.268-.121.054-.269-1.168-.511-1.988-.672a54.424 54.424 0 00-3.547-.552 66.111 66.111 0 00-4.984-.416c0-.081.013-.162.013-.242 10.305.47 15.088 1.855 17.359 2.406.523.162 1.074.283 1.612.377a.952.952 0 00.336-.014c.201 0 .309-.04.322-.094.013-.04 0-.094-.027-.134-.268-.377-1.773-1.291-7.752-2.73.027-.08.04-.148.067-.228a67.042 67.042 0 0116.002 5.096c.013.013.027.013.053.026.189.081.377.148.578.175.202.027.309 0 .323-.027.026-.121-.215-.416-.739-.658zM42.88 2.976c2.136 2.057 4.555 6.024 4.689 7.731.094 1.21-1.518 2.998-2.459 3.926h-.241c.591-.928 1.598-2.675 1.397-3.401-.726-2.622-3.157-6.521-6.315-5.405a9.273 9.273 0 012.929-2.851zm-1.76 10.81c-.645-.242-2.405-.766-2.794-.592-.39.175-.511.619-.269.713.457.027.9-.013 1.343-.107 0 0-1.222 1.21-2.002.927-.779-.282-.712-1.586.336-2.07a4.47 4.47 0 013.924.591c.403.377.698.847.859 1.372-.309 0-.618.013-.927.013 0-.336-.174-.659-.47-.847zm3.117.834c.067-1.036.148-3.281-.403-3.846-1.894-1.949-5.912-4.181-8.142-1.68a9.762 9.762 0 011.196-3.913c2.875.767 6.892 3.066 7.833 4.504.725 1.116 0 3.805-.35 4.948zm38.438 26.537H57.564v.201h25.111zm-47.302 2.097h-.309v-1.936h-2.136v1.936h-.309V39.14h.309v1.909h2.15V39.14h.309zm5.079-2.057c0 .363 0 .645-.013.82a1.785 1.785 0 01-.094.457 1.13 1.13 0 01-.269.39 1.49 1.49 0 01-2.069 0 1.117 1.117 0 01-.269-.39 1.381 1.381 0 01-.094-.457 11.359 11.359 0 01-.027-.82c0-.363 0-.645.027-.82.013-.162.04-.323.094-.471a.975.975 0 01.269-.39 1.49 1.49 0 012.069 0c.107.108.201.242.269.39.053.148.094.309.094.471.013.175.013.457.013.82zm-.309 0c0-.323-.013-.578-.013-.74a2.303 2.303 0 00-.081-.43.856.856 0 00-.215-.323 1.075 1.075 0 00-.779-.322 1.095 1.095 0 00-.78.322c-.067.068-.12.148-.174.229a1.21 1.21 0 00-.094.296 2.077 2.077 0 00-.041.417c0 .148-.013.336-.013.564 0 .323 0 .578.013.74.014.148.041.296.081.43.04.121.121.229.202.323a1.08 1.08 0 00.779.322c.148 0 .282-.026.416-.08a.915.915 0 00.35-.242c.094-.094.161-.202.215-.323.053-.134.08-.282.08-.43.041-.175.054-.43.054-.753zm4.89-1.775h-1.236v3.846h-.309v-3.846h-1.222v-.282h2.767zm4.461 3.832h-2.499V39.14h2.499v.282h-2.19v1.627h1.867v.283h-1.867v1.667h2.19zm4.622 0h-2.499V39.14h.309v3.845h2.19zm-25.25-2.097H3.58v.201h25.286zm-4.698-8.678c0 1.492 0 2.245.228 2.46.188.175.605.256 1.451.256.578 0 .994-.014 1.277-.336a1.45 1.45 0 00.268-.699c.014-.108.041-.175.121-.175.081 0 .094.121.094.269-.027.457-.08.901-.161 1.344-.067.269-.121.323-.685.323-.78 0-1.411-.014-1.948-.04-.538-.014-.995-.027-1.438-.027-.121 0-.363.013-.618.013-.255.014-.524.027-.752.027-.135 0-.215-.04-.215-.121 0-.054.04-.121.174-.121.135 0 .256-.013.39-.04.228-.054.282-.283.322-.619.054-.497.054-1.412.054-2.487v-2.057c0-1.775 0-2.111-.013-2.474-.027-.404-.121-.525-.471-.632a1.646 1.646 0 00-.362-.04c-.121 0-.188-.041-.188-.121 0-.081.067-.108.228-.108.511 0 1.196.027 1.491.027.256 0 1.142-.027 1.559-.027.161 0 .228.027.228.108 0 .08-.067.121-.188.121-.148 0-.282.013-.416.04-.296.054-.377.215-.403.632-.027.376-.027.699-.027 2.474zm6.798.054c0 1.13.013 1.95.067 2.447.04.336.108.565.43.619.175.027.349.04.524.04.134 0 .188.067.188.121 0 .081-.067.121-.228.121-.685 0-1.451-.04-1.747-.04-.282 0-.967.04-1.384.04-.148 0-.228-.027-.228-.121 0-.054.04-.121.161-.121.134 0 .255-.013.376-.04.229-.054.282-.283.323-.619.04-.497.04-1.358.04-2.487v-2.057c0-1.775 0-2.111-.013-2.474-.027-.403-.121-.538-.471-.632-.147-.027-.282-.054-.43-.04-.094 0-.188-.041-.188-.121 0-.081.081-.108.256-.108.55 0 1.249.027 1.558.027.417 0 2.822.013 3.077 0 .148 0 .295-.027.443-.054.054-.013.108-.067.175-.067.04 0 .08.054.08.108 0 .08-.053.215-.094.524-.013.121-.04.807-.053.955-.014.094-.041.242-.108.242s-.134-.054-.134-.189a1.037 1.037 0 00-.067-.443.735.735 0 00-.686-.363l-1.8-.041c-.067 0-.094.027-.094.162v2.837c0 .067.013.107.081.107l1.518-.013c.188 0 .336 0 .497-.014a.542.542 0 00.457-.201c.067-.068.094-.121.148-.121.04 0 .067.04.067.107s-.054.39-.081.753c-.027.229-.04.766-.04.847 0 .094-.014.256-.121.256-.067 0-.094-.081-.094-.162 0-.121-.027-.242-.067-.363a.57.57 0 00-.511-.43c-.269-.027-1.558-.04-1.733-.04-.054 0-.081.013-.081.094zm8.679-6.359c-.295-.807-.524-.982-1.007-1.13a1.638 1.638 0 00-.511-.054c-.121 0-.161-.04-.161-.134 0-.121.148-.135.336-.135.698 0 1.451.041 1.921.041.336 0 .967-.041 1.626-.041.161 0 .309.027.309.135 0 .107-.081.134-.202.134a.842.842 0 00-.51.108.354.354 0 00-.135.309c.054.39.162.766.309 1.129l2.271 6.71h.054c.564-1.627 2.284-6.373 2.606-7.355a1.92 1.92 0 00.121-.551c.013-.121-.054-.229-.175-.282a1.76 1.76 0 00-.524-.081c-.121 0-.228-.014-.228-.121 0-.121.121-.148.376-.148.659 0 1.209.04 1.384.04.228 0 .846-.04 1.25-.04.174 0 .268.027.268.134 0 .108-.08.135-.201.135a1.082 1.082 0 00-.645.175c-.175.134-.376.39-.726 1.331-.524 1.385-.873 2.191-1.585 4.006-.846 2.152-1.465 3.765-1.76 4.505-.349.86-.417 1.089-.605 1.089-.174 0-.255-.202-.497-.901zm10.184 6.762c-.067 0-.08.013-.094.081l-.577 1.559a2.192 2.192 0 00-.162.713c0 .202.108.336.43.336h.161c.135 0 .162.054.162.121 0 .094-.068.121-.175.121-.363 0-.86-.04-1.209-.04-.108 0-.685.04-1.25.04-.134 0-.201-.027-.201-.121a.1.1 0 01.094-.121h.027c.094 0 .228-.013.322-.013.497-.081.685-.444.9-1.036l2.835-7.354c.121-.336.215-.471.323-.471.161 0 .201.108.322.377.255.645 2.069 5.432 2.754 7.206.417 1.063.726 1.21.927 1.251.135.027.269.04.403.04.094 0 .148.04.148.121 0 .094-.067.121-.47.121-.376 0-1.169 0-2.082-.027-.202-.013-.323-.013-.323-.094 0-.067.027-.107.134-.121.094-.04.148-.148.108-.242 0-.013 0-.013-.014-.027l-.833-2.353c-.013-.053-.053-.094-.107-.08zm2.325-.645c.053 0 .067-.027.053-.068l-1.021-2.971c-.013-.04-.027-.108-.04-.108-.04 0-.054.068-.067.108l-1.048 2.958c-.027.054 0 .081.04.081zm7.134.188c0 1.492 0 2.245.242 2.46.188.175.604.256 1.437.256.578 0 .994-.014 1.276-.336.148-.202.242-.444.269-.699.014-.108.04-.175.121-.175.081 0 .094.121.094.269a11.26 11.26 0 01-.161 1.344c-.067.269-.121.323-.685.323-.779 0-1.411-.014-1.948-.04-.551-.014-.995-.027-1.438-.027-.121 0-.363.013-.618.013-.255.014-.524.027-.752.027-.135 0-.215-.04-.215-.121 0-.054.04-.121.174-.121.135 0 .256-.013.376-.04.215-.054.283-.283.323-.619.054-.497.054-1.412.054-2.487v-2.057c0-1.775 0-2.111-.014-2.474-.027-.404-.121-.525-.47-.632a1.633 1.633 0 00-.349-.04c-.121 0-.188-.041-.188-.121 0-.081.08-.108.241-.108.511 0 1.196.027 1.492.027.268 0 1.155-.027 1.572-.027.161 0 .228.027.228.108 0 .08-.054.121-.202.121-.147 0-.282.013-.416.04-.296.054-.376.215-.403.632-.027.376-.027.699-.027 2.474zm7.497 0c0 1.492 0 2.245.242 2.46.188.175.604.256 1.437.256.578 0 .994-.014 1.263-.336.148-.202.242-.444.269-.699.013-.108.04-.175.121-.175.067 0 .094.121.094.269a11.26 11.26 0 01-.161 1.344c-.068.269-.121.323-.686.323-.779 0-1.397-.014-1.948-.04-.537-.014-.994-.027-1.437-.027-.121 0-.363.013-.618.013-.256.014-.524.027-.753.027-.134 0-.201-.04-.201-.121 0-.054.04-.121.174-.121.135 0 .256-.013.39-.04.228-.054.282-.283.323-.619.053-.497.053-1.412.053-2.487v-2.057c0-1.775 0-2.111-.013-2.474-.027-.404-.121-.525-.47-.632a1.661 1.661 0 00-.363-.04c-.121 0-.188-.041-.188-.121 0-.081.067-.108.228-.108.511 0 1.196.027 1.491.027.269 0 1.142-.027 1.572-.027.162 0 .229.027.229.108 0 .08-.067.121-.202.121-.134 0-.282.013-.416.04-.296.054-.376.215-.403.632-.027.376-.027.699-.027 2.474zm5.347-2.057c0-1.775 0-2.111-.013-2.474-.027-.403-.121-.524-.471-.632a2.21 2.21 0 00-.43-.04c-.107 0-.188-.04-.188-.121 0-.081.081-.108.242-.108.564 0 1.25.027 1.572.027.349 0 2.754.014 2.956 0 .148-.013.309-.04.457-.067a.682.682 0 01.174-.054c.068 0 .081.054.081.108-.04.255-.081.511-.094.753-.014.121-.04.632-.067.766-.014.054-.041.188-.121.188-.067 0-.081-.053-.081-.147 0-.148-.027-.296-.08-.431-.081-.201-.175-.376-.713-.43-.188-.027-1.477-.054-1.692-.054-.054 0-.081.041-.081.108v2.891c0 .067.013.12.081.12.241 0 1.652 0 1.894-.026.269-.027.417-.054.524-.175.094-.081.121-.148.175-.148.054 0 .094.054.094.121s-.027.255-.094.847c-.027.229-.054.699-.054.78 0 .094-.013.269-.108.269-.04.013-.094-.027-.094-.068v-.026c0-.148-.013-.283-.04-.431-.054-.228-.188-.416-.605-.457-.201-.027-1.424-.054-1.706-.054-.054 0-.067.054-.067.121v.942c0 .403-.013 1.384 0 1.734.027.793.363.982 1.465.982.349.013.698-.027 1.021-.148.268-.135.403-.39.47-.861.027-.121.054-.175.121-.175.08 0 .094.148.094.269-.014.43-.067.861-.148 1.291-.067.309-.175.309-.578.309-.819 0-1.464-.013-2.002-.04-.524-.014-.94-.027-1.249-.027-.121 0-.349.013-.618.013-.255.014-.524.027-.752.027-.135 0-.202-.04-.202-.121 0-.053.04-.121.175-.121.134 0 .255-.013.389-.04.215-.054.282-.282.323-.619.054-.497.053-1.411.053-2.487zm9.109 2.42a2.718 2.718 0 00-.242-1.223c-.08-.175-1.558-2.756-1.934-3.375a2.583 2.583 0 00-.699-.82.917.917 0 00-.457-.148c-.08 0-.161-.04-.161-.121 0-.081.067-.108.201-.108.189 0 .995.027 1.357.027.229 0 .739-.027 1.237-.027.094 0 .161.027.161.108 0 .094-.081.094-.242.161a.187.187 0 00-.148.175c.014.135.067.283.134.404.202.363 1.613 3.092 1.801 3.428.134-.269 1.451-2.783 1.612-3.133.094-.188.148-.403.161-.618 0-.135-.094-.256-.228-.269-.094-.027-.202-.04-.202-.135 0-.08.054-.107.188-.107.363 0 .739.027 1.062.027.242 0 .954-.027 1.155-.027.121 0 .202.027.202.094 0 .081-.081.134-.215.134a1.18 1.18 0 00-.47.135c-.229.134-.43.323-.565.551a40.827 40.827 0 00-2.109 3.738c-.121.376-.161.78-.134 1.17v.941c0 .188 0 .672.027 1.17.026.336.12.564.443.618.175.027.363.04.551.04.121 0 .188.068.188.121 0 .081-.081.121-.229.121-.685 0-1.41-.04-1.706-.04-.269 0-.994.04-1.411.04-.147 0-.228-.027-.228-.121 0-.053.054-.121.175-.121.134 0 .255-.013.389-.04.215-.054.309-.282.336-.618.04-.498.04-.969.04-1.17zm-73.348.409v1.385a.558.558 0 01-.242.551 2.682 2.682 0 01-1.128.161c-2.781 0-4.582-2.366-4.582-5.539 0-1.815.471-2.918 1.209-3.603a3.522 3.522 0 012.607-.915 3.945 3.945 0 012.942 1.157c.269.349.43.779.444 1.223.013.121.04.188.134.188.107 0 .148-.067.148-.309-.014-.807.013-1.613.094-2.42 0-.094-.027-.161-.188-.175a7.011 7.011 0 01-1.048-.161 15.156 15.156 0 00-2.338-.242 5.923 5.923 0 00-3.547.954A5.68 5.68 0 00.101 30.32c0 4.06 2.861 5.768 6.099 5.768a6.845 6.845 0 003.184-.659c.162-.094.175-.134.175-.524v-1.627c0-.686 0-1.237.014-1.667a5.073 5.073 0 01-1.68.282z" fill="#212121"/><path d="M17.943 27.173a5.178 5.178 0 00-1.747-.269h-.121a7.989 7.989 0 00-4.581 1.452c-3.211 2.071-4.138 2.609-7.013 1.506 0 0 3.022 2.165 5.83.471.807-.484.941-.605 1.787-1.157.43-.282.86-.578 1.29-.847a5.954 5.954 0 011.317-.712 2.894 2.894 0 012.606.296 3.846 3.846 0 011.478 2.016c.161.565.242 1.157.229 1.762 0 3.321-1.72 3.711-2.486 3.711-2.042 0-3.265-1.896-3.265-4.289a5.727 5.727 0 01.309-1.963l-.456.295c-.189.121-.39.256-.592.39l-.309.202c-.134.081-.268.175-.403.256a4.974 4.974 0 00-.148 1.169c0 2.071 1.277 4.572 4.434 4.572 2.781 0 4.541-2.098 4.541-4.773-.013-2.044-1.007-3.51-2.7-4.088z" fill="#212121"/></svg>