<svg xmlns="http://www.w3.org/2000/svg" width="107" height="60"><path d="M52.391 17.727l-.09-.003h-.797a.713.713 0 01-.56-.268.725.725 0 01-.142-.61c.069-.324.377-.559.728-.559h.857l.004-.089v-1.026l-.067-.02a2.575 2.575 0 01-1.78-2.84 2.602 2.602 0 012.462-2.224h.209A2.6 2.6 0 0155.7 12.68a2.574 2.574 0 01-1.81 2.469l-.06.019-.003.067v1.045l.089.004h.772c.35 0 .658.235.728.559a.727.727 0 01-.143.609.71.71 0 01-.556.265h-.883l-.004.089v4.671l.09.003a5.423 5.423 0 001.754-.573 5.549 5.549 0 002.711-3.273l.013-.043-.053-.073h-.629c-.407 0-.745-.315-.754-.698a.71.71 0 01.205-.517.711.711 0 01.513-.215h1.622c.39 0 .708.305.718.695a6.925 6.925 0 01-5.607 6.07c-.093.02-.182.033-.268.047-.106.016-.202.03-.298.039h-.043l-.003.004-.073.006a1.711 1.711 0 00-1.327.94v-7.162zm.387-6.189a1.185 1.185 0 00-.861 1.145c0 .308.116.599.328.821.222.238.536.374.864.374a1.194 1.194 0 00.331-2.337 1.225 1.225 0 00-.331-.046 1.067 1.067 0 00-.331.043zM50.447 23.4a.844.844 0 01-.195-.026 4.626 4.626 0 01-.238-.116 6.911 6.911 0 01-3.787-5.259l-.026-.199a.737.737 0 01.579-.708l.334.003c.215.05.407.209.5.427a4.286 4.286 0 00.053.414c.04.238.093.476.162.701a5.541 5.541 0 002.784 3.317l.016.016h.017c.076.04.152.073.228.11a.733.733 0 01.302.589.727.727 0 01-.729.731zM57.819 0h-9.424c-.391 0-.765.086-1.112.255a2.657 2.657 0 00-1.463 2.373v2.194a3.562 3.562 0 001.744 3.075 3.413 3.413 0 004.217-.579l1.324-1.347 1.291 1.317a3.416 3.416 0 004.25.612 3.558 3.558 0 001.741-3.074V2.618c0-1.44-1.149-2.618-2.568-2.618zm-7.054 6.275a2.01 2.01 0 01-1.456.646 2.02 2.02 0 01-1.506-.675 2.128 2.128 0 01-.55-1.424V2.628c0-.645.513-1.168 1.149-1.168.119 0 .238.023.344.059l.026.01 1.338 1.377 1.979 2.026zm6.146.629a2.038 2.038 0 01-1.499-.662L50.92 1.648v-.192h6.905c.626 0 1.132.517 1.132 1.149v2.217c0 .133-.01.262-.036.388a2.051 2.051 0 01-2.01 1.694z" fill="#212121"/><path d="M47.452 6.977a3.533 3.533 0 00-1.622-2.161l-.004-.004-1.86-1.092a2.482 2.482 0 00-1.274-.351c-.917 0-1.771.503-2.228 1.317l-4.713 8.341a2.652 2.652 0 00.937 3.588l1.856 1.095h.004a3.397 3.397 0 003.469 0 3.509 3.509 0 001.284-1.304c.47-.837.589-1.8.341-2.724l-.483-1.846 1.76-.484a3.436 3.436 0 002.178-1.671 3.588 3.588 0 00.471-1.781c0-.311-.037-.615-.116-.923zm-5.386 8.698a2.053 2.053 0 01-1.327.999 2.045 2.045 0 01-1.483-.231l-1.86-1.096a1.172 1.172 0 01-.533-.711 1.202 1.202 0 01.116-.887c.063-.106.136-.202.225-.275l.023-.02 1.831-.5 2.704-.741.486 1.847a2.139 2.139 0 01-.182 1.615zM45.86 8.94a2.06 2.06 0 01-1.314.992l-6.088 1.669-.052.009-.163-.086 3.456-6.113c.202-.36.576-.579.98-.579.192 0 .384.05.556.152l1.877 1.112c.115.063.215.136.314.225.741.643.923 1.748.434 2.619z" fill="#212121"/><path d="M47.097 25.736a3.443 3.443 0 00-2.131-1.668l-1.807-.493.473-1.801a3.606 3.606 0 00-.331-2.763c-.315-.553-.761-1-1.284-1.305a3.388 3.388 0 00-3.469-.003l-.004.003-1.86 1.096a2.585 2.585 0 00-1.195 1.589 2.65 2.65 0 00.259 1.992l4.71 8.341c.195.344.456.632.774.854.431.301.934.46 1.457.46.446 0 .89-.123 1.277-.351l1.857-1.092.003-.004a3.5 3.5 0 001.602-2.091c.093-.321.14-.652.14-.983 0-.619-.163-1.235-.471-1.781zm-6.494 1.883l-.016.057-.156.086-3.452-6.11a1.16 1.16 0 01.407-1.572l1.877-1.112c.112-.063.228-.12.347-.159.216-.076.437-.119.666-.119.728 0 1.41.403 1.774 1.052.281.497.347 1.106.182 1.655zm4.829 1.486a2.812 2.812 0 01-.317.229l-1.86 1.095c-.176.1-.371.156-.57.156-.41 0-.791-.225-.996-.589a1.005 1.005 0 01-.119-.334l-.004-.027.494-1.87.728-2.764 1.8.493c.557.146 1.007.49 1.275.97.291.513.357 1.106.182 1.672a2.09 2.09 0 01-.613.969z" fill="#212121"/><path d="M59.417 28.126a3.576 3.576 0 00-.768-.609v-.003a3.437 3.437 0 00-1.741-.477c-.943 0-1.824.374-2.476 1.056l-1.324 1.354-1.29-1.321a3.413 3.413 0 00-2.509-1.089c-.629 0-1.232.172-1.741.48a3.556 3.556 0 00-1.745 3.071v2.205c0 1.443 1.155 2.618 2.572 2.618h9.424c.39 0 .764-.086 1.112-.255a2.636 2.636 0 001.456-2.367v-2.197a3.59 3.59 0 00-.97-2.466zm-4.124 5.829h-6.908a1.134 1.134 0 01-1.125-1.142v-2.221c0-.133.01-.262.036-.387a2.05 2.05 0 012.009-1.695c.57 0 1.112.242 1.5.669l4.455 4.557.04.04v.179zm3.671-1.166a1.16 1.16 0 01-1.149 1.166.984.984 0 01-.344-.06l-.026-.01-1.338-1.37-1.979-2.026 1.324-1.354c.397-.41.917-.638 1.456-.638.576 0 1.113.238 1.506.672a2.123 2.123 0 01.55 1.423z" fill="#212121"/><path d="M69.526 18.799l-1.857-1.096h-.003a3.412 3.412 0 00-2.575-.371 3.21 3.21 0 00-.901.374c-.526.308-.97.758-1.277 1.305-.47.83-.59 1.8-.341 2.72l.483 1.847-1.761.483a3.456 3.456 0 00-2.178 1.678 3.578 3.578 0 00-.47 1.778v.003c0 .308.036.612.116.92a3.54 3.54 0 001.622 2.158l1.863 1.102c.391.229.828.348 1.275.348a2.57 2.57 0 002.227-1.311l4.714-8.341c.192-.344.307-.718.341-1.112a2.652 2.652 0 00-1.278-2.485zm-5.011 11.21a1.128 1.128 0 01-.98.579c-.192 0-.384-.056-.556-.155l-1.877-1.106a1.972 1.972 0 01-.314-.228 2.12 2.12 0 01-.434-2.628 2.062 2.062 0 011.314-.993l6.087-1.665.053-.013.162.093zm4.716-8.347a1.11 1.11 0 01-.225.278l-.023.02-1.83.493-2.705.744-.486-1.846a2.136 2.136 0 01.182-1.612 2.043 2.043 0 011.327-.997 1.964 1.964 0 011.483.225l1.86 1.103c.265.155.45.407.533.708.076.298.037.612-.116.884z" fill="#212121"/><path d="M70.466 13.027l-4.71-8.341a2.608 2.608 0 00-.775-.861 2.526 2.526 0 00-2.734-.109l-1.86 1.096a3.528 3.528 0 00-1.605 2.098 3.633 3.633 0 00.334 2.764 3.47 3.47 0 002.132 1.664l1.807.494-.473 1.8a3.623 3.623 0 00.331 2.77c.307.55.754.997 1.277 1.305a3.389 3.389 0 003.476 0l.003-.004 1.86-1.095a2.584 2.584 0 001.195-1.592 2.626 2.626 0 00-.258-1.989zm-7.037-2.619l-1.807-.493a2.032 2.032 0 01-1.271-.969 2.09 2.09 0 01-.182-1.672 2.035 2.035 0 01.93-1.191l1.86-1.096c.175-.106.371-.159.569-.159.411 0 .791.229.996.589.06.106.1.219.12.335l.003.026-.493 1.87zm5.925 4.224a1.099 1.099 0 01-.523.698l-1.877 1.112a2.647 2.647 0 01-.348.166 1.98 1.98 0 01-.665.116c-.728 0-1.41-.404-1.774-1.046a2.147 2.147 0 01-.182-1.658l1.645-6.269.156-.1 3.455 6.114c.149.258.189.569.113.867zM51.603 39.867v11.488h-2.135v-9.674l-5.392 9.224-.682-1.158-4.654-7.937v9.549h-.814V39.87h2.168l4.75 8.1 4.759-8.1h2zm-41.332 7.867c0 .652-.162 1.264-.483 1.817a3.589 3.589 0 01-1.318 1.317 3.577 3.577 0 01-1.82.484H0V39.863h6.269c.722 0 1.688.225 2.142.659.46.44.695 1.006.695 1.685 0 .506-.189.973-.56 1.383a2.972 2.972 0 01-.867.662c.381.109.738.285 1.066.52a3.652 3.652 0 011.526 2.962zm-3.32-5.339c0-.513-.149-.923-.46-1.254-.301-.324-.752-.487-1.331-.487H2.148v3.486h3.029c.493 0 .903-.169 1.254-.517a1.65 1.65 0 00.52-1.228zm.831 6.785c.225-.423.341-.91.341-1.446 0-.5-.123-.966-.371-1.387a2.865 2.865 0 00-1.023-1.026 2.923 2.923 0 00-1.426-.423H2.148v5.669h3.019c.629 0 1.172-.126 1.615-.377.44-.248.775-.589 1-1.01zm6.752-8.542v3.736h3.883v.772h-3.883v5.434h6.726v.772h-8.877V39.863h8.877v.775zm17.725 9.946v.771h-8.877V39.867h2.148v10.717z" fill="#212121"/><path d="M51.603 39.867v11.488h-2.135v-9.674l-5.392 9.224-.682-1.158-4.654-7.937v9.549h-.814V39.87h2.168l4.75 8.1 4.759-8.1h2zm12.693 11.489h-2.363l-1.086-2.373h-6.024l-1.145 2.373h-.858l5.892-12.213zm-6.382-8.784L55.2 48.198h5.283zM75.6 51.044l.105.036v.268l-.159.004h-1.668a3.296 3.296 0 01-2.323-.95l-1.387-1.364a2.327 2.327 0 00-1.642-.672h-1.033v2.986h-2.148V39.863h6.107c.943 0 1.807.288 2.575.858a4.22 4.22 0 011.678 3.392 4.256 4.256 0 01-3.194 4.134 4.017 4.017 0 01-.218.046c.261.163.569.364.705.5l1.109 1.125c.466.474.963.947 1.493 1.126zm-8.1-10.363v6.874h2.717a3.497 3.497 0 001.103-.231c.228-.087.41-.176.579-.279a3.65 3.65 0 001.221-1.244c.298-.506.45-1.072.45-1.681 0-.646-.135-1.235-.407-1.751a3.033 3.033 0 00-1.195-1.228c-.526-.305-1.175-.457-1.923-.457H67.5zm10.331 10.674V39.867h2.148v11.488zm15.692-11.488v11.488h-.602l-10.026-8.48v8.42h-.814V39.863h1.012l5.091 4.379 4.525 3.664v-8.039zm12.69 11.489h-2.363l-1.086-2.373H96.74l-1.145 2.373h-.857l5.892-12.213zm-6.378-8.784l-2.714 5.626h5.283zm-89.564 5.162c0 .652-.162 1.264-.483 1.817a3.589 3.589 0 01-1.318 1.317 3.577 3.577 0 01-1.82.484H0V39.863h6.269c.722 0 1.688.225 2.142.659.46.44.695 1.006.695 1.685 0 .506-.189.973-.56 1.383a2.972 2.972 0 01-.867.662c.381.109.738.285 1.066.52a3.652 3.652 0 011.526 2.962zm-3.32-5.339c0-.513-.149-.923-.46-1.254-.301-.324-.752-.487-1.331-.487H2.148v3.486h3.029c.493 0 .903-.169 1.254-.517a1.65 1.65 0 00.52-1.228zm.831 6.785c.225-.423.341-.91.341-1.446 0-.5-.123-.966-.371-1.387a2.865 2.865 0 00-1.023-1.026 2.923 2.923 0 00-1.426-.423H2.148v5.669h3.019c.629 0 1.172-.126 1.615-.377.44-.248.775-.589 1-1.01z" fill="#212121"/><path d="M51.603 39.867v11.488h-2.135v-9.674l-5.392 9.224-.682-1.158-4.654-7.937v9.549h-.814V39.87h2.168l4.75 8.1 4.759-8.1h2zm-41.332 7.867c0 .652-.162 1.264-.483 1.817a3.589 3.589 0 01-1.318 1.317 3.577 3.577 0 01-1.82.484H0V39.863h6.269c.722 0 1.688.225 2.142.659.46.44.695 1.006.695 1.685 0 .506-.189.973-.56 1.383a2.972 2.972 0 01-.867.662c.381.109.738.285 1.066.52a3.652 3.652 0 011.526 2.962zm-3.32-5.339c0-.513-.149-.923-.46-1.254-.301-.324-.752-.487-1.331-.487H2.148v3.486h3.029c.493 0 .903-.169 1.254-.517a1.65 1.65 0 00.52-1.228zm.831 6.785c.225-.423.341-.91.341-1.446 0-.5-.123-.966-.371-1.387a2.865 2.865 0 00-1.023-1.026 2.923 2.923 0 00-1.426-.423H2.148v5.669h3.019c.629 0 1.172-.126 1.615-.377.44-.248.775-.589 1-1.01z" fill="#212121"/><path d="M51.603 39.867v11.488h-2.135v-9.674l-5.392 9.224-.682-1.158-4.654-7.937v9.549h-.814V39.87h2.168l4.75 8.1 4.759-8.1h2zM26.579 55.793h.51v1.956h2.181v-1.956h.51v4.174h-.51v-1.751h-2.181v1.751h-.51zm5.114 2.085c0-1.241.88-2.128 2.098-2.128 1.169 0 2.082.851 2.082 2.128 0 1.271-.91 2.122-2.082 2.122-1.218 0-2.098-.884-2.098-2.122zm3.644 0c0-.97-.682-1.645-1.546-1.645-.903 0-1.562.699-1.562 1.645 0 .94.659 1.639 1.562 1.639.864 0 1.546-.676 1.546-1.639zm2.473-2.085h.51v4.174h-.51zm3.843 0h.509l1.586 4.174h-.536l-.378-1.017h-1.857l-.371 1.017h-.536zm1.029 2.707l-.771-2.091h-.014l-.758 2.091zm2.79-2.707h.507l2.356 3.32h.007v-3.32h.51v4.174h-.523l-2.334-3.287h-.013v3.287h-.51zm7.07 0h1.48c.963 0 1.38.553 1.38 1.294 0 .698-.38 1.106-1.039 1.241l1.152 1.639h-.612l-1.106-1.592h-.745v1.592h-.51zm1.341 2.115c.695 0 .993-.354.993-.834 0-.536-.347-.818-.923-.818h-.901v1.652zm3.489-2.115h2.555v.463h-2.045v1.4h1.674v.464h-1.674v1.38h2.168v.463h-2.681v-4.17zm4.273 3.561l.328-.393a1.49 1.49 0 001.152.562c.509 0 .857-.235.857-.642 0-.463-.377-.589-.934-.798-.615-.228-1.244-.493-1.244-1.228 0-.622.559-1.105 1.274-1.105.464 0 .924.169 1.318.486l-.311.408c-.335-.275-.696-.424-1.007-.424-.394 0-.741.212-.744.612-.007.401.37.546.893.745.699.275 1.294.463 1.294 1.245 0 .764-.668 1.174-1.4 1.174a1.988 1.988 0 01-1.476-.642zm4.554-1.476c0-1.241.881-2.128 2.099-2.128 1.168 0 2.082.851 2.082 2.128 0 1.271-.911 2.122-2.082 2.122-1.218 0-2.099-.884-2.099-2.122zm3.644 0c0-.97-.681-1.645-1.545-1.645-.904 0-1.563.699-1.563 1.645 0 .94.659 1.639 1.563 1.639.864 0 1.545-.676 1.545-1.639zm2.444-2.085h1.479c.963 0 1.38.553 1.38 1.294 0 .698-.38 1.106-1.039 1.241l1.152 1.639h-.612l-1.106-1.592h-.745v1.592h-.509zm1.34 2.115c.695 0 .993-.354.993-.834 0-.536-.347-.818-.923-.818h-.901v1.652zm4.26-1.652h-1.244v-.463h3.022v.463H78.4v3.707h-.51v-3.707z" fill="#212121"/></svg>