<svg xmlns="http://www.w3.org/2000/svg" width="86" height="60"><path d="M0 60V0h85.641v60z" fill="transparent"/><path d="M30.361 56.184c.068-.069.136-.137.203-.137.136 0 .285.068.285.287v.137l-1.397 3.378c-.068.068-.136.137-.204.137-.136 0-.204-.069-.204-.137l-1.398-3.378v-.137c0-.137.068-.287.285-.287.136 0 .204.068.204.137l1.181 2.899zm1.819 3.323c-.285-.287-.421-.629-.421-1.121v-2.038c0-.205.068-.288.285-.288.204 0 .285.069.285.288v2.12c0 .287.068.56.285.779.204.205.421.287.774.287.353 0 .624-.068.774-.287.135-.205.285-.424.285-.779v-2.12c0-.205.067-.288.285-.288.217 0 .285.069.285.288v2.038c0 .492-.136.848-.421 1.121-.285.287-.706.424-1.195.424-.583 0-.936-.15-1.221-.424zm7.139.137c0 .137-.068.287-.285.287-.068 0-.136 0-.203-.068l-2.172-2.749v2.612c0 .137-.068.287-.285.287-.136 0-.285-.068-.285-.287v-3.378c0-.137.068-.287.285-.287.068 0 .136.068.204.136l2.171 2.749v-2.612c0-.137.068-.287.285-.287.136 0 .285.068.285.287zm4.546-.493c0 .069 0 .137-.067.206-.353.424-.842.629-1.534.629a1.938 1.938 0 01-1.398-.561c-.353-.356-.556-.848-.556-1.409 0-.56.203-1.053.556-1.408a1.897 1.897 0 011.33-.561c.285 0 .489.068.706.137.217.068.421.205.556.355.068.069.068.137.068.205 0 .137-.068.288-.285.288-.068 0-.136 0-.203-.069-.285-.205-.625-.355-.91-.355-.42 0-.706.136-.977.424-.285.287-.353.629-.353 1.053 0 .424.136.779.353 1.053.285.287.557.424 1.045.424.421 0 .774-.137 1.045-.356v-.711h-.909c-.136 0-.285-.068-.285-.287 0-.137.068-.205.285-.205h1.194c.204 0 .285.068.285.287v.848h.054zm5.674-2.543h-1.045v3.036c0 .205-.068.287-.285.287-.217 0-.285-.068-.285-.287v-3.036h-1.045c-.136 0-.285-.069-.285-.288 0-.136.068-.287.285-.287h2.66c.136 0 .285.069.285.287-.014.219-.082.288-.285.288zm2.728.218l-.706 1.628h1.398zm1.751 2.749v.137c0 .137-.068.287-.285.287-.136 0-.204-.068-.204-.136l-.353-.917h-1.751l-.352.848c-.068.069-.136.137-.204.137-.136 0-.285-.068-.285-.287v-.137l1.466-3.31c.068-.068.135-.137.203-.137.136 0 .204.069.204.137zm1.397-.068c-.285-.287-.42-.629-.42-1.121v-2.038c0-.205.068-.288.285-.288.203 0 .285.069.285.288v2.12c0 .287.068.56.285.779.203.205.42.287.773.287.353 0 .625-.068.774-.287.149-.219.285-.424.285-.779v-2.12c0-.205.068-.288.285-.288.203 0 .285.069.285.288v2.038c0 .492-.136.848-.421 1.121-.285.287-.705.424-1.194.424-.529 0-.95-.15-1.222-.424z" fill="#BDBDBD"/><path d="M6.718 49.345H1.819v-8.384c0-.56-.353-.916-.91-.916-.556 0-.909.356-.909.916v9.164c0 .56.353.916.909.916h5.809c.557 0 .842-.287.842-.848 0-.561-.285-.848-.842-.848zm5.877-9.3c-.557 0-.91.356-.91.916v9.3c0 .561.353.917.91.917.556 0 .909-.356.909-.917v-9.3c-.068-.56-.353-.916-.909-.916zm12.866 9.382H20.29v-3.036h2.728c.557 0 .842-.287.842-.848 0-.561-.285-.848-.842-.848H20.29v-2.817h4.9c.556 0 .841-.288.841-.848 0-.561-.285-.848-.841-.848h-5.809c-.556 0-.909.355-.909.916v9.095c0 .561.353.916.909.916h6.08c.557 0 .842-.287.842-.848 0-.56-.272-.834-.842-.834zm11.687-9.245h-5.877c-.557 0-.91.355-.91.916v9.232c0 .561.353.916.91.916.556 0 .909-.355.909-.916v-3.953h2.728c.557 0 .841-.287.841-.848 0-.561-.284-.848-.841-.848H32.18v-2.749h4.968c.556 0 .841-.287.841-.848 0-.56-.285-.902-.841-.902z" fill="#212121"/><path d="M52.05 40.045c-.353 0-.625.205-.842.561l-3.841 8.042-3.854-8.042c-.136-.356-.421-.561-.842-.561-.556 0-.841.287-.841.848v9.382c0 .561.285.848.841.848s.842-.287.842-.848v-5.853l3.013 6.209c.135.355.42.492.773.492.353 0 .624-.205.774-.492l3.013-6.209v5.853c0 .561.285.848.841.848.557 0 .842-.287.842-.848v-9.382c.122-.492-.231-.848-.719-.848zm6.718 0c-.557 0-.91.356-.91.916v9.3c0 .561.353.917.91.917.556 0 .909-.356.909-.917v-9.3c0-.56-.285-.916-.909-.916zm12.595 9.3h-4.9v-8.384c0-.56-.353-.916-.909-.916-.557 0-.91.356-.91.916v9.164c0 .56.353.916.91.916h5.809c.556 0 .841-.287.841-.848 0-.561-.285-.848-.841-.848zm10.912-2.53h-3.42l1.75-4.021zm3.284 3.173l-4.193-9.382c-.136-.356-.421-.561-.842-.561-.353 0-.624.205-.841.492l-4.194 9.383c-.068.136-.068.287-.068.355 0 .561.285.848.841.848.353 0 .625-.205.842-.492l1.045-2.257h4.764l1.045 2.257c.136.355.421.492.841.492.557 0 .842-.287.842-.848 0-.082 0-.15-.082-.287zm-34.69-33.849h-9.731v11.215c0 2.749 2.171 4.937 4.899 4.937h4.764c4.411 0 7.981-3.597 7.981-8.042.054-4.513-3.516-8.11-7.913-8.11z" fill="#BDBDBD"/><path d="M42.82 27.285V7.96c0-4.377-3.569-7.96-7.98-7.96-4.411 0-7.981 3.597-7.981 8.042v19.243c0 2.749 2.172 4.937 4.9 4.937h16.015c-2.714 0-4.954-2.188-4.954-4.937z" fill="#212121"/></svg>