<svg xmlns="http://www.w3.org/2000/svg" width="104" height="42"><path d="M2.061.907H.208v26.085h12.989v-.871H2.061zm15.097 0h-1.801l-2.08 8.699h1.147zm10.002 0l-8.362 26.085h.64l7.428-23.123 7.602 23.123h1.854L27.747.907zm23.925 22.734L43.683.907h-1.787v26.085h.627V3.4l7.802 23.592h.693L58.326 3.4v23.592h1.841V.907H58.46zM75.517.907c-3.028 0-4.855 1.166-6.869 3.512-2.013 2.359-3.027 5.469-3.027 9.356 0 3.981 1.014 7.212 2.974 9.598 1.987 2.426 3.868 3.619 6.948 3.619 3.201 0 5.081-1.193 7.042-3.619 1.933-2.386 2.92-5.55 2.92-9.464 0-4.021-1.013-7.211-3.054-9.53C80.424 2.06 78.544.907 75.517.907zm.04 25.147c-4.655 0-7.629-5.402-7.629-12.064s2.748-12.064 7.629-12.064c4.881 0 7.628 5.402 7.628 12.064s-2.374 12.064-7.628 12.064zm20.777-11.635c.347-.054.707-.108 1.081-.188 1.653-.349 3.186-1.166 4.32-2.493l.067-.067c.013-.014.027-.04.04-.054.147-.174.28-.375.4-.563.013-.027.04-.054.053-.08.641-1.033.96-2.266.96-3.606 0-1.448-.373-2.681-1.12-3.74-.746-1.019-1.747-1.662-2.96-2.104-1.201-.47-2.787-.617-4.735-.617h-3.48v26.085h1.906V1.859h1.547c2.868 0 4.828.362 5.695 1.447.867 1.086 1.281 2.453 1.281 4.263 0 1.005-.107 1.836-.374 2.56-.24.684-.586 1.26-1.04 1.703a5.916 5.916 0 01-4.201 1.729h-1.881l8.163 13.444h1.893zM8.543 39.873c.026 0 .066-.027.106-.094a.776.776 0 00.094-.321l.52-3.378c.026-.148.026-.255 0-.322-.027-.067-.054-.094-.08-.107h2.48c.374 0 .667.04.88.12.214.081.36.202.44.362.081.161.094.335.067.55-.027.161-.08.295-.147.402a.904.904 0 01-.266.282c-.094.067-.2.12-.294.16v.014c.294.067.507.201.627.389.12.187.16.429.12.71-.04.228-.12.442-.253.617a1.35 1.35 0 01-.587.442c-.253.107-.573.161-.96.161H8.543zm1.306-.563h1.427c.347 0 .601-.067.761-.187a.742.742 0 00.293-.496c.04-.242-.013-.416-.173-.523-.147-.107-.44-.161-.894-.161H10.05a.786.786 0 00-.254.027c-.027.013-.053.08-.067.187l-.146.939c-.014.107-.014.161.013.187.027.014.107.027.253.027zm.281-1.863h1.28c.267 0 .467-.054.6-.147.133-.108.227-.269.267-.496.026-.188-.014-.336-.12-.429-.107-.094-.32-.148-.614-.148H10.33a.817.817 0 00-.254.027c-.026.013-.053.08-.066.188l-.12.804c-.014.107-.014.161.013.188.013 0 .093.013.227.013zm5.174 2.507c-.467 0-.814-.08-1.067-.228-.24-.147-.4-.348-.453-.616a2.092 2.092 0 01-.027-.871 2.66 2.66 0 01.293-.885 1.54 1.54 0 01.654-.617c.28-.147.653-.228 1.12-.228.467 0 .814.081 1.054.228.24.148.386.362.466.617.067.254.08.549.027.885a2.597 2.597 0 01-.293.871c-.147.255-.36.456-.641.616-.28.148-.653.228-1.133.228zm.08-.509c.293 0 .52-.04.693-.134a.835.835 0 00.387-.416c.094-.174.147-.402.187-.656.04-.255.04-.483 0-.657-.04-.188-.12-.322-.267-.416-.147-.094-.36-.147-.64-.147s-.52.053-.693.147a1.03 1.03 0 00-.4.429 2.216 2.216 0 00-.201.657c-.04.255-.04.469-.013.643a.59.59 0 00.267.416c.173.094.387.134.68.134zm3.921.509c-.267 0-.494-.054-.694-.148a.776.776 0 01-.386-.496c-.08-.241-.08-.563-.014-.992l.2-1.313c.027-.148.027-.255 0-.322-.026-.067-.04-.094-.08-.094h1.001c-.027 0-.067.027-.12.094a.994.994 0 00-.107.322l-.213 1.407c-.067.402-.027.67.079.818.121.147.294.214.521.214.226 0 .44-.053.626-.174.187-.107.347-.268.467-.469.12-.201.214-.416.24-.67l.174-1.14c.026-.147.026-.254 0-.321-.027-.067-.054-.094-.08-.108h.853l-.44 2.869c-.027.147-.027.255 0 .322s.04.093.08.093h-.853l.066-.415.04-.134-.013-.014c-.04.054-.094.121-.173.188-.081.067-.174.148-.294.215a1.79 1.79 0 01-.4.174 1.058 1.058 0 01-.48.094zm4.214 0c-.32 0-.547-.067-.667-.201s-.16-.362-.107-.684l.307-1.984h-.627l.08-.496c.214 0 .387-.027.521-.08a.627.627 0 00.306-.282c.067-.134.134-.321.16-.563h.507l-.147.939h1.334c-.04.04-.08.12-.12.201-.04.094-.08.187-.093.281h-1.201l-.293 1.877c-.027.214-.013.348.053.402.067.054.16.08.294.08.12 0 .226-.026.333-.08.107-.054.2-.107.293-.174.094-.067.16-.134.214-.201l-.027.214.013.402a1.507 1.507 0 01-.24.148 2.003 2.003 0 01-.373.134c-.173.04-.333.067-.52.067zm1.68-.081c.027 0 .067-.027.107-.094.04-.067.067-.174.093-.321l.374-2.453c.026-.148.026-.255 0-.322-.027-.067-.054-.094-.08-.107h.853l-.44 2.868c-.027.148-.027.255 0 .322s.04.094.08.094h-.987zm1.027-3.968c-.133 0-.24-.04-.293-.12a.33.33 0 01-.067-.268.412.412 0 01.147-.268c.08-.081.2-.108.333-.108.134 0 .24.041.307.108.067.08.08.16.067.268a.415.415 0 01-.16.268c-.08.08-.187.12-.334.12zm3.121 5.684c.013-.04.04-.107.08-.201.026-.094.053-.214.08-.362l.213-1.367.04-.134-.013-.013c-.08.08-.187.147-.294.214a1.77 1.77 0 01-.4.161c-.146.04-.32.054-.506.054-.44 0-.774-.081-1.001-.228a.912.912 0 01-.413-.617 2.7 2.7 0 01-.013-.871c.053-.335.146-.617.28-.885.133-.254.333-.469.6-.616.267-.148.627-.228 1.067-.228.186 0 .347.013.493.053.147.041.254.081.36.134.094.054.174.134.24.201l.014-.013v-.134l.026-.188h.867c-.027 0-.067.041-.12.108a.772.772 0 00-.093.335L30.24 41c-.026.147-.026.254 0 .321.027.067.04.094.067.094-.2 0-.387.014-.56.04-.187.081-.307.108-.4.134zm-.694-2.144c.24 0 .44-.041.587-.108a.93.93 0 00.374-.294c.093-.121.16-.255.213-.389.053-.134.08-.282.107-.416.013-.12.026-.254.013-.402a.997.997 0 00-.093-.402.683.683 0 00-.281-.308c-.133-.081-.32-.121-.546-.121-.387 0-.681.107-.854.335-.187.228-.306.523-.36.898a2.11 2.11 0 00-.013.644c.026.174.12.321.253.415.134.107.334.148.6.148zm4.175.509c-.267 0-.494-.054-.694-.148a.78.78 0 01-.387-.496c-.08-.241-.08-.563-.013-.992l.2-1.313c.027-.148.027-.255 0-.322s-.04-.094-.08-.094h1c-.026 0-.066.027-.12.094a.974.974 0 00-.106.322l-.214 1.407c-.066.402-.026.67.08.818.12.147.294.214.52.214.227 0 .44-.053.627-.174.187-.107.347-.268.467-.469a1.62 1.62 0 00.24-.67l.173-1.14c.027-.147.027-.254 0-.321-.026-.067-.053-.094-.08-.108h.854l-.44 2.869c-.027.147-.027.255 0 .322.026.067.04.093.08.093h-.854l.067-.415.04-.134-.013-.014c-.04.054-.094.121-.174.188-.08.067-.173.148-.293.215s-.254.134-.4.174a1.064 1.064 0 01-.48.094zm4.614 0c-.373 0-.667-.041-.894-.134a1.04 1.04 0 01-.506-.362 1.23 1.23 0 01-.2-.537 2.3 2.3 0 01.026-.67c.08-.536.294-.951.64-1.26.347-.308.814-.469 1.414-.469.347 0 .614.054.814.148.2.093.333.214.426.375.08.161.134.322.147.496.013.174 0 .362-.027.536l-.053.335c0-.013-.053-.027-.187-.04a6.457 6.457 0 00-.64-.027h-1.84c-.054.349.013.617.186.818.174.201.467.308.867.308.347 0 .64-.04.881-.134.24-.08.4-.174.493-.255l-.027.134v.47c-.106.067-.306.12-.573.187-.254.04-.574.081-.947.081zm-.52-2.091h1.694a1.188 1.188 0 00-.014-.376.558.558 0 00-.227-.335c-.12-.094-.293-.134-.533-.134-.2 0-.387.04-.547.107-.16.067-.293.161-.387.268a.666.666 0 00-.173.349c-.013.054 0 .08.027.107.027 0 .08.014.16.014zm4.747 2.01c.027 0 .067-.027.107-.094a.763.763 0 00.093-.321l.521-3.378c.026-.148.026-.255 0-.322-.027-.067-.054-.094-.08-.107h1.08c-.027 0-.067.027-.107.094a.772.772 0 00-.093.335l-.174 1.152c-.013.108-.013.161.014.188a.674.674 0 00.24.027h2.094a.783.783 0 00.253-.027c.027-.013.053-.08.067-.188l.173-1.152c.027-.148.027-.255 0-.322s-.053-.094-.08-.107h1.08c-.027 0-.066.027-.106.094a.757.757 0 00-.094.335l-.52 3.364c-.027.148-.027.255 0 .322s.053.094.08.094h-1.08c.026 0 .066-.027.106-.094a.777.777 0 00.094-.322l.186-1.233c.014-.107.014-.174-.013-.188a.716.716 0 00-.24-.026h-2.094a.827.827 0 00-.253.026c-.027.014-.053.081-.067.188l-.186 1.233c-.027.148-.027.255 0 .322.026.067.053.094.08.094h-1.081zm7.122.081c-.467 0-.814-.08-1.067-.228-.24-.147-.4-.348-.453-.616a2.075 2.075 0 01-.027-.871 2.66 2.66 0 01.293-.885 1.54 1.54 0 01.654-.617c.28-.147.653-.228 1.12-.228.467 0 .813.081 1.054.228.24.148.386.362.466.617.067.254.08.549.027.885a2.597 2.597 0 01-.293.871 1.669 1.669 0 01-.641.616c-.293.148-.666.228-1.133.228zm.08-.509c.293 0 .52-.04.693-.134a.835.835 0 00.387-.416c.093-.174.147-.402.187-.656.04-.255.04-.483 0-.657-.04-.188-.12-.322-.267-.416-.147-.094-.36-.147-.64-.147s-.52.053-.694.147a1.042 1.042 0 00-.4.429c-.093.188-.16.402-.2.657-.04.255-.04.469-.013.643a.59.59 0 00.267.416c.173.094.386.134.68.134zm3.787.509c-.32 0-.547-.067-.667-.201s-.16-.362-.106-.684l.306-1.984h-.626l.08-.496c.213 0 .386-.027.52-.08a.629.629 0 00.307-.282c.066-.134.12-.322.16-.576h.506l-.146.938h1.333c-.04.04-.08.121-.12.201-.04.094-.08.188-.093.282h-1.2l-.294 1.876c-.026.215-.013.349.054.402.066.054.16.081.293.081.12 0 .227-.027.333-.067.107-.054.2-.107.294-.174a1.04 1.04 0 00.213-.201l-.027.214.014.402c-.054.04-.133.094-.24.148a2.119 2.119 0 01-.894.201zm3.428 0c-.374 0-.667-.041-.894-.134a1.038 1.038 0 01-.507-.362 1.255 1.255 0 01-.2-.537 2.338 2.338 0 01.027-.67c.08-.536.293-.951.64-1.26.347-.308.814-.469 1.414-.469.347 0 .613.054.813.134.2.094.334.215.427.375.08.161.133.322.147.496.013.175 0 .362-.027.537l-.053.335c0-.014-.054-.027-.187-.04a6.17 6.17 0 00-.64-.027h-1.84c-.054.348.013.616.186.817.174.201.467.309.867.309.347 0 .64-.041.88-.134.24-.081.4-.175.494-.255l-.027.134v.469c-.107.067-.307.121-.573.188a4.656 4.656 0 01-.947.094zm-.52-2.091h1.693a1.16 1.16 0 00-.013-.376.567.567 0 00-.227-.335c-.12-.094-.293-.134-.533-.134-.2 0-.387.04-.547.107-.16.067-.293.161-.387.268a.666.666 0 00-.173.349c-.013.04 0 .08.027.107.04 0 .08.014.16.014zm2.867 2.01c.027 0 .067-.026.107-.093.04-.067.066-.175.093-.322l.613-4.008c.027-.147.027-.255 0-.322-.026-.067-.053-.094-.08-.107.2 0 .387-.013.547-.04.16-.027.267-.067.334-.094l-.694 4.571c-.027.147-.027.255 0 .322s.053.093.08.093zm5.868.081c-.747 0-1.28-.174-1.614-.536-.333-.362-.44-.912-.32-1.662.067-.443.2-.831.414-1.153.2-.322.493-.563.853-.751.36-.174.813-.268 1.347-.268h.213c.534 0 .947.094 1.241.255.306.174.506.429.613.751.107.321.12.71.053 1.152-.106.738-.386 1.287-.813 1.649-.427.362-1.014.55-1.76.55h-.227zm.16-.576h.08c.347 0 .64-.054.88-.161.24-.107.427-.268.574-.51.146-.241.253-.563.306-.965.067-.402.054-.71-.026-.951-.08-.228-.214-.402-.427-.496-.214-.108-.48-.148-.827-.148h-.08c-.347 0-.653.054-.894.161-.253.107-.44.268-.6.509-.146.228-.253.55-.32.939-.066.402-.053.724.027.965s.227.415.44.509c.24.094.52.148.867.148zm1.36 1.783c-.227 0-.4-.041-.533-.121a1.015 1.015 0 01-.32-.308 5.807 5.807 0 01-.227-.362 1.382 1.382 0 00-.24-.309.498.498 0 00-.347-.12c-.133 0-.253.026-.32.08a.294.294 0 00-.133.188.262.262 0 000 .147c.013.054.013.094.026.134a.793.793 0 00-.186-.094.972.972 0 00-.28-.04.809.809 0 01.36-.576c.2-.134.426-.201.68-.201.24 0 .44.04.6.107.16.067.293.161.4.268.107.107.2.215.293.322.08.107.174.187.267.268a.593.593 0 00.347.107c.12 0 .227-.04.28-.121a.502.502 0 00.107-.482c-.027-.067-.04-.107-.08-.121h.493a1.75 1.75 0 01-.107.402c-.053.134-.12.268-.213.389a1.034 1.034 0 01-.347.295.904.904 0 01-.52.148zm3.281-1.207c-.267 0-.494-.054-.694-.148a.776.776 0 01-.386-.496c-.08-.241-.08-.563-.014-.992l.2-1.313c.027-.148.027-.255 0-.322-.026-.067-.04-.094-.08-.094h1.001c-.027 0-.067.027-.121.094a.998.998 0 00-.106.322l-.214 1.407c-.066.402-.026.67.08.818.12.147.294.214.521.214.226 0 .44-.053.626-.174.187-.107.347-.268.467-.469a1.62 1.62 0 00.24-.67l.173-1.14c.027-.147.027-.254 0-.321-.026-.067-.053-.094-.08-.108h.854l-.44 2.869c-.027.147-.027.255 0 .322s.04.093.08.093h-.854l.067-.415.04-.134-.013-.014c-.04.054-.094.121-.174.188-.08.067-.173.148-.293.215a1.79 1.79 0 01-.4.174c-.12.067-.293.094-.48.094z" fill="#212121"/><path d="M71.756 41.589c-.28 0-.494-.026-.654-.08-.16-.054-.253-.107-.293-.161l.253-.737.027-.215c.013.094.053.201.107.309a.787.787 0 00.24.281.566.566 0 00.36.108c.16 0 .293-.027.426-.094.12-.067.24-.148.334-.268.106-.121.213-.255.306-.403.121-.187.201-.321.241-.388a1.158 1.158 0 01-.094-.255c-.04-.134-.093-.295-.147-.496-.053-.188-.106-.402-.173-.617-.053-.214-.12-.429-.173-.643a10.683 10.683 0 00-.16-.55c-.04-.16-.08-.268-.107-.348a1.55 1.55 0 00-.16-.335c-.053-.067-.093-.107-.12-.107h1.147c-.04 0-.067.04-.093.107-.027.067-.014.187.026.335.027.094.054.214.094.389.04.161.08.348.133.563.053.214.093.415.147.63.053.214.093.415.146.589h.014c.106-.187.213-.402.333-.616.12-.215.24-.443.36-.644.12-.214.227-.402.32-.563.094-.16.16-.281.2-.361.094-.148.134-.255.12-.322 0-.067-.026-.107-.066-.107h1.093c-.027 0-.08.04-.147.107a3.06 3.06 0 00-.253.322c-.053.08-.133.214-.253.402-.12.187-.254.415-.4.656-.147.255-.307.51-.467.765-.16.268-.307.509-.44.75-.134.228-.254.429-.347.577a5.828 5.828 0 01-.573.79 2.215 2.215 0 01-.614.483c-.2.094-.44.147-.693.147zm6.081-1.715c.027 0 .067-.027.107-.094a.764.764 0 00.093-.322l.52-3.378c.027-.147.027-.255 0-.322s-.053-.093-.08-.107h1.08c-.013.014 0 .054.027.121s.08.174.173.308c.027.04.08.121.174.255.08.12.2.281.32.469.133.188.267.389.427.603.146.215.306.443.453.657.16.228.307.429.44.63h.013l.4-2.641c.027-.147.027-.254 0-.321-.026-.067-.053-.094-.079-.108h1.08c-.027 0-.067.027-.107.094a.772.772 0 00-.093.335l-.52 3.365c-.027.147-.027.255 0 .322.026.067.053.093.08.093h-.921c.014-.013 0-.053-.04-.134-.026-.067-.093-.174-.173-.308-.053-.094-.133-.214-.24-.375-.107-.161-.227-.349-.36-.55-.133-.214-.28-.429-.44-.657a20.71 20.71 0 01-.454-.683c-.146-.228-.293-.443-.426-.644h-.027l-.453 2.936c-.027.147-.027.255 0 .322.026.067.053.093.079.093h-1.053zm5.401-.001c.027 0 .067-.026.107-.093.04-.068.066-.175.093-.322l.613-4.008c.027-.148.027-.255 0-.322-.026-.067-.053-.094-.08-.107h.854l-.294 1.917-.026.094.013.013a1.71 1.71 0 01.747-.456c.173-.053.373-.08.587-.08.44 0 .747.121.947.375.186.255.253.644.173 1.166l-.213 1.394c-.027.148-.027.255 0 .322.026.067.053.094.08.094h-.987c.026 0 .066-.027.107-.094.04-.067.066-.174.093-.322l.213-1.38c.04-.282.04-.496 0-.644-.04-.16-.12-.268-.24-.321a.981.981 0 00-.413-.094c-.174 0-.347.04-.52.107-.174.08-.32.201-.454.362-.133.161-.213.389-.253.657l-.2 1.313c-.027.148-.027.255 0 .322.026.067.04.094.08.094h-1.027zm6.055.081c-.467 0-.814-.08-1.067-.228-.24-.147-.4-.348-.454-.616a2.093 2.093 0 01-.026-.871c.053-.322.146-.617.293-.885a1.54 1.54 0 01.654-.617c.28-.147.653-.228 1.12-.228.467 0 .813.081 1.053.228.24.148.387.362.467.617.067.254.08.549.027.885a2.576 2.576 0 01-.294.871 1.66 1.66 0 01-.64.616c-.293.148-.666.228-1.133.228zm.066-.509c.294 0 .52-.04.694-.134a.84.84 0 00.387-.416c.093-.174.146-.402.186-.656.04-.255.04-.483 0-.657-.04-.188-.12-.322-.266-.416-.147-.094-.361-.147-.641-.147s-.52.053-.693.147a1.035 1.035 0 00-.4.429c-.093.188-.16.402-.2.657-.04.255-.04.469-.013.643.026.175.12.322.266.416.174.094.4.134.68.134zm2.454.428c.027 0 .067-.027.107-.094.04-.067.067-.174.093-.321l.36-2.373c.027-.147.027-.255 0-.322-.026-.067-.053-.093-.08-.107.2 0 .387-.013.547-.04.16-.027.267-.067.334-.094l-.067.429-.027.094.013.013c.081-.094.188-.174.307-.254.12-.081.267-.148.44-.201.173-.054.374-.081.587-.081.44 0 .747.121.934.375.186.255.253.644.173 1.167l-.213 1.394c-.027.147-.027.254 0 .321s.053.094.08.094h-.988c.027 0 .067-.027.107-.094.04-.067.067-.174.094-.321l.214-1.381c.039-.281.039-.496 0-.643-.041-.161-.121-.268-.241-.322a.818.818 0 00-.413-.094c-.174 0-.347.04-.52.107a1.3 1.3 0 00-.454.362c-.133.161-.213.389-.254.657l-.199 1.314c-.027.147-.027.254 0 .321.026.067.04.094.08.094z" fill="#212121"/></svg>