<svg xmlns="http://www.w3.org/2000/svg" width="112" height="68"><path d="M0 68V0h111.01v68z" fill="transparent"/><path d="M4.363 44.175h-2.31c-.898 0-1.283.129-1.54.386-.128.258-.256.387-.256.515 0 .129-.129.129-.129.129C0 45.334 0 45.334 0 45.076c0-.257.257-1.674.385-1.803 0-.257.128-.257.128-.257.129 0 .257.129.642.129s1.027.128 1.54.128h6.032c.513 0 .77 0 1.026-.128.257 0 .386-.129.386-.129.128 0 .128.129.128.386v1.803c0 .129 0 .258-.128.258-.129 0-.129-.129-.129-.258v-.129c0-.386-.385-.772-1.797-.901H6.288v6.31c0 1.417 0 2.576.129 3.349 0 .386.128.773.641.773h.77c.129 0 .257 0 .257.128 0 .129-.128.129-.257.129H3.465c-.257 0-.257 0-.257-.129 0-.128 0-.128.257-.128h.513c.257 0 .385-.387.385-.902.129-.644.129-1.803.129-3.348v-6.182zm8.599 5.023v-2.576c0-.386-.128-.644-.385-.644h-.385c-.128 0-.257 0-.257-.129 0-.128.129-.128.257-.128h2.952c.128 0 .256 0 .256.128 0 .129-.128.129-.256.129h-.385c-.385 0-.385.258-.385.644v7.47c0 .386.128.515.513.644h.642c.128 0 .256 0 .256.129 0 .128-.128.128-.256.128h-3.465c-.129 0-.257 0-.257-.128 0 0 0-.129.257-.129h.385c.256 0 .256-.258.385-.644v-4.894zm6.16-3.35c0-.258.128-.258.257-.258.128 0 .128 0 .385.387l3.336 6.825 3.337-6.954c.128-.258.128-.258.257-.258.128 0 .128.129.256.387l1.155 7.469c.129.773.257 1.159.642 1.159.385.129.642.129.77.129s.257 0 .257.129-.129.129-.257.129c-.257 0-1.925 0-2.438-.129-.257 0-.385 0-.385-.129 0 0 0-.129.128-.129s.128-.128 0-.515l-1.155-5.409-2.567 5.538c-.256.515-.385.644-.385.644-.128 0-.256-.258-.385-.644-.256-.515-1.283-2.447-1.411-2.705-.129-.257-.77-1.803-1.284-2.704l-.641 4.765v.515c0 .258.128.387.385.387h.513c.128 0 .128-.001.128.128s-.128.129-.256.129h-2.439c-.128 0-.256 0-.256-.129 0 0 .128-.128.256-.128h.385c.385-.129.385-.516.514-.902zm12.063 3.348V46.62c0-.386-.128-.643-.513-.643h-.513c-.129 0-.257 0-.257-.129s.128-.129.257-.129h4.748c.257 0 .385 0 .513-.129h.257s.128 0 .128.129 0 .258-.128.773v.772s0 .129-.128.129c-.129 0-.129 0-.129-.129 0-.128 0-.257-.128-.386-.128-.258-.257-.386-.77-.386h-1.668s-.129 0-.129.128v3.091c0 .129 0 .129.129.129h1.925c.256 0 .513 0 .641-.129.129-.128.129-.128.257-.128 0 0 .128 0 .128.128 0 .129 0 .258-.128.902v.773c0 .128 0 .257-.128.257-.129 0-.129 0-.129-.129v-.386c0-.258-.256-.386-.641-.515H33.11s-.128 0-.128.129v2.833c0 .773.257 1.03 1.412 1.03.256 0 .77 0 1.155-.128.256-.129.513-.387.513-.902 0-.129 0-.129.128-.129.129 0 .129.129.129.258 0 .257-.129 1.159-.129 1.288-.128.257-.256.257-.641.257H30.8c-.128 0-.256 0-.256-.129 0 0 0-.128.256-.128h.385c.257 0 .257-.258.385-.644v-5.152zm7.059 5.54c-.257-.129-.257-.129-.257-.387v-1.545c0-.129 0-.258.129-.258.128 0 .128.129.128.258s0 .386.128.644c.257.901 1.027 1.159 1.669 1.159 1.026 0 1.668-.773 1.668-1.417s-.128-1.159-1.155-1.931l-.513-.387c-1.284-1.03-1.797-1.932-1.797-2.833 0-1.288 1.155-2.318 2.823-2.318.77 0 1.284.128 1.54.257.129 0 .129 0 .129.129v1.417c0 .257 0 .386-.129.386-.128 0-.128-.129-.128-.258 0-.128 0-.515-.257-.772-.128-.258-.513-.644-1.283-.644-.898 0-1.412.515-1.412 1.288 0 .515.257 1.03 1.284 1.803l.385.257c1.411 1.159 1.925 1.932 1.925 3.091 0 .644-.257 1.546-1.155 2.061-.642.386-1.284.515-1.925.515-.77-.129-1.284-.258-1.797-.515zm12.063-1.288c-1.54-1.288-1.925-3.091-1.925-4.508 0-1.03.385-2.833 1.797-4.25 1.155-1.03 2.567-1.674 4.877-1.674.898 0 1.54 0 2.182.129.641.128 1.026.257 1.54.257.128 0 .256.129.256.129 0 .129 0 .257-.128.901v1.675c0 .257 0 .386-.128.386-.129 0-.129-.129-.129-.386 0-.515-.256-1.031-.641-1.417-.514-.515-1.669-.902-3.08-.902-1.284 0-2.182.387-2.952.902-1.155 1.03-1.412 2.447-1.412 3.992 0 3.606 2.823 5.538 4.877 5.538 1.412 0 2.182-.128 2.823-.901.257-.258.514-.773.514-1.031 0-.257.128-.257.256-.257.129 0 .129.129.129.257 0 .129-.129 1.546-.385 2.061-.129.258-.129.386-.385.386-.642.258-1.797.387-2.824.387-2.182 0-3.85-.515-5.262-1.674zm10.781-3.093c0-2.06 1.411-4.765 5.005-4.765 2.951 0 4.876 1.803 4.876 4.508 0 2.833-1.925 5.022-5.005 5.022-3.465 0-4.876-2.704-4.876-4.765zm8.213.258c0-2.705-1.54-4.379-3.593-4.379-1.412 0-2.952.773-2.952 3.735 0 2.576 1.412 4.508 3.722 4.508.77 0 2.823-.387 2.823-3.864zm4.235-1.415v-2.576c0-.386-.128-.644-.513-.644h-.514c-.128 0-.256 0-.256-.129 0-.128.128-.128.256-.128h3.337c.77 0 1.54.128 2.182.515.385.257.77.901.77 1.674 0 .902-.385 1.674-1.54 2.705 1.026 1.416 1.925 2.447 2.566 3.219.642.644 1.156.773 1.412.773h.385c.128 0 .128 0 .128.129s-.128.129-.256.129h-1.155c-.642 0-1.027 0-1.284-.258-.513-.258-1.026-.901-1.668-1.803-.513-.644-1.027-1.545-1.155-1.674 0-.129-.128-.129-.257-.129h-1.026s-.129 0-.129.129v2.704c0 .387.129.644.514.644h.641c.129 0 .129 0 .129.129s-.129.129-.257.129h-3.208c-.129 0-.257 0-.257-.129 0 0 0-.129.257-.129h.385c.256 0 .256-.257.385-.644v-4.636zm1.54 1.03c0 .129 0 .129.128.258.257.129.642.129.899.129.513 0 .641 0 .898-.258.385-.258.77-.773.77-1.803 0-1.674-1.155-2.189-1.797-2.189h-.641c-.129 0-.129.128-.129.128v3.735zm9.241 2.961c0 .901.128 1.288.385 1.288.256.129.385.129.641.129.129 0 .257 0 .257.128 0 .129-.128.129-.257.129H82.52c-.128 0-.257 0-.257-.129 0-.128.129-.128.257-.128h.513c.257-.129.385-.387.385-1.546l.129-7.212c0-.258 0-.386.128-.386s.257.128.385.386c.128.129 1.925 2.189 3.722 3.864.77.772 2.438 2.575 2.695 2.704l-.129-5.409c0-.773-.128-1.03-.385-1.03-.128-.129-.513-.129-.641-.129-.129 0-.257 0-.257-.129s.128-.129.257-.129h2.566c.129 0 .257 0 .257.129s-.128.129-.257.129h-.385c-.385.129-.385.386-.385 1.03l-.128 7.599c0 .257 0 .386-.128.386-.129 0-.257-.129-.385-.257L86.883 51c-1.283-1.288-2.695-2.834-2.823-3.091zm10.78-3.993V46.62c0-.386-.129-.643-.514-.643h-.513c-.128 0-.257 0-.257-.129s.129-.129.257-.129h4.749c.256 0 .384 0 .513-.129h.256s.129 0 .129.129 0 .258-.129.773v.772s0 .129-.128.129-.128 0-.128-.129c0-.128 0-.257-.129-.386-.128-.258-.256-.386-.77-.386h-1.668s-.128 0-.128.128v3.091c0 .129 0 .129.128.129h1.925c.257 0 .513 0 .642-.129.128-.128.128-.128.256-.128 0 0 .129 0 .129.128 0 .129 0 .258-.129.902v.773c0 .128 0 .257-.128.257s-.128 0-.128-.129v-.386c0-.258-.257-.386-.642-.515h-1.668s-.129 0-.129.129v2.833c0 .773.257 1.03 1.412 1.03.257 0 .77 0 1.155-.128.257-.129.513-.387.513-.902 0-.129 0-.129.129-.129.128 0 .128.129.128.258 0 .257-.128 1.159-.128 1.288-.129.257-.257.257-.642.257h-4.748c-.129 0-.257 0-.257-.129 0 0 0-.128.257-.128h.385c.256 0 .256-.258.385-.644v-5.152zm7.571.002v-2.576c0-.386-.128-.644-.513-.644h-.513c-.129 0-.257 0-.257-.129 0-.128.128-.128.257-.128h3.337c.769 0 1.54.128 2.181.515.385.257.77.901.77 1.674 0 .902-.385 1.674-1.54 2.705 1.027 1.416 1.925 2.447 2.567 3.219.642.644 1.155.773 1.412.773h.385c.128 0 .128 0 .128.129s-.128.129-.257.129h-1.155c-.641 0-1.026 0-1.283-.258-.513-.258-1.027-.901-1.668-1.803-.514-.644-1.027-1.545-1.156-1.674 0-.129-.128-.129-.256-.129h-1.027s-.128 0-.128.129v2.704c0 .387.128.644.513.644h.642c.128 0 .128 0 .128.129s-.128.129-.256.129h-3.209c-.128 0-.257 0-.257-.129 0 0 0-.129.257-.129h.385c.257 0 .257-.257.385-.644v-4.636zm1.412 1.03c0 .129 0 .129.128.258.257.129.642.129.899.129.513 0 .641 0 .898-.258.385-.258.77-.773.77-1.803 0-1.674-1.155-2.189-1.796-2.189h-.642c-.128 0-.129.128-.129.128v3.735zM24.255 65.295l-.385.257c-.128-.128-.128-.257-.256-.257h-.257c-.128 0-.257 0-.257.129v.128c0 .129.129.258.385.387l.257.129c.257.128.385.257.513.386.129.129.129.258.129.515a.987.987 0 01-.257.644.977.977 0 01-.642.258.977.977 0 01-.641-.258.982.982 0 01-.257-.644l.513-.129c0 .129 0 .258.129.387.128.128.256.128.385.128.128 0 .256 0 .385-.128.128-.129.128-.258.128-.387v-.128s0-.129-.128-.129l-.129-.129-.128-.129-.257-.129c-.385-.128-.641-.386-.641-.772 0-.258.128-.387.256-.516a.984.984 0 01.642-.257c.128.129.385.257.513.644zm1.027 1.032c0-.387.129-.773.514-1.031.256-.257.641-.386 1.155-.386.385 0 .77.129 1.026.515.257.258.514.644.514 1.03 0 .387-.129.773-.514 1.031-.256.257-.641.386-1.155.386-.385 0-.77-.129-1.026-.386-.385-.387-.514-.773-.514-1.159zm.385 0c0 .386.129.643.385.772.257.258.513.258.77.258s.514-.129.77-.387c.257-.257.257-.515.257-.772 0-.258-.128-.644-.257-.773-.256-.258-.513-.386-.77-.386s-.513.128-.77.386c-.256.258-.385.515-.385.902zm4.62.127l.899 1.287h-.514l-.898-1.159h-.128v1.159h-.385v-2.962h.513c.385 0 .642.129.898.258a.982.982 0 01.257.644c0 .257 0 .386-.128.515-.129.129-.257.258-.514.258zm-.513-.258h.128c.385 0 .642-.129.642-.515 0-.258-.257-.515-.642-.515h-.128zm3.337.258l.898 1.287h-.513l-.899-1.159h-.128v1.159h-.385v-2.962h.513c.385 0 .642.129.899.258a.987.987 0 01.256.644c0 .257 0 .386-.128.515s-.257.258-.513.258zm-.514-.258h.129c.385 0 .641-.129.641-.515 0-.258-.256-.515-.641-.515h-.129zm3.979-.9h-1.155v.773h1.155v.386h-1.155v1.031h1.155v.386h-1.669V64.91h1.669zm1.026 2.446v-3.22l2.182 2.319V64.78h.385v3.091l-2.182-2.189v2.06zm4.621-2.446v2.576h-.385v-2.576h-.77v-.386h1.796v.386zm1.283 1.031c0-.387.128-.773.513-1.031.257-.257.642-.386 1.155-.386.385 0 .77.129 1.027.515.257.258.513.644.513 1.03 0 .387-.128.773-.513 1.031-.257.257-.642.386-1.155.386-.385 0-.77-.129-1.027-.386-.257-.387-.513-.773-.513-1.159zm.513 0c0 .386.128.643.385.772.257.258.514.258.77.258.257 0 .514-.129.77-.387.257-.257.257-.515.257-.772 0-.258-.128-.644-.257-.773-.256-.258-.513-.386-.77-.386-.256 0-.513.128-.77.386s-.385.515-.385.902zm5.262 1.414v-2.962h.898c.128 0 .257.129.257.129l.256.258c0 .128.129.257.129.386 0 .258-.129.386-.257.515.128 0 .257.129.385.258s.128.257.128.515-.128.386-.256.644c-.129.129-.257.129-.385.257h-1.155zm.513-1.674h.128c.129 0 .257 0 .385-.129.129-.128.129-.128.129-.386 0-.129 0-.257-.129-.257-.128-.129-.256-.129-.385-.129h-.128zm0 1.288h.257c.256 0 .385 0 .385-.129.128-.128.128-.257.128-.386s0-.258-.128-.386c-.129-.129-.257-.129-.514-.129h-.256v1.03zm2.182-1.028c0-.387.128-.773.513-1.031.257-.257.642-.386 1.155-.386.385 0 .77.129 1.027.515.257.258.513.644.513 1.03 0 .387-.128.773-.513 1.031-.257.257-.642.386-1.155.386-.385 0-.77-.129-1.027-.386-.385-.387-.513-.773-.513-1.159zm.385 0c0 .386.128.643.385.772.256.258.513.258.77.258.256 0 .513-.129.77-.387.257-.257.257-.515.257-.772 0-.258-.129-.644-.257-.773-.257-.258-.514-.386-.77-.386-.257 0-.514.128-.77.386-.257.258-.385.515-.385.902zm4.106-1.548v1.803c0 .258 0 .387.129.516.128.128.256.257.513.257s.385-.129.513-.257c.129-.129.129-.258.129-.516v-1.803h.385v1.932c0 .258-.129.515-.257.773-.257.257-.513.386-.77.386s-.642-.129-.77-.386c-.257-.258-.257-.515-.257-.773v-1.932zm3.722.517v2.576h-.385v-2.576h-.77v-.386h1.797v.386zm1.926-.517v2.962h-.385v-2.962zm4.235 3.091h-.514l-.256-.257c-.257.128-.514.257-.77.257-.385 0-.77-.129-1.027-.386-.385-.258-.513-.644-.513-1.159 0-.387.128-.773.513-1.159.257-.258.642-.387 1.027-.387.385 0 .77.129 1.026.387.385.257.514.644.514 1.159 0 .386-.129.773-.385 1.03zm-1.284-1.288l.385.387c.129-.258.257-.387.257-.773 0-.258-.128-.644-.257-.773-.256-.257-.513-.386-.77-.386-.256 0-.641.129-.77.386-.256.258-.256.515-.256.773s.128.644.256.773c.257.257.514.257.77.257.257 0 .385 0 .514-.128l-.642-.644h.513zm2.695-1.803v1.803c0 .258 0 .387.128.516.129.128.257.257.514.257s.385-.129.513-.257c.128-.129.128-.258.128-.516v-1.803h.385v1.932c0 .258-.128.515-.256.773-.257.257-.513.386-.77.386s-.642-.129-.77-.386c-.257-.258-.257-.515-.257-.773v-1.932zm4.492.517h-1.155v.773h1.155v.386h-1.155v1.031h1.155v.386h-1.669V64.91h1.669zm3.08.642h1.283v-1.159h.385v2.962h-.385v-1.416h-1.283v1.416h-.385v-2.962h.385zm2.695.389c0-.387.128-.773.513-1.031.257-.257.642-.386 1.155-.386.385 0 .77.129 1.027.515.257.258.513.644.513 1.03 0 .387-.128.773-.513 1.031-.257.257-.642.386-1.155.386-.385 0-.77-.129-1.027-.386-.256-.387-.513-.773-.513-1.159zm.513 0c0 .386.129.643.385.772.257.258.514.258.77.258.257 0 .514-.129.77-.387.257-.257.257-.515.257-.772 0-.258-.128-.644-.257-.773-.256-.258-.513-.386-.77-.386-.256 0-.513.128-.77.386-.256.258-.385.515-.385.902zm4.492-1.031v2.576h-.385v-2.576h-.642v-.386h1.797v.386zm3.08 0h-1.155v.773h1.155v.386h-1.155v1.031h1.155v.386h-1.668V64.91h1.668zm1.54-.517v2.576h.898v.386h-1.283v-2.962zM68.146 33.227c0-.129 0-.129 0 0 0-.129 0-.129 0 0v-.129h-.128c-.128 0-1.797-.257-1.797-2.06V10.689C66.221 4.765 61.473 0 55.569 0c-5.903 0-10.651 4.765-10.651 10.689V30.78c0 1.803-1.669 2.061-1.797 2.061v.257h25.154c-.129.258-.129.129-.129.129zm-2.695-22.924h-3.08c0-.644-.128-1.288-.385-1.803l2.952-1.159c.257.901.385 1.932.513 2.962zm0 .773v19.833h-1.283V11.076zm-10.01 10.045h.128c0 1.546.899 2.834 2.952 4.379.513.386 1.027.773 1.283 1.288-.898 0-1.026.515-2.053.515-1.155 0-1.155-.515-2.182-.515-1.155 0-1.155.515-2.181.515-1.155 0-1.155-.515-2.182-.515h-.128c.385-.386.77-.902 1.283-1.288 2.182-1.545 3.08-2.833 3.08-4.379zm3.593 3.864c-2.31-1.803-2.695-3.091-2.695-3.864 0-.773.257-2.06 2.695-3.863 1.284-1.031 2.054-2.061 2.567-3.091v13.909c-.513-1.031-1.283-2.19-2.567-3.091zm2.567-13.652c0 .644-.257 2.447-1.797 4.122-.898-.129-.898-.516-1.925-.516-1.155 0-1.155.516-2.181.516-1.155 0-1.155-.516-2.182-.516-1.155 0-1.155.516-2.182.516-1.796-2.061-1.796-4.379-1.796-4.508h12.063zM49.409 28.076V14.038c.514 1.03 1.284 2.189 2.695 3.22 2.31 1.803 2.695 3.09 2.695 3.863 0 .773-.256 2.061-2.695 3.864-1.411 1.03-2.181 2.189-2.695 3.091zm12.834 2.833V11.076h1.155v19.833zm2.31-24.212l-2.952 1.159c-.257-.644-.642-1.159-1.155-1.674l2.31-2.318c.77.901 1.412 1.803 1.797 2.833zm-2.31-3.349l-2.182 2.19c-.513-.386-1.027-.644-1.54-1.03l1.283-2.834a16.371 16.371 0 012.439 1.674zM55.826.773c1.155 0 2.182.257 3.208.644L57.751 4.25a5.295 5.295 0 00-2.053-.386V.773zm5.775 9.53H49.538c.128-3.22 2.823-5.667 6.031-5.667 3.209-.128 5.775 2.447 6.032 5.667zM55.184.773v3.091c-.641 0-1.283.128-1.796.386l-1.155-2.962c.898-.258 1.925-.515 2.951-.515zm-3.721.772l1.155 2.963c-.642.257-1.155.644-1.669 1.159l-2.181-2.319c.77-.772 1.668-1.287 2.695-1.803zm-3.209 2.319l2.182 2.189c-.385.515-.77.902-1.027 1.545l-2.823-1.287c.385-.902 1.027-1.675 1.668-2.447zm-1.925 3.219l2.824 1.288c-.257.515-.385 1.288-.385 1.932h-3.08c0-1.159.256-2.189.641-3.22zm2.439 3.993v19.833h-1.284V11.076zm-3.209 0h1.155v19.833h-1.155zm-.898 21.765c.385-.258.642-.644.77-1.159h20.02c.129.515.385.901.77 1.159z" fill="#212121"/></svg>