<svg xmlns="http://www.w3.org/2000/svg" width="49" height="62"><path d="M24.568 0c10.477 0 18.968 9.327 18.968 20.833 0 .276-.007.553-.016.826-.396-11.123-8.728-20.006-18.952-20.006-10.224 0-18.556 8.883-18.951 20.006-.01-.273-.016-.55-.016-.826C5.601 9.327 14.094 0 24.568 0z" fill="#212121"/><path d="M24.147 7.46s-3.927 9.482-3.379 18.184c.601 9.52 10.009 19.341 23.726 12.329-3.876-2.943-8.847-3.008-10.917-2.887-1.516.09-.955.109.152.606 1.908.855 5.212 2.695 5.202 2.692l-10.863-3.006s10.148-5.955 20.512 2.428c-3.371 4.665-17.718 9.926-26.148-1.614-8.43-11.539 1.715-28.732 1.715-28.732z" fill="#212121"/><path d="M24.644 7.46s3.908 9.482 3.361 18.184c-.598 9.52-9.962 19.341-23.613 12.329 3.857-2.943 8.807-3.008 10.867-2.887 1.509.09.952.109-.152.606-1.899.855-5.187 2.695-5.177 2.692l10.812-3.006s-10.1-5.955-20.413 2.428c3.354 4.665 17.635 9.926 26.024-1.614C34.742 24.653 24.644 7.46 24.644 7.46z" fill="#212121"/><path d="M24.372 20.574c1.307 0 2.364 1.079 2.364 2.406 0 1.327-1.06 2.405-2.364 2.405-1.304 0-2.364-1.078-2.364-2.405.003-1.327 1.06-2.406 2.364-2.406z" fill="#212121"/><path d="M24.372 24.151c.468 0 .848.264.848.587 0 .324-.38.588-.848.588-.468 0-.845-.264-.845-.588 0-.323.38-.587.845-.587zM2.354 46.684v-.525h4.807v.525h-.81c-.216 0-.377.041-.488.118-.091.084-.139.211-.139.386v6.222c0 .239.044.4.133.488.089.068.297.099.627.099h1.348c.496 0 .965-.208 1.395-.631.434-.419.769-1.103 1.009-2.048h.57l-.215 3.207H2.354V54h.823c.177 0 .313-.04.408-.121.095-.081.142-.199.142-.354v-6.397c0-.145-.047-.258-.142-.332-.095-.071-.26-.109-.491-.109h-.74zm9.177-.525h4.8v.525h-.867c-.174 0-.307.034-.395.1a.343.343 0 00-.137.292v6.473c0 .146.045.255.133.324.117.08.285.124.494.124h.772v.525h-4.8v-.525h.734c.139 0 .25-.006.329-.022a.512.512 0 00.209-.09c.101-.075.152-.186.152-.333V47.15c0-.158-.048-.276-.143-.351-.095-.074-.243-.112-.446-.112h-.835zm5.699 0h5.68c.873 0 1.566.189 2.079.566.509.375.766.842.766 1.395 0 .481-.2.895-.595 1.237-.396.342-1.006.609-1.823.798 1.06.159 1.816.42 2.272.784.453.363.68.823.68 1.376 0 .492-.161.908-.481 1.256-.227.249-.626.47-1.193.662-.569.193-1.237.289-2.012.289H17.23v-.525h.86a.493.493 0 00.336-.118.554.554 0 00.152-.389v-6.477c0-.096-.048-.177-.143-.236-.095-.059-.253-.09-.477-.09h-.728zm3.354 3.788h1.057c.718 0 1.234-.136 1.554-.407.316-.27.474-.721.474-1.346 0-.54-.152-.926-.455-1.156-.304-.233-.874-.348-1.706-.348-.402 0-.655.035-.763.097-.107.065-.161.18-.161.351zm0 .519v3.043c0 .149.038.271.114.361.079.08.184.124.31.124h1.215c.595 0 1.063-.146 1.402-.435.342-.289.509-.718.509-1.278 0-.587-.18-1.038-.544-1.349-.364-.31-.892-.466-1.585-.466zm6.826-4.307h4.889c.8 0 1.449.09 1.939.27.494.18.864.432 1.111.752.25.321.374.668.374 1.045 0 .615-.311 1.112-.924 1.491-.462.28-1.184.47-2.168.566.484.068.861.18 1.126.339.266.155.5.391.703.702.256.398.475.886.652 1.464.101.36.193.591.275.687.082.096.174.146.275.146.146 0 .263-.087.358-.261.095-.174.142-.417.142-.731h.557c0 .345-.047.644-.136.893a1.719 1.719 0 01-.389.621c-.304.302-.74.454-1.307.454-.389 0-.706-.075-.949-.221a1.452 1.452 0 01-.57-.643c-.063-.143-.171-.547-.319-1.212-.149-.666-.288-1.11-.415-1.337a1.239 1.239 0 00-.819-.674 1.574 1.574 0 00-.402-.047h-.69v3.083c0 .128.044.234.133.311.129.093.278.14.443.14h.848v.525H27.41v-.525h.734c.187 0 .329-.047.427-.137a.48.48 0 00.149-.364v-6.305c0-.165-.048-.293-.136-.377a.54.54 0 00-.377-.127h-.797zm3.319 3.794h.791c.696 0 1.25-.161 1.658-.481.304-.246.456-.656.456-1.237 0-.535-.149-.926-.449-1.175-.301-.246-.82-.37-1.557-.37-.383 0-.63.041-.737.115-.108.075-.162.249-.162.516zm11.17-3.999l3.516 7.5c.102.205.212.348.329.428.117.075.275.112.469.112h.341v.526h-4.395v-.526h.411c.336 0 .56-.031.678-.096.117-.065.177-.149.177-.255a.735.735 0 00-.076-.289l-.728-1.551h-3.497l-.341.709c-.14.295-.209.513-.209.656a.71.71 0 00.307.59c.205.156.481.233.826.233h.297v.526H36.45v-.526h.203c.228 0 .43-.065.601-.192a1.92 1.92 0 00.57-.697l3.364-7.154h.711zm-1.018 2.117l-1.494 3.185h2.978zM2.784 58.812h.238v1.315h1.841v-1.315h.238v3.018h-.238v-1.485H3.022v1.485h-.238zm6.082 1.486c0 .823-.446 1.572-1.395 1.572-.864 0-1.37-.683-1.37-1.551 0-.854.487-1.55 1.398-1.55.845 0 1.367.649 1.367 1.529zm-2.509.009c0 .693.389 1.349 1.126 1.349.795 0 1.127-.637 1.127-1.352 0-.702-.377-1.318-1.12-1.318-.788-.003-1.133.64-1.133 1.321zm4.063-1.28H9.389v-.215h2.306v.215h-1.034v2.8h-.241zm3.861 1.321h-1.567v1.268h1.715l-.034.214h-1.918v-3.018h1.883v.215h-1.646v1.103h1.567zm1.079-1.536h.237v2.801h1.649l-.045.214H15.36zm4.177 3.018v-3.018h.351c.478.725 1.601 2.409 1.794 2.739h.003c-.025-.435-.022-.88-.022-1.371v-1.368h.241v3.018h-.326c-.456-.699-1.598-2.452-1.817-2.784h-.003c.022.398.019.836.019 1.383v1.401zm3.598-3.018h.237v1.315h1.842v-1.315h.237v3.018h-.237v-1.485h-1.842v1.485h-.237zm3.829 1.974l-.39 1.044h-.24l1.126-3.018h.282l1.177 3.018h-.259l-.399-1.044zm1.215-.214c-.342-.895-.519-1.327-.579-1.529h-.004c-.075.229-.272.761-.547 1.529zm3.699-1.545h-1.032v-.215h2.307v.215h-1.035v2.8h-.24zm2.297 1.392v1.408h-.24v-3.018h1.101c.604 0 .927.32.927.793 0 .382-.231.634-.576.705.317.075.525.277.525.79v.115c0 .211-.018.494.042.612h-.241c-.057-.131-.044-.37-.044-.628v-.077c0-.495-.149-.703-.737-.703h-.757zm0-.214h.741c.541 0 .791-.199.791-.594 0-.37-.247-.581-.725-.581h-.807zm3.212.581l-.389 1.044h-.241l1.127-3.018h.281l1.178 3.018h-.26l-.399-1.044zm1.215-.214c-.342-.895-.519-1.327-.579-1.529h-.003c-.076.229-.272.761-.548 1.529zm1.605 1.258v-3.018h.351c.478.725 1.601 2.409 1.794 2.739h.003c-.025-.435-.022-.88-.022-1.371v-1.368h.24v3.018h-.319c-.456-.699-1.598-2.452-1.816-2.784h-.004c.023.398.019.836.019 1.383v1.401zm5.924 0h-.197c-.019-.034-.025-.19-.031-.482-.111.208-.352.516-.991.516-.883 0-1.335-.659-1.335-1.517 0-.901.484-1.578 1.382-1.578.662 0 1.102.341 1.2.895h-.237c-.133-.426-.434-.681-.969-.681-.769 0-1.12.587-1.12 1.349 0 .69.339 1.315 1.089 1.315.769 0 .984-.492.984-1.16v-.034h-.994v-.215h1.219z" fill="#212121"/></svg>