<svg xmlns="http://www.w3.org/2000/svg" width="84" height="41"><path d="M25.531 30.763h1.352v-1.244h.477v3.185h-.477v-1.486h-1.352v1.486h-.478v-3.185h.478zm3.102.321c0-.441.159-.83.49-1.151a1.595 1.595 0 011.167-.482c.451 0 .835.161 1.153.482.318.321.478.71.478 1.165 0 .455-.16.843-.491 1.164a1.624 1.624 0 01-1.18.482c-.411 0-.769-.148-1.1-.429-.345-.307-.517-.722-.517-1.231zm.477.014c0 .348.119.642.345.869.238.228.503.335.808.335.332 0 .61-.12.836-.348.225-.227.344-.522.344-.856 0-.335-.106-.63-.331-.857a1.127 1.127 0 00-.822-.348c-.332 0-.61.12-.835.348a1.156 1.156 0 00-.345.857zm4.826-1.138v2.73h-.478v-2.73h-.729v-.455h1.923v.455zm5.541.027l-.384.227c-.067-.12-.146-.214-.212-.241a.522.522 0 00-.266-.067.553.553 0 00-.331.107.358.358 0 00-.133.282c0 .16.12.281.345.374l.318.134c.252.107.438.228.557.388a.85.85 0 01.172.549c0 .294-.092.535-.291.723a1.03 1.03 0 01-.729.294c-.279 0-.504-.08-.676-.241-.173-.16-.279-.388-.332-.696l.477-.107c.027.188.067.321.12.388.092.134.238.201.424.201a.544.544 0 00.371-.147.53.53 0 00.146-.375.655.655 0 00-.027-.174.394.394 0 00-.079-.147c-.04-.04-.08-.08-.146-.121a.704.704 0 00-.199-.107l-.305-.133c-.437-.188-.649-.455-.649-.803 0-.241.092-.442.265-.603a1 1 0 01.676-.241c.411 0 .689.174.888.536zm1.803 1.419v1.285h-.477v-3.172h.543c.266 0 .464.013.597.053.133.04.252.107.358.214.186.174.265.402.265.67 0 .294-.093.522-.292.696-.198.173-.45.254-.782.254zm0-.442h.172c.438 0 .65-.174.65-.508 0-.335-.225-.496-.676-.496h-.159v1.004zm3.513.375l.981 1.352h-.583l-.901-1.299h-.08v1.299h-.477v-3.172h.557c.411 0 .715.08.901.241a.876.876 0 01.305.696.93.93 0 01-.186.575.942.942 0 01-.517.308zm-.596-.362h.146c.45 0 .676-.173.676-.521 0-.322-.226-.482-.663-.482h-.172v1.003zm3.181-1.458v3.185h-.477v-3.185zm1.419 3.172v-3.4l2.293 2.423v-2.195h.478v3.372l-2.294-2.422v2.222zm5.846-1.647h1.3v.107c0 .241-.027.455-.08.629a1.275 1.275 0 01-.278.482 1.409 1.409 0 01-1.114.495c-.437 0-.822-.161-1.127-.482a1.593 1.593 0 01-.477-1.164c0-.455.159-.857.477-1.178a1.574 1.574 0 011.167-.482c.252 0 .477.054.689.148.199.107.411.267.597.495l-.345.321c-.252-.348-.57-.522-.941-.522-.332 0-.61.12-.835.348a1.164 1.164 0 00-.345.857c0 .348.119.642.371.869.239.215.491.322.769.322a.972.972 0 00.636-.241.874.874 0 00.319-.576h-.783zm4.336-1.057l-.385.227c-.066-.12-.146-.214-.212-.241a.519.519 0 00-.265-.067.553.553 0 00-.332.107.36.36 0 00-.132.282c0 .16.119.281.344.374l.319.134c.251.107.437.228.556.388.12.147.173.335.173.549 0 .294-.093.535-.292.723a1.028 1.028 0 01-.729.294c-.278 0-.504-.08-.676-.241-.172-.16-.278-.388-.332-.696l.478-.107c.026.188.066.321.119.388.093.134.239.201.424.201a.544.544 0 00.371-.147.53.53 0 00.146-.375c0-.067-.013-.12-.026-.174a.412.412 0 00-.08-.147c-.04-.04-.079-.08-.146-.121a.712.712 0 00-.198-.107l-.305-.133c-.438-.188-.65-.455-.65-.803 0-.241.093-.442.265-.603.186-.16.411-.241.676-.241.398 0 .69.174.889.536zm-25.07 9.889h-.172v-2.502h.172v1.151c.186-.295.424-.429.716-.429a.82.82 0 01.583.241.92.92 0 01.265.669v.014a.92.92 0 01-.265.669.795.795 0 01-.583.241c-.292 0-.53-.147-.716-.415zm1.379-.87a.813.813 0 00-.199-.562.648.648 0 00-.477-.2.658.658 0 00-.491.214.728.728 0 00-.212.548v.014c0 .214.066.401.212.549.146.133.305.2.491.2a.609.609 0 00.477-.2.837.837 0 00.199-.563zm2.187-.883h.186l-.756 1.807c-.146.335-.331.495-.583.495a.816.816 0 01-.345-.08l.053-.147c.093.04.186.067.292.067.172 0 .318-.134.424-.415l-.835-1.74h.199l.716 1.566zm2.121.295h-.225v-.348h.225v-.134c0-.201.053-.348.146-.441.093-.094.225-.148.411-.148a.91.91 0 01.331.054v.348a.867.867 0 00-.238-.04c-.159 0-.239.093-.239.281v.093h.477v.348h-.463v1.459h-.411v-1.472zm1.379.789v-1.151h.411v1.031c0 .294.133.441.385.441.119 0 .212-.04.291-.12.08-.08.106-.187.106-.335v-1.017h.411v1.807h-.411v-.281c-.146.214-.331.321-.557.321a.648.648 0 01-.477-.187c-.106-.121-.159-.295-.159-.509zm2.373.148c.199.147.398.227.584.227.185 0 .278-.067.278-.201v-.013c0-.067-.04-.107-.119-.161a1.327 1.327 0 00-.279-.093 1.576 1.576 0 01-.384-.161.443.443 0 01-.186-.361v-.014c0-.173.066-.307.186-.401a.699.699 0 01.45-.147c.239 0 .451.067.663.201l-.159.294c-.185-.107-.358-.174-.504-.174-.172 0-.251.054-.251.174v.013c0 .054.039.107.119.161.04.027.132.053.278.107.372.12.557.294.557.535a.51.51 0 01-.199.429.756.756 0 01-.477.147c-.278 0-.53-.094-.756-.268zm1.883-1.968h.437v.402h-.437zm.013.669h.411v1.807h-.411zm.981.924c0-.268.093-.495.279-.683a.923.923 0 01.689-.281c.278 0 .504.094.689.281a.905.905 0 01.279.669v.014a.926.926 0 01-.279.669.925.925 0 01-.689.281.875.875 0 01-.676-.281.846.846 0 01-.292-.669zm1.498 0a.558.558 0 00-.159-.415.55.55 0 00-.398-.174.499.499 0 00-.397.174.606.606 0 00-.146.415v.013a.6.6 0 00.159.415.55.55 0 00.398.174.502.502 0 00.397-.174.725.725 0 00.146-.428zm1.034-.924h.411v.281c.146-.214.331-.321.557-.321.199 0 .358.067.477.188.106.12.172.294.172.508v1.151h-.411v-1.031c0-.294-.132-.441-.384-.441a.39.39 0 00-.292.12c-.079.081-.106.188-.106.335v1.017h-.411v-1.807zm18.653-20.14c-.994.468-2.028.99-2.028 2.101 0 1.124.848 1.873 2.028 1.873 1.087 0 2.161-.762 2.161-2.301v-2.717c-1.485.723-1.843.897-2.161 1.044zm1.962.067c0 .415-.292.615-.583.615-.318 0-.544-.2-.544-.495 0-.294.279-.442.544-.562.092-.04.185-.08.583-.281z" fill="#212121"/><path d="M66.999 24.727c-2.81 0-4.958-1.673-4.958-4.483 0-1.285.822-2.409 2.439-3.386 1.538-.91 3.858-1.753 4.773-2.288 1.074-.616 1.18-.977 1.18-1.713 0-1.365-1.591-2.596-3.262-2.596-1.445 0-2.479.829-2.89 1.833h-1.842c.477-1.887 2.399-3.265 4.732-3.265 2.745 0 5.025 1.927 5.025 4.242v6.584c.013 3.346-2.453 5.072-5.197 5.072zm.04-7.655c-1.551.736-3.182 1.553-3.182 3.293 0 1.766 1.299 2.93 3.155 2.93 1.697 0 3.434-1.231 3.434-3.64v-4.189c-2.333 1.125-1.75.83-3.407 1.606zm-43.775 7.669c-2.811 0-4.959-1.673-4.959-4.483 0-1.285.822-2.423 2.44-3.386 1.538-.91 3.844-1.753 4.772-2.289 1.074-.615 1.18-.976 1.18-1.713 0-1.365-1.591-2.596-3.261-2.596-1.445 0-2.479.83-2.89 1.834H18.69c.477-1.887 2.399-3.266 4.733-3.266 2.731 0 5.037 1.927 5.037 4.243v6.584c.014 3.332-2.452 5.072-5.196 5.072zm.026-7.668c-1.551.736-3.182 1.552-3.182 3.292 0 1.766 1.3 2.931 3.156 2.931 1.71 0 3.433-1.232 3.433-3.641v-4.188c-2.333 1.124-1.75.829-3.407 1.606zm16.598-4.965c-.013-.067-.04-.121-.053-.174-.557-1.794-2.426-3.092-4.68-3.092h-.159c-2.253 0-4.123 1.285-4.679 3.092-.014.053-.04.12-.054.174a3.436 3.436 0 00-.145.977v11.643h1.776V12.87c0-.254.053-.521.159-.762.106-.255.252-.495.451-.71.517-.575 1.405-1.124 2.492-1.124h.159c1.087 0 1.909.495 2.479 1.124.199.215.345.455.451.71.106.241.159.495.159.762v11.858h1.777V13.085a2.95 2.95 0 00-.133-.977zm43.735 0c-.013-.067-.039-.121-.053-.174-.556-1.794-2.426-3.092-4.679-3.092h-.146c-2.254 0-4.123 1.285-4.68 3.092-.013.053-.04.12-.053.174a3.402 3.402 0 00-.146.977v11.643h1.777V12.87c0-.254.053-.521.159-.762.106-.255.252-.495.451-.71.517-.575 1.405-1.124 2.492-1.124h.146c1.087 0 1.909.495 2.479 1.124.199.215.344.455.451.71.106.241.159.495.159.762v11.858h1.776V13.085a2.95 2.95 0 00-.133-.977zm-32.095-.001c-.013-.067-.04-.12-.053-.174-.557-1.793-2.426-3.091-4.68-3.091h-.159c-1.193 0-2.267.361-3.102.963V.839h-1.777v23.888h1.777V12.87c0-.254.053-.522.159-.763.106-.254.252-.495.451-.709.517-.575 1.405-1.124 2.492-1.124h.159c1.087 0 1.909.495 2.479 1.124.199.214.345.455.451.709.106.241.159.495.159.763v11.857h1.776V13.084a2.928 2.928 0 00-.132-.977zm-34.694 0c-.014-.067-.04-.12-.053-.174-.557-1.793-2.426-3.091-4.68-3.091h-.159c-1.193 0-2.267.361-3.102.963V.839H7.063v23.888H8.84V12.87c0-.254.053-.522.159-.763.106-.254.252-.495.451-.709.517-.575 1.405-1.124 2.492-1.124h.159c1.087 0 1.909.495 2.479 1.124.199.214.345.455.451.709.106.241.159.495.159.763v11.857h1.776V13.084a2.928 2.928 0 00-.132-.977zM5.38 10.274V8.829H2.211V.813H.355v19.779c.066 2.275 2.333 4.136 5.038 4.136v-1.432c-1.671 0-3.142-1.339-3.142-2.704l-.04-5.42v-4.884H5.38zm55.998 0V8.829h-3.169V.813h-1.856v19.779c.067 2.275 2.334 4.136 5.038 4.136v-1.432c-1.67 0-3.142-1.339-3.142-2.704l-.04-5.42v-4.884h3.169z" fill="#212121"/></svg>