<svg xmlns="http://www.w3.org/2000/svg" width="100" height="68"><path d="M2.772 57.118h-.13c-.089-.304-.228-.545-.423-.72a1.016 1.016 0 00-.702-.264.803.803 0 00-.371.083.616.616 0 00-.265.231.609.609 0 00-.1.346c0 .076.014.149.04.222a.847.847 0 00.186.267c.099.106.245.225.447.35.225.139.361.228.41.264.278.176.51.337.686.489.179.152.314.314.407.489.093.175.139.373.139.595a1.268 1.268 0 01-.457.99 1.553 1.553 0 01-.52.284c-.202.066-.42.103-.655.103-.242 0-.524-.047-.838-.136-.037-.01-.08-.02-.136-.029a.82.82 0 00-.146-.017c-.106 0-.178.053-.225.162H0l.03-1.381h.129c.043.261.132.479.271.654a1.27 1.27 0 00.987.499.924.924 0 00.613-.205.63.63 0 00.242-.502.587.587 0 00-.103-.347 1.172 1.172 0 00-.305-.29c-.135-.096-.39-.264-.765-.502a4.816 4.816 0 01-.503-.37 1.904 1.904 0 01-.324-.344 1.13 1.13 0 01-.166-.326 1.199 1.199 0 01-.05-.35c0-.238.063-.476.186-.707.122-.231.298-.423.523-.568a1.37 1.37 0 01.775-.222c.136 0 .265.014.391.04a.701.701 0 01.132.03c.056.013.103.026.139.036.096.017.172.027.219.027.076 0 .129-.014.159-.037a.38.38 0 00.086-.105h.102v1.261zm2.284 1.034h2.318v-1.453a.952.952 0 00-.099-.452c-.066-.126-.225-.188-.474-.188h-.033v-.096h2.305v.096c-.258 0-.424.059-.497.175a.87.87 0 00-.109.465v3.422c0 .105.01.201.03.29.02.086.073.165.155.235.083.069.212.106.388.106h.033v.095H6.768v-.095c.259 0 .427-.057.497-.172a.85.85 0 00.109-.459v-1.645H5.056v1.645c0 .109.01.204.03.294.02.086.073.165.156.234.082.069.212.103.387.103h.033v.095H3.357v-.095c.259 0 .424-.057.497-.172a.85.85 0 00.109-.459v-3.422a.937.937 0 00-.102-.456c-.066-.122-.225-.184-.47-.184h-.034v-.096h2.305v.096c-.251 0-.417.059-.493.175-.076.115-.113.27-.113.465zm4.202-2.1v-.089h2.305v.096c-.255 0-.42.059-.493.175a.852.852 0 00-.113.459v3.428c0 .109.01.204.03.29.02.086.073.165.159.235.086.069.215.106.391.106h.026v.095H9.258v-.095c.252 0 .418-.057.494-.172.076-.116.112-.268.112-.459v-3.428c0-.225-.049-.39-.149-.489-.099-.103-.251-.152-.457-.152zm4.269-.144l2.993 3.148V56.82c0-.294-.059-.495-.178-.601-.12-.106-.305-.178-.55-.215v-.096h1.692v.096c-.185.02-.324.07-.417.152a.53.53 0 00-.176.284 1.645 1.645 0 00-.039.38v4.026h-.123l-3.589-3.762v2.748c0 .231.049.426.149.588.099.162.281.254.546.274v.096h-1.752v-.096c.49-.04.735-.281.729-.72v-3.233a.408.408 0 01-.053-.046 2.93 2.93 0 00-.1-.096c-.046-.043-.089-.083-.125-.119-.299-.284-.56-.446-.782-.479v-.096h1.775zm4.123.144v-.089h2.304v.096c-.255 0-.42.059-.493.175a.852.852 0 00-.113.459v3.428c0 .109.01.204.03.29.02.086.073.165.159.235.086.069.215.106.391.106h.026v.095H17.65v-.095c.251 0 .417-.057.493-.172a.823.823 0 00.113-.459v-3.428c0-.225-.05-.39-.149-.489-.1-.103-.252-.152-.457-.152zm4.268-.144l2.994 3.148V56.82c0-.294-.06-.495-.179-.601-.119-.106-.305-.178-.55-.215v-.096h1.692v.096c-.185.02-.324.07-.417.152a.523.523 0 00-.175.284c-.027.109-.04.235-.04.38v4.026h-.123l-3.589-3.762v2.748c0 .231.049.426.149.588.099.162.281.254.546.274v.096h-1.752v-.096c.491-.04.736-.281.729-.72v-3.233c-.013-.01-.03-.023-.053-.046a3.85 3.85 0 00-.099-.096 4.052 4.052 0 01-.126-.119c-.298-.284-.56-.446-.782-.479v-.096h1.775zm8.795 1.352h-.096a1.781 1.781 0 00-1.699-1.139c-.311 0-.569.066-.775.198-.205.132-.367.31-.48.528a2.471 2.471 0 00-.238.714 4.917 4.917 0 00-.066.812c0 .707.142 1.252.424 1.628.281.38.665.568 1.142.568.344 0 .56-.049.646-.152.086-.102.129-.251.129-.452V59.4c0-.112-.01-.211-.027-.297a.444.444 0 00-.139-.238c-.073-.073-.185-.112-.338-.122v-.102h2.044v.102c-.302.04-.451.221-.451.548v1.189c-.523.238-1.116.357-1.778.357-.265 0-.507-.02-.725-.056a2.9 2.9 0 01-.576-.152 2.336 2.336 0 01-.428-.212 2.514 2.514 0 01-.327-.257 2.366 2.366 0 01-.643-1.06 2.59 2.59 0 01-.106-.753c0-.37.067-.707.199-1.011.132-.304.318-.571.56-.793.241-.224.519-.396.831-.511a2.81 2.81 0 01.987-.175c.195 0 .364.013.506.039.143.027.381.083.715.172.106.036.222.053.348.053.133 0 .219-.086.258-.258h.096v1.397zm4.911 1.299h-.156v1.562c0 .185.027.323.083.416.057.092.123.152.202.175.08.026.186.04.321.046v.089H33.77v-.095c.258 0 .424-.057.496-.172a.85.85 0 00.11-.459v-3.422c0-.234-.047-.399-.143-.495-.096-.096-.248-.145-.463-.145v-.096h2.543c.334 0 .629.053.884.155.252.102.447.251.579.439.133.192.199.406.199.654a1.074 1.074 0 01-.467.912 1.669 1.669 0 01-.477.228c.229.145.451.396.666.762l.586.991c.099.172.192.304.275.397a.766.766 0 00.222.184c.063.03.136.05.208.063v.096h-1.582a20.16 20.16 0 01-.355-.661 19.026 19.026 0 00-.573-1.063 1.446 1.446 0 00-.37-.433c-.123-.086-.285-.128-.484-.128zm.109-2.325h-.265v2.054h.222c.381 0 .669-.093.861-.274.192-.182.292-.446.292-.786a1.08 1.08 0 00-.126-.539.813.813 0 00-.374-.336 1.376 1.376 0 00-.61-.119zm3.424-.182v-.089h2.305v.096c-.255 0-.42.059-.493.175a.852.852 0 00-.113.459v3.428c0 .109.01.204.03.29.02.086.073.165.159.235.086.069.215.106.391.106h.026v.095h-2.305v-.095c.252 0 .418-.057.494-.172.076-.116.112-.268.112-.459v-3.428c0-.225-.049-.39-.149-.489-.096-.103-.248-.152-.457-.152zm7.355-.142v.095a.894.894 0 00-.463.208c-.13.113-.265.364-.401.75l-1.391 3.884h-.129l-1.672-4.194c-.08-.212-.179-.37-.295-.473-.116-.102-.285-.161-.507-.175v-.095h2.242v.095a.694.694 0 00-.268.057c-.07.029-.103.105-.103.224 0 .083.03.198.086.34l.957 2.411.762-2.137a1.35 1.35 0 00.096-.462.5.5 0 00-.089-.258c-.06-.095-.196-.155-.408-.175v-.095zm3.725.052l.04 1.093h-.096a2.39 2.39 0 00-.149-.456.61.61 0 00-.232-.274.758.758 0 00-.41-.096h-.991v2.054h.789c.235 0 .407-.052.513-.155.109-.102.169-.258.189-.462h.096v1.433h-.096c-.034-.218-.116-.36-.242-.436a.929.929 0 00-.46-.109h-.789v1.407c0 .406.212.611.633.611h.298c.202 0 .368-.026.493-.079a.701.701 0 00.318-.274 2.08 2.08 0 00.225-.549h.096l-.072 1.173h-3.696v-.096c.258 0 .424-.059.5-.175a.817.817 0 00.113-.456v-3.421a.926.926 0 00-.103-.456c-.069-.122-.228-.185-.477-.185h-.033v-.096h3.543zm2.305 2.597h-.156v1.562c0 .185.027.323.083.416.056.092.122.152.202.175.079.026.185.04.318.046v.089h-2.305v-.095c.258 0 .424-.057.497-.172a.85.85 0 00.109-.459v-3.422c0-.234-.046-.399-.142-.495-.096-.096-.249-.145-.464-.145v-.096h2.543c.335 0 .629.053.881.155.252.102.447.251.58.439.132.192.198.406.198.654a1.065 1.065 0 01-.467.912 1.676 1.676 0 01-.476.228c.228.145.45.396.665.762l.586.991c.1.172.192.304.278.397a.822.822 0 00.222.184c.063.03.136.05.209.063v.096H54.32a21.876 21.876 0 01-.354-.661 20.499 20.499 0 00-.573-1.063 1.433 1.433 0 00-.371-.433c-.119-.086-.281-.128-.48-.128zm.109-2.325h-.265v2.054h.222c.381 0 .669-.093.861-.274.192-.182.291-.446.291-.786a1.09 1.09 0 00-.125-.539.811.811 0 00-.375-.336 1.377 1.377 0 00-.609-.119zm6.315.884h-.129c-.089-.304-.228-.545-.424-.72a1.007 1.007 0 00-.702-.264.805.805 0 00-.371.083.622.622 0 00-.364.577.63.63 0 00.04.222.84.84 0 00.185.267c.096.106.245.225.447.35.225.139.361.228.411.264.278.176.51.337.685.489.176.152.315.314.408.489.092.175.139.373.139.595 0 .204-.04.389-.12.554a1.294 1.294 0 01-.337.436 1.553 1.553 0 01-.52.284 2.102 2.102 0 01-.656.103 3.15 3.15 0 01-.838-.136 1.215 1.215 0 00-.135-.029.82.82 0 00-.146-.017c-.106 0-.179.053-.225.162h-.116l.03-1.381h.129c.043.261.132.479.271.654a1.263 1.263 0 00.987.499c.245 0 .45-.069.613-.205a.629.629 0 00.241-.502.593.593 0 00-.102-.347 1.172 1.172 0 00-.305-.29 22.333 22.333 0 00-.765-.502 4.816 4.816 0 01-.503-.37 1.95 1.95 0 01-.325-.344 1.152 1.152 0 01-.165-.326 1.199 1.199 0 01-.05-.35c0-.238.063-.476.186-.707.122-.231.298-.423.523-.568.225-.146.483-.222.775-.222.135 0 .265.014.39.04a.708.708 0 01.133.03c.056.013.103.026.139.036.099.017.172.027.219.027.076 0 .129-.014.158-.037a.365.365 0 00.087-.105h.102zm.587-1.066v-.089h2.304v.096c-.255 0-.42.059-.493.175a.852.852 0 00-.113.459v3.428c0 .109.01.204.03.29.02.086.073.165.159.235.086.069.215.106.391.106h.026v.095h-2.304v-.095c.251 0 .417-.057.493-.172a.823.823 0 00.113-.459v-3.428c0-.225-.05-.39-.149-.489-.1-.103-.252-.152-.457-.152zm2.466-.089h2.683c.437 0 .831.066 1.175.201.345.136.639.321.871.555a2.435 2.435 0 01.702 1.764c0 .327-.056.63-.165.914-.11.284-.275.535-.497.753-.222.218-.5.39-.831.512a3.243 3.243 0 01-1.126.185h-2.812v-.095c.259 0 .424-.057.497-.172a.84.84 0 00.113-.459v-3.415a.958.958 0 00-.1-.459c-.066-.126-.225-.188-.473-.188h-.037zm1.699.327v3.576c0 .172.02.311.06.413.04.103.112.175.218.225.106.046.269.072.484.072.192 0 .367-.013.52-.039.152-.027.298-.076.434-.152.198-.116.364-.274.493-.476.129-.201.225-.422.285-.663a3.13 3.13 0 00-.017-1.54 2.167 2.167 0 00-.347-.729 1.768 1.768 0 00-.653-.542c-.275-.135-.609-.205-1-.205a2.655 2.655 0 00-.477.06zm7.623-.328l.04 1.093h-.096a2.39 2.39 0 00-.149-.456.616.616 0 00-.232-.274.76.76 0 00-.411-.096h-.986v2.054h.788c.235 0 .407-.052.513-.155.109-.102.169-.258.189-.462h.096v1.433h-.096c-.033-.218-.116-.36-.242-.436a.926.926 0 00-.46-.109h-.788v1.407c0 .406.212.611.632.611h.301c.202 0 .368-.026.494-.079a.701.701 0 00.318-.274c.082-.129.159-.314.225-.549h.096l-.073 1.173h-3.695v-.096c.258 0 .423-.059.5-.175a.817.817 0 00.112-.456v-3.421a.926.926 0 00-.103-.456c-.069-.122-.228-.185-.476-.185h-.033v-.096h3.536zm4.447 2.19h2.318v-1.453a.952.952 0 00-.099-.452c-.066-.126-.225-.188-.474-.188H77.5v-.096h2.305v.096c-.258 0-.424.059-.497.175a.87.87 0 00-.109.465v3.422c0 .105.01.201.03.29.02.086.073.165.155.235.083.069.212.106.388.106h.033v.095H77.5v-.095c.259 0 .427-.057.497-.172a.85.85 0 00.109-.459v-1.645h-2.318v1.645c0 .109.01.204.03.294.02.086.073.165.156.234.082.069.212.103.387.103h.033v.095h-2.305v-.095c.259 0 .424-.057.497-.172a.85.85 0 00.109-.459v-3.422a.937.937 0 00-.102-.456c-.066-.122-.225-.184-.47-.184h-.034v-.096h2.305v.096c-.251 0-.417.059-.493.175-.076.115-.113.27-.113.465zm4.361.185c0-.331.056-.648.172-.951.116-.304.282-.568.504-.796.222-.228.49-.406.808-.535a2.83 2.83 0 011.073-.192c.404 0 .764.066 1.079.195a2.3 2.3 0 01.805.538c.222.231.387.496.5.796.112.301.169.624.169.965 0 .336-.057.657-.166.954a2.373 2.373 0 01-.483.793 2.251 2.251 0 01-.805.545 2.885 2.885 0 01-1.096.198c-.441 0-.825-.076-1.149-.225a2.237 2.237 0 01-.802-.591 2.44 2.44 0 01-.46-.812 2.787 2.787 0 01-.149-.882zm1.166-.063c0 .33.026.657.076.981.05.324.179.621.387.902.209.28.524.419.944.419.59 0 .964-.235 1.129-.707.166-.472.249-.954.249-1.443 0-.383-.033-.74-.1-1.073a1.837 1.837 0 00-.407-.859c-.205-.238-.497-.357-.871-.357-.42 0-.735.136-.944.406a1.916 1.916 0 00-.387.866 5.36 5.36 0 00-.076.865zm4.291-2.222v-.089h2.305v.096c-.255 0-.421.059-.493.175a.852.852 0 00-.113.459v3.428c0 .109.01.204.03.29.02.086.073.165.159.235.086.069.215.106.391.106h.026v.095h-2.305v-.095c.252 0 .418-.057.494-.172.076-.116.112-.268.112-.459v-3.428c0-.225-.049-.39-.149-.489-.099-.103-.251-.152-.457-.152zm5.322-.136l1.649 4.224c.089.218.192.367.314.446.12.079.269.136.444.165v.096H91.01v-.096c.318-.016.477-.115.477-.297a.714.714 0 00-.016-.122 1.782 1.782 0 00-.04-.165c-.017-.06-.026-.096-.033-.109l-.411-1.037h-1.463l-.351.997a.976.976 0 00-.067.324c0 .152.043.251.133.304a.916.916 0 00.318.105v.096h-1.474v-.096a.737.737 0 00.431-.214c.132-.126.261-.36.387-.701l1.391-3.92zm-1.292 2.778h1.222l-.632-1.645zm5.64-2.786l2.993 3.148V56.82c0-.294-.059-.495-.179-.601-.119-.106-.304-.178-.549-.215v-.096h1.692v.096c-.186.02-.325.07-.417.152a.55.55 0 00-.176.284c-.026.109-.04.235-.04.38v4.026h-.122l-3.59-3.762v2.748c0 .231.05.426.149.588.1.162.282.254.547.274v.096h-1.752v-.096c.49-.04.735-.281.729-.72v-3.233a.408.408 0 01-.053-.046 2.93 2.93 0 00-.1-.096l-.126-.119c-.298-.284-.559-.446-.781-.479v-.096h1.775zM62.212 43.126a5.94 5.94 0 01-1.689.571c-.639.122-1.384.178-2.318.178-.576 0-1.229-.02-1.967-.062-1.381-.077-2.523-.284-3.765-.479s-2.583-.374-4.325-.374c-.238 0-.483.004-.738.01-1.024.03-2.037.248-2.984.555-1.421.463-2.689 1.126-3.609 1.675-.918.548-1.487.984-1.494.99a.325.325 0 00-.059.456.331.331 0 00.46.06h.003c.05-.04 1.043-.79 2.494-1.539 1.45-.75 3.354-1.493 5.208-1.543.249-.006.491-.01.722-.01 1.699 0 2.994.172 4.222.367 1.232.191 2.405.409 3.832.485.745.04 1.407.063 2 .063.96 0 1.748-.056 2.44-.188a6.701 6.701 0 001.865-.634.326.326 0 10-.298-.581zm1.914-4.657c-.05.033-.981.631-2.318 1.226-1.335.594-3.077 1.179-4.723 1.195h-.158c-1.563 0-3.318-.274-5.117-.555-1.798-.277-3.639-.561-5.4-.561-.282 0-.56.006-.835.023-2.414.139-4.59 1.05-6.169 1.925-1.576.876-2.556 1.711-2.57 1.721a.327.327 0 00-.036.459.33.33 0 00.46.036h.003c.047-.039 1.014-.852 2.53-1.684 1.517-.832 3.583-1.678 5.815-1.803.262-.017.53-.023.798-.023 1.689 0 3.504.274 5.298.555 1.799.277 3.577.561 5.216.561h.165c.911-.01 1.825-.178 2.683-.416 1.291-.36 2.46-.885 3.315-1.321.851-.436 1.384-.786 1.39-.789a.325.325 0 00.093-.453.31.31 0 00-.44-.096zm-5.981 8.651c-2.384-.538-4.454-.746-6.226-.746-2.519 0-4.44.422-5.814.908-1.375.485-2.202 1.04-2.544 1.298a.438.438 0 00-.178.36c0 .082.023.165.066.238a.462.462 0 00.195.175c2.146 1.013 4.189 1.39 6.03 1.387 2.279 0 4.242-.572 5.736-1.216 1.493-.644 2.513-1.357 2.9-1.651a.458.458 0 00.126-.152.413.413 0 00-.043-.439.416.416 0 00-.248-.162zm-2.994 1.807c-1.43.617-3.308 1.162-5.473 1.162-1.663 0-3.497-.324-5.441-1.186.397-.26 1.083-.65 2.089-1.007 1.305-.462 3.15-.872 5.593-.872 1.597 0 3.451.175 5.584.625-.494.333-1.302.825-2.352 1.278zm5.431-44.525A15.093 15.093 0 0049.906 0h-.579a15.093 15.093 0 00-10.676 4.402 14.962 14.962 0 00-4.424 10.631v20.671c0 1.47.212 2.89.606 4.231a.92.92 0 00.351.495.96.96 0 00.556.182.917.917 0 00.49-.139 23.906 23.906 0 013.212-1.628c1.358-.562 2.934-1.044 4.5-1.173.371-.029.762-.042 1.173-.042 1.715 0 3.725.241 5.652.485.964.122 1.908.244 2.789.337.88.092 1.695.155 2.41.155 1.517 0 3.033-.393 4.477-1.04 1.444-.648 2.815-1.556 4.04-2.593.338-.287.52-.703.52-1.136V15.037a14.954 14.954 0 00-4.421-10.635zm-10.96 14.125a5.33 5.33 0 01-3.772-1.555 5.276 5.276 0 01-1.563-3.755c0-1.466.596-2.794 1.563-3.755a5.332 5.332 0 013.772-1.556c1.473 0 2.804.595 3.771 1.556a5.276 5.276 0 011.563 3.755 5.276 5.276 0 01-1.563 3.755 5.33 5.33 0 01-3.771 1.555zM35.041 12.89a14.226 14.226 0 011.954-5.347l7.09 3.402a5.873 5.873 0 00-.441 1.945zm10.163 4.353L34.882 27.718v-9.267l.156.426 9.087-3.292a5.916 5.916 0 001.079 1.658zm8.365-8.504a5.962 5.962 0 00-1.252-.843l2.772-6.288a14.452 14.452 0 013.546 1.969zm-1.848-1.107a6.069 6.069 0 00-1.791-.37V.654a14.53 14.53 0 014.543.733zm-2.447-.366a5.91 5.91 0 00-1.758.37L44.76 1.387a14.497 14.497 0 014.514-.733zm-2.358.63a5.91 5.91 0 00-1.248.843l-5.07-5.162a14.332 14.332 0 013.547-1.969zm8.683 4.994a5.888 5.888 0 00-.444-1.949l7.083-3.398a14.294 14.294 0 011.954 5.347zm-.484 2.698l9.08 3.289.156-.426v9.268L54.032 17.246a5.929 5.929 0 001.083-1.658zm9.236 2.652l-9.007-3.263c.142-.459.228-.938.258-1.437h8.676c.049.493.076.988.076 1.493v3.207zM61.88 6.992l-7.007 3.362a6.107 6.107 0 00-.834-1.163l5.113-5.208a14.336 14.336 0 012.728 3.009zM39.114 4.865c.309-.307.633-.601.967-.879l5.117 5.212c-.322.35-.603.739-.832 1.159l-7.013-3.365a14.204 14.204 0 011.761-2.127zm-4.155 8.679h8.682c.027.495.116.977.255 1.433l-9.014 3.266v-3.206c0-.506.027-1.004.077-1.493zm.937 26.374a.286.286 0 01-.427-.165 14.317 14.317 0 01-.58-4.049V28.65l10.792-10.952c.424.37.897.681 1.414.922l-8.02 19.68a24.656 24.656 0 00-3.179 1.618zm7.997-2.893c-1.388.112-2.755.486-3.984.941l7.789-19.102a5.924 5.924 0 001.599.307v18.108c-1.434-.165-2.871-.3-4.176-.3-.427 0-.837.016-1.228.046zm9.732.78c-1.139-.119-2.397-.291-3.679-.446V19.171a5.91 5.91 0 001.593-.307l7.556 18.534c-1.036.354-2.089.555-3.125.555-.679 0-1.477-.059-2.345-.148zm10.438-3.329c-1.186 1.004-2.507 1.875-3.885 2.496-.155.07-.311.136-.467.198l-7.56-18.547a6.03 6.03 0 001.418-.921L64.357 28.65v5.188a.866.866 0 01-.294.638zM13.692 64.489h1.534c.394 0 .692.103.894.301.152.152.228.34.228.565v.01c0 .336-.162.587-.487.759.454.152.679.429.679.829v.01a.809.809 0 01-.348.697c-.225.162-.533.238-.917.238h-1.583zm2.057.965c0-.288-.199-.433-.6-.433h-.864v.905h.821c.431 0 .646-.155.646-.462v-.01zm.192 1.436c0-.307-.235-.459-.702-.459h-.954v.935h.997c.44 0 .659-.155.659-.469zm2.54-.687v-.01c0-.485.165-.901.503-1.242.341-.346.772-.521 1.288-.521.517 0 .947.171 1.285.515.331.337.497.749.497 1.235v.01c0 .485-.166.901-.503 1.242-.342.346-.772.521-1.289.521-.516 0-.947-.171-1.284-.515a1.693 1.693 0 01-.497-1.235zm2.944 0v-.01c0-.337-.106-.624-.328-.858a1.085 1.085 0 00-.835-.357c-.337 0-.609.115-.831.35a1.198 1.198 0 00-.321.852v.01c0 .337.106.624.328.852.218.238.497.357.834.357.338 0 .61-.116.832-.351.215-.227.321-.511.321-.845zm2.718.248v-1.962h.6v1.939c0 .31.079.551.228.72.152.165.361.248.636.248.268 0 .477-.08.629-.238.152-.162.229-.4.229-.707v-1.962h.599v1.932c0 .496-.133.876-.401 1.146-.255.258-.609.383-1.069.383-.454 0-.805-.125-1.06-.379-.258-.258-.391-.635-.391-1.12zm6.004-1.407h-1.083v-.555h2.771v.555h-1.082v2.854h-.606zm3.771-.555h.6v3.409h-.6zm5.795 3.512l-.41-.367c-.308.215-.656.32-1.04.32-.517 0-.947-.171-1.285-.515a1.699 1.699 0 01-.497-1.238v-.01c0-.486.166-.902.504-1.242.341-.347.771-.522 1.288-.522.516 0 .947.172 1.285.515.331.337.496.75.496 1.236v.01c0 .383-.116.736-.347 1.047l.39.33zm-1.44-1.259l.384-.439.599.545a1.25 1.25 0 00.166-.647v-.01c0-.337-.106-.624-.328-.859a1.083 1.083 0 00-.834-.356c-.338 0-.61.115-.832.35a1.196 1.196 0 00-.321.852v.01c0 .337.106.624.328.852.219.238.497.356.834.356.219 0 .414-.053.59-.155zm3.868-.291v-1.962h.599v1.939c0 .31.08.551.229.72.152.165.361.248.636.248.268 0 .476-.08.629-.238.152-.162.228-.4.228-.707v-1.962h.6v1.932c0 .496-.133.876-.401 1.146-.255.258-.609.383-1.07.383-.453 0-.804-.125-1.059-.379-.259-.258-.391-.635-.391-1.12zm5.162-1.962h2.534v.535h-1.934v.885h1.712v.536h-1.712v.914h1.957v.535H47.3v-3.405zm8.709-.026h.557l1.503 3.431h-.636l-.348-.822h-1.616l-.351.822h-.616zm.858 2.08l-.59-1.364-.586 1.364zm3.202-2.054h.556l1.831 2.358v-2.358h.59v3.409h-.503l-1.885-2.425v2.425h-.589zm5.272 0h1.275c.533 0 .966.162 1.314.486.338.32.503.726.503 1.208v.01c0 .486-.165.892-.503 1.212-.348.327-.781.493-1.314.493h-1.275zm.599.545v2.319h.672c.358 0 .646-.109.865-.327.215-.208.321-.486.321-.823v-.01c0-.336-.106-.614-.321-.828-.219-.219-.507-.331-.865-.331zm7.583 1.939c.341.297.702.442 1.08.442.185 0 .331-.039.443-.122a.366.366 0 00.163-.307v-.01a.353.353 0 00-.146-.297c-.113-.08-.318-.152-.626-.225-.394-.099-.679-.208-.841-.34-.199-.155-.298-.38-.298-.677v-.01c0-.294.106-.532.328-.717.218-.178.496-.274.841-.274.47 0 .884.142 1.238.43l-.321.452c-.318-.235-.626-.35-.927-.35a.681.681 0 00-.411.115.35.35 0 00-.145.288v.01c0 .132.052.234.162.307.112.073.328.152.655.228.378.092.649.208.822.35a.823.823 0 01.275.647v.01c0 .317-.113.565-.342.75-.218.178-.513.267-.877.267a2.06 2.06 0 01-1.427-.545zm4.408-2.484h1.347c.394 0 .712.103.954.311.229.208.348.482.348.829v.01c0 .366-.133.657-.401.865-.248.198-.57.297-.967.297h-.679v1.097h-.599v-3.409zm1.298 1.771c.225 0 .404-.06.536-.172a.546.546 0 00.199-.439v-.01a.558.558 0 00-.199-.453c-.132-.102-.308-.155-.536-.155h-.699v1.225h.699zm4.245-1.797h.556l1.504 3.431h-.633l-.348-.822H82.94l-.351.822h-.615zm.861 2.08l-.59-1.364-.586 1.364z" fill="#212121"/></svg>