<svg xmlns="http://www.w3.org/2000/svg" width="101" height="32"><path d="M27.341 22.893v1.555c-.746-.635-1.518-.946-2.316-.946-.878 0-1.61.324-2.222.959-.599.636-.905 1.42-.905 2.339 0 .905.306 1.676.905 2.298.598.621 1.344.932 2.222.932.452 0 .838-.081 1.158-.229.173-.082.359-.176.545-.298.187-.121.386-.284.599-.459v1.581a4.635 4.635 0 01-2.315.635c-1.225 0-2.263-.432-3.128-1.297-.865-.879-1.291-1.92-1.291-3.163 0-1.109.36-2.095 1.078-2.96.879-1.055 2.023-1.595 3.434-1.595.785.013 1.53.229 2.236.648zm9.568 6.096h-3.66l-.945 2.108H30.92l4.219-9.218 4.072 9.218H37.8zm-.533-1.23l-1.264-2.947-1.331 2.947zm7.905-.177v3.514h-1.29v-8.664h1.463c.719 0 1.251.054 1.624.149.373.094.692.297.971.567.493.487.732 1.095.732 1.839 0 .797-.266 1.419-.785 1.892-.519.46-1.224.703-2.116.703zm0-1.217h.48c1.184 0 1.769-.459 1.769-1.392 0-.892-.612-1.338-1.836-1.338h-.426v2.73zm8.837-3.933v8.664h-1.291v-8.664zm7.12 1.23v7.434h-1.291v-7.434h-1.956v-1.23h5.203v1.23zm10.38 5.327h-3.66l-.945 2.108h-1.384l4.219-9.218 4.072 9.218h-1.411zm-.519-1.23l-1.265-2.947-1.33 2.947zm7.905-5.327v7.434h2.515v1.23h-3.793v-8.664zM.645 17.918L4.078.116l5.589 12.868L15.47.116l3.087 17.802h-2.528l-1.571-9.989-4.83 10.759L4.943 7.929 3.187 17.931H.645zM30.987 3.712h-6.534v3.974H30.8v2.352h-6.347v5.529h6.534v2.352h-8.996V1.36h8.996zm5.695 4.258l6.348-6.61h3.287l-7.372 7.489 7.412 9.056h-3.3l-5.869-7.367-.506.514v6.853H34.22V1.36h2.462zm30.263 9.948V.237l11.883 12.625V1.359h2.462v17.572L69.406 6.333v11.598h-2.461zm26.802-8.624h6.733v.541c0 1.243-.146 2.338-.439 3.298-.279.892-.759 1.716-1.424 2.487-1.517 1.73-3.433 2.595-5.776 2.595-2.275 0-4.231-.838-5.855-2.514-1.623-1.676-2.435-3.69-2.435-6.042 0-2.406.825-4.434 2.475-6.11 1.65-1.676 3.673-2.514 6.041-2.514 1.278 0 2.462.27 3.567.797 1.052.528 2.089 1.393 3.114 2.569l-1.757 1.703c-1.343-1.811-2.967-2.717-4.883-2.717-1.73 0-3.168.608-4.339 1.811-1.171 1.19-1.756 2.677-1.756 4.461 0 1.838.652 3.366 1.956 4.555 1.211 1.109 2.542 1.663 3.952 1.663 1.211 0 2.303-.419 3.261-1.244.958-.838 1.504-1.838 1.61-3.001h-4.058V9.294zM59.279 8.076s-1.184.676.612 1.149c1.797.473 4.525 1.96 2.635 3.73-1.65 1.555-6.521 2.596-8.783 5.718a9.114 9.114 0 002.036.243c4.977 0 8.996-4.095 8.996-9.137 0-.825-.12-1.622-.319-2.379-1.291-.041-3.5.013-5.177.676z" fill="#212121"/><path d="M54.661 12.578c4.285-.284 5.47-1.338 3.633-2.244 0 0-1.743-.771-2.502-1.298-.732-.513-1.277-2.081 8.198-3.014C62.579 2.845 59.439.629 55.792.629c-4.977 0-8.996 4.095-8.996 9.137 0 1.757.493 3.393 1.344 4.785a15.578 15.578 0 016.521-1.973z" fill="#212121"/></svg>