<svg xmlns="http://www.w3.org/2000/svg" width="90" height="39"><path d="M29.875 4.725h-5.612C22.07 1.764 18.592 0 14.957 0c-3.773 0-7.163 1.721-9.34 4.73L0 4.725V18.87l1.642 2.202L0 23.397v15.428h29.875V23.686l-1.703-2.565 1.703-2.177zM14.957 2.431c3.238 0 6.291 1.764 7.952 4.596l.082.129 4.485.005V36.4H2.385V7.161l4.53.006.077-.134c1.635-2.881 4.615-4.602 7.965-4.602z" fill="#212121"/><path d="M22.864 21.748c-1.087-1.011-2.548-1.736-4.328-2.171 1.25-.53 2.255-1.076 2.993-1.629.929-.702 1.397-1.664 1.397-2.861 0-1.474-.825-2.628-2.461-3.419-1.574-.761-3.869-1.165-6.817-1.194H5.401v1.867h2.117c.27 0 .484.066.656.209a.644.644 0 01.228.507v17.264c0 .22-.081.381-.228.507-.174.149-.386.209-.656.209H5.296v1.867h9.349c3.01 0 5.476-.613 7.312-1.833 1.876-1.243 2.824-2.918 2.824-4.954 0-1.718-.639-3.181-1.917-4.369zm-3.666 8.209c-1.081.725-2.625 1.083-4.584 1.083h-2.129v-6.944c0-.719.304-1.403.842-1.867l-.175-.204.181.189c1.041-.899 2.461-1.159 3.694-.667a5.842 5.842 0 012.092 1.452c1.104 1.183 1.661 2.546 1.661 4.066 0 1.246-.518 2.191-1.582 2.892zm-.386-14.87c0 .464-.087.891-.256 1.249-.175.358-.462.69-.853.999-.414.309-.766.553-1.023.702-.267.154-.706.369-1.32.661-1.357.647-2.309 1.206-2.878 1.69v-8.047h.913c1.858.023 3.314.275 4.22.736.797.395 1.197 1.083 1.197 2.01zm17.945 2.328v-3.639c.222-.627.656-.902 1.273-1.226 1.706.075 2.855 1.461 2.855 2.904 0 1.243-1.098 1.993-3.002 1.993h-1.076c-.033 0-.05-.017-.05-.032zm0-8.936c0-.018.034-.018.048-.035h.501c1.886.017 2.658.476 2.658 1.409 0 1.002-.887 1.409-1.689 1.801-.6.284-1.231.576-1.518.985zm-3.126-.668v.633h.918c.321 0 .541.184.541.458v8.084c0 .266-.223.458-.541.458h-.918v.627h4.266c2.774 0 4.626-1.225 4.626-3.052 0-1.552-1.222-2.669-3.223-3.03 1.165-.458 2.353-.968 2.353-2.136 0-1.294-1.475-2.027-4.223-2.044h-3.799zm21.913.001v.65h.918c.321 0 .535.166.535.441v8.083c0 .266-.214.458-.535.458h-.918v.627h6.417l.377-2.737h-.698l-.133.933c-.123.702-.737 1.177-1.574 1.177H58.72c-.017-.017-.048-.017-.048-.034V8.905c0-.274.197-.441.518-.441h.918v-.65h-4.564zm-10.272 0v.65h.918c.321 0 .532.166.532.441v8.083c0 .266-.214.458-.532.458h-.918v.627h6.735l.394-2.737h-.698l-.147.933c-.106.702-.737 1.177-1.559 1.177h-1.552c-.017-.017-.048-.017-.048-.034v-4.484h1.034c.318 0 .532.174.532.441v.684h.704v-2.878h-.704v.667c0 .267-.214.441-.532.441h-1.034V8.496c0-.017.017-.034.048-.034h1.386c.836 0 1.452.458 1.551 1.168l.155.919h.698l-.386-2.737zm39.789 13.867c0-.017.017-.017.031-.017l.755-.017c1.737.031 2.509.466 2.509 1.354 0 1.538-1.994 1.489-3.298 2.749v-4.069zm-3.015-.641v.627h.889c.304 0 .516.157.516.421v7.797c0 .26-.212.435-.516.435h-.889v.61h4.409v-.61h-.881c-.305-.017-.516-.175-.516-.435v-2.967C86.266 24.706 90 25.132 90 23.002c0-1.26-1.464-1.964-4.184-1.964zm-48.415 4.928c0 3.058 2.157 5.12 5.362 5.12 1.027 0 1.816-.31 2.672-.31.397 0 .833.063 1.318.278v-4.662c0-.26.304-.426.771-.426v-.627h-6.282v.627h3.382c.312 0 .515.166.515.426v3.519a4.425 4.425 0 01-2.027.507c-2.315 0-4.139-2.273-4.139-5.205 0-2.274 1.34-3.717 3.443-3.717 1.659 0 2.791.847 3.514 2.686h.654l-.451-3.147h-.687l.079.492c-.82-.461-1.723-.69-2.782-.69-3.185 0-5.342 2.071-5.342 5.129zm25.449-.834c0-1.995 1.169-3.636 3.568-3.636 2.931 0 4.06 3.13 4.06 5.317 0 1.95-1.222 3.574-3.562 3.623-2.827-.121-4.066-3.147-4.066-5.304zm-1.579.834c0 3.058 2.142 5.12 5.392 5.12 3.249 0 5.392-2.062 5.392-5.12 0-3.058-2.174-5.129-5.392-5.129-3.236 0-5.392 2.053-5.392 5.129zm-8.068-4.287c0-.017.032-.017.054-.031h.476c1.839.017 2.562.452 2.562 1.354 0 .968-.856 1.354-1.627 1.735-.561.261-1.155.556-1.465.982zm-3.007-.641v.61h.89c.304 0 .515.174.515.435v7.797c0 .26-.211.435-.515.435h-.89v.61h4.41v-.61h-.887c-.304-.017-.516-.175-.516-.435v-3.179c.212-.475.772-.936 1.194-1.102l.772 2.068c.242.601.374.95.6 1.551.529 1.412.951 1.704 2.9 1.704h.997v-.61c-1.693 0-1.856-.126-2.385-1.569l-1.403-3.765c1.045-.427 2.05-.937 2.05-1.982 0-1.243-1.419-1.95-4.074-1.964h-3.658zm31.278 0v6.909c-.017 1.586-.78 2.52-2.143 2.52-1.768 0-1.799-1.291-1.799-2.537v-6.892h-3.016v.627h.904c.304 0 .498.157.498.421v5.959c0 2.013 1.177 3.058 3.219 3.058 2.081 0 3.094-1.045 3.094-3.219v-5.801c0-.261.211-.421.516-.421h.881v-.627h-2.154zM36.87 35.383h.574v3.551h-.574v-1.537h-1.496v1.537H34.8v-3.551h.574v1.455h1.496zM42.031 39c-.504 0-.932-.177-1.287-.532a1.813 1.813 0 01-.524-1.309c0-.513.175-.948.524-1.303a1.734 1.734 0 011.287-.538c.504 0 .932.177 1.281.538.355.355.529.79.529 1.303 0 .513-.174.948-.529 1.309a1.72 1.72 0 01-1.281.532zm0-.57c.349 0 .645-.12.878-.36.24-.244.358-.547.358-.914 0-.366-.118-.67-.358-.907a1.166 1.166 0 00-.878-.364c-.349 0-.642.12-.882.364a1.246 1.246 0 00-.354.907c0 .364.118.67.354.914.24.24.536.36.882.36zm4.406-.303l.493-.295c.138.401.428.598.868.598.433 0 .647-.186.647-.466a.37.37 0 00-.175-.33c-.115-.077-.323-.163-.619-.255-.335-.1-.498-.166-.735-.323-.225-.163-.338-.395-.338-.716 0-.315.11-.564.33-.744a1.18 1.18 0 01.791-.281c.56 0 .994.295 1.216.782l-.484.283c-.144-.329-.389-.498-.735-.498-.335 0-.549.172-.549.441 0 .263.169.386.704.552.135.046.228.078.29.104.065.02.149.057.259.1a.92.92 0 01.254.143c.185.146.385.389.36.73 0 .321-.116.578-.344.765-.225.186-.524.277-.892.277-.668.006-1.157-.323-1.341-.867zm6.595-2.743c.329 0 .602.111.822.335.225.223.335.501.335.83 0 .329-.11.604-.335.831-.22.223-.493.335-.822.335h-.713v1.216h-.574v-3.55h1.287zm0 1.784c.341 0 .583-.258.583-.619s-.245-.618-.583-.618h-.713v1.237zm3.911-1.785h.575v3.551h-.575zm5.798 0v.559h-.983v2.992h-.572v-2.992h-.988v-.559zm4.705 3.551l-.245-.716h-1.487l-.245.716h-.622l1.267-3.551h.687l1.261 3.551zm-1.54-1.263h1.106l-.555-1.603zm5.361.705h1.422v.558h-1.994v-3.551h.574v2.993zm4.099-2.993h.575v3.551h-.575zm5.798 0v.559h-.983v2.992h-.571v-2.992h-.988v-.559zm5.364 0l-1.216 2.14v1.408h-.575v-1.408l-1.216-2.14h.653l.853 1.573.848-1.573z" fill="#212121"/></svg>