<svg xmlns="http://www.w3.org/2000/svg" width="59" height="59"><path d="M10.747 29.949c-1.933.913-3.972 1.933-3.972 4.078 0 2.144 1.629 3.627 3.932 3.627 2.132 0 4.29-1.522 4.29-4.501v-5.204c-2.913 1.404-2.184 1.02-4.25 2zm-.04 9.48c-3.508 0-6.196-2.079-6.196-5.548 0-1.589 1.02-2.992 3.059-4.184 1.919-1.125 4.806-2.171 5.958-2.833 1.337-.755 1.483-1.205 1.483-2.119 0-1.694-1.986-3.204-4.065-3.204-1.549-.066-2.979.848-3.601 2.264H5.028c.595-2.343 3.005-4.038 5.918-4.038 3.403 0 6.289 2.383 6.289 5.243v8.143c-.013 4.117-3.098 6.262-6.528 6.276zM21.379.847h-2.344v38.581h2.344zm29.207 30.227a.709.709 0 01-.648.755h-.08a.605.605 0 01-.675-.556v-.067c0-.37.344-.542.675-.675.106-.053.225-.106.728-.344zm-2.449-.093c-1.231.583-2.529 1.232-2.529 2.609s1.059 2.317 2.529 2.317c1.364 0 2.701-.94 2.701-2.86v-3.35c-1.854.9-2.304 1.112-2.701 1.284z" fill="#212121"/><path d="M47.674 29.948c-1.947.914-3.972 1.92-3.972 4.078 0 2.158 1.628 3.628 3.932 3.628 2.131 0 4.29-1.522 4.29-4.502v-5.203c-2.9 1.404-2.172 1.02-4.25 1.999zm-.04 9.467c-3.509 0-6.196-2.079-6.196-5.548 0-1.588 1.019-2.992 3.045-4.183 1.919-1.126 4.819-2.172 5.958-2.834 1.337-.754 1.483-1.205 1.483-2.118 0-1.695-1.986-3.204-4.065-3.204a3.83 3.83 0 00-3.615 2.264h-2.303c.609-2.344 3.005-4.038 5.918-4.038 3.403 0 6.276 2.383 6.276 5.243v8.142c0 4.131-3.085 6.276-6.501 6.276zm-15.941-2.37a6.073 6.073 0 01-6.024-6.117 6.075 6.075 0 016.117-6.024 6.075 6.075 0 016.024 6.077 6.1 6.1 0 01-6.104 6.077c0-.013-.013-.013-.013-.013zm0-14.498a8.564 8.564 0 00-6.157 2.595V.847h-2.317v30.134c-.026 4.687 3.747 8.487 8.434 8.514 4.687.026 8.487-3.747 8.514-8.434.026-4.687-3.747-8.487-8.434-8.514h-.04zM1.029 45.201l1.006 2.581 1.046-2.767 1.007 2.767 1.085-2.581h.636l-1.721 4.077-.993-2.714-1.02 2.714-1.668-4.077zm8.275.53H7.755v.927h1.496v.543H7.755v1.284h1.549v.543H7.172v-3.84h2.132zm2.264-.53v3.297h1.139v.543h-1.695v-3.853h.556zm3.178 0v3.297h1.138v.543H14.19v-3.853h.556zm2.595 3.839v-4.104l2.807 2.939v-2.674h.582v4.078l-2.806-2.926v2.687zm7.361-3.309h-1.549v.927h1.496v.543h-1.496v1.284h1.549v.543h-2.118v-3.84h2.118zm3.853.039l-.477.278a.793.793 0 00-.251-.304.693.693 0 00-.715.053.425.425 0 00-.159.344c0 .185.146.344.424.45l.384.159c.264.093.489.251.675.463.145.199.225.437.212.676.013.331-.106.648-.345.873a1.225 1.225 0 01-.887.345 1.163 1.163 0 01-.821-.292 1.341 1.341 0 01-.397-.834l.583-.132c0 .159.053.331.145.463a.67.67 0 00.927.119c.014-.013.04-.026.053-.039a.664.664 0 00.186-.464c0-.066-.014-.145-.027-.212a.692.692 0 00-.093-.172c-.053-.053-.105-.106-.172-.145a1.533 1.533 0 00-.251-.133l-.371-.159c-.53-.225-.794-.556-.794-.979 0-.278.119-.543.344-.729.225-.198.516-.304.821-.291.41.027.807.265 1.006.662zm3.893 0l-.464.278a.793.793 0 00-.251-.304.667.667 0 00-.318-.08.598.598 0 00-.397.133.425.425 0 00-.159.344c0 .185.145.344.423.45l.384.159c.265.093.49.251.676.463.145.199.225.437.211.676.014.331-.105.648-.344.873a1.225 1.225 0 01-.887.345 1.161 1.161 0 01-.821-.292 1.341 1.341 0 01-.397-.834l.583-.132c0 .159.053.331.145.463a.67.67 0 00.927.119c.013-.013.04-.026.053-.039a.663.663 0 00.185-.464c0-.066-.013-.145-.026-.212a.726.726 0 00-.093-.172.888.888 0 00-.172-.145 1.533 1.533 0 00-.251-.133l-.371-.159c-.53-.225-.795-.556-.795-.979 0-.278.12-.543.345-.729.225-.198.529-.304.821-.291.41.027.807.278.993.662zm4.448-.569l1.059 2.674 1.073-2.674h.635l-1.721 4.144-1.695-4.144zm6.117 2.912h-1.642l-.423.941h-.623l1.907-4.078 1.84 4.078h-.635zm-.238-.542l-.57-1.311-.595 1.311zm3.257-2.37v3.297h1.138v.543h-1.708v-3.853h.57zm3.178 0v3.297h1.125v.543H48.64v-3.853h.57zm4.726.53h-1.549v.927h1.496v.543h-1.496v1.284h1.549v.543h-2.118v-3.84h2.118zm2.462 1.654l-1.257-2.184h.675l.874 1.535.887-1.535h.675l-1.258 2.184v1.669h-.582zM19.367 57.739h-.199v-3.031h.199v1.39c.172-.318.516-.517.874-.53.264 0 .516.106.701.291.225.212.344.504.344.808 0 .305-.119.596-.344.808a.992.992 0 01-.701.291c-.358 0-.689-.199-.874-.503zm1.708-1.059a.899.899 0 00-.252-.675.79.79 0 00-.582-.252.841.841 0 00-.596.252.879.879 0 00-.265.662.879.879 0 00.265.662c.159.159.37.252.596.252a.733.733 0 00.582-.239.907.907 0 00.225-.649zm2.647-1.073h.225l-.913 2.198c-.172.398-.411.596-.702.596a.941.941 0 01-.423-.092l.066-.186c.119.053.238.08.357.08.212 0 .384-.173.53-.504l-1.02-2.105h.239l.887 1.894zm2.595.358h-.278v-.423h.278v-.159a.736.736 0 01.186-.543.678.678 0 01.49-.172c.132 0 .278.013.41.053v.423a.77.77 0 00-.291-.053c-.199 0-.291.106-.291.345v.119h.582v.41h-.569v1.761h-.503v-1.761zm1.682.967v-1.404h.503v1.245c0 .344.159.529.477.529a.484.484 0 00.344-.145.538.538 0 00.132-.397v-1.245h.503v2.198h-.49v-.344a.788.788 0 01-.675.384.757.757 0 01-.582-.226.786.786 0 01-.212-.595zm2.9.171c.198.159.45.265.714.265.226 0 .345-.079.345-.238 0-.08-.053-.133-.146-.186-.106-.039-.225-.079-.344-.119a1.378 1.378 0 01-.45-.212.537.537 0 01-.225-.45c0-.185.079-.37.225-.49a.935.935 0 01.556-.185c.291 0 .569.093.807.252l-.198.344a1.296 1.296 0 00-.622-.212c-.199 0-.305.066-.305.212 0 .066.053.132.146.185.092.053.172.066.344.119.45.146.675.345.675.636a.603.603 0 01-.238.516 1.005 1.005 0 01-.583.172c-.344 0-.675-.119-.927-.344zm2.29-2.383h.543v.477h-.543zm.026.821h.517v2.198h-.517zm1.205 1.112c0-.304.12-.596.345-.808a1.2 1.2 0 011.668 0c.225.212.344.504.344.808 0 .305-.119.596-.344.808-.225.225-.53.344-.847.344-.318 0-.61-.119-.835-.344a1.093 1.093 0 01-.331-.808zm1.828 0a.79.79 0 00-.186-.503.67.67 0 00-.49-.212.627.627 0 00-.476.199.681.681 0 00-.172.503c0 .185.066.357.185.503a.699.699 0 00.966.013l.014-.013a.833.833 0 00.159-.49zm1.257-1.112h.503v.344a.79.79 0 01.676-.384.758.758 0 01.582.225.848.848 0 01.199.609v1.404h-.49v-1.245c0-.357-.159-.543-.464-.543a.48.48 0 00-.344.146.615.615 0 00-.145.397v1.245h-.504z" fill="#212121"/></svg>