<svg xmlns="http://www.w3.org/2000/svg" width="72" height="72"><path d="M59.018 17.281l-.014-.056c-1.389-3.857-3.911-6.579-7.326-7.884-1.276-.496-2.665-.766-4.096-.837a13.418 13.418 0 00-2.069-3.658C43.217 2.01 39.845.436 35.749.323h-.057C31.611.45 28.224 2.01 25.928 4.86a13.461 13.461 0 00-2.069 3.659 13.38 13.38 0 00-4.081.836c-3.401 1.305-5.938 4.041-7.326 7.884l-.015.057c-1.148 3.928-.694 7.628 1.29 10.691a13.192 13.192 0 002.82 3.091 13.293 13.293 0 00-.453 4.127c.198 3.644 1.998 6.905 5.243 9.401l.057.042c2.409 1.645 4.974 2.482 7.51 2.482 1.021 0 2.041-.128 3.047-.397a13.412 13.412 0 003.798-1.716 13.24 13.24 0 003.798 1.716c1.006.269 2.026.397 3.047.397 2.551 0 5.101-.837 7.511-2.482l.056-.042c3.231-2.51 5.045-5.757 5.244-9.401a13.294 13.294 0 00-.454-4.127 13.192 13.192 0 002.82-3.091c1.942-3.077 2.395-6.778 1.247-10.706zM35.721 42.493c-1.616-1.319-3.019-3.077-3.997-5.119-1.728-3.573-2.338-7.161-1.884-10.167 1.502 4.027 5.682 6.707 11.025 7.374-.298.936-.68 1.871-1.12 2.779-1.006 2.056-2.409 3.814-4.024 5.133zM25.106 16.984c-.396-2.226-.311-4.453.227-6.466 2.083.113 4.237.709 6.236 1.786 3.471 1.858 6.065 4.382 7.468 7.048-3.586-2.326-8.517-2.028-13.194.567a20 20 0 01-.737-2.935zm21.243 0c-.694 3.913-2.31 7.175-4.435 9.33 1.119-4.126-.681-8.735-4.592-12.393a24.765 24.765 0 012.565-1.617c1.998-1.077 4.152-1.673 6.235-1.786.525 2.013.624 4.24.227 6.466zm-10.628 3.488a4.338 4.338 0 014.336 4.339 4.338 4.338 0 11-8.673 0 4.338 4.338 0 014.337-4.339zm-4.124-.525c-3.359 2.694-4.606 7.501-3.585 12.776-.992 0-1.999-.071-3.019-.213-2.253-.312-4.336-1.091-6.094-2.226.752-1.957 1.999-3.828 3.642-5.416 2.863-2.737 6.08-4.424 9.056-4.921zm4.563 11.202c4.294-.184 8.134-3.332 10.416-8.21a22.818 22.818 0 012.31 1.943c1.644 1.574 2.891 3.445 3.642 5.416-1.757 1.135-3.841 1.915-6.094 2.227-3.939.538-7.553 0-10.274-1.376zM27.501 6.108c1.913-2.354 4.762-3.673 8.22-3.786 3.472.113 6.306 1.418 8.219 3.786a11.31 11.31 0 011.474 2.425c-2.197.198-4.422.865-6.505 1.971a23.624 23.624 0 00-3.202 2.056 23.347 23.347 0 00-3.203-2.056 17.44 17.44 0 00-6.505-1.985c.411-.865.907-1.688 1.502-2.411zM15.413 26.881c-1.658-2.552-2.012-5.657-1.048-8.99 1.176-3.261 3.302-5.572 6.136-6.65a10.99 10.99 0 012.735-.652 17.19 17.19 0 00-.128 6.763c.227 1.277.553 2.51.964 3.673a25.272 25.272 0 00-2.933 2.396c-1.701 1.631-3.033 3.559-3.898 5.601a11.272 11.272 0 01-1.828-2.141zm15.985 17.881c-2.933.78-5.994.17-8.871-1.773-2.735-2.127-4.265-4.863-4.435-7.898-.043-.907.028-1.843.212-2.779a17.045 17.045 0 006.406 2.212c1.091.156 2.182.227 3.259.227.184 0 .354 0 .539-.014a24.649 24.649 0 001.374 3.516c1.02 2.113 2.438 3.971 4.096 5.417-.822.482-1.687.851-2.58 1.092zm21.952-9.671c-.156 3.035-1.687 5.757-4.436 7.898-2.877 1.943-5.938 2.567-8.871 1.773a11.398 11.398 0 01-2.593-1.078 17.34 17.34 0 004.109-5.431 24.287 24.287 0 001.375-3.516c.184 0 .368.014.553.014 1.048 0 2.139-.071 3.245-.227 2.324-.326 4.52-1.092 6.405-2.212.184.922.255 1.857.213 2.779zm2.678-8.224c-.51.78-1.119 1.503-1.842 2.141-.865-2.028-2.197-3.956-3.897-5.601a23.128 23.128 0 00-2.934-2.396c.411-1.163.737-2.382.964-3.687.411-2.311.354-4.622-.128-6.764.95.1 1.871.327 2.736.653 2.834 1.091 4.959 3.389 6.136 6.65.992 3.346.623 6.466-1.035 9.004zM10.68 55.822h1.119v8.323H10.68zm13.93 8.125c-.623-.199-1.105-.44-1.445-.738l.51-.893c.354.269.779.496 1.318.666.524.17 1.077.256 1.644.256.765 0 1.318-.114 1.686-.355.369-.241.553-.567.553-1.007 0-.312-.099-.553-.298-.723a1.954 1.954 0 00-.765-.397c-.312-.085-.709-.17-1.219-.255a14.99 14.99 0 01-1.63-.383 2.345 2.345 0 01-1.048-.666c-.284-.312-.44-.752-.44-1.319 0-.695.284-1.262.865-1.716.581-.439 1.389-.666 2.423-.666a6.36 6.36 0 011.616.212c.538.142.978.326 1.332.568l-.496.907c-.68-.468-1.502-.709-2.452-.709-.723 0-1.261.128-1.615.383-.369.255-.553.581-.553.993 0 .311.099.567.312.765.212.185.467.326.765.426.312.085.723.184 1.261.283a15.07 15.07 0 011.602.383c.396.128.737.34 1.034.652.284.312.425.723.425 1.262 0 .723-.297 1.305-.907 1.73-.609.426-1.445.638-2.522.638a7.245 7.245 0 01-1.956-.297zm-19.57.213l3.642-8.338H7.534l-3.061 7.019-3.075-7.019H.25l3.656 8.338zm12.4-8.338l-3.656 8.338h1.148l3.075-7.019 3.061 7.019h1.148l-3.642-8.338zm21.923-.001v8.324h-.241v-4.113h-6.065v4.113h-.241v-8.324h.241v3.985h6.065v-3.985zm3.939 7.813a3.988 3.988 0 01-1.53-1.503c-.369-.638-.553-1.347-.553-2.141s.184-1.503.553-2.141a3.995 3.995 0 011.53-1.503c.652-.369 1.375-.553 2.183-.553.793 0 1.53.184 2.182.553a4.005 4.005 0 011.531 1.503c.368.638.552 1.347.552 2.141s-.184 1.503-.552 2.141a3.998 3.998 0 01-1.531 1.503c-.652.369-1.375.553-2.182.553-.808 0-1.545-.184-2.183-.553zm4.223-.184a3.781 3.781 0 001.446-1.432c.354-.61.524-1.276.524-2.028 0-.751-.17-1.418-.524-2.027a3.891 3.891 0 00-1.446-1.433c-.609-.34-1.303-.51-2.054-.51-.752 0-1.432.17-2.055.51a3.797 3.797 0 00-1.446 1.433c-.354.609-.524 1.276-.524 2.027 0 .752.17 1.418.524 2.028.355.61.836 1.078 1.446 1.432.609.34 1.303.511 2.055.511.751 0 1.431-.171 2.054-.511zm5.13-7.402h-3.089v-.227h6.419v.227h-3.089v8.097h-.241zm10.884 7.884v.227h-5.541v-8.323h5.356v.226h-5.129v3.758h4.591v.227h-4.591v3.885zm2.451-8.111h.241v8.097h4.96v.227H65.99zM25.687 67.577l-1.644 3.658h-.099L22.3 67.577h.114l1.573 3.517 1.573-3.517zm1.077 3.275c-.241-.255-.368-.652-.368-1.162v-2.127h.099v2.127c0 .482.113.85.34 1.091.227.241.553.369.964.369.425 0 .751-.128.963-.369.227-.241.34-.609.34-1.091v-2.127h.1v2.127c0 .51-.128.893-.369 1.162-.241.256-.595.397-1.034.397-.44 0-.78-.127-1.035-.397zm6.689-3.275v3.658h-.085l-2.678-3.474v3.474h-.099v-3.658h.085l2.678 3.474v-3.474zm4.067 1.857h.1v1.333c-.156.156-.341.27-.553.355a1.913 1.913 0 01-.709.113 1.98 1.98 0 01-.963-.241 1.806 1.806 0 01-.681-.666c-.17-.284-.24-.596-.24-.95 0-.355.085-.667.24-.95.17-.284.383-.497.681-.667a1.98 1.98 0 01.963-.241c.255 0 .496.043.709.114.212.085.397.198.553.354l-.057.071c-.312-.298-.709-.44-1.205-.44-.34 0-.637.071-.907.227a1.797 1.797 0 00-.637.624c-.156.27-.227.567-.227.894 0 .326.071.624.227.893.156.269.368.482.637.624.27.156.581.227.907.227.482 0 .865-.142 1.162-.411zm3.373-1.758h-1.36v-.099h2.82v.099h-1.361v3.559h-.099zm5.81 3.191c-.241-.255-.368-.652-.368-1.163v-2.127h.099v2.127c0 .482.113.851.34 1.092.227.241.553.369.964.369.425 0 .751-.128.963-.369.227-.241.341-.61.341-1.092v-2.127h.099v2.127c0 .511-.128.893-.369 1.163-.241.255-.595.397-1.034.397-.439-.014-.78-.142-1.035-.397zm-1.601-.738h-2.239l-.511 1.106h-.113l1.701-3.658h.099l1.7 3.658h-.113zm-.043-.099l-1.077-2.311-1.077 2.311z" fill="#212121"/></svg>