<svg xmlns="http://www.w3.org/2000/svg" width="60" height="60"><path d="M0 60V0h60v60z" fill="transparent"/><path d="M51.259 23.207c-1.935-2.858-4.629-4.719-7.812-5.898-.804-.302-1.647-.512-2.515-.774.706-.512 1.367-.987 2.025-1.471 4.908-3.605 4.222-11.649-1.918-13.967A16.313 16.313 0 0035.167 0c-3.127.008-6.255 0-9.382 0h-4.307v.003H6.726v4.86C9.73.809 16.469.543 21.478.452v14.855c-.467 0-5.723-.025-8.889-.016h-1.594v.531h1.582c.782.037 1.566.076 2.341.164.919.105 1.851.269 2.727.554 2.274.747 3.489 2.412 3.741 4.784.039.382.067.766.092 1.148v18.517c-4.992-.096-11.79-.416-14.747-4.405v4.857h21.663c-.17-.291-.291-.548-.42-.766-1.122-1.928-2.066-3.953-2.116-6.218V6.803c.084-1.815.66-3.481 2.044-4.784C29.828.212 33.406-.271 35.929.995c2.693 1.369 3.743 3.817 4.051 6.664.381 3.58-.84 6.701-3.029 9.413-1.635 2.019-3.444 3.887-5.244 5.759-2.641 2.748-3.898 6.017-3.581 9.822.316 3.679 2.08 6.39 5.549 7.796 5.468 2.208 12.339.639 16.481-3.744 3.723-3.933 4.141-9.016 1.103-13.498zm-8.608 15.344c-2.486 2.265-5.414 2.822-8.562 1.688-3.217-1.15-5.054-3.559-5.532-6.966-.515-3.724.568-6.939 3.001-9.797 2.405-2.839 5.46-4.756 8.632-6.529.154-.082.479-.028.633.091 3.688 2.977 5.833 6.746 5.922 11.722-.187 3.684-1.201 7.162-4.094 9.791zM11.082 48.555c-.143.008-.26.025-.347.059a.645.645 0 00-.241.159.538.538 0 00-.126.178.806.806 0 00-.056.246 3.392 3.392 0 00-.028.472l-.003 2.827c0 .263.014.458.045.586a.63.63 0 00.163.308c.14.135.336.209.588.223v.087l-2.425-.002v-.088c.145-.008.266-.028.355-.062a.682.682 0 00.241-.158.67.67 0 00.163-.314c.03-.128.042-.32.044-.583l.003-3.427-1.96 4.632H7.42l-1.941-4.567-.002 3.36c0 .263.014.457.042.585a.654.654 0 00.403.472c.089.034.207.054.35.062v.088l-1.75-.003v-.088c.143-.008.26-.025.35-.059a.66.66 0 00.241-.161.678.678 0 00.162-.314c.031-.127.042-.319.045-.582l.003-2.828c0-.119-.003-.229-.012-.334a1.114 1.114 0 00-.086-.415.616.616 0 00-.261-.266 1.122 1.122 0 00-.439-.102v-.087l1.649.003 1.641 4.099 1.708-4.097 1.559.003zm6.446 2.593v1.357c0 .26.014.455.042.582a.643.643 0 00.159.314c.07.071.149.125.238.158.09.035.207.057.356.063v.087l-2.425-.002v-.088c.146-.009.266-.028.356-.062a.651.651 0 00.238-.159.62.62 0 00.162-.311c.028-.124.042-.319.042-.582l.003-2.827c0-.263-.014-.459-.042-.583a.623.623 0 00-.163-.311.64.64 0 00-.238-.161 1.218 1.218 0 00-.352-.062v-.088l1.831.003c.305 0 .507.003.605.006.392.019.7.073.924.161.252.102.445.254.582.458.137.203.207.438.207.707 0 .398-.151.718-.448.958a1.2 1.2 0 01-.302.175 2.669 2.669 0 01-.443.131c.152.062.266.129.339.197a.913.913 0 01.16.201c.047.079.12.223.215.43.224.469.395.808.51 1.026.115.218.213.373.291.469.062.08.123.136.182.164.059.032.14.051.247.063v.087h-1.26c-.065-.141-.104-.231-.121-.268l-.266-.611a9.642 9.642 0 00-.481-.97c-.16-.28-.308-.469-.443-.571a.637.637 0 00-.221-.11 1.033 1.033 0 00-.288-.034h-.196zm0-.085h.145c.314 0 .538-.017.675-.054a.904.904 0 00.384-.223c.266-.254.4-.571.4-.95 0-.204-.039-.393-.115-.569a1.16 1.16 0 00-.322-.438.933.933 0 00-.381-.183 3.099 3.099 0 00-.627-.054h-.159zm9.466 2.658l-2.495-.003v-.087c.224-.02.384-.057.474-.113a.47.47 0 00.235-.416c0-.105-.037-.246-.107-.422l-.064-.161-.364-.904-1.672-.003-.198.528-.096.238c-.114.28-.17.503-.17.664 0 .094.022.184.061.266a.53.53 0 00.171.198.747.747 0 00.378.125v.087l-1.702-.003v-.087a.836.836 0 00.353-.099c.1-.06.198-.153.296-.283.082-.104.16-.24.238-.404.079-.164.18-.413.308-.741l1.395-3.614h.215l1.649 4.032c.124.306.222.521.297.653.073.131.154.23.238.297a.652.652 0 00.207.105c.079.025.196.045.353.062zm-2.383-2.265l-.795-1.987-.753 1.984zm3.268 2.265v-.09c.255 0 .454-.074.594-.218a.678.678 0 00.162-.314c.031-.127.042-.32.045-.583l.003-2.827c0-.271-.014-.469-.048-.599a.627.627 0 00-.414-.461 1.178 1.178 0 00-.336-.054v-.088l2.424.003v.088c-.14.008-.252.025-.341.057a.625.625 0 00-.409.463 2.725 2.725 0 00-.048.594l-.002 2.214c0 .339.008.594.025.76.017.167.05.303.101.408a.85.85 0 00.394.404c.174.085.406.127.695.13.302 0 .554-.042.761-.122.208-.079.376-.206.507-.373.09-.116.163-.246.219-.39a3.5 3.5 0 00.156-.574l.093.009-.051 1.572zm5.522-.082c.145-.008.263-.028.352-.062a.622.622 0 00.241-.159.666.666 0 00.163-.313c.03-.127.042-.32.044-.583l.003-2.827c0-.28-.017-.486-.05-.617a.626.626 0 00-.199-.322c-.123-.105-.305-.164-.546-.175v-.088l2.089.003c.462 0 .759.006.885.017.534.042.988.195 1.36.461.353.254.63.585.826.995.196.41.297.86.294 1.343 0 .353-.056.684-.17.998a2.117 2.117 0 01-.471.781c-.28.291-.633.475-1.053.554a5.187 5.187 0 01-.96.087l-2.806-.002v-.091zm1.632-5.024l-.003 3.811c0 .252.014.441.042.571.028.13.081.241.157.334.162.198.426.3.79.3.31 0 .579-.051.8-.156a1.6 1.6 0 00.594-.503 2.56 2.56 0 00.395-.772c.089-.291.137-.6.137-.928 0-.362-.053-.706-.162-1.034a2.64 2.64 0 00-.465-.86 1.995 1.995 0 00-1.005-.676 3.243 3.243 0 00-.812-.09h-.468zm13.851 1.62c-.366-.543-.879-.897-1.481-1.12-.151-.057-.311-.096-.476-.147.135-.096.258-.187.384-.28.929-.684.8-2.208-.364-2.649a3.134 3.134 0 00-1.115-.207c-.593.003-1.187 0-1.781 0h-.814v7.861h.814v-.006h.499c-.034-.057-.056-.099-.081-.142-.219-.373-.4-.766-.403-1.207-.006-1.71-.006-3.424-.003-5.134.003-.376.109-.721.392-.99.364-.342 1.044-.435 1.523-.195.509.26.711.724.767 1.264.073.678-.159 1.269-.574 1.784-.311.382-.652.738-.994 1.091-.501.521-.739 1.142-.677 1.864.058.698.394 1.212 1.052 1.478 1.036.419 2.341.122 3.125-.709.706-.744.784-1.708.207-2.556zm-1.632 2.909c-.47.43-1.028.534-1.624.319-.61-.217-.958-.675-1.05-1.32-.098-.707.109-1.315.569-1.858.456-.537 1.035-.901 1.637-1.238.028-.017.09-.006.121.017.7.565 1.106 1.281 1.122 2.222-.033.699-.226 1.36-.775 1.858zm8.066.58l-2.517-.003v-.09c.227-.02.387-.06.476-.116a.47.47 0 00.238-.416c0-.105-.033-.249-.106-.427l-.065-.164-.366-.913-1.686-.003-.199.534-.095.24c-.115.283-.174.507-.174.671 0 .096.02.183.065.268a.54.54 0 00.171.201c.1.071.227.11.383.125v.09l-1.716-.003v-.09a.785.785 0 00.358-.099c.101-.06.202-.156.3-.286a2.3 2.3 0 00.241-.407c.078-.164.182-.416.311-.749l1.405-3.648h.218l1.664 4.069c.126.308.224.526.296.659a.951.951 0 00.241.297.694.694 0 00.21.107c.079.025.196.045.356.065v.088zm-2.405-2.285l-.803-2.004-.762 2.001zm3.234 2.287v-.09c.146-.009.266-.028.359-.063a.62.62 0 00.243-.161.626.626 0 00.162-.314 2.9 2.9 0 00.042-.588l.006-.755c0-.11-.022-.229-.064-.358a2.483 2.483 0 00-.3-.575l-.991-1.507-.176-.271c-.129-.198-.258-.331-.384-.404a.71.71 0 00-.191-.082 1.705 1.705 0 00-.268-.032v-.09l2.497.003v.09c-.212.015-.347.032-.406.06-.143.062-.215.173-.215.336 0 .06.017.127.048.201.03.076.083.17.153.283l1.036 1.642.891-1.399.1-.159a.81.81 0 00.143-.441.488.488 0 00-.156-.384c-.104-.091-.252-.136-.44-.136v-.09l1.761.003v.09c-.131.014-.235.04-.305.068a.825.825 0 00-.219.144c-.173.164-.366.41-.579.738l-.876 1.346a1.647 1.647 0 00-.191.351c-.022.073-.034.2-.036.379v.946c0 .278.014.475.039.594a.65.65 0 00.162.308c.14.15.342.224.602.224v.09zM.714 46.061h2.814v.896c-.554-.749-1.803-.797-2.727-.814v2.74c.047 0 1.05-.006 1.646-.003h.294v.099H2.45a5.566 5.566 0 00-.431.031c-.171.02-.342.048-.504.102-.42.139-.644.444-.689.882a5.32 5.32 0 00-.031.565c-.003.965-.003 1.929-.003 2.893v.167c.922-.017 2.187-.074 2.733-.812v.894H0v-7.64h.714zm12.14 2.333h1.958v.621c-.387-.519-1.252-.553-1.896-.565v1.903c.034 0 .728-.003 1.145-.003h.205v.068h-.202c-.101.006-.202.009-.3.02a1.887 1.887 0 00-.35.07c-.291.097-.448.309-.478.614-.014.13-.02.263-.023.393-.003.67 0 1.34 0 2.01v.116c.641-.011 1.521-.051 1.901-.565v.622h-2.452v-5.31c.173.006.338.006.492.006zm-7.582 8.555h.389v2.983h-.389v-1.343H3.839v1.343h-.392v-2.983h.392v1.264h1.433zm1.521.396a1.456 1.456 0 011.083-.452c.426 0 .79.15 1.084.452.299.297.448.665.448 1.095 0 .429-.149.791-.448 1.094a1.457 1.457 0 01-1.084.452c-.425 0-.789-.15-1.083-.452a1.512 1.512 0 01-.443-1.094c0-.43.149-.795.443-1.095zm1.895.269a1.067 1.067 0 00-.809-.337 1.09 1.09 0 00-.815.337 1.14 1.14 0 00-.325.826c0 .328.11.599.325.825.219.22.49.334.815.334.325 0 .594-.111.809-.334.219-.226.331-.497.331-.825a1.147 1.147 0 00-.331-.826zm3.296-.665v.376h-.874v2.607h-.389v-2.607h-.868v-.376zm.991 2.607h1.372v.376h-1.764v-2.983h1.741v.376h-1.349v.916h1.243v.371h-1.243zm2.447 0h1.274v.376H15.03v-2.983h.392zm5.522.252l-.331.192-.299-.322c-.219.209-.502.311-.843.311-.294 0-.535-.076-.717-.229a.792.792 0 01-.274-.63.93.93 0 01.54-.86.857.857 0 01-.19-.54c0-.246.084-.446.252-.599a.893.893 0 01.616-.229c.392 0 .742.229.882.608l-.331.192c-.084-.26-.291-.418-.543-.418-.269 0-.484.183-.484.443 0 .187.089.32.26.506l.806.869c.073-.15.124-.329.152-.541l.338.195a1.794 1.794 0 01-.226.634zm-.88-.404l-.798-.865c-.268.116-.392.336-.392.563 0 .319.224.511.608.511.23 0 .426-.068.582-.209zm2.607-.15l.339-.195c.115.362.381.54.789.54.406 0 .625-.184.625-.461a.367.367 0 00-.16-.319c-.106-.074-.285-.144-.535-.227l-.282-.093c-.065-.025-.149-.065-.244-.11a.803.803 0 01-.216-.153.738.738 0 01-.184-.498c0-.259.089-.463.268-.613a.988.988 0 01.658-.229c.468 0 .826.26 1 .653l-.33.192c-.126-.305-.35-.46-.672-.46-.322 0-.535.169-.535.444 0 .132.047.228.14.296.092.068.252.142.481.212l.174.057c.034.014.084.031.157.06.148.056.182.076.294.141.117.065.157.11.227.195.106.107.148.26.148.446 0 .261-.092.47-.283.626-.19.152-.434.228-.739.228-.554 0-.963-.277-1.12-.732zm3.864-2.305c.274 0 .498.093.68.277a.93.93 0 01.275.681.936.936 0 01-.275.682.914.914 0 01-.68.277h-.68v1.066h-.392v-2.983zm0 1.547a.54.54 0 00.406-.167.601.601 0 00.16-.422c0-.342-.241-.588-.566-.588h-.68v1.177zm3.276 1.436l-.241-.67h-1.33l-.241.67h-.417l1.1-2.983h.443l1.1 2.983zm-1.437-1.04h1.059l-.532-1.471zm5.517-1.943h.392v2.983h-.317l-1.517-2.228v2.228h-.392v-2.983h.316l1.518 2.223zm3.063 0h.389v2.983h-.389v-1.343H35.52v1.343h-.392v-2.983h.392v1.264h1.434zm3.178 2.983l-.241-.67h-1.33l-.241.67h-.417l1.1-2.983h.443l1.1 2.983zm-1.437-1.04h1.059l-.532-1.471zm5.572-1.943v.376h-.874v2.607h-.389v-2.607h-.868v-.376zm2.349 2.983l-.663-1.142h-.697v1.142h-.392v-2.983h1.181c.252 0 .468.09.65.272a.87.87 0 01.268.65c0 .192-.059.37-.173.529a.913.913 0 01-.44.336l.697 1.193h-.431zm-1.358-2.613v1.112h.79a.502.502 0 00.372-.162.545.545 0 00.157-.395.535.535 0 00-.157-.393.486.486 0 00-.372-.162zm4.34 2.613l-.24-.67h-1.331l-.24.67h-.418l1.101-2.983h.442l1.101 2.983zm-1.434-1.04h1.059l-.532-1.471zm4.251-1.943h.392v2.983h-.316l-1.518-2.228v2.228h-.392v-2.983h.317l1.517 2.223zm4.082 1.505v.178c0 .387-.131.713-.397.973-.267.254-.616.384-1.05.384-.451 0-.823-.15-1.117-.446a1.531 1.531 0 01-.44-1.1c0-.43.148-.798.44-1.095a1.485 1.485 0 011.108-.452c.275 0 .524.068.751.201.226.133.406.302.526.52l-.339.201c-.168-.322-.535-.537-.943-.537-.339 0-.616.11-.832.336a1.142 1.142 0 00-.325.826c0 .328.11.605.325.825.218.221.501.334.849.334.59 0 .971-.322 1.049-.789h-1.083v-.359z" fill="#212121"/></svg>