<svg xmlns="http://www.w3.org/2000/svg" width="50" height="44"><g fill="hsl(0, 0%, 13%)"><path d="M2.171 35.001H1.149v-1.518h1.022v-.593c0-.882.219-1.547.657-1.98.424-.434 1.037-.637 1.826-.637a4.448 4.448 0 011.504.217v1.547c-.19-.058-.365-.115-.525-.144a3.113 3.113 0 00-.555-.058c-.716 0-1.081.405-1.081 1.229v.448h2.147v1.504H4.026v6.448H2.171zm8.529 6.608c-.92 0-1.636-.275-2.132-.839-.497-.564-.76-1.301-.76-2.255v-5.09h1.855v4.555c0 .621.146 1.113.453 1.446.306.332.73.506 1.285.506.54 0 .978-.174 1.314-.521.336-.347.511-.824.511-1.46v-4.526h1.855v8.025h-1.855v-1.258a3.8 3.8 0 01-.993.998c-.394.289-.905.419-1.533.419zm9.887-.016a5.485 5.485 0 01-1.767-.303 5.792 5.792 0 01-1.665-.897l.833-1.243a6.51 6.51 0 001.343.737c.453.174.891.246 1.3.246.394 0 .716-.072.935-.231a.744.744 0 00.336-.636v-.029a.524.524 0 00-.146-.391 1.412 1.412 0 00-.395-.289 4.361 4.361 0 00-.584-.231c-.219-.073-.453-.145-.686-.217-.292-.087-.599-.174-.891-.289a3.677 3.677 0 01-.818-.434 1.991 1.991 0 01-.584-.665c-.161-.26-.234-.593-.234-.969v-.014c0-.376.073-.709.219-1.012.146-.304.351-.564.614-.781.263-.217.569-.376.92-.492.35-.115.73-.173 1.124-.173.511 0 1.023.087 1.548.246.526.159.993.39 1.432.665l-.731 1.301a6.241 6.241 0 00-1.183-.55 3.622 3.622 0 00-1.11-.202c-.365 0-.642.072-.832.217a.65.65 0 00-.292.564v.029c0 .144.044.274.161.39.102.101.233.203.408.289a4.4 4.4 0 00.585.246c.219.072.452.145.686.217.292.087.599.202.891.318.292.116.569.275.803.448.234.174.438.391.584.651.161.26.234.564.234.925v.029c0 .42-.073.795-.234 1.113a2.1 2.1 0 01-.642.781 3.126 3.126 0 01-.964.477c-.38.116-.774.159-1.198.159zm5.331-11.147h2.001v1.75h-2.001zm.073 2.979h1.855v8.024h-1.855zm8.529 8.198a4.438 4.438 0 01-1.709-.333 4.62 4.62 0 01-1.373-.882 3.907 3.907 0 01-.891-1.315 3.992 3.992 0 01-.321-1.605v-.029c0-.578.117-1.113.336-1.619.219-.506.526-.955.906-1.331a4.343 4.343 0 011.372-.91 4.463 4.463 0 011.724-.333 4.396 4.396 0 013.096 1.229c.379.376.686.824.891 1.316a4.01 4.01 0 01.321 1.619v.029c0 .564-.117 1.099-.336 1.605a4.224 4.224 0 01-.906 1.33c-.379.376-.847.68-1.372.911a4.638 4.638 0 01-1.738.318zm.029-1.605c.38 0 .716-.072 1.022-.202.307-.13.555-.318.774-.55.219-.231.38-.491.497-.809.117-.304.175-.637.175-.984v-.029c0-.361-.058-.694-.19-.997a2.389 2.389 0 00-1.3-1.374 2.553 2.553 0 00-1.007-.202c-.365 0-.701.072-1.008.202-.307.13-.555.318-.774.55-.219.231-.38.506-.496.809a2.792 2.792 0 00-.176.984v.028c0 .362.059.68.19.998.117.304.292.579.511.81.219.231.482.419.789.549.307.145.628.217.993.217zm6.587-6.592h1.854v1.229c.132-.188.278-.362.438-.535.161-.174.336-.318.555-.449.205-.13.439-.231.687-.303a3.08 3.08 0 01.847-.116c.92 0 1.636.275 2.132.839.497.564.76 1.301.76 2.241v5.118h-1.855v-4.554c0-.622-.146-1.114-.453-1.446-.307-.333-.73-.506-1.285-.506-.54 0-.979.173-1.314.52-.336.347-.512.839-.512 1.461v4.525h-1.854zM9.678 3.308a19.325 19.325 0 0116.518.347 19.504 19.504 0 015.52 4.106l-1.227 1.865a20.04 20.04 0 00-7.842-2.834 20.339 20.339 0 00-11.041 1.533 19.732 19.732 0 01-1.928-5.017z"/><path d="M6.757 12.634a19.325 19.325 0 0115.758-4.902c5.696.781 10.676 4.049 13.699 8.979-4.264 3.904-9.946 5.682-15.656 4.902-5.754-.796-10.763-4.063-13.801-8.979z"/><path d="M20.076 25.69c-1.168 0-2.337-.101-3.49-.318a20.847 20.847 0 004.994-2.704c.555.044 1.11.073 1.665.073a20.05 20.05 0 0011.158-3.398c-3.593 3.933-8.763 6.347-14.327 6.347zM42.085 5.592c-.073.058-.161.116-.278.217l-.263.231c-.073.058-.146.13-.262.232l-.249.245c-.073.087-.146.159-.16.188l-.073.073a6.656 6.656 0 00-.468.578c-.058.087-.117.159-.204.289l-.059.087-.16.246a7.632 7.632 0 00-.891 2.255s-.263 1.085-.351 1.475l-.043.043v.13A19.568 19.568 0 0136.9 15.93a20.031 20.031 0 00-5.579-5.798l3.213-4.916.088-.13.146-.188c.102-.13.219-.246.365-.39l.19-.174c.131-.101.248-.202.438-.318l.19-.116c.219-.13.453-.231.759-.332.161-.044.307-.087.482-.13.161-.029.336-.058.555-.073a4.487 4.487 0 011.636.217c.131.044.263.101.394.159l.424.188L42.8 5.115c-.263.159-.496.318-.715.477z"/></g></svg>