<svg xmlns="http://www.w3.org/2000/svg" width="54" height="62"><path d="M42.318 8.903H40.46c-2.073.013-4.159.027-6.231.053-.401 0-.816.04-1.217.106-.789.12-1.337.585-1.672 1.276a48.815 48.815 0 00-1.043 2.393c-.668 1.634-1.31 3.269-1.965 4.89-.054.12-.121.186-.268.186-.802-.013-1.604-.053-2.406-.026a16.461 16.461 0 00-4.881.877c-2.661.93-4.827 2.525-6.539 4.745-.601.784-1.096 1.634-1.631 2.458-.027.04-.053.08-.12.12-.094-.758-.214-1.515-.281-2.273a21.024 21.024 0 01-.08-3.787c.066-.918.16-1.834.28-2.752.201-1.488.575-2.937 1.07-4.359 1.23-3.495 3.102-6.565 5.937-8.997C21.365 2.138 23.585.969 26.126.45c1.31-.279 2.634-.305 3.971-.186 2.995.266 5.576 1.489 7.876 3.376 1.725 1.422 3.115 3.137 4.252 5.05 0 .04.04.107.093.213zM18.41 37.636c.281.053.548.106.816.146 1.818.279 3.517-.093 5.081-1.036 1.484-.904 2.634-2.14 3.637-3.536 1.163-1.621 2.086-3.389 2.808-5.236.548-1.395 1.016-2.831 1.511-4.253.067-.199.147-.265.374-.252.616.04 1.231.066 1.846.053.668-.013 1.337-.106 1.952-.399.869-.399 1.35-1.116 1.511-2.02a4.22 4.22 0 00-.067-1.874c-.254-.917-.949-1.355-1.818-1.435-.402-.04-.816 0-1.231 0 .295-.811.602-1.608.896-2.419.067-.199.134-.399.228-.585.026-.066.12-.146.173-.146.616 0 1.244.013 1.859.013.99 0 1.992-.013 2.982-.013.481 0 .949-.013 1.431 0 .735.027 1.337-.226 1.818-.784.04-.053.107-.093.187-.173.107.386.228.744.295 1.103.173.824.374 1.635.494 2.472.121.731.187 1.489.241 2.233.053.824.08 1.661.04 2.485-.04.957-.107 1.914-.241 2.858a33.371 33.371 0 01-.641 3.216 21.06 21.06 0 01-.883 2.631 21.029 21.029 0 01-2.968 5.25c-1.819 2.326-4.012 4.16-6.766 5.303-1.204.491-2.461.85-3.758.943-.869.053-1.751.093-2.634.027-1.792-.133-3.49-.665-5.095-1.489-1.484-.757-2.794-1.741-3.971-2.897a4.077 4.077 0 01-.093-.093c-.014-.053-.014-.066-.014-.093zm7.381-14.127l-.414 1.196c-.535 1.475-1.123 2.924-1.926 4.28-.414.691-.869 1.342-1.484 1.874-.455.398-.949.651-1.564.731a1.662 1.662 0 01-1.846-1.276c-.414-1.728.094-3.19 1.297-4.453.99-1.023 2.233-1.594 3.584-1.94.682-.173 1.391-.279 2.086-.399.067-.026.147-.013.267-.013zM14.064 51.87s-2.875-.319-4.706-.013c0 0-.388.093-.375.319 0 0 0 .199.375.159 0 0 2.901-.425 4.599-.252m5.349-.346c.615-.864 1.177-.957 2.073-.957l-2.916 4.426c-.708 1.063.228.611 1.03.106.709-.452 1.631-1.382 2.273-2.312.107-.147.228-.053.147.066-1.337 1.914-3.075 3.203-4.158 3.203-.428 0-.803-.372-.535-1.209-.749.77-1.511 1.209-2.206 1.209-1.324-.053-1.137-1.502-.281-2.804.775-1.17 2.527-3.044 4.011-2.804.508.093.669.478.562 1.076zm-3.089 1.715c-.936 1.422-1.257 2.445-.602 2.445.495 0 1.605-1.037 2.541-2.445.936-1.409 1.177-2.379.655-2.379-.495.013-1.658.956-2.594 2.379z" fill="#212121"/><path d="M28.639 51.75c.642-.983-.08-.77-1.069-.093-.468.333-.99.811-1.445 1.369l-2.032 3.137c-.562 0-1.244-.333-.562-1.369l1.993-3.044c.642-.983-.121-.77-1.083-.093a6.976 6.976 0 00-1.444 1.383l-2.06 3.109c-.548 0-1.203-.332-.534-1.368l2.634-4.027c.521 0 1.163.332.628 1.249.802-.705 1.859-1.342 2.554-1.342.468 0 .883.438.441 1.448l.134-.106c.802-.705 1.832-1.342 2.554-1.342.548 0 1.056.624.08 2.099l-1.578 2.432c-.722 1.064.228.612 1.017.107.722-.452 1.644-1.382 2.273-2.313.12-.146.254-.053.147.067-1.324 1.914-3.062 3.203-4.159 3.203-.548 0-1.043-.625-.08-2.1z" fill="#212121"/><path d="M32.41 50.767c.548 0 1.23.346.562 1.369l-2.019 3.057c-.709 1.063.24.611 1.056.106.682-.452 1.631-1.382 2.273-2.312.08-.146.214-.053.134.066-1.324 1.914-3.076 3.203-4.159 3.203-.561 0-1.043-.625-.067-2.1zm1.778-2.219c.428 0 .723.292.642.651-.093.372-.548.651-.963.651-.427 0-.735-.279-.655-.651.067-.359.562-.651.976-.651z" fill="#212121"/><path d="M38.146 51.737c.615-.864 1.177-.957 2.073-.957l-2.915 4.426c-.709 1.063.227.611 1.03.106.708-.452 1.631-1.382 2.273-2.312.107-.147.227-.053.147.066-1.337 1.914-3.076 3.203-4.159 3.203-.428 0-.802-.372-.535-1.209-.748.77-1.511 1.209-2.206 1.209-1.324-.053-1.136-1.502-.281-2.804.776-1.17 2.527-3.044 4.012-2.804.508.093.668.478.561 1.076zm-3.088 1.715c-.936 1.422-1.257 2.445-.602 2.445.495 0 1.604-1.037 2.54-2.445.936-1.423 1.177-2.379.656-2.379-.482.013-1.658.956-2.594 2.379z" fill="#212121"/><path d="M46.998 53.066c-1.337 1.914-3.075 3.203-4.158 3.203-.562 0-1.043-.625-.08-2.1l1.604-2.419c.642-.983-.12-.77-1.083-.093a7.001 7.001 0 00-1.444 1.383l-2.059 3.109c-.548 0-1.204-.332-.535-1.368l2.634-4.027c.522 0 1.163.332.629 1.249.802-.705 1.858-1.342 2.554-1.342.548 0 1.056.624.093 2.099l-1.605 2.432c-.708 1.064.241.612 1.03.107.682-.452 1.645-1.382 2.273-2.313.107-.133.241-.053.147.08z" fill="#212121"/><path d="M50.742 51.737c.616-.864 1.177-.957 2.073-.957L49.9 55.206c-.709 1.063.227.611 1.03.106.708-.452 1.631-1.382 2.273-2.312.107-.147.227-.053.147.066-1.337 1.914-3.076 3.203-4.159 3.203-.428 0-.802-.372-.535-1.209-.748.77-1.511 1.209-2.206 1.209-1.324-.053-1.136-1.502-.281-2.804.776-1.17 2.528-3.044 4.012-2.804.508.093.668.478.561 1.076zm-3.088 1.715c-.936 1.422-1.257 2.445-.602 2.445.495 0 1.604-1.037 2.54-2.445.936-1.409 1.177-2.379.656-2.379-.482.013-1.658.956-2.594 2.379zM3.849 50.156c-.201.957.08 2.246 1.644 2.951.254.106.348.079.321.159-.027.08-.227.053-.468-.027-1.471-.544-2.126-1.887-1.952-3.256.254-1.913 2.3-3.415 5.415-3.389 1.043 0 2.701.333 4.239.771.829.226.99.293 1.832.532 1.07-.824 2.287-1.449 3.597-1.249.909.132 1.404.451 1.417 1.063.014.438-.387 1.05-1.417 1.103-1.03.053-1.765-.04-2.795-.173-.508.439-1.069 1.143-1.858 2.047-.816.943-1.712 2.126-2.407 2.91-.227.253-.843.931-1.043 1.157-2.902 3.163-5.456 3.614-6.993 3.548-1.364-.053-2.822-.518-2.875-1.887-.027-.651.428-1.289 1.203-1.289.455 0 .802.358.749.797-.054.279-.201.465-.374.651-.228.239-.321.412-.321.598.026.572.922.784 1.698.798 2.086.026 3.944-1.662 5.041-2.898.535-.611.963-1.103 1.457-1.78a68.086 68.086 0 011.792-2.207c1.137-1.329 1.672-1.927 2.581-2.737-.575-.133-.562-.133-1.431-.346-1.003-.239-2.875-.598-4.212-.598-2.34-.013-4.386.811-4.84 2.751zm12.248-1.94c.922.252 2.006.279 2.527.239.655-.053.963-.319.963-.651.013-.412-.348-.745-1.217-.705-.789.04-1.832.718-2.273 1.117z" fill="#212121"/><path d="M13.489 53.518c.081-.213.482-1.117 1.592-2.206-.014-.014-.361-.253-.776.252 0 0-.174.199-.361.479-.267.438-.562 1.076-.455 1.475zm-5.522 6.645v.97h-.334v-2.179h.494c.147 0 .254.013.335.026a.47.47 0 01.2.093c.067.053.121.12.161.2a.61.61 0 01.053.279.66.66 0 01-.12.412.55.55 0 01-.375.172l.749.984h-.401l-.722-.97h-.04zm.013-.279h.067c.187 0 .308-.027.375-.066.066-.04.093-.12.093-.226 0-.12-.027-.2-.093-.253-.067-.053-.188-.08-.375-.08H7.98zm1.672 1.249v-2.179h1.217v.305h-.87v.545h.87v.306h-.87v.704h.87v.319zm1.805-.438l.281-.133c.026.093.08.173.147.226a.44.44 0 00.28.08.338.338 0 00.255-.093c.066-.054.093-.133.093-.24 0-.133-.107-.239-.321-.345a.209.209 0 00-.067-.027c-.24-.119-.401-.226-.481-.319a.518.518 0 01-.12-.345c0-.173.066-.319.187-.426.12-.106.281-.159.481-.159a.75.75 0 01.401.093.492.492 0 01.228.266l-.281.146a.386.386 0 00-.147-.146.378.378 0 00-.174-.053.314.314 0 00-.227.079.27.27 0 00-.081.2c0 .133.121.252.375.359.013.013.04.013.04.026.214.093.361.199.441.292.08.094.121.213.121.359 0 .2-.067.373-.201.492a.767.767 0 01-.535.186c-.187 0-.334-.04-.454-.133a.658.658 0 01-.241-.385zm4.346-.651a.96.96 0 01-.094.439 1.18 1.18 0 01-.254.372 1.43 1.43 0 01-.374.252c-.148.053-.295.08-.442.08-.16 0-.307-.027-.454-.093a1.02 1.02 0 01-.375-.253 1.032 1.032 0 01-.254-.372 1.173 1.173 0 01-.08-.438c0-.16.027-.306.08-.439.054-.133.147-.266.254-.372.107-.106.241-.186.375-.253.133-.066.294-.079.454-.079.161 0 .308.026.442.079a.994.994 0 01.374.253 1.157 1.157 0 01.348.824zm-.361 0a.912.912 0 00-.067-.319.787.787 0 00-.428-.439.817.817 0 00-.308-.066.808.808 0 00-.307.066.654.654 0 00-.254.173.703.703 0 00-.174.266.8.8 0 00-.054.319.78.78 0 00.228.571c.08.08.16.133.254.173.093.04.2.067.307.067a.8.8 0 00.308-.067.669.669 0 00.254-.173.703.703 0 00.174-.265.79.79 0 00.067-.306zm1.417.119v.97h-.334v-2.179h.494c.148 0 .255.013.335.026a.47.47 0 01.2.093c.067.053.121.12.161.2a.61.61 0 01.053.279.66.66 0 01-.12.412.55.55 0 01-.374.172l.748.984h-.401l-.722-.97h-.04zm.013-.279h.067c.187 0 .308-.027.375-.066.067-.04.093-.12.093-.226 0-.12-.026-.2-.093-.253-.067-.053-.188-.08-.375-.08h-.067zm2.367-.625v1.874h-.361v-1.874h-.575v-.305h1.511v.305zm3.463 1.874l-.173-.212a1.06 1.06 0 01-.321.199c-.107.04-.228.067-.361.067a.706.706 0 01-.495-.173.607.607 0 01-.187-.452c0-.12.04-.239.12-.345.08-.107.201-.213.374-.319l-.093-.094a.465.465 0 01-.107-.172.465.465 0 01-.04-.186.41.41 0 01.16-.346.586.586 0 01.401-.133c.161 0 .295.04.388.12a.43.43 0 01.147.332.49.49 0 01-.107.292c-.067.093-.174.173-.321.266l.455.532c.04-.04.093-.093.134-.146.04-.053.093-.12.147-.186l.214.226c-.04.066-.081.119-.134.186l-.161.159.362.412h-.402zm-.387-.438l-.482-.545-.053.04a.772.772 0 00-.214.186.318.318 0 00-.067.186c0 .093.04.173.107.239.067.067.147.093.254.093.08 0 .147-.013.227-.053.081-.026.147-.08.228-.146zm-.388-.957l.08-.04a.254.254 0 00.12-.12.26.26 0 00.041-.146c0-.066-.014-.106-.054-.146a.201.201 0 00-.147-.053c-.067 0-.12.013-.16.053a.21.21 0 00-.067.146c0 .027 0 .067.013.093a.257.257 0 00.054.08zm2.554.957l.28-.133a.45.45 0 00.148.226c.066.053.16.08.28.08a.336.336 0 00.254-.093.302.302 0 00.094-.24c0-.133-.107-.239-.321-.345a.209.209 0 00-.067-.027c-.241-.119-.401-.226-.481-.319a.519.519 0 01-.121-.345c0-.173.067-.319.188-.426.12-.106.28-.159.481-.159.16 0 .294.027.401.093a.49.49 0 01.227.266l-.28.146a.386.386 0 00-.147-.146.378.378 0 00-.174-.053.318.318 0 00-.228.079.274.274 0 00-.08.2c0 .133.121.252.375.359.013.013.04.013.04.026.214.093.361.199.441.292.08.094.12.213.12.359a.64.64 0 01-.2.492.767.767 0 01-.535.186c-.187 0-.334-.04-.455-.133a.733.733 0 01-.24-.385zm2.447-.545v.971h-.335v-2.18h.535c.161 0 .281.013.348.027.08.013.147.039.2.079.067.054.121.12.161.2a.65.65 0 01.053.279.616.616 0 01-.053.279.481.481 0 01-.161.199.446.446 0 01-.2.08c-.08.013-.187.027-.348.027h-.2zm.013-.279h.094c.2 0 .334-.026.387-.066.054-.04.094-.12.094-.226 0-.12-.04-.199-.107-.239-.067-.053-.201-.067-.388-.067h-.093v.598zm2.862 1.262l-.255-.558h-.869l-.254.558h-.374l1.056-2.259 1.056 2.259zm-.99-.863h.615l-.227-.492c-.014-.027-.027-.067-.04-.106-.014-.04-.027-.093-.04-.133a1.68 1.68 0 01-.041.133l-.04.119zm3.129-.12v.971h-.334v-2.18h.535c.16 0 .28.013.347.027.08.013.147.039.201.079.067.054.12.12.16.2a.65.65 0 01.054.279.616.616 0 01-.054.279.409.409 0 01-.16.199.455.455 0 01-.201.08 2.05 2.05 0 01-.347.027h-.201zm.027-.279h.093c.201 0 .335-.026.388-.066.067-.04.094-.12.094-.226 0-.12-.04-.199-.107-.239-.067-.053-.201-.067-.388-.067h-.094v.598zm1.578 1.262v-2.179h.361v.797h1.069v-.797h.361v2.179h-.361v-1.05h-1.069v1.05zm2.58-2.179h.348v1.315c0 .2.04.346.134.439.093.093.227.146.414.146.174 0 .321-.053.401-.146.094-.093.134-.239.134-.439v-1.315h.361v1.355c0 .293-.08.519-.227.665-.147.146-.375.212-.669.212-.294 0-.521-.066-.669-.212-.147-.146-.227-.372-.227-.665zm5.429 1.874l.468.505h-.428l-.281-.306c-.093.053-.2.093-.294.12-.107.026-.2.04-.321.04a1.06 1.06 0 01-.441-.093 1.007 1.007 0 01-.374-.24 1.02 1.02 0 01-.254-.372 1.159 1.159 0 01-.094-.438c0-.16.027-.306.094-.439a1.12 1.12 0 01.628-.611 1.313 1.313 0 01.909 0c.147.053.268.133.375.239.107.106.2.226.254.372.053.133.093.279.093.439 0 .146-.026.292-.08.425a1.166 1.166 0 01-.254.359zm-.441-.479l.214.226a.698.698 0 00.147-.252.996.996 0 00-.014-.598.833.833 0 00-.173-.266.72.72 0 00-.268-.173.79.79 0 00-.307-.066.798.798 0 00-.562.239.707.707 0 00-.174.266.8.8 0 00-.053.319c0 .226.08.425.227.571.16.16.348.239.575.239.067 0 .12 0 .174-.013.053-.013.107-.04.174-.066l-.388-.426zm1.471-1.395h.347v1.315c0 .2.04.346.134.439.094.093.227.146.415.146.173 0 .32-.053.401-.146.08-.093.133-.239.133-.439v-1.315h.361v1.355c0 .293-.08.519-.227.665-.147.146-.374.212-.668.212-.295 0-.522-.066-.669-.212-.147-.146-.227-.372-.227-.665zm4.84 1.09a.972.972 0 01-.093.439 1.183 1.183 0 01-.255.372c-.107.106-.24.186-.374.252-.147.053-.294.08-.441.08-.161 0-.308-.027-.455-.093a1.025 1.025 0 01-.374-.253 1.02 1.02 0 01-.254-.372 1.154 1.154 0 01-.081-.438c0-.16.027-.306.081-.439.053-.133.147-.266.254-.372.107-.106.24-.186.374-.253a1.312 1.312 0 01.896 0 .896.896 0 01.374.253 1.16 1.16 0 01.348.824zm-.374 0a.912.912 0 00-.067-.319.837.837 0 00-.174-.266.817.817 0 00-.562-.239.808.808 0 00-.307.066.661.661 0 00-.254.173.715.715 0 00-.174.266.8.8 0 00-.053.319.78.78 0 00.481.744c.093.04.2.067.307.067a.8.8 0 00.308-.067.661.661 0 00.254-.173.703.703 0 00.174-.265.61.61 0 00.067-.306zm2.835-.559a1.147 1.147 0 00-.321-.186 1.034 1.034 0 00-.348-.066.83.83 0 00-.588.226.809.809 0 00-.228.598c0 .239.067.425.214.585a.761.761 0 00.548.226c.134 0 .255-.027.375-.067.12-.04.227-.119.334-.212v.398c-.093.067-.2.12-.307.16-.107.04-.241.053-.361.053-.174 0-.321-.027-.468-.08a1 1 0 01-.375-.239 1.001 1.001 0 01-.241-.372 1.3 1.3 0 010-.904.885.885 0 01.255-.372c.107-.106.227-.186.374-.239.147-.053.294-.08.455-.08a1.144 1.144 0 01.695.226z" fill="#212121"/></svg>