<svg width="1180" height="700" fill="none" xmlns="http://www.w3.org/2000/svg"><path fill="#fff" d="M0 0h1180v700H0z"/><path d="M266.163 213.233c.026-1.612-.604-3.278-1.785-4.282-.604-.502-1.312-.793-2.074-.82h-2.703c-3.622.027-7.271.265-10.945.185-7.297-.185-14.594-.766-21.864-.925-3.622 0-7.271.238-10.893.476-1.811.132-3.648.238-5.486.291-.918.053-1.889-.027-2.546.158-.708.185-1.312.635-1.784 1.243-.945 1.216-1.234 2.934-1.392 4.652-.078 1.745-.104 3.701-.472 5.498-.21 1.798-.367 3.701 0 5.393.158.872.525 1.718.604 2.775.078 1.005.052 1.956.131 2.749v-.159c-.105-.449-.341-.528-.394-.555-.026-.026-.078-.026-.078-.026s.052.026.105.026c.104.027.262.053.393.08l.919.105 1.942.106 3.937.132c2.625.053 5.25.027 7.874-.105 2.625-.08 5.224-.397 7.901-.397 2.625.027 5.276.159 7.9.291 5.276.291 10.447.317 15.722-.238 1.365-.053 2.678.053 3.99.106 1.286.053 2.572-.027 3.911-.08l7.874-.264-1.024 1.031v-.053c.525-2.908.63-5.789.604-8.696-.026-1.454-.026-2.908-.131-4.362-.105-1.427-.236-2.881-.236-4.335zm1.627 0c0 1.454-.131 2.908-.262 4.361-.105 1.454-.105 2.908-.132 4.362-.026 2.908.079 5.789.604 8.697v.052c0 .582-.446 1.031-1.024 1.031l-7.874-.264c-2.598 0-5.354-.344-7.874-.423-5.197.37-10.551.079-15.775-.211-2.624-.159-5.249-.318-7.874-.397-2.598-.026-5.249.185-7.848.344-2.625.158-5.249.423-7.874.687a97.589 97.589 0 01-3.963.344l-2.021.079h-1.05c-.184 0-.368-.027-.578-.053-.105-.026-.21-.026-.367-.079-.053-.027-.184-.053-.289-.132-.131-.08-.42-.212-.577-.793 0-.053-.027-.106 0-.159.078-1.031.341-1.903.393-2.749.079-.793-.131-1.692-.183-2.67-.079-1.956.236-3.753.236-5.604 0-1.85-.263-3.568-.289-5.498-.026-1.877.236-4.018 1.627-5.709.683-.82 1.654-1.481 2.73-1.719 1.155-.237 1.995-.079 2.914-.105l5.459-.027c3.648-.026 7.297-.105 10.971.08 7.297.422 14.568 1.03 21.838.845 3.622-.079 7.244-.475 10.893-.713.919-.053 1.837-.106 2.756-.106 1.076 0 2.126.396 2.966 1.057 1.627 1.348 2.441 3.437 2.467 5.472z" fill="#082E4E"/><path d="M259.916 207.099c.288-2.088.551-4.176.498-6.238-.105-2.088-.262-2.018-.393-4.106-.184-2.115.105-2.125.183-4.134.053-1.03-.052-1.956-.157-3.013a5.952 5.952 0 00-.866-2.696c-.499-.793-1.208-1.48-2.1-1.798-.84-.343-1.942-.237-2.966-.29-2.073-.053-4.147-.027-6.194 0-4.147.079-8.268.264-12.415.238-2.074 0-4.147-.053-6.195-.133-2.099-.079-4.173-.343-6.22-.052-1.05.185-2.1.105-3.124.026-1.023-.106-2.047.026-3.097.053-1.024.079-2.1-.053-2.913.291-.84.317-1.523.978-2.021 1.744-1.024 1.533-1.077 3.648-1.234 5.657-.105 2.035.079 1.86.184 4.027.052 2.141-.237 2.071-.237 4.16 0 2.061.105 4.15.184 6.238a.542.542 0 01-.525.581.54.54 0 01-.577-.528v-.053l.236-6.265c.105-2.088.184-2.045-.026-4.08-.263-1.956-.683-2.018-.63-4.133.026-1.057.079-2.141.289-3.198.183-1.058.603-2.221 1.259-3.146a5.19 5.19 0 012.783-2.035c1.207-.318 2.231-.053 3.254-.053 1.024.079 2.074.053 3.098.185 1.049.132 2.047.264 3.07.132 2.074-.291 4.148-.026 6.221-.106 2.074-.079 4.147-.158 6.194-.158 4.121-.027 8.268.105 12.389.158 2.074 0 4.147 0 6.195-.053 1.023.027 2.047-.237 3.202.08 1.102.317 2.047 1.057 2.703 1.956.683.899 1.05 2.062 1.208 3.119.183 1.031.21 2.167.157 3.225-.079 2.141-.551 2.018-.499 4.08 0 2.088-.052 2.045 0 4.107.105 2.088.263 4.176.578 6.238.052.423-.21.819-.63.872-.42.053-.814-.211-.866-.634v-.265zm-49.24 24.663a15.986 15.986 0 00-.368 3.145c-.052 1.058.026 2.089.42 3.146a1.055 1.055 0 01-.604 1.374 1.042 1.042 0 01-1.364-.608c-.105-.264-.079-.528 0-.766.393-1.057.472-2.088.419-3.146a12.89 12.89 0 00-.367-3.145.925.925 0 01.709-1.137.917.917 0 011.128.714.774.774 0 01.027.423zm50.473-.396a17.963 17.963 0 00-.367 3.331c-.053 1.11.026 2.22.42 3.33.21.555-.079 1.137-.63 1.348-.551.212-1.129-.079-1.339-.634a1.118 1.118 0 010-.714c.394-1.11.473-2.22.42-3.33 0-1.111-.105-2.221-.367-3.331-.105-.502.21-1.031.709-1.137.498-.105 1.023.212 1.128.714a.479.479 0 01.026.423z" fill="#082E4E"/><path d="M214.403 207.073a28.21 28.21 0 01.052-4.203c.21-1.507.972-2.855 1.943-3.912.945-1.11 2.546-1.692 3.937-1.56l4.121-.079c1.365-.026 2.756 0 4.121.026 1.417-.105 2.965.529 3.91 1.613.972 1.084 1.68 2.432 1.916 3.912.158 1.48-.078 2.802-.078 4.203a.457.457 0 01-.42.449.425.425 0 01-.42-.37v-.053c-.341-2.749.498-5.63-1.391-7.692-.893-1.004-2.153-1.454-3.491-1.269-1.391 0-2.782.027-4.147-.026l-4.121-.053c-1.365-.158-2.599.317-3.491 1.322-1.89 2.088-.971 4.916-1.26 7.692v.026c-.026.318-.315.555-.656.529-.289-.026-.499-.264-.525-.555zm22.757.08c.079-1.401.052-2.749.079-4.229.105-1.454.577-2.987 1.653-4.097.998-1.163 2.704-1.639 4.095-1.48l4.173.132c1.391.053 2.782.026 4.173 0 1.418-.159 2.993.423 3.99 1.559 1.024 1.084 1.601 2.564 1.732 4.045.079 1.453.053 2.801-.026 4.229-.026.264-.236.476-.499.449-.236-.026-.446-.211-.446-.449-.105-1.375-.052-2.828-.052-4.15-.027-1.295-.446-2.591-1.26-3.622-.814-1.03-2.047-1.665-3.412-1.559-1.391-.027-2.783-.053-4.174 0l-4.173.132c-1.391-.106-2.546.423-3.412 1.401-.814.952-1.391 2.168-1.522 3.489a43.738 43.738 0 00.052 4.15.458.458 0 01-.446.503c-.263 0-.499-.186-.499-.45-.026-.026-.026-.053-.026-.053z" fill="#082E4E"/><g clip-path="url(#clip0_1043_5283)"><path d="M502.279 227.833l-.276-6.51c-.028-2.179-.028-4.331.028-6.51.055-1.021.082-2.345-.635-3.338-.606-1.021-1.792-1.876-3.116-1.849-1.296.028-2.509.745-3.144 1.794.028-.58.028-1.159.055-1.738l.166-3.173.055-1.572c0-.58-.11-1.186-.276-1.738-.717-2.29-3.033-3.807-5.295-3.697h-.027l-2.455.221c-.827 0-1.682-.083-2.509-.055-1.682.055-3.365.055-5.047.055l-5.046-.138c-1.765 0-3.53.966-4.468 2.51a4.78 4.78 0 00-.386.856 4.78 4.78 0 00-.386-.856c-.938-1.544-2.703-2.51-4.468-2.51l-5.129.166c-1.682 0-3.365 0-5.047-.056-.855-.055-1.682.056-2.509.056l-2.482-.249h-.028c-2.289-.11-4.605 1.407-5.322 3.697a5.33 5.33 0 00-.276 1.738l.055 1.572.166 3.173c.027.689.027 1.351.055 2.041-.635-1.076-1.848-1.793-3.144-1.821-1.324-.027-2.51.773-3.172 1.793-.772.993-.717 2.373-.661 3.366.11 2.152.082 4.303.11 6.455-.028 2.152-.193 4.304-.276 6.483-.11.965-.11 2.455.717 3.448.745 1.048 1.986 1.683 3.282 1.711.055 0 .11-.028.165-.028 2.041.055 4.082.055 6.095.028.165.855.248 1.682.248 2.537.028.883 0 1.766-.303 2.649a.944.944 0 000 .552c.165.468.662.717 1.103.551.469-.165.717-.662.551-1.103-.303-.883-.358-1.766-.303-2.649 0-.855.083-1.71.248-2.565 2.151-.028 4.275-.11 6.426-.166 4.798-.137 9.597-.303 14.395-.303l14.423.11c2.069.028 4.137.111 6.205.166 0 .027-.027.083-.027.11.193.883.248 1.766.275 2.648.028.883 0 1.766-.303 2.649a.944.944 0 000 .552c.165.468.662.717 1.103.551.469-.165.717-.662.552-1.103-.304-.883-.359-1.766-.304-2.649 0-.882.083-1.765.276-2.648v-.055c1.848.055 3.695.083 5.543.166.166.027.331.055.497.055.11 0 .193-.028.275-.055h.359c.083 0 .11-.056.193-.083 1.02-.248 1.958-.828 2.509-1.711.855-1.075.8-2.538.69-3.531zm-31.411-25.351c.745-1.38 2.261-2.318 3.861-2.373l5.047-.027c1.682 0 3.364-.056 5.046 0 .828 0 1.683.11 2.51.165l2.565-.028h-.028c1.986.056 3.723 1.518 4.247 3.338.11.469.165.911.165 1.38l-.027 1.572.027 3.173c0 4.027-.11 8.027-.275 12.027-3.834.249-7.777-.055-11.638.414-2.068.193-4.164.11-6.233.028l-5.984-.138c.055-3.256.276-6.511.193-9.738-.027-1.683-.083-3.366-.083-5.049.056-1.71-.248-3.393.607-4.744zm-25.426 2.427c0-.469.027-.938.165-1.379.497-1.821 2.234-3.283 4.247-3.338h-.027l2.564.027c.828-.055 1.682-.165 2.51-.165 1.682-.028 3.364 0 5.046 0l5.047.028c1.6.055 3.116.993 3.861 2.372.855 1.352.524 3.034.579 4.717 0 1.683-.055 3.366-.083 5.049-.082 3.255.138 6.51.193 9.738-1.985 0-3.971-.001-5.956.165-2.069.221-4.137-.028-6.233-.083-1.048-.083-2.096-.193-3.144-.165-1.048.027-2.096.138-3.116.11-1.792-.028-3.585-.138-5.377-.221-.138-4.027-.276-8.055-.276-12.082l.027-3.173-.027-1.6zm-6.343 25.793c-.607-.717-.579-1.572-.634-2.731-.083-2.151-.249-4.303-.276-6.482.027-2.152 0-4.304.083-6.483 0-1.131.055-2.069.689-2.814.607-.745 1.544-.993 2.399-1.021.855-.027 1.793.304 2.427.993.717.69.772 1.738.717 2.814 0 2.152-.083 4.304-.165 6.483l-.111 6.483c0 1.158 0 1.986-.606 2.731a2.759 2.759 0 01-2.289 1.103c-.828.055-1.683-.358-2.234-1.076zm45.365 1.325l-14.396.165c-4.798 0-9.597-.138-14.423-.248a308.151 308.151 0 00-11.334-.138c.11-.138.248-.248.359-.386.827-1.021.799-2.483.744-3.449l-.083-5.02c1.931-.111 3.834-.193 5.792-.249 2.123-.193 4.136-.413 6.232-.22 2.041.11 4.137.386 6.233.248 2.096-.11 4.136-.028 6.232 0 4.164-.083 8.329.028 12.52-.221 4.027-.358 7.915.138 11.969.469l-.138 4.855c-.055.966-.11 2.483.717 3.559.083.11.166.193.248.303-3.557.138-7.115.276-10.672.332zm16.739-4.194c-.027 1.159-.082 2.014-.689 2.704-.552.69-1.379 1.076-2.234 1.021a2.91 2.91 0 01-2.206-1.049c-.579-.689-.607-1.517-.607-2.676l-.193-6.51c-.055-2.179-.165-4.331-.165-6.51-.028-1.104 0-2.152.717-2.842.634-.717 1.572-1.048 2.427-1.02.854.027 1.82.248 2.482.993.717.744.689 1.765.689 2.869.055 2.179.055 4.331.028 6.51l-.249 6.51z" fill="#082E4E"/></g><g clip-path="url(#clip1_1043_5283)" fill="#082E4E" stroke="#082E4E" stroke-width=".2"><path d="M685.27 228.106l-.125.003-.053-.042c-.473.601-.795 1.637-1.022 2.702-.228 1.065-.365 2.178-.461 2.954l-.001.01a202.511 202.511 0 00-.742 5.756l-.012.111h.272l.019-.075c.482-1.872.942-3.75 1.381-5.634.573-1.873.825-3.828.744-5.785z"/><path d="M704.886 216.645v-.053h-1.408v.059l-13.696-.05v0h-.003a2.25 2.25 0 01-2.286-1.879c-.035-.386-.024-.941-.009-1.512l.004-.137c.013-.524.027-1.048.006-1.444-.025-1.16-.009-2.666.007-4.251l.013-1.359c.017-2.06.017-4.122-.084-5.609h.001l-.003-.014c-.217-1.028-.82-1.731-1.604-2.149-.779-.417-1.733-.551-2.662-.455h-3.169c-.157 0-.329-.006-.508-.013a27.91 27.91 0 00-.309-.011 5.657 5.657 0 00-.842.025l26.552 18.852zm0 0c1.181 0 2.893.016 4.737.034l2.031.018c3.398.03 6.76.046 7.807-.04.787-.208 1.25-.676 1.506-1.276.258-.607.305-1.354.241-2.111v-.008h0v-11.165c-.097-.884.038-1.797.443-2.541a2.934 2.934 0 012.071-1.515l.008-.001h0c.625-.074 1.531-.074 2.428-.056.353.007.704.017 1.038.027.517.015.991.028 1.362.028 1.329-.119 2.476.11 3.265.749.793.642 1.204 1.68 1.094 3.133 0 1.998-.064 7.454-.092 9.53v12.761l-27.939-7.567zm-1.271 11.31h-.054l-.011.017c-6.474-.092-12.963-.138-19.446-.185l-4.641-.034h-.008l-.008.001a2.892 2.892 0 01-2.554-.882c-.325-.378-.459-.811-.511-1.279a8.101 8.101 0 01-.026-1.062c.002-.138.004-.278.004-.419v-.001l-.054-6.404h0v-.002c-.097-3.74.019-7.466.136-11.199l.046-1.502h.001v-3.973a2.225 2.225 0 011.946-2.151h4.705v0h.002l.03-.001c1.01-.018 1.844-.033 2.552.641.663.63.66 1.404.656 2.345l-.001.217v11.123c-.016.556.002 1.113.056 1.667h-.001l.002.008a3.312 3.312 0 002.415 2.632l.007.002h.008c1.092.114 2.191.145 3.288.092l11.415-.074v.056h1.408v-.064h13.705a3.22 3.22 0 003.219-2.7h.001v-.014c.069-2.496.044-5.82.021-8.858a533.415 533.415 0 01-.021-3.952h0l-.001-.01c-.121-1.223.138-2.116.709-2.677.571-.562 1.476-.812 2.696-.699h3.193v.001l.01-.001c1.172-.122 2.141.057 2.789.563.643.503.992 1.346.888 2.604h0v.008a341.92 341.92 0 00.047 4.741l.005.34c.025 1.754.049 3.469.049 4.452v13.132c.001.393.002.773-.047 1.138-.065.473-.214.909-.557 1.287a3.031 3.031 0 01-2.656.885l-.009-.002h-.009c-1.089.024-2.183.041-3.278.059-3.169.05-6.347.101-9.443.298-2.076.133-4.199.092-6.327.017-.506-.017-1.013-.037-1.519-.056-1.62-.063-3.237-.125-4.827-.125zm29.11-2.123l.1.012v-.012h-.1zm-43.477 2.623c4.779-.002 9.562-.004 14.193-.197l-25.107-30.465a3.356 3.356 0 00-2.933 3.244h0v.789c-.016 2.293.05 4.605.115 6.915l.029 1.037c.073 2.656.131 5.309.048 7.936v.002l-.055 6.404h0v.001c0 .176-.006.348-.012.52-.012.349-.024.703.013 1.117h0v.005a3.214 3.214 0 002.229 2.634h0l.008.002a5.788 5.788 0 001.691.121c3.225-.063 6.502-.064 9.781-.065z"/><path d="M721.583 210.848l.104-.07-.09-.086-.11-.105-3.407-3.558-.001-.001a8.345 8.345 0 00-7.004-2.713h-2.511l-3.688-.046v-.073h-1.407v.002l-1.43-.023c-1.785-.028-3.802-.061-4.86-.061a8.326 8.326 0 00-7.133 2.778 166.94 166.94 0 00-3.368 3.752l-.061.071.066.065.064.064.063.063.069-.054c.714-.555 1.398-1.197 2.082-1.842l.071-.067c.661-.624 1.322-1.248 2.014-1.803 1.434-1.15 2.989-1.993 4.916-1.912h3.784l3.913-.064h1.172v-.019l.045-.001v-.052l3.735-.047h.003a47.372 47.372 0 014.971.045 7.364 7.364 0 014.21 2.247h0l.004.004 3.546 3.387.089.093.067.081.082-.055zm1.813 17.218l-.153-.022c-.222.733-.149 1.815.021 2.89.171 1.079.444 2.171.636 2.935.427 1.879.885 3.758 1.373 5.637l.019.075h.281l-.012-.111c-.22-1.922-.476-3.843-.75-5.754a17.326 17.326 0 00-1.38-5.665l-.035.015zm-42.615-29.749l-.007.107.108-.001 1.089-.019.104-.001-.006-.105a171.55 171.55 0 01-.183-16.649v-.001l.092-2.743a3.615 3.615 0 012.667-3.306 3.612 3.612 0 011.499-.085h0l.013.001c.826.023 1.657.04 2.49.057 1.484.031 2.972.061 4.442.126 2.629.16 5.239.046 7.844-.067l.47-.02c2.763-.119 5.522-.219 8.305.022l.002.001c1.826.128 3.695.084 5.562.009l1.299-.056c1.433-.064 2.858-.127 4.261-.127.239 0 .533-.008.842-.017l.56-.014c.506-.01.995-.01 1.33.03a3.556 3.556 0 012.098 1.103v.001h0a.501.501 0 01-.014.111l-.004.019a1.286 1.286 0 00-.019.105.325.325 0 00-.001.07.157.157 0 00.035.083l.001.002.179.223.001.002c.445.596.612 1.277.687 2.004.036.339.051.685.067 1.037l.003.078c.017.377.036.759.082 1.137.335 5.547.305 11.11-.091 16.653l-.008.107h1.258l-.008-.107a126.455 126.455 0 01-.091-16.655c.016-.228.036-.462.056-.7.062-.708.126-1.451.089-2.169-.05-.965-.282-1.904-.955-2.69a.26.26 0 00-.156-.089.847.847 0 00-.154-.014h-.009a.762.762 0 01-.109-.007c-.018-.003-.025-.006-.028-.007l-.003-.005-.006-.006a4.673 4.673 0 00-2.805-1.271h0l-.005-.001c-.442-.018-.945.026-1.437.074l-.143.014c-.445.044-.876.086-1.251.086v0h-.005c-1.077.056-2.156.142-3.234.228-2.617.208-5.233.415-7.817.203a33.111 33.111 0 00-5.584-.541h0-.006c-1.314.066-2.635.187-3.951.307l-.209.02c-1.385.126-2.765.25-4.134.304-2.143-.049-4.309-.244-6.473-.44a196.85 196.85 0 00-3.212-.273 5.028 5.028 0 00-1.49.001h0l-.005.001c-.976.199-1.718.548-2.277 1.015-.559.467-.929 1.047-1.167 1.701-.474 1.302-.423 2.902-.295 4.496.201 5.549.155 11.099-.183 16.648z"/></g><g clip-path="url(#clip2_1043_5283)"><g clip-path="url(#clip3_1043_5283)" fill="#082E4E"><path d="M964.949 207.565c-3.987.293-7.951.415-11.939.537-3.987.122-7.951.098-11.938.147-3.988-.049-7.952-.074-11.939-.196-3.988-.122-7.952-.293-11.939-.61h-.167c-.597.049-1.051.586-1.003 1.221a1.092 1.092 0 001.194 1.025c1.432-.122 2.889-.195 4.322-.268.62 2.002.931 4.029 1.098 6.08.215 2.222.239 4.419.119 6.617-.286 4.42-1.17 8.766-2.101 13.137 0 .024-.024.073-.024.097-.071.562.335 1.05.884 1.124.549.073 1.026-.342 1.098-.904.478-4.444 1.051-8.912 1.098-13.43.024-1.001 0-1.977-.047-2.979 2.841-.219 5.683-.317 8.524-.366 1.504-.098 3.009.122 4.561.049s3.008-.44 4.513-.44c1.48 0 2.984.367 4.513.342 1.528.049 3.032-.049 4.56-.049 2.961-.048 5.922.171 8.883.416-.048 1.001-.072 2.002-.048 3.027.048 4.518.621 8.986 1.098 13.43 0 .025 0 .073.024.098.12.537.645.903 1.194.781.525-.122.884-.659.764-1.221-.931-4.371-1.815-8.717-2.101-13.136-.143-2.223-.119-4.42.119-6.618.167-2.075.502-4.126 1.123-6.153 1.217.073 2.435.122 3.653.195h.143a.984.984 0 00.907-1.074c-.143-.488-.62-.903-1.146-.879zm-5.42 7.862c-.095.684-.143 1.392-.215 2.076-3.008.317-6.041.342-9.049.61-1.505.147-3.009.22-4.513.22-1.505.049-2.985-.268-4.537-.244-1.528-.024-3.056.269-4.537.293-1.48 0-3.009-.171-4.513-.244-2.889-.171-5.778-.366-8.691-.684-.072-.684-.12-1.367-.215-2.051-.311-2.027-.669-4.029-.693-6.08 2.197-.098 4.37-.195 6.567-.269 3.987-.122 7.951-.146 11.939-.195 3.987.049 7.951.025 11.938.147 2.412.073 4.824.146 7.235.268-.047 2.1-.406 4.127-.716 6.153zm-18.457-13.258c3.82-.074 7.235-2.345 9.216-5.372 2.03-3.028 2.937-6.666 2.866-10.207-.096-3.541-1.051-7.106-3.128-9.987-2.03-2.881-5.325-5.054-8.954-5.103-3.654-.049-7.068 2.027-9.217 4.908-2.173 2.906-3.248 6.568-3.271 10.182-.024 3.614 1.002 7.301 3.175 10.255 2.102 2.906 5.444 5.397 9.313 5.324zm-8.405-25.126c1.958-2.711 5.062-4.64 8.405-4.64 3.319-.097 6.566 1.71 8.643 4.444 2.125 2.735 3.2 6.251 3.152 9.767-.095 3.492-1.265 6.959-3.414 9.548-2.125 2.588-5.23 4.297-8.381 4.2-3.105-.025-6.304-1.514-8.31-4.249-2.029-2.662-3.056-6.08-3.104-9.474 0-3.443 1.003-6.886 3.009-9.596z"/><path d="M939.305 175.993c.191 0 .334-.147.31-.318-.024-.171-.143-.317-.31-.317-2.364.073-4.418 1.587-5.612 3.54-1.265 1.929-1.838 4.225-1.958 6.544v.049c0 .22.191.415.43.391.239-.024.382-.22.382-.44-.095-2.173.43-4.419 1.552-6.275 1.146-1.807 3.08-3.247 5.206-3.174zm4.154 35.625c-.788.195-1.599.244-2.387.244-.788-.073-1.6-.024-2.388-.195-.072-.025-.143-.025-.191 0-.239.049-.406.317-.358.561a.48.48 0 00.549.367c.788-.171 1.6-.122 2.388-.196.788.025 1.599.049 2.387.245a.487.487 0 00.263 0c.263-.074.43-.367.382-.635-.095-.293-.382-.464-.645-.391z"/></g></g><path d="M267.727 383.433c-2.391-.098-4.782-.147-7.173-.217 0-.055 0-.109-.011-.164-.125-.68-.261-1.366-.521-2.008-.244-.648-.618-1.22-.965-1.748-.358-.517-.651-1.045-.846-1.622-.184-.577-.249-1.192-.271-1.807.016-.615.087-1.236.293-1.802.206-.572.537-1.067.905-1.579.375-.512.759-1.094.993-1.764.238-.664.32-1.36.336-2.041-.016-.675-.092-1.377-.331-2.041-.228-.67-.613-1.258-.981-1.775-.369-.512-.694-1.007-.9-1.573-.207-.566-.282-1.176-.299-1.791.017-.615.076-1.23.261-1.802.184-.577.471-1.105.824-1.627.341-.528.705-1.106.938-1.753.238-.61.358-1.258.461-1.9 2.424-.071 4.853-.12 7.277-.218a.294.294 0 000-.588c-2.684-.114-5.374-.158-8.058-.239l-8.058-.136c-.992-.017-1.979-.017-2.971-.033.027-1.584-.266-3.185-.819-4.687a13.472 13.472 0 00-2.809-4.436c-1.214-1.285-2.711-2.303-4.343-3.005a13.367 13.367 0 00-5.173-1.062 13.496 13.496 0 00-5.189 1.056c-1.633.702-3.135 1.715-4.349 3a13.549 13.549 0 00-2.82 4.436 13.153 13.153 0 00-.829 4.714c-.977.011-1.947.017-2.923.033l-8.058.141c-2.684.082-5.373.131-8.058.24a.277.277 0 00-.26.261.268.268 0 00.255.278c2.684.109 5.374.158 8.058.239l.96.017c.103.642.227 1.279.46 1.889.234.647.597 1.225.938 1.753.353.522.64 1.05.825 1.627.179.577.244 1.187.26 1.802-.016.615-.087 1.23-.298 1.791-.201.566-.532 1.061-.9 1.573-.369.512-.749 1.105-.982 1.775-.233.664-.314 1.366-.331 2.041.017.675.098 1.377.337 2.041.233.67.618 1.252.992 1.764s.705 1.007.905 1.579c.206.566.282 1.187.293 1.802-.021.615-.087 1.23-.271 1.807-.195.577-.482 1.1-.84 1.622-.347.528-.722 1.1-.966 1.748-.26.642-.395 1.328-.52 2.008-.011.049 0 .098 0 .147l-.868.017c-2.684.081-5.373.13-8.057.239a.27.27 0 00.005.539c2.684.109 5.374.158 8.058.239l8.057.142c5.374.093 10.748.109 16.116.125 5.373-.005 10.747-.016 16.115-.103l8.058-.136c2.684-.082 5.374-.131 8.058-.24a.296.296 0 00.282-.283.278.278 0 00-.272-.305zm-40.933-38.508c2.32-2.243 5.487-3.544 8.692-3.527 3.204-.022 6.371 1.274 8.703 3.511 2.234 2.134 3.622 5.133 3.893 8.291-4.197-.044-8.394-.066-12.591-.066-4.191.011-8.383.033-12.569.082.26-3.157 1.643-6.151 3.872-8.291zm-13.117 38.252c0-.043 0-.081-.011-.125a5.043 5.043 0 01-.032-1.736c.097-.572.319-1.127.601-1.688.272-.571.575-1.17.727-1.818a7.599 7.599 0 00.217-1.938 9.488 9.488 0 00-.195-1.943c-.136-.648-.402-1.28-.662-1.862-.26-.582-.472-1.121-.58-1.671a8.403 8.403 0 01-.152-1.704c0-.582.044-1.154.163-1.704.114-.55.325-1.089.585-1.666.266-.577.532-1.208.673-1.861.146-.654.19-1.307.19-1.955 0-.647-.06-1.301-.234-1.943-.157-.642-.46-1.241-.742-1.807-.293-.561-.526-1.111-.629-1.682a5.37 5.37 0 01-.028-1.617l5.797.098c2.646.044 5.287.071 7.933.087.098.572.217 1.138.423 1.677.233.647.596 1.225.938 1.753.352.522.64 1.05.824 1.627.179.577.244 1.187.26 1.802-.016.615-.086 1.23-.298 1.791-.2.566-.531 1.061-.9 1.573s-.748 1.105-.981 1.775c-.233.664-.315 1.366-.331 2.041.016.675.098 1.377.336 2.041.233.67.618 1.252.992 1.764.375.512.705 1.007.906 1.579.206.566.282 1.187.293 1.802-.022.615-.087 1.23-.271 1.807-.196.577-.483 1.1-.846 1.622-.347.528-.721 1.1-.965 1.748-.255.62-.391 1.284-.51 1.943-2.603.016-5.211.043-7.814.087l-5.677.103zm14.977-.196a5.033 5.033 0 01-.022-1.665c.098-.572.32-1.127.602-1.688.271-.571.575-1.17.726-1.818a7.554 7.554 0 00.217-1.938 9.418 9.418 0 00-.195-1.943c-.135-.648-.401-1.28-.661-1.862-.261-.582-.472-1.121-.581-1.671a8.403 8.403 0 01-.151-1.704c0-.582.043-1.154.162-1.704.114-.55.326-1.089.586-1.666.266-.577.531-1.208.672-1.861.147-.654.19-1.307.19-1.955 0-.647-.06-1.301-.233-1.943-.157-.642-.461-1.241-.743-1.807-.293-.561-.526-1.111-.629-1.682a5.444 5.444 0 01-.049-1.421c2.316.011 4.631.022 6.946.027 2.896-.005 5.791-.011 8.687-.027.043.479.038.953-.049 1.421-.108.571-.341 1.121-.629 1.682-.282.566-.585 1.165-.743 1.807-.168.637-.227 1.296-.233 1.943 0 .648.049 1.301.19 1.955.141.653.407 1.284.672 1.861.261.577.477 1.116.586 1.666.114.55.157 1.116.163 1.704 0 .582-.038 1.154-.152 1.704-.109.55-.32 1.094-.58 1.671-.261.582-.526 1.214-.662 1.862a9.46 9.46 0 00-.195 1.943 7.312 7.312 0 00.217 1.938c.146.648.45 1.247.726 1.818.288.566.51 1.116.602 1.688a5.17 5.17 0 01-.022 1.665c-2.863-.016-5.72-.021-8.583-.027-2.272.006-4.555.017-6.832.027zm16.885.011c-.119-.664-.255-1.328-.51-1.954-.244-.648-.618-1.219-.965-1.747-.358-.517-.651-1.045-.84-1.623-.185-.577-.25-1.192-.272-1.807.017-.615.087-1.235.293-1.802.206-.571.537-1.067.906-1.578.374-.512.759-1.094.992-1.764.239-.664.32-1.361.336-2.041-.016-.675-.092-1.378-.33-2.042-.228-.669-.613-1.257-.982-1.774-.369-.512-.694-1.007-.9-1.573-.206-.567-.282-1.176-.298-1.791.016-.616.076-1.231.26-1.802.184-.577.472-1.105.824-1.628.342-.528.705-1.105.938-1.753.212-.544.331-1.11.429-1.682 2.066-.016 4.126-.027 6.192-.065l7.537-.125a5.408 5.408 0 01-.021 1.622c-.109.571-.342 1.121-.629 1.682-.282.566-.586 1.165-.743 1.807-.168.637-.228 1.296-.234 1.944 0 .647.049 1.301.19 1.954.141.653.407 1.285.673 1.862.26.577.477 1.115.585 1.665.114.55.158 1.116.163 1.704 0 .583-.038 1.154-.152 1.704-.108.55-.32 1.094-.58 1.671-.26.583-.526 1.214-.662 1.862a9.53 9.53 0 00-.195 1.943c-.005.648.049 1.301.217 1.938.146.648.45 1.247.727 1.818.282.566.509 1.116.602 1.688a5.066 5.066 0 01-.033 1.736c-.005.044 0 .087 0 .131l-7.45-.125c-2.023-.022-4.045-.038-6.068-.055zm257.402-26.695c-3.951.243-7.955.297-11.933.539 0-.054.027-.108.027-.188-.451-4.18-.557-8.36-.663-12.539-.107-4.18.265-8.359.397-12.539 0-1.025.133-2.076-.106-3.263a7.142 7.142 0 00-1.485-3.101c-1.485-1.779-3.819-2.723-6.02-2.453-2.201.269-4.243 1.537-5.383 3.424a7.019 7.019 0 00-1.008 3.155l-.079 2.858a5.771 5.771 0 00-3.501 1.591c-1.087 1.025-1.776 2.508-1.856 4.072v.189c0 .054 0 .108.027.135a.584.584 0 00.716.431c1.723-.458 3.421-.566 5.144-.566 1.724.027 3.421.135 5.145.62a.507.507 0 00.212.027.63.63 0 00.583-.674v-.135c-.106-1.564-.795-3.074-1.882-4.099a5.738 5.738 0 00-3.501-1.564c-.053-1.995-.265-3.964.769-5.555.928-1.698 2.811-2.885 4.721-2.858 1.909-.081 3.739.836 4.852 2.319a6.712 6.712 0 011.141 2.508c.132.89.079 1.941.132 2.993.133 4.18.504 8.359.398 12.539-.079 4.179-.186 8.359-.663 12.538v.216c0 .054.027.081.027.135l-2.016.162c-5.224.674-10.448-.054-15.725.081-2.626-.027-5.278.162-7.876.242-2.599 0-5.225-.296-7.85-.566-2.625-.296-5.277-.27-7.903-.35-2.625-.108-5.25-.189-7.876-.351h-.079c-.478 0-.849.405-.822.917a.889.889 0 00.901.863h.027a61728 61728 0 013.103-.162v.108l4.269 15.181c.292 1.187.716 2.778 1.803 3.802 1.035 1.052 2.44 1.699 3.899 1.726l2.917-.054v.027c.185.782.238 1.564.265 2.319.026.782 0 1.564-.292 2.319a.84.84 0 000 .62c.159.459.663.674 1.114.513.451-.162.663-.675.504-1.133-.292-.782-.345-1.564-.292-2.319 0-.782.08-1.564.265-2.319v-.054l3.342-.054 3.208.324c1.141.108 2.255-.027 3.315-.189 2.122-.297 4.296-.378 6.418-.081 2.174.405 4.428.054 6.576-.054 1.804-.054 3.607-.081 5.41-.054 0 .054-.026.081-.026.135.185.782.238 1.564.265 2.319.026.782 0 1.564-.292 2.319a.84.84 0 000 .62c.159.459.663.674 1.114.513.451-.162.663-.675.504-1.133-.292-.782-.345-1.564-.292-2.319 0-.782.08-1.564.265-2.319v-.108c.955.027 1.83.081 2.891 0a5.556 5.556 0 003.209-1.483c.901-.809 1.511-1.995 1.75-3.128l.849-3.209 3.447-12.781c1.193.054 2.36.108 3.553.189h.133c.504-.027.902-.486.875-.998-.106-.458-.53-.863-1.061-.836zm-21.374-19.037c-1.458.296-2.89.431-4.349.458-1.458 0-2.917-.135-4.375-.431a4.252 4.252 0 011.14-2.67c.822-.89 2.042-1.402 3.235-1.429 1.22.027 2.413.539 3.236 1.429a4.279 4.279 0 011.113 2.643zm13.021 33.194l-.716 3.235c-.186 1.052-.61 1.888-1.299 2.616a4.458 4.458 0 01-2.573 1.294c-.954.108-2.148.054-3.182.108a178.44 178.44 0 00-6.55.189c-2.175.162-4.296.512-6.418.162-2.174-.243-4.402-.297-6.576-.027-1.088.108-2.148.216-3.156.108l-3.235-.405h-.053l-7.744-.162c-1.14-.08-2.227-.647-2.996-1.483-.822-.863-1.035-1.941-1.353-3.262l-3.686-14.993c3.554-.162 7.107-.297 10.634-.162 2.625.135 5.251.459 7.903.405 2.651-.135 5.25-.351 7.876-.351 2.625 0 5.25.135 7.849.297 2.652.216 5.277.027 7.929-.054 3.395-.216 6.763-.162 10.157-.027l-2.811 12.512zm244.464-41.447c-2.11.146-4.22.274-6.321.338-2.11.138-4.22.321-6.321.412-2.101.101-4.229.266-6.303.312a36.54 36.54 0 01-3.133-.174l-1.407-.156c.018-1.501.119-3.002.247-4.503.127-1.602.283-3.213.484-4.814v-.01a.815.815 0 00-.914-.906c-2.384.321-4.75.394-7.116.412-2.366-.009-4.732-.082-7.107-.393h-.027a.617.617 0 00-.228-.01.805.805 0 00-.667.916c.237 1.492.411 2.974.539 4.466.146 1.446.246 2.902.182 4.348-4.156.531-8.285.009-12.45-.238-.028 0-.046.009-.073.009l-12.533.311h-.11l-.082.009a.811.811 0 00-.694.906c.274 2.106.42 4.22.52 6.325.11 2.105.137 4.219.147 6.325-.01 2.105-.037 4.219-.147 6.324-.1 2.105-.246 4.22-.52 6.325-.009.064-.009.11-.009.164a.801.801 0 00.849.769h.073l10.176-.503a217.325 217.325 0 01-.557 5.949c-.338 3.368-.703 6.727-1.16 10.077l-1.69.037c-.703.018-1.416.037-2.119.073l-.521.028c-.21 0-.511.073-.712.201-.448.265-.695.76-.695 1.254l-.283 8.42-.018.522c0 .101-.009.147-.009.293 0 .156.027.302.073.449.1.302.256.576.484.805.237.21.539.357.859.403.082.009.155.009.237.018h.393l.53-.009 1.05-.009 4.202-.046 16.799-.165c5.6-.027 11.199-.009 16.799.064l8.404.101 4.202.027 2.101.01h.566c.32-.019.631-.129.896-.303a1.737 1.737 0 00.73-1.199c.009-.073.009-.164.019-.228v-.128c-.019-1.401-.147-2.81-.165-4.211-.018-1.4.009-2.81.037-4.21l.009-.265c0-.083.009-.174 0-.33a1.87 1.87 0 00-.256-.787 1.82 1.82 0 00-1.361-.851l-.201-.009h-.393l-.52.009-1.051.009-2.338.018a410.13 410.13 0 01-1.215-11.102c-.411-3.89-.722-7.798-1.051-11.697l-.247-2.929c-.036-.485-.1-.989-.091-1.437.009-.458.11-.915.265-1.346.155-.43.384-.833.667-1.19.283-.347.639-.723.959-1.08.649-.732 1.325-1.437 1.991-2.15 2.668-2.856 5.417-5.657 8.048-8.549l-.009-.018a.896.896 0 00.228-.659.875.875 0 00-.941-.824zm-24.508-7.753c.155 1.328.283 2.655.393 3.991.128 1.483.219 2.975.246 4.457l-1.361-.155a91.483 91.483 0 00-6.33-.504 35.373 35.373 0 00-6.148.165c-.055-1.437.037-2.874.183-4.311.109-1.217.256-2.425.429-3.643 2.101-.238 4.202-.302 6.303-.311 2.101.019 4.193.092 6.285.311zm-37.791 33.426a78.188 78.188 0 01-.429-5.455c-.11-2.105-.137-4.219-.146-6.324.009-2.105.045-4.22.146-6.325.082-1.812.219-3.624.429-5.437l10.825-.292c-.174 3.23-.283 6.471-.411 9.711-.146 3.569-.356 7.13-.649 10.69a284.52 284.52 0 00-.328 3.899l-9.437-.467zm58.034 18.626c.146.018.274.11.356.229.036.064.073.128.082.201 0 .019.009.101.009.202l.009.265c.028 1.401.055 2.81.037 4.21-.018 1.401-.137 2.81-.165 4.211v.155c0 .019-.009.028-.009.046a.135.135 0 01-.055.073.14.14 0 01-.082.028l-.484.009-2.101.009-4.202.027-8.404.101c-5.6.073-11.199.092-16.799.064l-16.799-.165-4.202-.045-1.991-.019c-.037-.009-.155 0-.201-.082a.134.134 0 01-.018-.064c-.009-.018-.009-.156-.009-.229l-.019-.522-.283-8.42a.5.5 0 01.32-.467.5.5 0 01.292-.027l.521.036c.694.046 1.388.11 2.083.174 1.388.137 2.786.284 4.211.348 1.425.046 2.877.064 4.321-.146 1.443-.22 2.804-.586 4.138-.897 2.658-.586 5.462-.989 8.193-.742 2.723.256 5.381 1.263 8.203 1.712 2.841.421 5.691.274 8.487.055 2.804-.229 5.545-.476 8.331-.385l4.202.037 2.028.018zm-3.755-34.808c-.621.76-1.215 1.538-1.854 2.279-.32.385-.621.723-.95 1.144a4.996 4.996 0 00-.722 1.382c-.173.495-.247 1.007-.274 1.529-.009.531.055 1.007.082 1.492l.22 2.929c.292 3.899.612 7.807.831 11.715.237 3.68.429 7.368.566 11.057h-.384c-5.681-.101-11.217 1.446-16.707.769-2.722-.357-5.362-1.428-8.23-1.739-2.851-.312-5.682-.284-8.551 0-1.425.174-2.795.43-4.129.595a39.473 39.473 0 01-4.055.302l-.704.018c.064-3.323.21-6.645.393-9.967.164-3.57.457-7.121.685-10.691.256-3.56.594-7.112.996-10.663.374-3.286.767-6.572 1.096-9.867l5.499-.384c2.119-.201 4.22-.357 6.321-.293s4.193.083 6.294.046c2.101-.009 4.193.027 6.294.11 2.092.082 4.202.311 6.331.338l6.33-.082c2.101-.046 4.202-.027 6.303-.009 1.498.055 3.005.137 4.503.229-2.064 2.562-4.101 5.18-6.184 7.761z" fill="#082E4E"/><path d="M714.306 351.441h-.009c-.987.302-1.964.54-2.932.613-.485.027-.969.046-1.435-.092-.456-.128-.877-.338-1.269-.54-.329-.174-.959-.485-1.544-.494-.594-.037-1.142.11-1.654.211-1.023.183-2.037.43-3.051.256a.714.714 0 00-.749 1.043.711.711 0 00.969.293l.009-.009c.977-.522 1.909-.851 2.896-.879.484 0 .959.119 1.361.284.411.147.676.339 1.279.558.538.174 1.114.193 1.653.183.539-.018 1.069 0 1.589-.027 1.042-.055 2.047-.192 3.061-.156a.641.641 0 00.63-.823.655.655 0 00-.804-.421zm0 5.143h-.009c-.987.302-1.964.54-2.932.613-.485.027-.969.046-1.435-.092-.456-.128-.877-.338-1.269-.54-.329-.173-.959-.476-1.544-.494-.594-.036-1.142.11-1.654.211-1.023.183-2.037.43-3.051.256a.714.714 0 00-.749 1.043.711.711 0 00.969.293l.009-.009c.977-.522 1.909-.851 2.896-.879.484 0 .959.119 1.361.284.411.147.676.339 1.279.559.538.173 1.114.192 1.653.183.539-.019 1.069 0 1.589-.028 1.042-.055 2.047-.192 3.061-.155a.641.641 0 00.63-.824.655.655 0 00-.804-.421z" fill="#082E4E"/><g clip-path="url(#clip4_1043_5283)" fill="#082E4E"><path d="M942.303 369.396c-.181-.784-.308-1.577-.462-2.362a44.534 44.534 0 01-.553-4.76c-.109-1.586-.1-3.173-.081-4.751.018-.793.036-1.577.081-2.371l.064-2.433c.054-3.236-.136-6.463-.309-9.672-.181-3.208-.38-6.417-.516-9.626-.045-.803-.1-1.632-.199-2.443a14.9 14.9 0 00-.553-2.406 13.301 13.301 0 00-2.428-4.324c-1.078-1.274-2.4-2.388-3.931-3.164-.381-.196-.779-.348-1.169-.526a28.266 28.266 0 00-1.214-.401 38.142 38.142 0 00-2.454-.49c-3.379-.544-6.958.249-9.648 2.264-2.709 1.988-4.511 5.045-4.91 8.299-.208 1.631.045 3.271.226 4.858.209 1.595.363 3.2.535 4.795.344 3.2.725 6.409 1.35 9.582a66.178 66.178 0 001.132 4.725 34.022 34.022 0 011.051 4.635c.516 3.146.625 6.364.389 9.564-.117 1.56-.208 3.298.136 4.956.308 1.676.988 3.28 1.957 4.698 1.93 2.843 5.064 4.929 8.542 5.464 1.722.303 3.515.214 5.2-.223a12.308 12.308 0 004.557-2.425 11.393 11.393 0 002.962-4.127c.625-1.577.843-3.28.689-4.947-.1-.82-.272-1.613-.444-2.389zm-26.733-29.62c-.308-1.578-.607-3.155-.842-4.751-.272-1.595-.481-3.164-.281-4.742.398-3.146 2.31-5.99 4.928-7.737 2.618-1.792 5.942-2.327 8.995-1.756.806.151 1.604.303 2.346.49l1.106.357c.353.16.715.294 1.069.463 1.386.696 2.663 1.614 3.723 2.764 2.11 2.281 3.451 5.374 3.333 8.557-.108 6.346-.099 12.711-.271 19.013-.227-.767-.444-1.525-.68-2.282-.697-2.255-1.458-4.484-2.419-6.659-.969-2.157-2.101-4.287-3.641-6.168-.752-.954-1.622-1.827-2.528-2.665-.915-.82-1.875-1.578-2.817-2.354a.968.968 0 00-1.096-.089l-.199.116c-.562.49-.897.9-1.296 1.373-.371.455-.697.936-1.032 1.399a25.032 25.032 0 00-1.694 2.933c-.997 2.006-1.749 4.082-2.338 6.204-.579 2.121-.969 4.278-1.268 6.436a74.134 74.134 0 00-.29 2.807c-.335-1.408-.607-2.843-.897-4.269l-1.911-9.44zm25.582 36.582c-.67 1.382-1.685 2.576-2.89 3.503-2.436 1.854-5.652 2.54-8.624 2.05-3.016-.499-5.634-2.415-7.428-4.822-.897-1.212-1.612-2.585-2.011-4.047-.426-1.48-.48-2.977-.498-4.626-.036-1.614-.136-3.227-.181-4.84-.055-1.614-.127-3.227-.272-4.849a38.977 38.977 0 00-.254-2.024 37.228 37.228 0 01.236-5.945c.244-2.148.67-4.27 1.341-6.32.652-2.05 1.54-4.038 2.708-5.821a16.67 16.67 0 011.984-2.478c.362-.374.761-.722 1.16-1.043.181-.142.389-.303.588-.436 1.894.873 3.633 1.952 5.091 3.396 1.649 1.604 2.908 3.601 3.905 5.696 1.005 2.103 1.784 4.314 2.373 6.578.507 1.827.879 3.69 1.178 5.562-.009.553-.009 1.096.009 1.649.054 1.64.272 3.263.543 4.867.562 3.191 1.432 6.364 1.876 9.466.126 1.542-.191 3.093-.834 4.484z"/><path d="M972.99 332.272a13.168 13.168 0 00-1.44-4.742c-.78-1.48-1.83-2.844-3.153-3.913-.326-.268-.679-.508-1.024-.758-.362-.223-.724-.446-1.105-.642a38.118 38.118 0 00-2.292-.989c-3.17-1.248-6.839-1.221-9.91.178-3.071 1.373-5.499 3.985-6.595 7.078-.552 1.551-.661 3.209-.833 4.795-.145 1.605-.335 3.2-.517 4.805-.362 3.2-.679 6.409-.752 9.644-.036 1.614 0 3.236.082 4.858.118 1.596.109 3.156.036 4.751-.081 1.587-.29 3.182-.57 4.751-.281 1.578-.77 3.111-1.223 4.644-.499 1.48-.888 3.2-.897 4.894-.036 1.702.308 3.414.96 5.001 1.286 3.164 3.877 5.891 7.184 7.068 3.252 1.23 6.993 1.052 10.046-.544a11.515 11.515 0 003.85-3.316 10.339 10.339 0 001.839-4.697c.081-.856.09-1.667.09-2.46 0-.802.037-1.605.064-2.407.054-1.596.172-3.191.371-4.769.191-1.578.48-3.137.807-4.679.163-.776.362-1.543.561-2.309l.571-2.362c1.431-6.311 2.165-12.711 3.515-18.995.308-1.587.516-3.245.335-4.885zm-6.359 28.274c-.345 1.596-.535 3.227-.68 4.84-.127 1.623-.163 3.245-.199 4.858l-.027 2.416c-.009.811-.027 1.613-.1 2.353a9.365 9.365 0 01-1.685 4.198 9.933 9.933 0 01-3.515 2.906 11.037 11.037 0 01-4.457 1.088c-1.549 0-3.071-.294-4.475-.892-2.817-1.194-4.982-3.583-6.187-6.328-.607-1.373-.978-2.87-1.015-4.386-.081-1.533.263-2.968.562-4.599.281-1.596.48-3.2.77-4.796.281-1.586.553-3.182.77-4.795.073-.553.136-1.124.181-1.685a31.546 31.546 0 011.096-6.284 29.476 29.476 0 012.401-6.097c1.024-1.935 2.256-3.762 3.714-5.384a22.39 22.39 0 012.355-2.255c.417-.348.852-.66 1.296-.963.19-.125.389-.258.58-.374 3.342 2.656 6.105 6.016 7.645 9.992a24.702 24.702 0 011.577 6.596c.235 2.255.19 4.537-.037 6.792v.098c0 .063.027.107.046.161l-.037.151a44.162 44.162 0 00-.579 2.389zm5.498-23.496a413.303 413.303 0 01-2.065 9.43 311.904 311.904 0 01-1.839 7.72 58.539 58.539 0 00-.362-3.325c-.336-2.282-.843-4.555-1.631-6.73a31.746 31.746 0 00-3.125-6.24c-1.259-1.978-2.709-3.832-4.158-5.704a.974.974 0 00-1.232-.259l-.209.107c-.987.838-1.739 1.64-2.509 2.523a37.316 37.316 0 00-2.12 2.674 38.66 38.66 0 00-3.424 5.785 42.955 42.955 0 00-2.364 6.239c-.145.517-.29 1.034-.417 1.551.009-1.025.027-2.059.054-3.084l.191-9.618c.045-1.604.09-3.209.208-4.813.081-1.613.217-3.191.752-4.689 1.069-2.995 3.56-5.375 6.486-6.533 2.944-1.195 6.305-1.025 9.167.178.761.312 1.504.633 2.184.971l1.005.589c.308.223.643.437.942.677 1.205.972 2.256 2.139 3.044 3.477 1.567 2.683 2.165 5.972 1.422 9.074z"/></g><path d="M223.936 489.776a.825.825 0 00-.576.993c.314 1.15.367 2.326.393 3.476-.026 1.15-.053 2.3-.315 3.45a.642.642 0 000 .314.719.719 0 00.891.548.717.717 0 00.55-.888c-.262-1.15-.288-2.326-.314-3.476.026-1.15.078-2.326.393-3.476.026-.131.052-.288 0-.445-.131-.365-.576-.627-1.022-.496zm7.099 0a.824.824 0 00-.576.993c.314 1.15.367 2.326.393 3.476-.026 1.15-.053 2.326-.315 3.476a.642.642 0 000 .314.719.719 0 00.891.548.717.717 0 00.55-.888c-.262-1.15-.288-2.326-.314-3.476.026-1.15.078-2.326.393-3.476.026-.131.052-.288 0-.445a.835.835 0 00-1.022-.522z" fill="#082E4E"/><path d="M252.309 518.864l-.341-6.403-.733-12.78c-.288-4.234.55-8.469.733-12.755.079-2.169-.052-4.286-.078-6.403l.157-6.377.078-3.189.053-1.594c.026-.549-.053-1.228-.262-1.777a4.356 4.356 0 00-2.541-2.588c-.577-.235-1.258-.313-1.808-.287h-1.598c-4.27 0-8.54.026-12.811.261-8.54.392-17.081-.235-25.621-.47-2.725-.053-4.794 2.77-4.454 5.096l.158 6.403c.104 2.196.576 4.261.576 6.378l.026 6.377c-.026 2.117.026 4.26-.052 6.377-.079 2.091-.184 4.312 0 6.429.157 2.117-.157 4.13-.315 6.325-.157 2.143-.393 4.286-.419 6.43l-.052 3.188v1.594c-.026.549.052 1.255.288 1.83.445 1.202 1.415 2.221 2.646 2.64.576.235 1.31.287 1.834.235l1.598-.105c1.257-.104 2.515-.156 3.772-.209-.026.105-.078.235-.052.366.183.758.236 1.516.262 2.248.026.758 0 1.516-.288 2.247a.793.793 0 000 .602c.157.444.655.653 1.1.496.445-.157.655-.653.498-1.098-.288-.757-.341-1.515-.288-2.247 0-.758.078-1.516.262-2.248a.75.75 0 000-.34c0-.026-.053-.052-.053-.078 2.541-.078 5.109-.105 7.65.026 2.148.052 4.27.209 6.418.209l6.419-.13c1.572-.027 3.117 0 4.689 0-.026.104-.078.209-.052.313.183.758.236 1.516.262 2.248.026.758 0 1.516-.288 2.247a.793.793 0 000 .602c.157.444.654.653 1.1.496.445-.157.655-.653.498-1.098-.289-.757-.341-1.515-.289-2.247 0-.758.079-1.516.262-2.248a.615.615 0 000-.313h.262c2.149.052 4.271.313 6.419.392 1.31.026 2.62-.549 3.432-1.569.733-.94 1.074-2.404.943-3.502zm-42.938 3.659l-1.598-.104a4.012 4.012 0 01-1.31-.262c-.786-.313-1.441-.967-1.729-1.751-.315-.705-.157-1.829-.21-2.901l-.052-3.188c-.053-2.144.105-4.234.157-6.351.026-2.065.262-4.313 0-6.456-.498-4.208-.21-8.494-.21-12.754l.236-6.404c.053-2.169-.34-4.312-.34-6.377.393-3.868-1.101-9.931 3.222-9.774 6.576-.183 13.177-.575 19.753-.575l.157 14.165c-.026 4.809-.026 9.618.105 14.427-.052 4.809-.157 9.618-.157 14.427l-.026 13.93c-1.729.027-3.458.131-5.214.183-4.244.236-8.514.131-12.784-.235zm38.432-.209c-2.148.079-4.27.314-6.419.392-2.148.052-4.27.052-6.418.026l-6.418-.13h-.498v-13.931c.026-4.809-.105-9.618-.157-14.427.131-4.809.104-9.618.104-14.427l.158-14.139c1.676 0 3.327.026 5.003.104 4.271.236 8.541.262 12.811.262 1.074.026 2.174-.131 2.934.183.838.313 1.52.967 1.86 1.803.341.784.184 1.882.21 2.953v3.189l.026 6.403c.079 2.143.262 4.26.236 6.377-.079 4.234-.577 8.495-.498 12.781l.079 12.78.026 6.377c.209 1.961-1.336 3.346-3.039 3.424zm232.412-25.986c-.056-1.144-.27-2.221-.41-3.308-.158-1.087-.214-2.174-.233-3.261-.028-1.087-.028-2.174.084-3.243.028-1.077.475-2.015.429-3.383 0-.037-.01-.084-.019-.131a.64.64 0 10-1.248.3v.009c.196.825-.121 2.034-.103 3.149a67.01 67.01 0 00.028 3.327c.047 1.105.131 2.202.131 3.298-.01 1.097 0 2.212-.037 3.252l-.196 6.513c-.065 1.096-.121 2.24-.047 3.355.066 1.115.168 2.23.177 3.326a.692.692 0 00.923.666.698.698 0 00.428-.89c-.727-2.1-1.155-4.227-.764-6.382.336-2.155.978-4.32.857-6.597z" fill="#082E4E"/><path d="M494.3 524.637c-.028-1.322-.196-2.643-.354-3.964-.28-2.633-.326-5.276-.438-7.909-.084-2.634-.251-5.258-.419-7.891a105.874 105.874 0 01-.158-7.89c.065-2.633.326-5.239.586-7.862.28-2.643.215-5.304.215-7.947-.038-2.643.065-5.285.065-7.928l.028-3.955v-3.195c0-.075.009-.141-.019-.366a1.411 1.411 0 00-.512-.89c-.252-.234-.68-.356-.96-.337h-.493l-.978.009-1.957.019-3.921.037c-1.295.038-2.637.01-3.959.057a92.394 92.394 0 00-3.95.234c-2.618.197-5.207.412-7.816.356l-7.862-.094c-2.636-.037-5.272.085-7.881.253-2.617.132-5.226.338-7.797.057-1.294-.132-2.599-.31-3.912-.413-1.332-.122-2.655-.084-3.959-.103l-7.872-.047c-.54 0-1.052.441-1.108 1.003l-.037 1.021-.056 1.978-.121 3.954-.252 7.909c-.056 1.303-.102 2.671-.046 4.011.028 1.34.177 2.652.27 3.945.121 1.303.121 2.54.084 3.852l-.112 3.926-.336 7.91a188.042 188.042 0 00-.083 3.973 29.965 29.965 0 00.205 4.001c.149 1.322.326 2.624.354 3.936.055 1.303-.01 2.587-.094 3.917l-.195 3.955c-.038.656-.038 1.321-.056 1.977l-.009.984v.562a1.598 1.598 0 001.583 1.481h.503l.978-.009 1.966.009 3.931-.066 7.862-.206c5.245-.15 10.48-.253 15.724-.187 10.489.037 20.951.571 31.458.796.96.019 1.845-.778 1.919-1.761l.01-1.106c.009-.666.009-1.331-.019-1.996zm-1.891-35.591c-.177 2.633-.27 5.285-.345 7.927l-.223 7.928a112.675 112.675 0 000 7.928c.065 2.633.205 5.267.074 7.9-.093 1.321-.195 2.633-.195 3.945 0 .656 0 1.312.018 1.968l.01.356c-10.257.234-20.55.75-30.816.778-5.244.066-10.479-.047-15.724-.187l-7.862-.207-3.931-.065-1.966-.01-.987-.018h-.205v-.169l-.009-.984c-.019-.656-.028-1.321-.056-1.977l-.196-3.955c-.074-1.302-.121-2.671-.298-3.992a52.313 52.313 0 01-.391-3.936c-.215-2.595.028-5.191.27-7.815l.82-7.872c.26-2.624.456-5.304.326-8.021a76.706 76.706 0 00-.27-3.946c-.112-1.293-.159-2.558-.205-3.889l-.271-7.909-.121-3.954-.065-1.978-.028-.946c0-.103.093-.225.214-.216l7.863-.037c1.322 0 2.617-.047 3.903.056 1.295.094 2.589.253 3.903.375 2.645.272 5.291.075 7.909-.066 2.617-.168 5.216-.281 7.834-.243 2.617.009 5.226.168 7.853.234 2.627.103 5.281.028 7.89-.066 1.304-.037 2.608-.084 3.903-.074 1.295.009 2.58.093 3.903.103l3.94.046 1.975.019.988.01h.4v.281l.01.993c.018.665.009 1.321.046 1.987l.196 3.954c.121 2.634.344 5.267.289 7.891-.01 2.624-.224 5.247-.373 7.853z" fill="#082E4E"/><path d="M453.191 490.901a7.167 7.167 0 00-2.282-2.052 7.675 7.675 0 00-2.99-.993c.009-.057.027-.104.027-.16v-2.033a.936.936 0 00-.931-.937.937.937 0 00-.932.937v2.033c0 .056.019.103.028.15-.41.047-.81.113-1.211.216-1.006.253-1.993.665-2.859 1.274a6.537 6.537 0 00-2.031 2.418 8.66 8.66 0 00-.82 3.017c-.102 1.031-.074 2.081.177 3.102.512 2.024 1.882 3.842 3.717 4.836a7.855 7.855 0 003.018.955c-.009.047-.028.094-.028.15v2.034c0 .515.419.937.932.937a.937.937 0 00.931-.937v-2.034c0-.065-.028-.112-.037-.168a6.52 6.52 0 001.202-.244c1.984-.553 3.754-1.93 4.704-3.758.987-1.818 1.136-3.992.615-5.941a8.104 8.104 0 00-1.23-2.802zm-.661 7.994c-.867 1.424-2.245 2.511-3.838 2.942a6.27 6.27 0 01-4.732-.656c-1.398-.834-2.478-2.183-2.944-3.758-.233-.787-.354-1.621-.224-2.446.131-.815.466-1.583.913-2.258a9.278 9.278 0 011.575-1.79c.596-.534 1.294-.974 2.077-1.218a6.19 6.19 0 014.751.553c1.406.834 2.617 2.118 3.13 3.758.484 1.649.139 3.448-.708 4.873zm235.62-25.482c-.567.214-1.151.31-1.717.256-.567-.085-1.142-.32-1.727-.32-.566-.032-1.225.043-1.819.118-.603.042-1.197.096-1.801-.043a.423.423 0 00-.278.032c-.251.117-.371.437-.269.725.102.288.38.427.631.309.566-.266 1.151-.341 1.726-.319.585.032 1.105.277 1.717.351.604.086 1.188.011 1.81-.032.613-.031 1.216-.074 1.819 0a.45.45 0 00.205-.021c.25-.096.38-.405.297-.693-.084-.309-.353-.459-.594-.363zm4.938 47.031c-.836-1.301-1.04-2.932-1.123-4.371-.047-1.472.315-2.954 1.039-4.297l.01-.011a.148.148 0 00-.01-.138c-.037-.054-.102-.064-.148-.032-1.198 1.002-1.848 2.772-1.81 4.51.064 1.791.993 3.23 1.773 4.542.779 1.322.937 2.964.677 4.371-.204 1.45-.826 2.826-1.569 4.126l-.009.022c-.037.074-.046.17 0 .245a.175.175 0 00.26.053c1.198-.981 2.033-2.537 2.247-4.286.111-.864-.028-1.759-.297-2.548-.242-.81-.66-1.493-1.04-2.186zm9.949 0c-.836-1.301-1.04-2.932-1.124-4.371-.046-1.472.316-2.954 1.04-4.297l.01-.011a.183.183 0 000-.138c-.038-.054-.103-.064-.149-.032-1.198 1.002-1.847 2.772-1.81 4.51.065 1.791.993 3.23 1.773 4.542.78 1.322.937 2.964.678 4.371-.205 1.45-.827 2.826-1.569 4.126l-.01.022c-.037.074-.046.17 0 .245.065.096.177.117.26.053 1.198-.981 2.033-2.537 2.247-4.286.111-.864-.028-1.759-.297-2.548-.251-.81-.669-1.493-1.049-2.186zm9.941 0c-.836-1.301-1.04-2.932-1.124-4.371-.046-1.472.316-2.954 1.04-4.297l.009-.011a.174.174 0 000-.138c-.037-.054-.102-.064-.148-.032-1.198 1.002-1.848 2.772-1.811 4.51.065 1.791.994 3.23 1.774 4.542.779 1.322.937 2.964.677 4.371-.204 1.45-.826 2.826-1.569 4.126l-.009.022c-.037.074-.046.17 0 .245.065.096.176.117.26.053 1.198-.981 2.033-2.537 2.247-4.286.111-.864-.028-1.759-.297-2.548-.251-.81-.669-1.493-1.049-2.186z" fill="#082E4E"/><path d="M735.141 500.538l-.056-1.706-.204-6.824c-.065-2.271-.158-4.553-.195-6.824-.009-2.271.019-4.552.047-6.823.037-2.271.083-4.553.241-6.824.065-1.141.13-2.26.167-3.423.037-1.503-.891-2.942-2.135-3.401a2.698 2.698 0 00-.956-.192h-.761l-1.476-.01-2.951-.011c-1.986 0-3.982.011-5.977.16-1.986.117-4.019.554-5.922.832-.974.128-1.949.202-2.933.234a45.96 45.96 0 01-2.942-.053c-1.967-.075-3.935-.267-5.921-.437-1.986-.16-3.982-.224-5.968-.256-1.986-.032-3.963.032-5.94.032-1.968.021-3.898-.011-5.885-.032l-5.967-.075c-1.987.021-3.964-.234-5.941-.373-.631-.043-1.327.096-1.911.512-.567.426-.984 1.098-1.198 1.823a4.197 4.197 0 00-.167 1.13c-.009.373.009.597.019.896l.055 1.706.297 6.823.121 3.412c.037 1.141.102 2.271.056 3.412l-.26 6.824-.241 6.823a137.334 137.334 0 00-.075 3.423c-.018 1.557.919 3.039 2.2 3.518.316.118.65.203.984.203h.77l1.485-.021 2.979-.032c1.968.021 4.01-.118 5.978-.342 1.967-.213 3.935-.447 5.865-.479 1.94-.022 3.917.17 5.922.213 4.01 0 7.945-.373 11.899-.448a68.273 68.273 0 015.903.085c1.958.15 3.953.331 5.93.416 1.987.117 3.963.16 5.95.235 1.986.138 3.963.234 5.94.33 1.336.075 2.636-1.013 3.025-2.463.103-.351.168-.735.168-1.108.009-.352-.01-.587-.019-.885zm-20.948 2.484c-1.996-.096-3.982-.075-5.968-.043-3.963.085-7.935.352-11.843.192-1.958-.107-3.926-.373-5.94-.437-2.033-.053-4.019.117-5.986.256a77.23 77.23 0 01-3.073.17c.205-3.166.325-6.333.39-9.489l.037-2.559.01-1.279v-.64c0-.202.009-.288.046-.437.111-.522.538-.981 1.049-1.173.436-.192 1.29-.074 2.014-.128 5.931-.138 11.871-.607 17.802-.565 5.93-.01 11.87.373 17.801.48l1.114.011c.408 0 .64 0 .919.106.538.192.984.672 1.104 1.237.037.149.047.256.047.459v.639l.009 1.28.037 2.559c.074 3.241.167 6.482.362 9.734a166.011 166.011 0 01-3.991-.075c-1.995-.053-3.945-.17-5.94-.298zm19.732-11.014l-.204 6.824-.056 1.706c-.009.266-.009.607-.028.81a1.96 1.96 0 01-.12.565c-.269.714-.882 1.173-1.541 1.215l-5.931.278c-.52.01-1.039 0-1.559 0 .195-3.242.288-6.494.362-9.735l.037-2.559.009-1.279v-.64c0-.213-.018-.544-.074-.799-.241-1.109-1.039-1.92-1.912-2.218-.427-.171-.947-.171-1.281-.16l-1.113.011c-5.931.106-11.871.49-17.802.479-5.931.032-11.871-.426-17.802-.565l-1.113-.01c-.325-.011-.873-.011-1.3.16-.9.298-1.717 1.14-1.967 2.281a3.337 3.337 0 00-.075.832v.64l.01 1.279.037 2.559c.055 3.167.185 6.333.39 9.5-.771.021-1.55.021-2.33-.011l-2.961-.043-1.485-.021-.714-.011c-.168 0-.316-.053-.474-.106-.603-.256-1.039-.949-1.049-1.685a140.395 140.395 0 00-.083-3.401l-.241-6.824-.26-6.823c-.037-1.141.018-2.271.055-3.412l.121-3.412.297-6.824.056-1.706c.009-.266.009-.618.028-.81a1.98 1.98 0 01.12-.533c.13-.341.371-.608.603-.832.232-.234.53-.447.882-.49 1.977-.139 3.963-.405 5.94-.384 1.968-.021 3.917.277 5.894.533 1.958.277 3.991.469 5.986.373a278.08 278.08 0 005.94-.234c3.945-.235 7.862-.107 11.853.053 1.986.021 3.991.021 5.986-.181 1.003-.096 1.996-.309 2.952-.416a33.692 33.692 0 012.933-.171c1.958-.032 3.926.075 5.893.192a90.95 90.95 0 002.97.15l1.494.042.724.022c.177 0 .344.053.502.117.649.266 1.104 1.002 1.141 1.791.037 1.109.102 2.271.167 3.401.149 2.271.195 4.553.242 6.824.037 2.271.055 4.553.046 6.824-.046 2.292-.13 4.563-.195 6.834zm231.079 36.162c-3.59-.238-7.173-.394-10.764-.475-3.59-.096-7.173-.116-10.763-.123-7.174.027-14.354.143-21.528.632a.336.336 0 00-.305.312.326.326 0 00.305.353c7.174.482 14.354.605 21.528.632 3.59-.007 7.173-.027 10.763-.122 3.591-.075 7.174-.238 10.764-.476a.369.369 0 00.339-.346.372.372 0 00-.339-.387zm10.983-9.936l-.02-.442-.067-.876c-.205-2.329-.663-4.523-.809-6.709-.066-1.073-.053-2.228-.08-3.355l-.033-3.389c-.053-2.261.02-4.522.179-6.777.259-4.509.438-9.052.531-13.568l.08-3.403.02-.849.013-.421.007-.21-.007-.265a4.276 4.276 0 00-.617-2.037c-.73-1.25-2.144-2.004-3.544-1.99l-3.318.082c-8.832.21-17.665.509-26.498.488-8.839.021-17.671-.319-26.504-.468a4.192 4.192 0 00-2.011.441c-.623.313-1.201.802-1.519 1.447a4.59 4.59 0 00-.531 2.03l-.04 1.705c-.053 2.268-.06 4.543.02 6.818.06 2.282.279 4.536.385 6.784.159 2.255.093 4.509.126 6.771.007 2.254.013 4.516-.047 6.777-.053 2.261-.219 4.516-.384 6.777a180.79 180.79 0 00-.239 3.396l-.047.849-.026.428-.007.203v.279c.02.74.219 1.494.624 2.118.398.632.969 1.148 1.632 1.433.67.279 1.387.347 2.064.34l3.311-.075c4.42-.088 8.833-.224 13.253-.278 4.419-.075 8.832-.068 13.252-.048 4.419.027 8.832.163 13.252.306l6.623.217 3.311.095c1.108.027 2.203.089 3.318.027a4.588 4.588 0 002.064-.584c.61-.387 1.121-.91 1.546-1.5.412-.598.717-1.318.743-2.072l.007-.278-.013-.217zm-1.918-14.805l-.252 3.389c-.073 1.134-.179 2.241-.213 3.423-.046 2.336.226 4.611.279 6.797l.007.815-.007.408-.007.203-.013.15c-.026.38-.086.76-.272 1.114-.159.373-.504.618-.849.787-.345.177-.73.272-1.115.252-1.095-.055-2.21 0-3.312.027l-3.311.095-6.623.217c-4.419.143-8.832.285-13.252.306-4.419.013-8.832.027-13.252-.048-4.42-.054-8.833-.19-13.252-.278l-3.312-.075c-.424-.013-.816-.231-1.121-.489-.292-.265-.577-.516-.77-.849-.192-.319-.358-.672-.398-1.059l-.02-.15-.013-.21-.027-.421-.046-.849-.193-3.382c-.132-2.261-.245-4.523-.265-6.784-.033-2.261 0-4.523-.013-6.784.006-2.262-.126-4.523-.1-6.791-.007-2.268-.126-4.53-.08-6.771.047-2.247.18-4.488.359-6.736l.146-1.684c.04-.435.239-.829.491-1.155.272-.312.551-.591.882-.835.346-.217.75-.353 1.168-.38 8.833-.15 17.666-.489 26.505-.469 8.832-.02 17.665.278 26.504.489l3.311.081c.817.014 1.573.455 2.031 1.134.226.34.365.734.398 1.148l.014.156.006.211.013.421.014.862.086 3.389c.133 4.523.179 9.025.146 13.548a70.025 70.025 0 01-.272 6.777z" fill="#082E4E"/><defs><clipPath id="clip0_1043_5283"><path fill="#fff" transform="translate(437.334 199.502)" d="M0 0h65v40H0z"/></clipPath><clipPath id="clip1_1043_5283"><path fill="#fff" transform="translate(671.667 174.5)" d="M0 0h65v65H0z"/></clipPath><clipPath id="clip2_1043_5283"><path fill="#fff" transform="translate(906 169.5)" d="M0 0h70v70H0z"/></clipPath><clipPath id="clip3_1043_5283"><path fill="#fff" transform="translate(916 171.5)" d="M0 0h50v65H0z"/></clipPath><clipPath id="clip4_1043_5283"><path fill="#fff" transform="translate(911 319.5)" d="M0 0h65v65H0z"/></clipPath></defs></svg>