<svg xmlns="http://www.w3.org/2000/svg" width="105" height="17"><path d="M.094 16.487V13.49h.449v2.658h2.024v.339zm4.891.027c-.258 0-.489-.04-.693-.122a1.816 1.816 0 01-.543-.339 1.404 1.404 0 01-.354-.488 1.33 1.33 0 01-.122-.556c0-.204.041-.394.136-.57.082-.176.204-.339.353-.488.15-.136.34-.258.544-.339.203-.082.434-.122.679-.122.258 0 .489.04.693.135.204.082.394.204.543.353.15.149.272.298.353.488.082.177.123.366.123.556 0 .204-.041.394-.136.57a1.737 1.737 0 01-.353.488c-.15.136-.326.245-.544.34a2.657 2.657 0 01-.679.094zm-1.236-1.519c0 .15.027.299.095.448.068.149.149.271.258.38.109.108.244.19.394.257.149.068.326.095.516.095s.367-.04.516-.108c.15-.068.286-.163.394-.271.109-.109.191-.231.245-.38.054-.136.081-.285.081-.421 0-.149-.027-.298-.095-.447a1.16 1.16 0 00-.258-.38 1.313 1.313 0 00-.394-.258 1.181 1.181 0 00-.502-.095 1.53 1.53 0 00-.517.095 1.148 1.148 0 00-.394.271c-.108.109-.19.231-.244.38a.964.964 0 00-.095.434zm4.673-.786v2.278H7.96V13.49h.353l2.242 2.333v-2.32h.462v2.984h-.38zm6.644 1.872c-.327.285-.693.42-1.101.42-.245 0-.462-.04-.666-.135a1.797 1.797 0 01-.529-.339 1.55 1.55 0 01-.354-.489 1.357 1.357 0 01-.136-.569c0-.204.041-.394.123-.584.081-.176.204-.339.353-.474a1.72 1.72 0 01.53-.326c.204-.081.434-.122.679-.122.353 0 .639.068.87.176.231.122.394.285.516.475l-.353.203a1.11 1.11 0 00-.435-.393 1.456 1.456 0 00-.612-.122c-.176 0-.353.027-.502.095a1.25 1.25 0 00-.381.258 1.01 1.01 0 00-.244.38 1.248 1.248 0 00-.082.447c0 .163.028.312.095.448.068.135.15.271.272.38.109.108.245.189.394.257.15.068.313.095.503.095.394 0 .747-.163 1.06-.474v-.407h-.775v-.285h1.168v1.492h-.393zm6.52-2.591v2.997h-.461v-1.356h-1.998v1.356h-.461V13.49h.461v1.302h1.998V13.49zm1.101 2.997l1.494-2.997h.381l1.481 2.997h-.489l-.435-.881h-1.522l-.421.881zm1.685-2.55l-.68 1.384h1.332zm3.233-.433h-.462v2.997h.462zm5.421 0h-.286v2.997h.286zm5.339-.014l1.209 2.523 1.182-2.523h.489l-1.481 2.997h-.394l-1.481-2.997zm4.442.014h-.462v2.997h.462zm1.467 2.983V13.49h.462v2.658h2.025v.339zm3.628 0V13.49h.462v2.658h2.024v.339zm3.247 0l1.494-2.997h.381l1.481 2.997h-.489l-.435-.881h-1.522l-.421.881zm1.685-2.55l-.68 1.384h1.332zm4.863.19a.895.895 0 00-.394-.217 1.614 1.614 0 00-.272-.068 2.31 2.31 0 00-.312-.027c-.285 0-.489.041-.625.136a.392.392 0 00-.204.353c0 .081.014.149.055.203a.47.47 0 00.176.136c.082.04.177.067.299.095.122.027.258.054.421.081.19.041.354.068.503.122.149.041.285.095.394.163.109.068.19.149.245.23a.666.666 0 01.081.34.69.69 0 01-.109.379.826.826 0 01-.271.258 1.292 1.292 0 01-.422.149 3.174 3.174 0 01-.516.054c-.272 0-.543-.04-.788-.108a2.222 2.222 0 01-.679-.312l.217-.326c.055.055.123.095.218.15.081.04.19.095.299.135.108.041.23.068.353.095.122.027.258.041.407.041.258 0 .462-.041.598-.109.15-.081.218-.189.218-.339a.418.418 0 00-.068-.217.505.505 0 00-.204-.149 1.805 1.805 0 00-.326-.108c-.136-.028-.286-.068-.449-.095a15.883 15.883 0 01-.489-.122 1.718 1.718 0 01-.353-.15.652.652 0 01-.217-.217.533.533 0 01-.068-.298c0-.149.027-.271.095-.38a.906.906 0 01.272-.285 1.39 1.39 0 01.407-.176c.163-.041.34-.054.516-.054.245 0 .462.027.666.095.19.054.367.149.53.244zm5.924 2.361l-.381-.326a1.668 1.668 0 01-1.073.366c-.163 0-.326-.027-.462-.067a.925.925 0 01-.367-.177.734.734 0 01-.34-.596c0-.096.014-.19.055-.272a.885.885 0 01.163-.23c.068-.068.149-.136.231-.19.081-.055.176-.122.272-.177-.082-.081-.163-.149-.218-.203-.054-.068-.108-.122-.136-.176a.563.563 0 01-.081-.15.471.471 0 01-.027-.149.61.61 0 01.068-.271.941.941 0 01.19-.217.862.862 0 01.299-.136c.108-.027.244-.054.366-.054.123 0 .245.014.34.041a.877.877 0 01.285.122c.082.054.136.122.191.19.04.081.068.162.068.257a.444.444 0 01-.055.231 1.044 1.044 0 01-.407.38 3.022 3.022 0 00-.286.176l.924.8c.068-.095.109-.217.15-.325.04-.122.054-.244.054-.38h.367c0 .176-.027.353-.082.515a1.317 1.317 0 01-.231.434l.707.597h-.584zm-1.413-.258c.149 0 .298-.027.434-.081.136-.055.258-.122.354-.217l-1.033-.896c-.163.095-.285.19-.394.299a.515.515 0 00-.149.353.454.454 0 00.244.393c.068.04.163.081.245.108a.755.755 0 00.299.041zm-.544-2.102c0 .027 0 .067.014.095.013.027.027.067.068.108.027.041.068.081.122.136.054.054.122.108.19.176.177-.095.313-.19.435-.271.109-.082.163-.177.163-.285 0-.095-.041-.176-.136-.244a.556.556 0 00-.34-.095.703.703 0 00-.38.108.318.318 0 00-.136.272zm8.315 1.586a.632.632 0 01-.082.312.777.777 0 01-.231.244 1.278 1.278 0 01-.747.217h-1.725V13.49H69c.123 0 .245.027.34.067.109.041.19.109.258.177a.773.773 0 01.163.244.642.642 0 01.055.271c0 .15-.041.285-.136.407a.913.913 0 01-.381.285.972.972 0 01.489.285.731.731 0 01.191.488zm-2.324-1.885v1.004h1.155a.637.637 0 00.231-.041.751.751 0 00.177-.109c.054-.04.081-.095.122-.162.041-.068.041-.122.041-.19a.55.55 0 00-.041-.204.485.485 0 00-.272-.271.563.563 0 00-.217-.041h-1.196zm1.848 1.817a.44.44 0 00-.041-.19.37.37 0 00-.122-.162.472.472 0 00-.176-.109.64.64 0 00-.231-.04h-1.291v1.03h1.263a.637.637 0 00.421-.149.367.367 0 00.123-.163.46.46 0 00.054-.217zm4.198.502v.339h-2.473V13.49h2.419v.339H71.69v.976h1.699v.312H71.69v1.031zm.883.339l1.494-2.997h.381l1.481 2.997h-.489l-.435-.881h-1.522l-.421.881zm1.685-2.55l-.68 1.384h1.332zm2.54 1.031c0-.176.041-.353.109-.543.082-.176.19-.339.34-.474.149-.136.326-.258.543-.339.217-.082.462-.136.734-.136.326 0 .597.054.828.176.231.122.408.271.517.475l-.367.19a1.158 1.158 0 00-.19-.244 1.286 1.286 0 00-.245-.163 1.134 1.134 0 00-.285-.082c-.095-.013-.19-.027-.285-.027-.204 0-.381.028-.53.109-.15.068-.286.163-.394.271-.109.109-.19.231-.245.38a1.164 1.164 0 00-.081.42c0 .163.027.312.095.448s.149.271.258.38a1.242 1.242 0 00.897.353c.095 0 .19-.014.298-.028.095-.013.191-.054.286-.095.095-.04.176-.095.258-.162a.68.68 0 00.19-.244l.38.176a.84.84 0 01-.244.298 1.513 1.513 0 01-.353.217 2.135 2.135 0 01-.421.136 2.38 2.38 0 01-.435.041c-.245 0-.476-.041-.679-.136a1.87 1.87 0 01-.544-.353 1.717 1.717 0 01-.353-.488 2.479 2.479 0 01-.082-.556zm7.241-1.478v2.997h-.462v-1.356h-1.997v1.356h-.462V13.49h.462v1.302h1.997V13.49zm3.152 1.478a1.445 1.445 0 01.462-1.017 1.67 1.67 0 01.544-.339c.217-.082.461-.136.733-.136.326 0 .598.054.829.176.231.122.408.271.516.475l-.367.19a1.158 1.158 0 00-.19-.244 1.28 1.28 0 00-.244-.163.995.995 0 00-.286-.082c-.095-.013-.19-.027-.285-.027-.204 0-.38.028-.53.109a1.38 1.38 0 00-.394.271c-.108.109-.19.231-.244.38a1.144 1.144 0 00-.082.42c0 .163.027.312.095.448s.15.271.258.38a1.249 1.249 0 00.897.353c.095 0 .19-.014.299-.028.095-.013.19-.054.285-.095.095-.04.177-.095.258-.162a.671.671 0 00.191-.244l.38.176a.843.843 0 01-.245.298 1.493 1.493 0 01-.353.217 2.135 2.135 0 01-.421.136 2.364 2.364 0 01-.435.041 1.6 1.6 0 01-.679-.136 1.851 1.851 0 01-.543-.353 1.721 1.721 0 01-.354-.488 1.918 1.918 0 01-.095-.556zm4.321 1.519V13.49h.461v2.658h2.025v.339zm4.918-.325c.203 0 .38-.027.53-.095a.937.937 0 00.339-.258.903.903 0 00.176-.366 1.45 1.45 0 00.055-.421v-1.519h.462v1.519c0 .204-.028.394-.082.57a1.279 1.279 0 01-.271.475 1.336 1.336 0 01-.476.325c-.19.082-.434.122-.707.122-.284 0-.529-.04-.733-.135a1.132 1.132 0 01-.476-.339 1.264 1.264 0 01-.258-.475 1.908 1.908 0 01-.081-.556V13.49h.461v1.519c0 .149.015.298.055.434.041.136.095.258.177.366.082.109.19.19.326.258.122.068.285.095.503.095zm5.746-.448a.631.631 0 01-.081.312.78.78 0 01-.232.244 1.114 1.114 0 01-.339.163 1.278 1.278 0 01-.407.054h-1.725V13.49h1.806c.122 0 .244.027.34.067.109.041.19.109.258.177a.79.79 0 01.163.244.64.64 0 01.054.271c0 .15-.041.285-.135.407a.92.92 0 01-.381.285.976.976 0 01.489.285c.136.149.19.298.19.488zm-2.323-1.885v1.004h1.155a.637.637 0 00.231-.041c.068-.027.122-.068.176-.109.055-.04.082-.095.123-.162a.452.452 0 00.041-.19.57.57 0 00-.041-.204.5.5 0 00-.109-.163.71.71 0 00-.163-.108.567.567 0 00-.217-.041h-1.196zm1.861 1.817a.427.427 0 00-.041-.19.355.355 0 00-.122-.162.468.468 0 00-.177-.109.633.633 0 00-.231-.04h-1.29v1.03h1.264a.64.64 0 00.421-.149.373.373 0 00.122-.163.46.46 0 00.054-.217zM31.749 7.508h8.205c.326 0 .788-.027 1.169-.326.353-.298.353-.909.353-.99v-3.16c-.014-1.208-.965-2.225-2.16-2.225h-8.192c-1.196 0-2.147 1.031-2.16 2.225v6.673c.013 1.207.964 2.225 2.16 2.225h10.148V9.976c0-.027 0-.325-.204-.474-.163-.095-.407-.095-.407-.095l-8.899-.014zm.013-4.219h6.481c.516 0 .733.407.747.95 0 .542-.231.949-.747.949h-6.481zM53.16 5.174h-8.206c-.326 0-.788.028-1.169.326-.353.298-.353.909-.353.99v3.161c.014 1.207.965 2.224 2.16 2.224h8.192c1.196 0 2.147-1.031 2.161-2.224V2.977C55.931 1.77 54.98.753 53.784.753H43.636v1.953c0 .027 0 .325.204.475.163.095.407.095.407.095l8.899.013zm-.014 4.219h-6.48c-.517 0-.734-.407-.748-.95 0-.542.231-.949.748-.949h6.48zm28.978-4.219h-8.206c-.326 0-.788.028-1.168.326-.353.298-.353.909-.353.99v3.161c.013 1.207.964 2.224 2.16 2.224h8.192c1.196 0 2.147-1.031 2.16-2.224V2.977c-.013-1.207-.964-2.224-2.16-2.224H72.6v1.953c0 .027 0 .325.204.475.163.095.408.095.408.095l8.898.013zm-.014 4.219h-6.48c-.516 0-.734-.407-.747-.95 0-.542.231-.949.747-.949h6.48zm9.66-1.6v3.391c0 .109.013.678.543.678h2.228V3.547c0-.013 0-.325.326-.325h1.766v8.315c-.013.312.313.325.326.325h2.446V2.964C99.391 1.757 98.441.74 97.245.74h-8.179c-1.195 0-2.146 1.017-2.16 2.224v8.898h2.446c.013 0 .326 0 .326-.312V3.235h1.766c.312-.013.326.312.326.326V5.08zM.04 7.806v1.953c.013 1.167 1.019 2.103 2.201 2.13h8.097c1.182-.027 2.173-.963 2.201-2.13V2.991c-.014-1.207-.965-2.225-2.161-2.225H2.2C1.004.766.053 1.784.04 2.991V5.31zm2.744-3.947c0-.339.272-.61.611-.61h5.788a.63.63 0 01.625.624v4.815a.657.657 0 01-.136.393.513.513 0 01-.245.204.624.624 0 01-.271.067H3.45a.637.637 0 01-.639-.637V3.859zM103.603.753h-2.241v10.43c0 .109.013.679.543.679h2.228V1.282c.014-.285-.231-.529-.53-.529zm-33.19 2.224C70.4 1.77 69.449.753 68.253.753h-8.178c-1.182 0-2.147 1.017-2.161 2.224v8.885h2.446c.013 0 .326 0 .326-.312V3.235h6.344c.34 0 .612.271.612.61v7.705c-.014.312.312.325.326.325h2.445V3.004zm-43.419 8.03V9.814a.476.476 0 00-.462-.461H18c-.109 0-.679-.014-.679-.543V3.751c0-.529.557-.543.679-.543h8.532a.458.458 0 00.462-.461V1.553a.838.838 0 00-.816-.827h-9.455a2.323 2.323 0 00-1.495.583 2.333 2.333 0 00-.72 1.641v6.66c.014.638.286 1.235.72 1.642.394.352.924.583 1.495.583h9.455a.848.848 0 00.816-.828z" fill="#212121"/></svg>