<svg xmlns="http://www.w3.org/2000/svg" width="54" height="61"><path d="M41.61 18.819c0 .823-.081 1.632-.228 2.429l2.782 4.792c4.011-9.557-.549-20.548-10.176-24.53A19.026 19.026 0 0029.161.222l2.754 4.765c5.817 2.151 9.681 7.659 9.695 13.832zm-29.779 0c0-6.159 3.865-11.681 9.681-13.832L24.28.222C13.931 1.563 6.643 10.974 7.98 21.248a18.523 18.523 0 001.297 4.779l2.782-4.792a13.33 13.33 0 01-.228-2.416zM36.569 29.89c-5.617 4.938-14.054 4.938-19.67 0h-5.415c6.137 8.349 17.931 10.194 26.341 4.102a18.87 18.87 0 004.132-4.102zM.372 42.234h2.233v13.95H.372zm4.907 9.49c-.013-.65.12-1.314.375-1.911a4.512 4.512 0 011.029-1.473c.441-.412.963-.73 1.538-.943a5.497 5.497 0 013.797 0 4.712 4.712 0 011.538.943c.441.411.789.916 1.03 1.473.267.597.387 1.261.387 1.911a4.545 4.545 0 01-.387 1.925 4.587 4.587 0 01-1.03 1.487 4.875 4.875 0 01-1.538.969 5.353 5.353 0 01-3.797 0 4.784 4.784 0 01-1.538-.969 4.569 4.569 0 01-1.029-1.487 5.24 5.24 0 01-.375-1.925zm2.273 0c0 .346.054.704.161 1.036.107.332.267.637.481.916.214.279.481.504.802.663.361.186.749.266 1.15.253.402.013.803-.08 1.15-.253a2.4 2.4 0 00.803-.663c.214-.279.374-.584.468-.916a3.416 3.416 0 000-2.058 2.713 2.713 0 00-.468-.915 2.366 2.366 0 00-.803-.651 2.474 2.474 0 00-1.15-.252 2.476 2.476 0 00-1.15.252 2.537 2.537 0 00-.802.651 3.006 3.006 0 00-.481.915 3.348 3.348 0 00-.174 1.022zm19.122 4.474h-2.126v-1.327h-.041a2.92 2.92 0 01-1.297 1.181 4.1 4.1 0 01-1.778.412 4.458 4.458 0 01-1.845-.372 4.139 4.139 0 01-1.378-1.022 4.34 4.34 0 01-.869-1.5 5.68 5.68 0 01-.307-1.832 5.053 5.053 0 01.307-1.831 4.296 4.296 0 01.896-1.474 4.169 4.169 0 013.116-1.354 3.922 3.922 0 011.939.478 2.9 2.9 0 01.615.438c.16.146.294.292.428.465h.053v-6.239h2.233zm-7.368-4.473c0 .345.053.704.16 1.035.107.332.268.638.482.916.214.279.481.505.802.664a2.538 2.538 0 003.062-.65 3.005 3.005 0 00.695-1.938c0-.346-.067-.704-.173-1.036a2.844 2.844 0 00-1.351-1.593 2.263 2.263 0 00-1.096-.252 2.424 2.424 0 00-1.137.252 2.54 2.54 0 00-.802.651 3.014 3.014 0 00-.482.916c-.093.332-.147.69-.16 1.035zm19.616-4.393v8.071c.013.73-.094 1.46-.308 2.163a4.181 4.181 0 01-.922 1.646 4.064 4.064 0 01-1.565 1.035 6.184 6.184 0 01-2.246.372 8.27 8.27 0 01-2.34-.372 6.693 6.693 0 01-1.11-.464 5.194 5.194 0 01-.963-.624l1.271-1.712c.427.398.922.716 1.47.929a4.395 4.395 0 001.658.318c.455.014.923-.066 1.351-.225.334-.133.642-.359.869-.637.227-.279.388-.611.482-.956.093-.398.147-.81.147-1.221v-.637h-.041a3.21 3.21 0 01-1.23.995 3.912 3.912 0 01-1.684.345 4.299 4.299 0 01-1.819-.371 4.099 4.099 0 01-1.377-.996 4.479 4.479 0 01-.883-1.473 5.031 5.031 0 01-.307-1.779c0-.611.093-1.221.307-1.805a4.228 4.228 0 01.869-1.474c.388-.425.856-.77 1.378-.995a4.506 4.506 0 011.818-.372c.615 0 1.217.133 1.765.385a2.962 2.962 0 011.297 1.195h.04v-1.328zm-4.76 1.553a2.329 2.329 0 00-1.083.226 2.395 2.395 0 00-.803.61 2.65 2.65 0 00-.494.89c-.121.358-.188.73-.174 1.101a3.05 3.05 0 00.668 1.925c.214.266.495.478.803.637.334.16.695.239 1.069.239a2.509 2.509 0 001.939-.849c.227-.266.415-.571.522-.89.12-.332.187-.69.187-1.062 0-.371-.067-.743-.187-1.088a2.993 2.993 0 00-.522-.916 2.532 2.532 0 00-.829-.611 2.83 2.83 0 00-1.096-.212zm7.193-4.912c0-.464.188-.902.522-1.221a1.802 1.802 0 011.31-.518c.495-.013.976.16 1.337.491.682.637.722 1.699.094 2.376-.027.027-.053.067-.094.093a1.892 1.892 0 01-1.337.491 1.776 1.776 0 01-1.31-.517 1.625 1.625 0 01-.522-1.195zm2.982 3.358h-2.233v8.854h2.233zm8.063 2.364a2.83 2.83 0 00-.815-.677 2.412 2.412 0 00-1.137-.292 2.16 2.16 0 00-.989.225.741.741 0 00-.442.744.746.746 0 00.495.73 9.01 9.01 0 001.444.438c.348.079.682.186 1.016.305.335.12.642.279.923.491.281.199.508.465.682.757a2.1 2.1 0 01.254 1.102c.013.477-.094.955-.308 1.38a2.83 2.83 0 01-.815.916 3.497 3.497 0 01-1.19.504 5.917 5.917 0 01-3.437-.212 4.212 4.212 0 01-1.631-1.075l1.471-1.367c.254.331.588.597.963.796.414.212.855.319 1.323.305a2.024 2.024 0 00.963-.225c.134-.08.254-.186.348-.332a.911.911 0 00.133-.491.796.796 0 00-.494-.797 7.731 7.731 0 00-1.538-.478 6.248 6.248 0 01-.976-.292 2.904 2.904 0 01-.843-.464 1.917 1.917 0 01-.588-.717 2.217 2.217 0 01-.227-1.049 2.49 2.49 0 01.307-1.274 2.66 2.66 0 01.803-.876 3.937 3.937 0 011.136-.504 5.4 5.4 0 011.297-.173 5.37 5.37 0 011.886.332 3.135 3.135 0 011.457 1.022z" fill="##212121"/></svg>