<svg width="1180" height="700" fill="none" xmlns="http://www.w3.org/2000/svg"><path fill="#fff" d="M0 0h1180v700H0z"/><path d="M3.816 200.328v-6.696c4.968 7.272 11.232 9.36 18.216 9.36 9.144 0 15.192-5.04 15.192-12.096 0-7.704-4.824-11.232-14.04-14.688l-3.744-1.368c-10.152-3.672-14.256-8.568-14.256-14.904 0-8.928 7.2-13.896 16.776-13.896 6.624 0 11.88 1.584 16.2 4.104v6.696c-4.248-6.336-10.152-8.784-16.272-8.784-6.192 0-12.816 2.736-12.816 10.872 0 6.768 4.68 9.648 11.304 12.168l3.24 1.224c7.776 2.88 17.424 6.624 17.424 17.064 0 8.856-7.128 15.624-19.152 15.624-6.984 0-12.96-1.584-18.072-4.68zm65.102-1.944c-2.52 4.32-6.409 6.624-11.305 6.624-6.335 0-10.08-3.888-10.08-8.712 0-7.56 8.785-10.728 21.745-10.944l.072-3.672c.216-7.776-1.8-12.168-8.136-12.168-4.105 0-7.992 1.872-7.2 6.552.287 1.8-.433 3.24-1.945 3.24-1.656 0-2.232-1.08-2.232-2.736 0-4.824 5.616-8.64 11.592-8.64 8.569 0 11.736 4.104 11.52 12.96l-.36 17.928c-.072 2.232.72 3.456 2.808 3.456 1.368 0 3.096-.864 3.888-2.52l.145.072c-.793 2.808-2.449 4.68-5.329 4.68-3.383 0-5.183-1.656-5.111-6.264l.288-11.88c-11.593.216-17.569 3.6-17.569 9.288 0 4.896 3.744 6.984 7.488 6.984 3.672 0 7.2-1.44 9.72-4.248zM111.7 204v-20.088c0-5.76-.792-8.496-2.52-10.44-1.512-1.656-3.816-2.664-6.768-2.664-5.976 0-9.936 3.6-11.664 8.496 1.656-7.488 6.84-11.232 12.888-11.232 3.744 0 6.624 1.08 8.64 3.168 2.088 2.232 3.168 5.328 3.168 11.88V204H111.7zm-24.696 0v-34.632h3.744V204h-3.744zm64.725-23.472c0-6.048-3.744-10.872-10.368-10.872-6.336 0-10.08 4.248-10.08 10.872 0 6.984 4.536 10.872 10.08 10.872 5.688 0 10.368-3.816 10.368-10.872zm8.784 29.304c0 9.432-8.928 13.32-18.936 13.32-11.088 0-17.352-4.536-17.352-10.008 0-4.392 4.608-7.704 12.096-8.856-6.264 0-9.072-2.52-9.072-5.616 0-3.528 3.816-5.616 10.44-6.264-6.624-1.368-10.584-5.76-10.584-11.88 0-8.28 6.048-12.24 14.256-12.24 2.232 0 4.68.576 6.984 1.728l14.184-.432v3.024l-12.888-1.8c3.384 2.016 6.048 5.4 6.048 9.72 0 7.704-6.048 12.24-14.328 12.24-1.08 0-2.664-.144-3.6-.36-4.32.792-6.696 2.52-6.696 4.752 0 2.52 2.448 3.528 6.984 3.528h6.336c9.432 0 16.128 2.016 16.128 9.144zm-32.472 3.312c0 5.184 4.968 8.784 13.32 8.784 6.984 0 15.84-2.448 15.84-9.864 0-4.824-2.952-7.776-13.032-7.776h-7.848c-5.688 2.016-8.28 4.608-8.28 8.856zm43.161-65.808h10.944c14.256 0 22.536 2.88 22.536 13.464 0 7.056-5.761 12.24-14.4 13.176 10.656.216 17.856 5.472 17.856 14.4 0 4.176-1.08 7.488-3.241 9.864-4.247 4.68-11.663 5.76-22.535 5.76h-11.16v-56.664zm4.032 1.944v24.192h7.128c12.672 0 17.784-5.04 17.784-12.528 0-8.928-5.616-11.664-18.432-11.664h-6.48zm0 52.776h7.2c11.448 0 16.487-1.8 19.008-5.328 1.512-2.088 2.232-4.752 2.232-7.992 0-8.28-5.04-13.464-19.368-13.464h-9.072v26.784zm43.676-54.72h3.744V204h-3.744v-56.664zM260.092 204v-34.632h3.744V204h-3.744zm-23.76-34.632h3.744v23.112c0 5.76 2.592 9.792 9.144 9.792 5.184 0 9.216-3.384 10.872-7.704-1.944 6.984-6.48 10.44-12.24 10.44-7.848 0-11.52-4.608-11.52-12.456v-23.184zm55.459-.144c-7.128 0-11.232 4.536-12.672 10.872h22.968c-.216-7.488-4.896-10.872-10.296-10.872zm13.824 28.656l.144.144c-3.384 4.896-8.064 6.984-14.04 6.984-10.008 0-17.28-7.272-17.28-19.296 0-10.656 7.632-18.072 17.208-18.072 8.352 0 13.896 5.472 14.544 13.896h-27.36c-.216 1.368-.288 2.664-.288 4.032 0 9.504 5.112 16.848 14.76 16.848 4.248 0 8.928-1.08 12.312-4.536zm23.889 2.448v-6.696c4.968 7.272 11.232 9.36 18.216 9.36 9.144 0 15.192-5.04 15.192-12.096 0-7.704-4.824-11.232-14.04-14.688l-3.744-1.368c-10.152-3.672-14.256-8.568-14.256-14.904 0-8.928 7.2-13.896 16.776-13.896 6.624 0 11.88 1.584 16.2 4.104v6.696c-4.248-6.336-10.152-8.784-16.272-8.784-6.192 0-12.816 2.736-12.816 10.872 0 6.768 4.68 9.648 11.304 12.168l3.24 1.224c7.776 2.88 17.424 6.624 17.424 17.064 0 8.856-7.128 15.624-19.152 15.624-6.984 0-12.96-1.584-18.072-4.68zm65.101-1.944c-2.52 4.32-6.408 6.624-11.304 6.624-6.336 0-10.08-3.888-10.08-8.712 0-7.56 8.784-10.728 21.744-10.944l.072-3.672c.216-7.776-1.8-12.168-8.136-12.168-4.104 0-7.992 1.872-7.2 6.552.288 1.8-.432 3.24-1.944 3.24-1.656 0-2.232-1.08-2.232-2.736 0-4.824 5.616-8.64 11.592-8.64 8.568 0 11.736 4.104 11.52 12.96l-.36 17.928c-.072 2.232.72 3.456 2.808 3.456 1.368 0 3.096-.864 3.888-2.52l.144.072c-.792 2.808-2.448 4.68-5.328 4.68-3.384 0-5.184-1.656-5.112-6.264l.288-11.88c-11.592.216-17.568 3.6-17.568 9.288 0 4.896 3.744 6.984 7.488 6.984 3.672 0 7.2-1.44 9.72-4.248zM437.388 204v-20.088c0-5.76-.792-8.496-2.52-10.44-1.512-1.656-3.816-2.664-6.768-2.664-5.976 0-9.936 3.6-11.664 8.496 1.656-7.488 6.84-11.232 12.888-11.232 3.744 0 6.624 1.08 8.64 3.168 2.088 2.232 3.168 5.328 3.168 11.88V204h-3.744zm-24.696 0v-34.632h3.744V204h-3.744zm41.109-7.128c1.872 0 2.376 2.16 3.312 3.6 1.296 2.016 3.456 3.024 6.552 3.024 5.544 0 9.144-2.664 9.144-7.344 0-4.968-3.672-6.768-8.928-8.496l-2.376-.792c-6.84-2.304-9.144-5.472-9.144-9.792 0-4.968 4.104-9.144 11.592-9.144 6.192 0 11.16 2.52 11.16 5.4 0 1.224-.576 1.872-1.8 1.872-1.656 0-2.088-1.8-3.024-3.168-1.44-2.232-4.536-2.592-6.624-2.592-4.968 0-7.992 2.808-7.992 6.624 0 4.248 3.168 6.12 7.704 7.632l2.16.72c7.992 2.664 10.8 5.544 10.8 10.512 0 6.048-5.256 10.08-12.744 10.08-7.2 0-12.024-3.096-12.024-5.904 0-1.512.72-2.232 2.232-2.232zM4.294 72.728V80H2.086V63.2h2.208v7.512h9.624V63.2h2.208V80h-2.208v-7.272H4.294zm25.399 3.84c-.384 1.152-1 2.056-1.848 2.712-.848.64-1.928.96-3.24.96a6.34 6.34 0 01-2.304-.408 5.483 5.483 0 01-1.824-1.2 5.844 5.844 0 01-1.176-1.896c-.288-.752-.432-1.584-.432-2.496 0-.816.128-1.576.384-2.28.272-.72.64-1.344 1.104-1.872a5.276 5.276 0 011.704-1.248c.672-.304 1.416-.456 2.232-.456 1.52 0 2.744.44 3.672 1.32.928.864 1.392 2.04 1.392 3.528 0 .496-.048.96-.144 1.392h-8.232c0 .624.096 1.176.288 1.656.192.464.448.856.768 1.176.336.32.72.56 1.152.72.432.16.904.24 1.416.24.88 0 1.592-.216 2.136-.648.544-.448.928-1.08 1.152-1.896l1.8.696zm-2.4-3.432l.024-.336c0-.816-.296-1.448-.888-1.896-.576-.464-1.296-.696-2.16-.696-.88 0-1.624.264-2.232.792-.592.512-.944 1.224-1.056 2.136h6.312zm4.283 3.624c0-.576.104-1.08.312-1.512.208-.448.496-.816.864-1.104a3.792 3.792 0 011.344-.672c.512-.16 1.08-.24 1.704-.24.848 0 1.656.12 2.424.36l1.032.288v-1.176c0-.832-.264-1.464-.792-1.896-.512-.448-1.2-.672-2.064-.672-.816 0-1.488.208-2.016.624-.528.416-.864.992-1.008 1.728l-1.872-.528c.224-1.104.76-1.976 1.608-2.616.848-.64 1.944-.96 3.288-.96 1.552 0 2.744.4 3.576 1.2.848.784 1.272 1.88 1.272 3.288V80h-1.992v-1.8c-.288.608-.784 1.104-1.488 1.488-.704.368-1.512.552-2.424.552-1.056 0-1.952-.312-2.688-.936-.72-.64-1.08-1.488-1.08-2.544zm7.68-1.248L38.2 75.2c-.8-.24-1.504-.36-2.112-.36-.736 0-1.32.152-1.752.456-.416.304-.624.752-.624 1.344 0 .528.192.96.576 1.296.4.32.984.48 1.752.48.96 0 1.736-.232 2.328-.696.592-.48.888-1.136.888-1.968v-.24zm4.504-1.128c0-.88.128-1.688.384-2.424a5.644 5.644 0 011.08-1.896 5.051 5.051 0 011.68-1.224 5.018 5.018 0 012.136-.456c.88 0 1.656.208 2.328.624.672.4 1.192.96 1.56 1.68V63.2h2.088V80h-1.992v-2.04a4.434 4.434 0 01-1.608 1.656c-.688.416-1.464.624-2.328.624a5.585 5.585 0 01-2.16-.408 4.89 4.89 0 01-1.68-1.2 6.034 6.034 0 01-1.104-1.872c-.256-.72-.384-1.512-.384-2.376zm9.264-.024c0-.624-.104-1.192-.312-1.704a4.071 4.071 0 00-.816-1.296 3.605 3.605 0 00-1.152-.816 3.22 3.22 0 00-2.664 0 3.605 3.605 0 00-1.152.816 4.071 4.071 0 00-.816 1.296c-.192.496-.288 1.064-.288 1.704 0 .64.096 1.216.288 1.728.208.496.48.92.816 1.272a3.53 3.53 0 002.496 1.032 3.47 3.47 0 001.32-.264 3.797 3.797 0 001.152-.792c.336-.352.608-.776.816-1.272.208-.496.312-1.064.312-1.704zm7.254-5.736V80h-2.064V68.624h2.064zm-2.184-4.368h2.303v2.424h-2.303v-2.424zM63.486 80V68.624h2.064v1.848c.4-.672.92-1.184 1.56-1.536.64-.368 1.368-.552 2.184-.552 1.216 0 2.184.368 2.904 1.104.736.736 1.104 1.776 1.104 3.12V80h-2.088v-6.768c0-1.008-.232-1.76-.696-2.256-.448-.512-1.08-.768-1.896-.768-.432 0-.84.088-1.224.264-.368.16-.688.392-.96.696-.272.304-.488.68-.648 1.128-.16.432-.24.92-.24 1.464V80h-2.064zm14.855.696c.448 1.648 1.568 2.472 3.36 2.472 1.104 0 1.936-.352 2.496-1.056.56-.688.84-1.68.84-2.976v-1.272c-.336.64-.84 1.16-1.512 1.56-.672.384-1.488.576-2.448.576-.72 0-1.4-.128-2.04-.384a5.077 5.077 0 01-1.68-1.152 5.91 5.91 0 01-1.128-1.776c-.272-.704-.408-1.48-.408-2.328 0-.88.136-1.688.408-2.424a6.077 6.077 0 011.152-1.896 4.986 4.986 0 011.704-1.224 5.195 5.195 0 012.112-.432c1.712 0 2.992.648 3.84 1.944v-1.704h2.088v10.368c0 1.776-.472 3.224-1.416 4.344-.944 1.104-2.28 1.656-4.008 1.656-2.736 0-4.48-1.168-5.232-3.504l1.872-.792zm6.792-6.48c0-.576-.096-1.104-.288-1.584a3.709 3.709 0 00-.744-1.272 3.154 3.154 0 00-1.152-.84 3.22 3.22 0 00-1.416-.312c-.528 0-1.016.096-1.464.288a3.154 3.154 0 00-1.152.84c-.32.352-.576.792-.768 1.32a5.296 5.296 0 00-.264 1.728c0 .576.088 1.104.264 1.584.192.464.448.864.768 1.2.32.32.704.568 1.152.744a3.97 3.97 0 001.464.264c.512 0 .984-.096 1.416-.288a3.286 3.286 0 001.152-.816c.32-.352.568-.768.744-1.248a4.416 4.416 0 00.288-1.608z" fill="#000"/><path fill="#DFBE5F" d="M0 431h295v216H0z"/><path d="M33.008 611.076v-1.044h2.97l.522-2.646h-2.952v-1.044h3.168l.792-3.942h1.08l-.792 3.942h3.168l.792-3.942h1.08l-.792 3.942h2.952v1.044h-3.168l-.522 2.646h3.15v1.044H41.09L40.316 615h-1.08l.774-3.924h-3.168L36.068 615h-1.08l.774-3.924h-2.754zm7.218-1.044l.522-2.646H37.58l-.522 2.646h3.168zm7.224-7.632h4.59c.972 0 1.836.156 2.592.468.756.312 1.392.75 1.908 1.314.528.552.93 1.212 1.206 1.98.276.768.414 1.614.414 2.538 0 .924-.138 1.77-.414 2.538a5.712 5.712 0 01-1.206 1.998 5.38 5.38 0 01-1.908 1.296c-.756.312-1.62.468-2.592.468h-4.59v-12.6zm1.26 11.448h3.33c1.548 0 2.742-.45 3.582-1.35.852-.912 1.278-2.178 1.278-3.798s-.426-2.88-1.278-3.78c-.84-.912-2.034-1.368-3.582-1.368h-3.33v10.296zM68.936 602.4v1.152h-7.218v4.752h6.678v1.152h-6.678V615h-1.26v-12.6h8.478zm2.42 0h5.454c.612 0 1.158.084 1.638.252.48.156.888.378 1.224.666.336.288.594.63.774 1.026.18.384.27.804.27 1.26 0 .624-.168 1.2-.504 1.728-.336.516-.762.9-1.278 1.152.72.312 1.272.714 1.656 1.206.384.492.576 1.134.576 1.926 0 .48-.102.93-.306 1.35a3.281 3.281 0 01-.846 1.062c-.348.3-.768.54-1.26.72a4.71 4.71 0 01-1.566.252h-5.832v-12.6zm5.688 5.58c.72 0 1.308-.192 1.764-.576.456-.396.684-.942.684-1.638 0-.684-.24-1.224-.72-1.62a2.674 2.674 0 00-1.728-.594h-4.428v4.428h4.428zm.126 5.868c.792 0 1.434-.204 1.926-.612.504-.42.756-1.008.756-1.764s-.252-1.344-.756-1.764c-.492-.432-1.134-.648-1.926-.648h-4.554v4.788h4.554zM91.999 602.4v1.152h-7.236v4.356h6.695v1.152h-6.695v4.788h7.415V615h-8.675v-12.6h8.496zm10.549 1.044h-6.732c0 .312-.012.654-.036 1.026a31.577 31.577 0 01-.27 2.43c-.06.396-.126.78-.198 1.152a4.591 4.591 0 011.53-1.134c.624-.3 1.332-.45 2.124-.45a4.32 4.32 0 011.584.288c.504.18.936.45 1.296.81.372.348.66.78.864 1.296.216.504.324 1.08.324 1.728 0 .684-.108 1.308-.324 1.872a4.284 4.284 0 01-.918 1.44 4.14 4.14 0 01-1.44.954c-.552.216-1.17.324-1.854.324-1.152 0-2.124-.306-2.916-.918-.78-.612-1.266-1.512-1.458-2.7l1.044-.288c.168.936.528 1.65 1.08 2.142.564.48 1.314.72 2.25.72.552 0 1.038-.084 1.458-.252.42-.168.774-.396 1.062-.684.288-.3.504-.654.648-1.062.144-.42.216-.876.216-1.368 0-.984-.27-1.77-.81-2.358-.528-.6-1.35-.9-2.466-.9a3.62 3.62 0 00-1.926.54c-.612.372-1.05.816-1.314 1.332l-1.152-.288c.108-.624.192-1.218.252-1.782.072-.576.132-1.134.18-1.674.048-.54.078-1.074.09-1.602.024-.528.036-1.074.036-1.638h7.776v1.044zm11.194-1.044v1.152h-7.218v4.752h6.678v1.152h-6.678V615h-1.26v-12.6h8.478z" fill="#fff"/><path fill="#936B38" d="M295 431h295v216H295z"/><path d="M328.008 611.076v-1.044h2.97l.522-2.646h-2.952v-1.044h3.168l.792-3.942h1.08l-.792 3.942h3.168l.792-3.942h1.08l-.792 3.942h2.952v1.044h-3.168l-.522 2.646h3.15v1.044h-3.366l-.774 3.924h-1.08l.774-3.924h-3.168l-.774 3.924h-1.08l.774-3.924h-2.754zm7.218-1.044l.522-2.646h-3.168l-.522 2.646h3.168zm7.674 1.152c.096.948.42 1.68.972 2.196.564.504 1.332.756 2.304.756.48 0 .936-.102 1.368-.306a3.254 3.254 0 001.17-.99c.336-.456.606-1.032.81-1.728.204-.696.312-1.524.324-2.484l-.018-.594a3.87 3.87 0 01-1.476 1.782c-.672.456-1.392.684-2.16.684-.6 0-1.158-.096-1.674-.288a3.979 3.979 0 01-1.35-.828 4.032 4.032 0 01-.918-1.296 4.386 4.386 0 01-.324-1.71c0-.612.108-1.17.324-1.674.216-.504.51-.942.882-1.314.384-.372.828-.66 1.332-.864a4.276 4.276 0 011.62-.306c1.632 0 2.838.576 3.618 1.728.78 1.164 1.17 2.718 1.17 4.662 0 .96-.102 1.842-.306 2.646-.204.792-.51 1.482-.918 2.07a4.176 4.176 0 01-1.494 1.368c-.588.324-1.278.486-2.07.486-.6 0-1.152-.096-1.656-.288a4.467 4.467 0 01-1.296-.81 4.764 4.764 0 01-.918-1.17 3.87 3.87 0 01-.414-1.404l1.098-.324zm6.372-4.806c0-.468-.078-.894-.234-1.278a2.573 2.573 0 00-.63-.972 2.573 2.573 0 00-.972-.63 3.23 3.23 0 00-1.26-.234c-.468 0-.894.078-1.278.234a2.775 2.775 0 00-.972.63 2.896 2.896 0 00-.63.972c-.144.384-.216.81-.216 1.278 0 .492.078.93.234 1.314.168.384.39.708.666.972.288.252.618.45.99.594.384.132.786.198 1.206.198.42 0 .816-.072 1.188-.216.372-.144.696-.348.972-.612.288-.276.516-.6.684-.972.168-.384.252-.81.252-1.278zm3.938 4.86c.192.864.576 1.566 1.152 2.106.588.528 1.35.792 2.286.792.432 0 .84-.066 1.224-.198a2.892 2.892 0 001.71-1.566c.18-.384.27-.816.27-1.296 0-1.02-.288-1.806-.864-2.358-.576-.564-1.338-.846-2.286-.846-.336 0-.684.066-1.044.198-.348.12-.636.276-.864.468l-.684-.846 4.626-4.248h-6.084V602.4h7.92v.774l-4.23 3.816c.18-.036.426-.054.738-.054.552 0 1.068.09 1.548.27.48.18.894.444 1.242.792.36.336.636.75.828 1.242.204.48.306 1.032.306 1.656 0 .66-.114 1.254-.342 1.782-.228.528-.54.978-.936 1.35-.396.372-.858.66-1.386.864a4.913 4.913 0 01-1.692.288c-1.164 0-2.148-.324-2.952-.972a4.478 4.478 0 01-1.602-2.484l1.116-.486zm9.422-2.448c0-.924.102-1.782.306-2.574.204-.804.504-1.5.9-2.088.408-.6.912-1.068 1.512-1.404.6-.336 1.29-.504 2.07-.504 1.164 0 2.082.306 2.754.918.672.6 1.062 1.404 1.17 2.412l-1.098.324c-.096-.9-.402-1.56-.918-1.98-.504-.42-1.17-.63-1.998-.63-.492 0-.954.12-1.386.36-.432.228-.81.582-1.134 1.062-.312.468-.564 1.062-.756 1.782-.18.72-.27 1.56-.27 2.52v.216c.324-.672.822-1.224 1.494-1.656a3.866 3.866 0 012.16-.648c.588 0 1.134.096 1.638.288.504.192.942.468 1.314.828.372.348.66.768.864 1.26.216.492.324 1.044.324 1.656 0 .636-.102 1.212-.306 1.728a4.066 4.066 0 01-.864 1.35c-.372.372-.81.66-1.314.864a4.423 4.423 0 01-1.674.306c-1.572 0-2.766-.588-3.582-1.764-.804-1.164-1.206-2.706-1.206-4.626zm7.794 2.232c0-.492-.084-.93-.252-1.314a2.488 2.488 0 00-.666-.954 2.664 2.664 0 00-.99-.594 3.262 3.262 0 00-1.188-.216c-.42 0-.816.072-1.188.216a2.963 2.963 0 00-.99.63 2.977 2.977 0 00-.666.972 3.029 3.029 0 00-.252 1.26c0 .468.072.894.216 1.278.156.384.366.714.63.99.276.264.6.474.972.63.384.144.81.216 1.278.216.468 0 .888-.072 1.26-.216.384-.156.708-.366.972-.63.276-.276.486-.606.63-.99.156-.384.234-.81.234-1.278zm3.383-8.622h5.454c.612 0 1.158.084 1.638.252.48.156.888.378 1.224.666.336.288.594.63.774 1.026.18.384.27.804.27 1.26 0 .624-.168 1.2-.504 1.728-.336.516-.762.9-1.278 1.152.72.312 1.272.714 1.656 1.206.384.492.576 1.134.576 1.926 0 .48-.102.93-.306 1.35a3.281 3.281 0 01-.846 1.062c-.348.3-.768.54-1.26.72a4.71 4.71 0 01-1.566.252h-5.832v-12.6zm5.688 5.58c.72 0 1.308-.192 1.764-.576.456-.396.684-.942.684-1.638 0-.684-.24-1.224-.72-1.62a2.674 2.674 0 00-1.728-.594h-4.428v4.428h4.428zm.126 5.868c.792 0 1.434-.204 1.926-.612.504-.42.756-1.008.756-1.764s-.252-1.344-.756-1.764c-.492-.432-1.134-.648-1.926-.648h-4.554v4.788h4.554zm6.441-2.61c.192.864.576 1.566 1.152 2.106.588.528 1.35.792 2.286.792.432 0 .84-.066 1.224-.198a2.892 2.892 0 001.71-1.566c.18-.384.27-.816.27-1.296 0-1.02-.288-1.806-.864-2.358-.576-.564-1.338-.846-2.286-.846-.336 0-.684.066-1.044.198-.348.12-.636.276-.864.468l-.684-.846 4.626-4.248h-6.084V602.4h7.92v.774l-4.23 3.816c.18-.036.426-.054.738-.054.552 0 1.068.09 1.548.27.48.18.894.444 1.242.792.36.336.636.75.828 1.242.204.48.306 1.032.306 1.656 0 .66-.114 1.254-.342 1.782-.228.528-.54.978-.936 1.35-.396.372-.858.66-1.386.864a4.913 4.913 0 01-1.692.288c-1.164 0-2.148-.324-2.952-.972a4.478 4.478 0 01-1.602-2.484l1.116-.486zm9.421.162c0-.78.222-1.476.666-2.088.444-.612 1.062-1.038 1.854-1.278-.588-.264-1.044-.612-1.368-1.044-.312-.432-.468-.972-.468-1.62a2.907 2.907 0 011.026-2.214 3.667 3.667 0 011.152-.684 4.29 4.29 0 011.494-.252c.54 0 1.032.084 1.476.252.456.168.846.396 1.17.684a2.907 2.907 0 011.026 2.214c0 .648-.162 1.188-.486 1.62-.312.432-.762.78-1.35 1.044.792.24 1.41.666 1.854 1.278.444.612.666 1.308.666 2.088 0 .504-.096.99-.288 1.458a3.494 3.494 0 01-.846 1.206 4.262 4.262 0 01-1.368.81c-.54.204-1.158.306-1.854.306-.696 0-1.314-.102-1.854-.306a4.262 4.262 0 01-1.368-.81 3.494 3.494 0 01-.846-1.206 3.806 3.806 0 01-.288-1.458zm6.876-5.976c0-.684-.234-1.212-.702-1.584-.456-.384-1.062-.576-1.818-.576s-1.368.192-1.836.576c-.456.372-.684.9-.684 1.584s.228 1.224.684 1.62c.468.384 1.08.576 1.836.576s1.362-.192 1.818-.576c.468-.396.702-.936.702-1.62zm.684 5.904c0-.864-.294-1.542-.882-2.034-.576-.492-1.35-.738-2.322-.738s-1.752.246-2.34.738c-.576.492-.864 1.17-.864 2.034 0 .864.276 1.548.828 2.052.564.504 1.356.756 2.376.756 1.02 0 1.806-.252 2.358-.756.564-.504.846-1.188.846-2.052z" fill="#fff"/><path fill="#FCFAEE" d="M590 431h295v216H590z"/><path d="M623.008 611.076v-1.044h2.97l.522-2.646h-2.952v-1.044h3.168l.792-3.942h1.08l-.792 3.942h3.168l.792-3.942h1.08l-.792 3.942h2.952v1.044h-3.168l-.522 2.646h3.15v1.044h-3.366l-.774 3.924h-1.08l.774-3.924h-3.168l-.774 3.924h-1.08l.774-3.924h-2.754zm7.218-1.044l.522-2.646h-3.168l-.522 2.646h3.168zm15.702-7.632v1.152h-7.218v4.752h6.678v1.152h-6.678V615h-1.26v-12.6h8.478zm2.825 6.3c0 .84.12 1.59.36 2.25.24.66.576 1.218 1.008 1.674.432.456.942.804 1.53 1.044.6.24 1.254.36 1.962.36 1.5 0 2.634-.366 3.402-1.098.768-.732 1.326-1.74 1.674-3.024l1.062.432c-.336 1.452-1.032 2.622-2.088 3.51-1.056.888-2.4 1.332-4.032 1.332-.936 0-1.788-.162-2.556-.486a5.887 5.887 0 01-1.962-1.368 6.144 6.144 0 01-1.26-2.052 7.477 7.477 0 01-.432-2.574c-.012-.9.138-1.746.45-2.538.312-.804.744-1.5 1.296-2.088a5.977 5.977 0 011.98-1.368 5.925 5.925 0 012.484-.486c1.5 0 2.694.39 3.582 1.17.9.78 1.53 1.776 1.89 2.988l-1.17.522c-.252-1.092-.75-1.95-1.494-2.574-.732-.636-1.674-.954-2.826-.954-.684 0-1.326.126-1.926.378a4.624 4.624 0 00-1.548 1.08 4.985 4.985 0 00-1.026 1.674c-.24.648-.36 1.38-.36 2.196zm21.556-6.3v1.152h-7.218v4.752h6.678v1.152h-6.678V615h-1.26v-12.6h8.478zm5.278 0h1.764l5.382 12.6h-1.332l-1.422-3.384h-7.02L671.537 615h-1.332l5.382-12.6zm3.906 8.064l-3.024-7.164-3.024 7.164h6.048zm13.422-8.064v1.152h-7.236v4.356h6.696v1.152h-6.696v4.788h7.416V615h-8.676v-12.6h8.496zm11.197 0v1.152h-7.236v4.356h6.696v1.152h-6.696v4.788h7.416V615h-8.676v-12.6h8.496zM658.88 204v-47.952L639.512 204h-7.344L612.8 156.048V204h-5.04v-50.4h9.288l18.792 46.872 18.792-46.872h9.288V204h-5.04zm13.577-9.648c0-1.632.312-3.072.936-4.32.624-1.296 1.464-2.376 2.52-3.24 1.104-.864 2.4-1.512 3.888-1.944 1.536-.48 3.168-.72 4.896-.72 1.392 0 2.88.144 4.464.432 1.584.24 3.048.6 4.392 1.08l2.376.864v-4.68c0-2.784-.84-4.896-2.52-6.336-1.68-1.44-3.96-2.16-6.84-2.16-2.592 0-4.776.624-6.552 1.872-1.776 1.248-2.904 3.096-3.384 5.544l-4.104-1.224c.576-3.168 2.112-5.688 4.608-7.56 2.544-1.872 5.688-2.808 9.432-2.808 4.464 0 7.896 1.2 10.296 3.6 2.448 2.352 3.672 5.568 3.672 9.648V204h-4.608v-4.896c-.48.864-1.152 1.656-2.016 2.376-.816.672-1.776 1.248-2.88 1.728-1.056.48-2.208.84-3.456 1.08a15.68 15.68 0 01-3.672.432c-3.456 0-6.24-.936-8.352-2.808-2.064-1.872-3.096-4.392-3.096-7.56zm23.472-4.032l-3.672-1.224c-2.448-.816-4.8-1.224-7.056-1.224-2.592 0-4.608.552-6.048 1.656-1.392 1.104-2.088 2.736-2.088 4.896 0 1.872.72 3.36 2.16 4.464 1.44 1.104 3.312 1.656 5.616 1.656 3.312 0 5.976-.816 7.992-2.448 2.064-1.632 3.096-3.84 3.096-6.624v-1.152zm19.289-36.72v23.112c1.2-2.304 2.928-4.128 5.184-5.472 2.256-1.392 4.776-2.088 7.56-2.088 2.208 0 4.248.432 6.12 1.296a13.72 13.72 0 014.896 3.672c1.392 1.584 2.472 3.48 3.24 5.688.768 2.208 1.152 4.656 1.152 7.344 0 2.688-.432 5.136-1.296 7.344-.816 2.16-1.944 4.008-3.384 5.544a15.048 15.048 0 01-5.112 3.456c-1.968.816-4.08 1.224-6.336 1.224-2.736 0-5.184-.672-7.344-2.016-2.16-1.344-3.816-3.024-4.968-5.04V204h-4.32v-50.4h4.608zm11.664 46.944c1.536 0 3-.264 4.392-.792a11.257 11.257 0 003.816-2.52c1.104-1.152 1.992-2.568 2.664-4.248.672-1.68 1.008-3.672 1.008-5.976s-.336-4.296-1.008-5.976c-.672-1.728-1.56-3.144-2.664-4.248a10.787 10.787 0 00-3.816-2.592 11.374 11.374 0 00-4.392-.864c-1.536 0-3.024.312-4.464.936-1.44.576-2.712 1.464-3.816 2.664-1.104 1.152-1.992 2.592-2.664 4.32-.672 1.68-1.008 3.6-1.008 5.76 0 2.16.336 4.08 1.008 5.76.672 1.68 1.56 3.096 2.664 4.248a11.663 11.663 0 003.816 2.664c1.44.576 2.928.864 4.464.864zm29.047-30.672v4.968c.816-1.776 2.016-3.168 3.6-4.176s3.456-1.512 5.616-1.512c1.344 0 2.544.24 3.6.72 1.104.48 2.04 1.128 2.808 1.944.768.768 1.344 1.704 1.728 2.808a9.616 9.616 0 01.576 3.312c0 1.344-.096 2.424-.288 3.24h-4.392c.144-.864.216-1.56.216-2.088 0-1.872-.528-3.288-1.584-4.248-1.056-1.008-2.52-1.512-4.392-1.512-2.304 0-4.128.912-5.472 2.736-1.344 1.824-2.016 4.248-2.016 7.272V204h-4.608v-34.128h4.608zm51.761 0l-20.448 48.384h-4.968l7.56-17.856-12.528-30.528h5.04l10.08 24.408 10.296-24.408h4.968zM837.589 204h-5.04v-50.4h20.88c2.592 0 4.896.36 6.912 1.08 2.064.72 3.792 1.728 5.184 3.024a12.389 12.389 0 013.24 4.608c.768 1.776 1.152 3.696 1.152 5.76 0 2.064-.384 3.984-1.152 5.76a13.153 13.153 0 01-3.312 4.608c-1.44 1.296-3.192 2.304-5.256 3.024-2.016.72-4.272 1.08-6.768 1.08h-15.84V204zm15.408-26.064c3.504 0 6.312-.816 8.424-2.448 2.112-1.632 3.168-4.104 3.168-7.416 0-3.312-1.056-5.784-3.168-7.416-2.112-1.632-4.92-2.448-8.424-2.448h-15.408v19.728h15.408zm30.198-8.064v4.968c.816-1.776 2.016-3.168 3.6-4.176s3.456-1.512 5.616-1.512c1.344 0 2.544.24 3.6.72 1.104.48 2.04 1.128 2.808 1.944.768.768 1.344 1.704 1.728 2.808a9.616 9.616 0 01.576 3.312c0 1.344-.096 2.424-.288 3.24h-4.392c.144-.864.216-1.56.216-2.088 0-1.872-.528-3.288-1.584-4.248-1.056-1.008-2.52-1.512-4.392-1.512-2.304 0-4.128.912-5.472 2.736-1.344 1.824-2.016 4.248-2.016 7.272V204h-4.608v-34.128h4.608zm22.693 17.064c0-2.496.408-4.824 1.224-6.984.816-2.208 1.968-4.104 3.456-5.688 1.488-1.584 3.264-2.832 5.328-3.744 2.112-.912 4.44-1.368 6.984-1.368 2.544 0 4.848.456 6.912 1.368 2.112.912 3.912 2.16 5.4 3.744 1.488 1.584 2.64 3.48 3.456 5.688.816 2.16 1.224 4.488 1.224 6.984 0 2.544-.408 4.896-1.224 7.056-.816 2.16-1.968 4.032-3.456 5.616-1.488 1.584-3.288 2.832-5.4 3.744-2.064.912-4.368 1.368-6.912 1.368-2.544 0-4.872-.456-6.984-1.368-2.064-.912-3.84-2.16-5.328-3.744-1.488-1.584-2.64-3.456-3.456-5.616-.816-2.16-1.224-4.512-1.224-7.056zm29.088 0c0-2.016-.312-3.84-.936-5.472-.576-1.68-1.416-3.12-2.52-4.32a11.11 11.11 0 00-3.816-2.808c-1.44-.672-3.048-1.008-4.824-1.008-1.776 0-3.408.336-4.896 1.008a12.1 12.1 0 00-3.816 2.808c-1.056 1.2-1.896 2.64-2.52 4.32-.576 1.632-.864 3.456-.864 5.472 0 2.016.288 3.864.864 5.544.624 1.632 1.464 3.048 2.52 4.248a12.1 12.1 0 003.816 2.808c1.488.672 3.12 1.008 4.896 1.008 1.776 0 3.384-.336 4.824-1.008a11.11 11.11 0 003.816-2.808c1.104-1.2 1.944-2.616 2.52-4.248.624-1.68.936-3.528.936-5.544zM603.824 69.117h7.608c.8 0 1.528.112 2.184.336a5.029 5.029 0 011.68.936c.464.384.824.848 1.08 1.392.256.528.384 1.096.384 1.704a3.88 3.88 0 01-.696 2.256c-.448.656-1.056 1.16-1.824 1.512.976.32 1.736.824 2.28 1.512.56.688.84 1.56.84 2.616a3.93 3.93 0 01-.432 1.824 4.375 4.375 0 01-1.128 1.416c-.48.4-1.056.72-1.728.96a6.57 6.57 0 01-2.136.336h-8.112v-16.8zm7.704 7.176c.96 0 1.704-.224 2.232-.672.544-.464.816-1.104.816-1.92 0-.384-.08-.728-.24-1.032a2.244 2.244 0 00-.648-.792 2.75 2.75 0 00-.96-.504 4.104 4.104 0 00-1.2-.168h-5.496v5.088h5.496zm.336 7.536c.928 0 1.688-.248 2.28-.744.608-.496.912-1.16.912-1.992 0-.4-.08-.776-.24-1.128a2.243 2.243 0 00-.648-.888 2.864 2.864 0 00-1.008-.6 3.67 3.67 0 00-1.296-.216h-5.832v5.568h5.832zm7.571-3.6c0-.832.136-1.608.408-2.328a5.844 5.844 0 011.176-1.896 5.606 5.606 0 011.824-1.248c.704-.304 1.488-.456 2.352-.456.864 0 1.648.152 2.352.456.72.304 1.328.72 1.824 1.248.512.528.904 1.16 1.176 1.896a6.21 6.21 0 01.432 2.328c0 .848-.144 1.632-.432 2.352a5.392 5.392 0 01-1.176 1.872 5.543 5.543 0 01-1.848 1.248c-.704.304-1.48.456-2.328.456-.864 0-1.648-.152-2.352-.456a5.606 5.606 0 01-1.824-1.248 5.905 5.905 0 01-1.176-1.872 6.603 6.603 0 01-.408-2.352zm9.408 0c0-1.2-.344-2.168-1.032-2.904-.672-.768-1.544-1.152-2.616-1.152-.528 0-1.016.104-1.464.312a3.154 3.154 0 00-1.152.84 4.03 4.03 0 00-.768 1.272 4.85 4.85 0 00-.264 1.632c0 .592.088 1.136.264 1.632.192.496.448.928.768 1.296.32.352.704.632 1.152.84.448.192.936.288 1.464.288.528 0 1.016-.096 1.464-.288a3.569 3.569 0 001.152-.84 3.52 3.52 0 00.768-1.272 4.926 4.926 0 00.264-1.656zm3.928.072c0-.88.128-1.688.384-2.424a5.644 5.644 0 011.08-1.896 5.051 5.051 0 011.68-1.224 5.018 5.018 0 012.136-.456c.88 0 1.656.208 2.328.624.672.4 1.192.96 1.56 1.68v-7.488h2.088v16.8h-1.992v-2.04a4.434 4.434 0 01-1.608 1.656c-.688.416-1.464.624-2.328.624a5.585 5.585 0 01-2.16-.408 4.89 4.89 0 01-1.68-1.2 6.034 6.034 0 01-1.104-1.872c-.256-.72-.384-1.512-.384-2.376zm9.264-.024c0-.624-.104-1.192-.312-1.704a4.071 4.071 0 00-.816-1.296 3.605 3.605 0 00-1.152-.816 3.22 3.22 0 00-2.664 0 3.605 3.605 0 00-1.152.816 4.071 4.071 0 00-.816 1.296c-.192.496-.288 1.064-.288 1.704 0 .64.096 1.216.288 1.728.208.496.48.92.816 1.272a3.53 3.53 0 002.496 1.032 3.47 3.47 0 001.32-.264 3.797 3.797 0 001.152-.792c.336-.352.608-.776.816-1.272.208-.496.312-1.064.312-1.704zm14.814-5.736l-7.296 16.128h-2.208l2.808-6.216-4.344-9.912h2.256l3.192 7.488 3.384-7.488h2.208z" fill="#000"/><path d="M3.384 356.517c0 1.04.152 1.976.456 2.808.304.816.72 1.512 1.248 2.088.544.56 1.184.992 1.92 1.296.752.288 1.576.432 2.472.432 1.856 0 3.296-.488 4.32-1.464 1.024-.976 1.72-2.28 2.088-3.912l1.944.792a9.555 9.555 0 01-1.032 2.64 7.657 7.657 0 01-1.776 2.088 7.992 7.992 0 01-2.448 1.392c-.928.32-1.96.48-3.096.48-1.264.016-2.416-.192-3.456-.624a8.053 8.053 0 01-2.664-1.824 8.258 8.258 0 01-1.704-2.76c-.4-1.056-.592-2.2-.576-3.432a8.543 8.543 0 01.624-3.384 8.637 8.637 0 011.776-2.784 7.907 7.907 0 012.664-1.824 8.06 8.06 0 013.336-.648c2.048 0 3.688.528 4.92 1.584 1.248 1.056 2.088 2.392 2.52 4.008l-2.016.912c-.288-1.344-.896-2.424-1.824-3.24-.928-.832-2.128-1.248-3.6-1.248-.864 0-1.664.16-2.4.48a5.743 5.743 0 00-1.944 1.32c-.544.576-.976 1.272-1.296 2.088-.304.816-.456 1.728-.456 2.736zm16.184 2.712c0-.832.136-1.608.408-2.328a5.844 5.844 0 011.176-1.896 5.606 5.606 0 011.824-1.248c.704-.304 1.488-.456 2.352-.456.864 0 1.648.152 2.352.456.72.304 1.328.72 1.824 1.248.512.528.904 1.16 1.176 1.896a6.21 6.21 0 01.432 2.328c0 .848-.144 1.632-.432 2.352a5.392 5.392 0 01-1.176 1.872 5.543 5.543 0 01-1.848 1.248c-.704.304-1.48.456-2.328.456-.864 0-1.648-.152-2.352-.456a5.606 5.606 0 01-1.824-1.248 5.905 5.905 0 01-1.176-1.872 6.603 6.603 0 01-.408-2.352zm9.408 0c0-1.2-.344-2.168-1.032-2.904-.672-.768-1.544-1.152-2.616-1.152-.528 0-1.016.104-1.464.312a3.154 3.154 0 00-1.152.84 4.03 4.03 0 00-.768 1.272 4.85 4.85 0 00-.264 1.632c0 .592.088 1.136.264 1.632.192.496.448.928.768 1.296.32.352.704.632 1.152.84.448.192.936.288 1.464.288.528 0 1.016-.096 1.464-.288a3.569 3.569 0 001.152-.84 3.52 3.52 0 00.768-1.272 4.926 4.926 0 00.264-1.656zm4.624-11.112h2.064v16.8H33.6v-16.8zm4.578 11.112c0-.832.136-1.608.408-2.328a5.844 5.844 0 011.176-1.896 5.606 5.606 0 011.824-1.248c.704-.304 1.488-.456 2.352-.456.864 0 1.648.152 2.352.456.72.304 1.328.72 1.824 1.248.512.528.904 1.16 1.176 1.896a6.21 6.21 0 01.432 2.328c0 .848-.144 1.632-.432 2.352a5.392 5.392 0 01-1.176 1.872 5.543 5.543 0 01-1.848 1.248c-.704.304-1.48.456-2.328.456-.864 0-1.648-.152-2.352-.456a5.606 5.606 0 01-1.824-1.248 5.905 5.905 0 01-1.176-1.872 6.603 6.603 0 01-.408-2.352zm9.408 0c0-1.2-.344-2.168-1.032-2.904-.672-.768-1.544-1.152-2.616-1.152-.528 0-1.016.104-1.464.312a3.154 3.154 0 00-1.152.84 4.03 4.03 0 00-.768 1.272 4.85 4.85 0 00-.264 1.632c0 .592.088 1.136.264 1.632.192.496.448.928.768 1.296.32.352.704.632 1.152.84.448.192.936.288 1.464.288.528 0 1.016-.096 1.464-.288a3.569 3.569 0 001.152-.84 3.52 3.52 0 00.768-1.272 4.926 4.926 0 00.264-1.656zm6.688-5.688v1.656c.256-.608.632-1.072 1.128-1.392.496-.336 1.088-.504 1.776-.504.464 0 .888.08 1.272.24.384.16.712.384.984.672.272.272.48.6.624.984.16.368.24.768.24 1.2 0 .464-.048.888-.144 1.272h-2.016c.048-.336.072-.616.072-.84 0-.528-.168-.944-.504-1.248-.32-.304-.76-.456-1.32-.456-.64 0-1.152.232-1.536.696-.384.464-.576 1.08-.576 1.848v7.248H52.21v-11.376h2.064zm15.277 7.512c.32.816.744 1.4 1.272 1.752.544.352 1.248.528 2.112.528.768 0 1.368-.152 1.8-.456.432-.304.648-.704.648-1.2 0-.544-.216-.968-.648-1.272-.416-.32-1.2-.56-2.352-.72-2.608-.384-3.912-1.472-3.912-3.264 0-.912.384-1.656 1.152-2.232.784-.592 1.768-.888 2.952-.888 1.072 0 1.936.216 2.592.648.656.432 1.16 1.056 1.512 1.872l-1.608.888c-.192-.576-.504-1.008-.936-1.296-.432-.288-.952-.432-1.56-.432-.624 0-1.152.136-1.584.408-.416.256-.624.608-.624 1.056 0 .496.224.872.672 1.128.464.24 1.256.44 2.376.6 2.656.352 3.984 1.48 3.984 3.384 0 .528-.12 1.016-.36 1.464a3.382 3.382 0 01-.96 1.128c-.4.32-.88.568-1.44.744-.56.176-1.16.264-1.8.264-1.296 0-2.368-.288-3.216-.864a4.644 4.644 0 01-1.776-2.352l1.704-.888zm15.57 2.28c1.104 0 1.952-.296 2.544-.888.592-.608 1-1.448 1.224-2.52l1.848.696c-.32 1.456-.968 2.576-1.944 3.36-.976.784-2.184 1.176-3.624 1.176-.896 0-1.712-.144-2.448-.432a5.457 5.457 0 01-1.896-1.224 5.64 5.64 0 01-1.2-1.896c-.288-.736-.432-1.552-.432-2.448 0-.848.152-1.632.456-2.352a5.733 5.733 0 011.224-1.848 5.63 5.63 0 011.824-1.224 5.776 5.776 0 012.208-.432c1.392 0 2.552.36 3.48 1.08.928.72 1.528 1.728 1.8 3.024l-1.896.576c-.176-.912-.56-1.616-1.152-2.112-.576-.496-1.328-.744-2.256-.744-.432 0-.872.088-1.32.264a3.733 3.733 0 00-1.176.768c-.352.336-.64.76-.864 1.272-.208.496-.312 1.072-.312 1.728 0 .64.104 1.216.312 1.728.224.512.52.952.888 1.32.368.352.784.632 1.248.84.464.192.952.288 1.464.288zm7.964 1.584v-16.8h2.064v7.824a3.974 3.974 0 011.536-1.92c.72-.48 1.544-.72 2.472-.72 1.248 0 2.232.384 2.952 1.152.736.768 1.104 1.8 1.104 3.096v7.368h-2.088v-6.888c0-.976-.24-1.712-.72-2.208-.464-.496-1.128-.744-1.992-.744-.464 0-.896.096-1.296.288a3.326 3.326 0 00-1.032.816c-.288.352-.52.768-.696 1.248-.16.48-.24 1.016-.24 1.608v5.88h-2.064zm23.44-3.432c-.384 1.152-1 2.056-1.848 2.712-.848.64-1.928.96-3.24.96a6.34 6.34 0 01-2.304-.408 5.483 5.483 0 01-1.824-1.2 5.844 5.844 0 01-1.176-1.896c-.288-.752-.432-1.584-.432-2.496 0-.816.128-1.576.384-2.28.272-.72.64-1.344 1.104-1.872a5.276 5.276 0 011.704-1.248c.672-.304 1.416-.456 2.232-.456 1.52 0 2.744.44 3.672 1.32.928.864 1.392 2.04 1.392 3.528 0 .496-.048.96-.144 1.392h-8.232c0 .624.096 1.176.288 1.656.192.464.448.856.768 1.176.336.32.72.56 1.152.72.432.16.904.24 1.416.24.88 0 1.592-.216 2.136-.648.544-.448.928-1.08 1.152-1.896l1.8.696zm-2.4-3.432l.024-.336c0-.816-.296-1.448-.888-1.896-.576-.464-1.296-.696-2.16-.696-.88 0-1.624.264-2.232.792-.592.512-.944 1.224-1.056 2.136h6.312zm6.875-4.512v1.608a3.366 3.366 0 011.152-1.344c.512-.336 1.152-.504 1.92-.504a3.02 3.02 0 011.824.576c.528.384.888.944 1.08 1.68.304-.72.752-1.272 1.344-1.656.608-.4 1.272-.6 1.992-.6 1.056 0 1.896.32 2.52.96.624.64.936 1.56.936 2.76v7.896h-2.064v-7.464c0-.72-.2-1.28-.6-1.68-.384-.4-.88-.6-1.488-.6-.624 0-1.152.224-1.584.672-.432.448-.648 1.112-.648 1.992v7.08h-2.088v-7.368c0-.784-.192-1.376-.576-1.776-.384-.4-.888-.6-1.512-.6s-1.152.232-1.584.696c-.416.464-.624 1.16-.624 2.088v6.96h-2.064v-11.376H121zm26.111 7.944c-.384 1.152-1 2.056-1.848 2.712-.848.64-1.928.96-3.24.96a6.34 6.34 0 01-2.304-.408 5.483 5.483 0 01-1.824-1.2 5.844 5.844 0 01-1.176-1.896c-.288-.752-.432-1.584-.432-2.496 0-.816.128-1.576.384-2.28.272-.72.64-1.344 1.104-1.872a5.276 5.276 0 011.704-1.248c.672-.304 1.416-.456 2.232-.456 1.52 0 2.744.44 3.672 1.32.928.864 1.392 2.04 1.392 3.528 0 .496-.048.96-.144 1.392h-8.232c0 .624.096 1.176.288 1.656.192.464.448.856.768 1.176.336.32.72.56 1.152.72.432.16.904.24 1.416.24.88 0 1.592-.216 2.136-.648.544-.448.928-1.08 1.152-1.896l1.8.696zm-2.4-3.432l.024-.336c0-.816-.296-1.448-.888-1.896-.576-.464-1.296-.696-2.16-.696-.88 0-1.624.264-2.232.792-.592.512-.944 1.224-1.056 2.136h6.312zM885 431h295v216H885z" fill="#131313"/><path d="M918.008 611.076v-1.044h2.97l.522-2.646h-2.952v-1.044h3.168l.792-3.942h1.08l-.792 3.942h3.168l.792-3.942h1.08l-.792 3.942h2.952v1.044h-3.168l-.522 2.646h3.15v1.044h-3.366l-.774 3.924h-1.08l.774-3.924h-3.168l-.774 3.924h-1.08l.774-3.924h-2.754zm7.218-1.044l.522-2.646h-3.168l-.522 2.646h3.168zm9.51-5.544c-.372.576-.822 1.02-1.35 1.332a4.11 4.11 0 01-1.71.558l-.234-1.062c.876-.084 1.602-.378 2.178-.882.588-.516 1.02-1.194 1.296-2.034h.972V615h-1.152v-10.512zm4.132 6.75c.192.864.576 1.566 1.152 2.106.588.528 1.35.792 2.286.792.432 0 .84-.066 1.224-.198a2.892 2.892 0 001.71-1.566c.18-.384.27-.816.27-1.296 0-1.02-.288-1.806-.864-2.358-.576-.564-1.338-.846-2.286-.846-.336 0-.684.066-1.044.198-.348.12-.636.276-.864.468l-.684-.846 4.626-4.248h-6.084V602.4h7.92v.774L942 606.99c.18-.036.426-.054.738-.054.552 0 1.068.09 1.548.27.48.18.894.444 1.242.792.36.336.636.75.828 1.242.204.48.306 1.032.306 1.656 0 .66-.114 1.254-.342 1.782-.228.528-.54.978-.936 1.35-.396.372-.858.66-1.386.864a4.913 4.913 0 01-1.692.288c-1.164 0-2.148-.324-2.952-.972a4.478 4.478 0 01-1.602-2.484l1.116-.486zm12.18-6.75c-.372.576-.822 1.02-1.35 1.332a4.11 4.11 0 01-1.71.558l-.234-1.062c.876-.084 1.602-.378 2.178-.882.588-.516 1.02-1.194 1.296-2.034h.972V615h-1.152v-10.512zm4.133 6.75c.192.864.576 1.566 1.152 2.106.588.528 1.35.792 2.286.792.432 0 .84-.066 1.224-.198a2.892 2.892 0 001.71-1.566c.18-.384.27-.816.27-1.296 0-1.02-.288-1.806-.864-2.358-.576-.564-1.338-.846-2.286-.846-.336 0-.684.066-1.044.198-.348.12-.636.276-.864.468l-.684-.846 4.626-4.248h-6.084V602.4h7.92v.774l-4.23 3.816c.18-.036.426-.054.738-.054.552 0 1.068.09 1.548.27.48.18.894.444 1.242.792.36.336.636.75.828 1.242.204.48.306 1.032.306 1.656 0 .66-.114 1.254-.342 1.782-.228.528-.54.978-.936 1.35-.396.372-.858.66-1.386.864a4.913 4.913 0 01-1.692.288c-1.164 0-2.148-.324-2.952-.972a4.478 4.478 0 01-1.602-2.484l1.116-.486zm12.18-6.75c-.372.576-.822 1.02-1.35 1.332a4.11 4.11 0 01-1.71.558l-.234-1.062c.876-.084 1.602-.378 2.178-.882.588-.516 1.02-1.194 1.296-2.034h.972V615h-1.152v-10.512zm4.132 6.75c.192.864.576 1.566 1.152 2.106.588.528 1.35.792 2.286.792.432 0 .84-.066 1.224-.198a2.892 2.892 0 001.71-1.566c.18-.384.27-.816.27-1.296 0-1.02-.288-1.806-.864-2.358-.576-.564-1.338-.846-2.286-.846-.336 0-.684.066-1.044.198-.348.12-.636.276-.864.468l-.684-.846 4.626-4.248h-6.084V602.4h7.92v.774l-4.23 3.816c.18-.036.426-.054.738-.054.552 0 1.068.09 1.548.27.48.18.894.444 1.242.792.36.336.636.75.828 1.242.204.48.306 1.032.306 1.656 0 .66-.114 1.254-.342 1.782-.228.528-.54.978-.936 1.35-.396.372-.858.66-1.386.864a4.913 4.913 0 01-1.692.288c-1.164 0-2.148-.324-2.952-.972a4.478 4.478 0 01-1.602-2.484l1.116-.486z" fill="#fff"/></svg>