<svg xmlns="http://www.w3.org/2000/svg" width="129" height="22"><path d="M14.566 1.997L7.29 16.902 0 1.997z" fill="#BDBDBD"/><path d="M0 16.902h7.29L0 1.997zm7.29 0h7.29V1.997z" fill="#535353"/><path d="M33.013 2.808c-.175.014-.39.041-.645.124a2.75 2.75 0 00-.631.261 1.858 1.858 0 00-.564.563 7.572 7.572 0 00-.416.824 339.707 339.707 0 00-2.054 5.193c-.913 2.349-1.853 4.808-2.833 7.35h-.845c-.98-2.707-1.934-5.317-2.847-7.817-.913-2.514-1.544-4.204-1.866-5.083a1.98 1.98 0 00-.322-.577 2.654 2.654 0 00-.537-.467 1.901 1.901 0 00-.618-.261 3.815 3.815 0 00-.63-.11v-.742h6.014v.742c-.51.028-.94.082-1.302.151-.349.083-.524.22-.524.412 0 .083.014.165.04.275.027.11.054.192.068.247.255.687.657 1.8 1.235 3.352.564 1.553 1.369 3.751 2.416 6.622a302.728 302.728 0 001.799-4.589 343.623 343.623 0 001.37-3.626c.228-.632.362-1.072.389-1.319.04-.247.054-.44.054-.605 0-.164-.067-.288-.215-.398a1.561 1.561 0 00-.564-.275 4.183 4.183 0 00-.685-.151 6.036 6.036 0 00-.711-.082V2.08h5.41v.728zm5.356 14.136h-4.873v-.687l.483-.041c.161-.014.309-.041.43-.083a.816.816 0 00.43-.329c.094-.151.134-.358.134-.619V8.811c0-.22-.054-.426-.148-.618a1.371 1.371 0 00-.416-.467 2.355 2.355 0 00-.564-.22 4.55 4.55 0 00-.671-.11v-.687l3.571-.233.148.151v8.435c0 .247.04.453.134.604.094.165.242.275.429.357.148.069.296.11.444.152.147.041.295.068.483.082v.687zm-1.275-13.49c0 .398-.134.741-.389 1.044a1.192 1.192 0 01-.953.439c-.35 0-.645-.137-.913-.426-.256-.288-.39-.604-.39-.975 0-.385.134-.714.39-1.003a1.18 1.18 0 01.913-.426c.389 0 .711.138.953.399.268.274.389.59.389.948zm66.026 0c0 .398-.134.741-.389 1.044a1.192 1.192 0 01-.954.439c-.348 0-.644-.137-.913-.426-.255-.288-.389-.604-.389-.975 0-.385.134-.714.389-1.003.255-.288.565-.426.913-.426.389 0 .712.138.954.399.268.274.389.59.389.948zm-52.198 13.49h-4.94v-.687c.161-.014.335-.028.523-.041.188-.014.349-.042.47-.083a.818.818 0 00.43-.33c.094-.151.134-.357.134-.618V9.869c0-.728-.175-1.305-.51-1.704-.336-.398-.752-.604-1.235-.604-.363 0-.698.055-.994.179a3.753 3.753 0 00-.805.425c-.228.165-.403.33-.537.522a5.67 5.67 0 00-.296.44v5.948c0 .234.054.44.148.591a.94.94 0 00.43.357c.147.069.295.124.47.151.161.042.335.055.523.069v.687h-4.954v-.687l.484-.041c.161-.014.308-.041.429-.083a.816.816 0 00.43-.329c.094-.151.134-.357.134-.619V8.797c0-.233-.054-.453-.148-.659a1.295 1.295 0 00-.416-.481 1.244 1.244 0 00-.456-.179 3.51 3.51 0 00-.578-.082v-.687l3.357-.233.147.151v1.456h.054c.161-.165.363-.371.618-.605.241-.233.483-.425.698-.576.255-.165.55-.303.899-.426.349-.11.739-.165 1.182-.165.966 0 1.691.316 2.161.934.47.618.698 1.442.698 2.473v5.385c0 .247.041.439.121.591.081.151.228.26.416.357.161.068.309.123.43.151.121.027.282.055.497.069v.673zm10.955-.178c-.322.124-.604.22-.846.289-.241.068-.523.11-.819.11-.537 0-.953-.124-1.275-.385-.322-.261-.524-.632-.604-1.113h-.067a4.982 4.982 0 01-1.423 1.154c-.51.261-1.128.399-1.84.399-.765 0-1.382-.234-1.866-.715-.483-.481-.738-1.099-.738-1.868 0-.398.054-.756.161-1.072a2.35 2.35 0 01.497-.851 2.8 2.8 0 01.671-.564c.282-.164.537-.288.792-.398.309-.124.927-.343 1.866-.659.94-.316 1.571-.577 1.907-.756V9.293c0-.096-.014-.261-.054-.522a2.201 2.201 0 00-.242-.728 2.088 2.088 0 00-.577-.673c-.255-.193-.604-.289-1.061-.289-.308 0-.604.055-.872.165-.269.11-.457.22-.564.344 0 .137.027.343.094.618.067.275.094.522.094.755 0 .248-.108.467-.322.673-.215.207-.51.303-.9.303-.335 0-.591-.124-.752-.371a1.49 1.49 0 01-.241-.838c0-.316.107-.632.335-.921.229-.288.51-.549.873-.783a5.008 5.008 0 011.114-.494c.443-.138.86-.206 1.276-.206a8.06 8.06 0 011.503.123c.43.083.819.248 1.168.522.349.261.618.605.792 1.058.188.44.269 1.017.269 1.717 0 1.003-.014 1.882-.027 2.652-.013.769-.027 1.621-.027 2.527 0 .275.04.495.134.646.094.165.229.302.43.412.108.069.269.096.483.11.229.014.443.014.685.014v.659zm-3.571-5.536a29.83 29.83 0 00-1.53.508 6.108 6.108 0 00-1.222.632 2.674 2.674 0 00-.806.852c-.201.33-.295.714-.295 1.168 0 .577.148 1.003.443 1.277.295.275.671.412 1.128.412.483 0 .913-.123 1.275-.357.363-.247.685-.522.927-.852zm11.398 6.071a6.206 6.206 0 01-2.497-.522 6.35 6.35 0 01-2.121-1.511c-.604-.659-1.088-1.456-1.45-2.404-.363-.948-.537-2.019-.537-3.201 0-1.195.174-2.266.537-3.242a7.422 7.422 0 011.477-2.5 6.59 6.59 0 012.201-1.607c.846-.385 1.746-.563 2.712-.563.712 0 1.37.096 1.947.274a7.32 7.32 0 011.665.77l.416-.715h.819l.094 5.303h-.859a11.732 11.732 0 00-.497-1.69 6.47 6.47 0 00-.766-1.538 3.49 3.49 0 00-1.167-1.113c-.457-.275-.967-.399-1.544-.399a3.94 3.94 0 00-1.853.454 4.268 4.268 0 00-1.477 1.332c-.403.564-.711 1.292-.926 2.157-.228.879-.336 1.855-.336 2.926 0 .948.121 1.827.349 2.624.242.797.577 1.497 1.007 2.088.443.591.953 1.058 1.557 1.401.591.33 1.262.509 2.001.509.55 0 1.06-.083 1.53-.261a3.79 3.79 0 001.209-.715c.335-.302.644-.659.899-1.044a5.91 5.91 0 00.631-1.277l.765.371c-.59 1.47-1.369 2.527-2.336 3.159-.966.618-2.121.934-3.45.934zm16.527-.535c-.322.124-.604.22-.846.289-.242.068-.524.11-.819.11-.537 0-.953-.124-1.275-.385-.322-.261-.524-.632-.604-1.113h-.068a4.969 4.969 0 01-1.423 1.154c-.51.261-1.127.399-1.839.399-.752 0-1.383-.234-1.866-.715-.483-.481-.738-1.099-.738-1.868 0-.398.053-.756.161-1.072.107-.316.268-.604.496-.851.175-.206.403-.399.672-.564.282-.164.537-.288.792-.398a42.09 42.09 0 011.866-.659c.94-.316 1.571-.577 1.906-.756V9.293c0-.096-.013-.261-.053-.522a2.224 2.224 0 00-.242-.728 2.1 2.1 0 00-.577-.673c-.255-.193-.604-.289-1.061-.289-.309 0-.604.055-.873.165-.268.11-.456.22-.563.344 0 .137.026.343.094.618.067.275.093.522.093.755 0 .248-.107.467-.322.673-.214.207-.51.303-.899.303-.336 0-.591-.124-.752-.371a1.491 1.491 0 01.094-1.759c.228-.288.51-.549.859-.783a4.997 4.997 0 011.115-.494 4.231 4.231 0 011.275-.206c.577 0 1.074.041 1.504.123a2.68 2.68 0 011.168.522c.349.261.617.605.792 1.058.174.44.268 1.017.268 1.717 0 1.003-.013 1.882-.027 2.652-.027.769-.027 1.621-.027 2.527 0 .275.041.495.135.646.094.165.228.302.429.412.108.069.269.096.484.11.228.014.443.014.684.014v.659zm-3.585-5.536a29.83 29.83 0 00-1.53.508 6.108 6.108 0 00-1.222.632 2.682 2.682 0 00-.805.852c-.202.33-.296.714-.296 1.168 0 .577.148 1.003.443 1.277.296.275.672.412 1.128.412.483 0 .913-.123 1.275-.357.363-.247.685-.522.927-.852zm13.962-3.393c.403.494.712 1.058.94 1.703.228.646.336 1.388.336 2.212 0 .824-.135 1.566-.403 2.239a5.55 5.55 0 01-1.061 1.731 4.998 4.998 0 01-1.53 1.113 4.183 4.183 0 01-1.786.385c-.604 0-1.1-.069-1.49-.206-.389-.138-.711-.303-.953-.495h-.081v3.105c0 .247.054.467.148.632a.874.874 0 00.443.371c.161.068.403.123.698.178.309.055.551.096.752.096v.687h-5.652v-.687c.215-.014.416-.027.618-.055.201-.027.375-.055.537-.11a.688.688 0 00.429-.371c.081-.178.121-.384.121-.618V8.744a1.38 1.38 0 00-.148-.605 1.357 1.357 0 00-.402-.467 1.39 1.39 0 00-.511-.192 5.157 5.157 0 00-.631-.083V6.71l3.437-.233.148.123v1.168l.081.028c.349-.426.792-.77 1.315-1.044.524-.275 1.047-.426 1.571-.426.631 0 1.208.137 1.732.412.523.275.966.632 1.342 1.099zm-1.664 7.432c.268-.44.469-.934.604-1.511a8.459 8.459 0 00.201-1.924c0-.522-.053-1.044-.161-1.579a4.642 4.642 0 00-.51-1.402 2.9 2.9 0 00-.913-.989c-.376-.247-.832-.371-1.356-.371-.51 0-.94.11-1.289.344a4.378 4.378 0 00-.926.81v6.114c.067.192.161.384.309.59.134.206.295.371.469.522.215.179.444.316.685.426.242.11.551.165.9.165a2.01 2.01 0 001.101-.316c.348-.206.644-.495.886-.879zm9.478 1.674h-4.873v-.687l.483-.041c.161-.014.309-.041.429-.082a.823.823 0 00.43-.33c.094-.151.134-.357.134-.618V8.811a1.4 1.4 0 00-.148-.619 1.36 1.36 0 00-.416-.467 2.3 2.3 0 00-.564-.219 4.401 4.401 0 00-.671-.11v-.687l3.571-.234.148.151v8.435c0 .247.04.453.134.605.094.164.242.274.429.357.148.068.296.11.444.151.147.041.295.069.483.082v.687zm7.639-.439a16.78 16.78 0 01-1.262.481 4.985 4.985 0 01-1.45.192c-.846 0-1.437-.22-1.785-.659-.349-.44-.524-1.058-.524-1.855V7.657h-1.826V6.654h1.866V3.439h1.866v3.215h2.887v1.003h-2.873v5.783c0 .44.013.797.04 1.086.026.288.108.549.215.755.107.206.269.357.497.467.215.11.51.151.886.151.175 0 .416-.013.751-.041.336-.027.564-.069.699-.124v.77zm10.713.262c-.321.124-.604.22-.846.289-.241.068-.523.11-.818.11-.537 0-.953-.124-1.276-.385-.322-.261-.523-.632-.603-1.113h-.068a4.969 4.969 0 01-1.423 1.154c-.51.261-1.128.399-1.839.399-.766 0-1.383-.234-1.866-.715-.483-.481-.738-1.099-.738-1.868 0-.398.053-.756.16-1.072.108-.316.269-.604.497-.851.175-.206.403-.399.672-.564a7.07 7.07 0 01.792-.398c.308-.124.926-.343 1.865-.659.941-.316 1.572-.577 1.907-.756V9.293c0-.096-.014-.261-.054-.522a2.2 2.2 0 00-.241-.728 2.103 2.103 0 00-.578-.673c-.255-.193-.604-.289-1.061-.289-.308 0-.604.055-.872.165-.268.11-.456.22-.563.344 0 .137.026.343.093.618.067.275.094.522.094.755 0 .248-.107.467-.322.673-.215.207-.51.303-.899.303-.336 0-.591-.124-.752-.371a1.483 1.483 0 01-.242-.838c0-.316.107-.632.336-.921.228-.288.51-.549.859-.783a5.008 5.008 0 011.114-.494 4.237 4.237 0 011.276-.206 8.06 8.06 0 011.503.123c.43.083.819.248 1.168.522.349.261.617.605.792 1.058.188.44.269 1.017.269 1.717 0 1.003-.014 1.882-.027 2.652-.027.769-.027 1.621-.027 2.527 0 .275.04.495.135.646.093.165.228.302.429.412.107.069.268.096.483.11.228.014.443.014.685.014v.659zm-3.571-5.536a29.83 29.83 0 00-1.53.508 6.108 6.108 0 00-1.222.632 2.682 2.682 0 00-.805.852c-.201.33-.296.714-.296 1.168 0 .577.148 1.003.443 1.277.296.275.672.412 1.128.412.483 0 .913-.123 1.276-.357.362-.247.684-.522.926-.852zm9.465 5.714h-4.927v-.687l.496-.041c.175-.014.323-.041.443-.083a.816.816 0 00.43-.329c.095-.151.148-.357.148-.618V3.206c0-.247-.053-.494-.161-.714a1.336 1.336 0 00-.417-.522c-.12-.082-.348-.165-.671-.234a6.048 6.048 0 00-.792-.123V.94l3.799-.234.148.151v14.191c0 .247.04.44.135.605a.879.879 0 00.43.357c.147.068.295.123.443.151.147.041.308.055.496.069z" fill="#202020" stroke-width=".45" stroke="#212121" stroke-miterlimit="10"/></svg>