<svg xmlns="http://www.w3.org/2000/svg" width="120" height="50"><g fill="#212121"><path d="M5.816 36.199h-.959v-1.436h.959v-.56c0-.835.205-1.464.616-1.874.397-.411.973-.602 1.712-.602.302 0 .576.014.795.055.219.041.424.082.616.15v1.464c-.178-.055-.342-.11-.493-.137-.164-.027-.329-.055-.52-.055-.672 0-1.014.383-1.014 1.163v.424h2.014v1.422H7.555v6.1H5.816zm8.013 6.251c-.863 0-1.534-.26-2-.793-.466-.534-.712-1.231-.712-2.134v-4.814h1.739v4.308c0 .588.137 1.053.425 1.368.288.314.685.478 1.205.478.507 0 .918-.164 1.233-.492.315-.328.48-.78.48-1.381v-4.281h1.739v7.59h-1.739V41.11a3.601 3.601 0 01-.932.943c-.383.274-.863.397-1.438.397zm9.273-.014a5.102 5.102 0 01-1.657-.287 5.445 5.445 0 01-1.562-.848l.781-1.176c.425.3.849.533 1.26.697.425.164.836.233 1.219.233.37 0 .672-.069.877-.219a.704.704 0 00.315-.602v-.027a.495.495 0 00-.137-.37 1.303 1.303 0 00-.37-.273 4.059 4.059 0 00-.548-.219 35.695 35.695 0 00-.643-.205c-.274-.082-.562-.164-.836-.274a3.4 3.4 0 01-.767-.41 1.88 1.88 0 01-.548-.629c-.151-.246-.219-.561-.219-.917v-.027c0-.356.068-.67.205-.957a2.15 2.15 0 01.576-.739c.246-.205.534-.355.863-.465a3.347 3.347 0 011.054-.164c.48 0 .959.082 1.452.232.493.151.932.37 1.343.63l-.685 1.231a5.774 5.774 0 00-1.11-.52 3.377 3.377 0 00-1.041-.192c-.342 0-.603.069-.781.206a.614.614 0 00-.273.533v.027c0 .137.054.26.15.37.096.095.219.191.384.273.164.082.342.164.548.233.205.068.424.136.643.205.274.082.562.191.836.301.274.109.534.26.753.424.22.164.411.369.548.615.151.246.219.534.219.875v.028c0 .396-.068.752-.219 1.053-.15.301-.342.547-.602.739a2.979 2.979 0 01-.904.451c-.37.109-.74.164-1.124.164zm4.986-10.545h1.877v1.655h-1.877zm.069 2.817h1.739v7.591h-1.739zm7.999 7.755c-.575 0-1.11-.109-1.603-.314a4.347 4.347 0 01-1.287-.835 3.686 3.686 0 01-.836-1.244 3.812 3.812 0 01-.301-1.518v-.028c0-.547.109-1.053.315-1.532.205-.478.493-.902.849-1.258a4.099 4.099 0 011.288-.862 4.153 4.153 0 011.616-.314c.589 0 1.123.109 1.616.314.493.206.918.493 1.288.849.356.355.644.779.835 1.244.206.479.302.985.302 1.532v.027c0 .534-.11 1.04-.315 1.519a4.023 4.023 0 01-.849 1.258 4.257 4.257 0 01-1.288.861 4.25 4.25 0 01-1.63.301zm.027-1.518c.356 0 .671-.068.959-.191.288-.123.521-.301.726-.52.206-.219.356-.465.466-.766.109-.287.164-.602.164-.93v-.027a2.37 2.37 0 00-.178-.944 2.262 2.262 0 00-.479-.78 2.19 2.19 0 00-.74-.519 2.384 2.384 0 00-.945-.192 2.38 2.38 0 00-.945.192c-.288.123-.521.3-.726.519a2.305 2.305 0 00-.466.766 2.674 2.674 0 00-.164.93v.028c0 .342.055.642.178.943.109.288.274.547.479.766.206.219.452.397.74.52.288.137.589.205.931.205zm6.178-6.236h1.74v1.163a4.64 4.64 0 01.411-.506c.15-.165.315-.301.52-.424a2.49 2.49 0 01.644-.288c.233-.068.507-.109.794-.109.863 0 1.534.26 2 .793.466.534.712 1.231.712 2.12V42.3h-1.739v-4.308c0-.589-.137-1.054-.425-1.368-.287-.315-.685-.479-1.205-.479-.507 0-.918.164-1.233.493-.315.328-.479.793-.479 1.381V42.3h-1.74zm12.903 7.754a4.134 4.134 0 01-1.602-.314 4.339 4.339 0 01-1.288-.835 3.686 3.686 0 01-.836-1.244 3.812 3.812 0 01-.301-1.518v-.028c0-.547.11-1.053.315-1.532.206-.478.493-.902.849-1.258a4.099 4.099 0 011.288-.862 4.153 4.153 0 011.616-.314c.589 0 1.123.109 1.617.314.493.206.917.493 1.287.849.356.355.644.779.836 1.244.205.479.301.985.301 1.532v.027c0 .534-.11 1.04-.315 1.519a4.023 4.023 0 01-.849 1.258 4.245 4.245 0 01-1.288.861 4.3 4.3 0 01-1.63.301zm.027-1.518c.357 0 .672-.068.959-.191.288-.123.521-.301.726-.52.206-.219.356-.465.466-.766.11-.287.164-.602.164-.93v-.027c0-.342-.054-.657-.178-.944a2.262 2.262 0 00-.479-.78 2.19 2.19 0 00-.74-.519 2.377 2.377 0 00-.945-.192c-.342 0-.657.069-.945.192-.288.123-.521.3-.726.519a2.305 2.305 0 00-.466.766 2.674 2.674 0 00-.164.93v.028c0 .342.055.642.178.943.11.288.274.547.479.766.206.219.452.397.74.52.288.137.589.205.931.205zm6.178-6.236h1.74v1.71c.246-.574.575-1.039 1.027-1.381.438-.342 1-.506 1.671-.479v1.846h-.096c-.383 0-.739.069-1.054.192a2.261 2.261 0 00-.822.561c-.233.246-.411.56-.534.943a4.254 4.254 0 00-.192 1.313V42.3h-1.74zm6.329-2.818h1.876v1.655h-1.876zm.068 2.817h1.74v7.591h-1.74zm7.766 9.917c-1.26 0-2.397-.301-3.397-.916l.644-1.313a5.97 5.97 0 001.274.588c.438.15.918.219 1.438.219.781 0 1.37-.192 1.781-.589.411-.396.616-.971.616-1.737v-.588a4.065 4.065 0 01-1.109 1.012c-.425.26-.945.383-1.575.383-.452 0-.877-.082-1.302-.246a3.402 3.402 0 01-1.095-.697 3.396 3.396 0 01-.767-1.108 3.71 3.71 0 01-.288-1.491v-.027c0-.561.096-1.054.288-1.505a3.32 3.32 0 01.767-1.121 3.322 3.322 0 011.109-.698 3.477 3.477 0 011.288-.246c.644 0 1.178.123 1.589.383.411.26.78.561 1.068.916v-1.135h1.74v6.032c0 1.258-.315 2.215-.959 2.858a3.167 3.167 0 01-1.301.766c-.507.178-1.124.26-1.809.26zm.137-4.418c.302 0 .59-.054.863-.15.274-.096.507-.246.713-.424.205-.178.369-.397.479-.657.123-.26.178-.547.178-.848v-.027c0-.301-.055-.588-.178-.848a2.152 2.152 0 00-.479-.657 2.197 2.197 0 00-.713-.423 2.588 2.588 0 00-.863-.151c-.315 0-.589.055-.849.151-.26.095-.493.246-.685.423a1.91 1.91 0 00-.465.657c-.11.26-.165.533-.165.862v.027c0 .301.055.588.178.848.11.26.274.479.466.657.192.177.425.328.685.424.246.095.534.136.835.136zm6.521-8.316h1.876v1.655H82.29zm.082 2.817h1.739v7.591h-1.739zm4.369.001h1.74v1.163a4.64 4.64 0 01.411-.506c.15-.165.315-.301.52-.424a2.49 2.49 0 01.644-.288c.233-.068.507-.109.794-.109.863 0 1.535.26 2 .793.466.534.713 1.231.713 2.12V42.3h-1.74v-4.308c0-.589-.137-1.054-.425-1.368-.287-.315-.685-.479-1.205-.479-.507 0-.918.164-1.233.493-.315.328-.479.793-.479 1.381V42.3h-1.74zM98.22 42.45c-.356 0-.699-.054-1.028-.15a2.368 2.368 0 01-.863-.452 2.106 2.106 0 01-.589-.738c-.15-.287-.219-.629-.219-1.012v-.028c0-.41.082-.766.233-1.08a2.17 2.17 0 01.644-.766 2.682 2.682 0 011-.451 5.23 5.23 0 011.274-.151c.438 0 .808.028 1.123.082.315.055.63.137.917.233v-.192c0-.547-.164-.957-.478-1.231-.316-.273-.795-.41-1.398-.41a4.78 4.78 0 00-1.15.123 8.142 8.142 0 00-1.028.342l-.466-1.368c.425-.191.85-.342 1.302-.451.438-.109.959-.164 1.575-.164 1.137 0 1.972.287 2.521.848.274.273.479.615.616 1.012.136.397.205.834.205 1.34v4.5h-1.699v-.944c-.26.301-.588.575-.999.78-.411.219-.904.328-1.493.328zm.493-1.258c.287 0 .561-.041.808-.11.246-.082.466-.191.644-.328.178-.15.315-.314.424-.519a1.37 1.37 0 00.164-.657v-.52a4.674 4.674 0 00-.766-.219 5.29 5.29 0 00-.959-.082c-.562 0-1 .11-1.315.329-.315.218-.466.533-.466.93v.027c0 .369.137.643.425.848.26.191.616.301 1.041.301zm6.232-9.396h1.74v10.49h-1.74zm6.986 10.64a5.102 5.102 0 01-1.657-.287 5.432 5.432 0 01-1.562-.848l.781-1.176c.425.3.849.533 1.26.697.425.164.836.233 1.219.233.37 0 .672-.069.877-.219a.703.703 0 00.314-.602v-.027a.499.499 0 00-.136-.37 1.303 1.303 0 00-.37-.273 4.097 4.097 0 00-.547-.219 41.823 41.823 0 00-.644-.205c-.275-.082-.562-.164-.837-.274a3.393 3.393 0 01-.766-.41 1.87 1.87 0 01-.548-.629c-.151-.246-.219-.561-.219-.917v-.027c0-.356.068-.67.205-.957a2.15 2.15 0 01.576-.739c.246-.205.534-.355.862-.465a3.353 3.353 0 011.055-.164c.48 0 .959.082 1.452.232.494.151.931.37 1.342.63l-.684 1.231a5.802 5.802 0 00-1.11-.52 3.377 3.377 0 00-1.041-.192c-.343 0-.603.069-.781.206a.613.613 0 00-.274.533v.027c0 .137.055.26.151.37.096.095.219.191.383.273.165.082.343.164.549.233.205.068.424.136.643.205.274.082.562.191.836.301.274.109.534.26.753.424.22.164.411.369.548.615.15.246.219.534.219.875v.028c0 .396-.069.752-.219 1.053a2.006 2.006 0 01-.603.739 2.962 2.962 0 01-.903.451c-.37.109-.74.164-1.124.164zM45.648 6.219a17.984 17.984 0 0115.492.328 18.31 18.31 0 015.178 3.884l-1.151 1.765a18.668 18.668 0 00-7.355-2.681 18.926 18.926 0 00-10.355 1.45 17.806 17.806 0 01-1.809-4.746z"/><path d="M42.909 15.041c4-3.693 9.369-5.389 14.78-4.637 5.342.739 10.013 3.83 12.848 8.494-4 3.693-9.328 5.375-14.684 4.636a17.977 17.977 0 01-12.944-8.493z"/><path d="M55.388 27.392a17.58 17.58 0 01-3.274-.301 19.493 19.493 0 004.684-2.558 19.9 19.9 0 001.562.068c3.739 0 7.356-1.121 10.465-3.214-3.37 3.721-8.205 6.005-13.437 6.005zM76.03 8.381c-.069.054-.151.109-.26.205l-.247.219c-.068.054-.137.123-.247.219l-.232.232c-.069.082-.137.151-.151.178l-.068.068a6.387 6.387 0 00-.439.547c-.055.082-.109.151-.192.274l-.054.082-.151.232a7.327 7.327 0 00-.836 2.134s-.246 1.026-.328 1.395l-.041.041v.123a18.651 18.651 0 01-1.617 3.83 19.62 19.62 0 00-5.246-5.471l3.013-4.65.083-.123.137-.178c.096-.123.205-.233.342-.369l.178-.165c.123-.095.233-.191.411-.3l.178-.11a3.46 3.46 0 01.712-.314c.151-.041.288-.082.452-.123.151-.028.315-.055.521-.069a4.175 4.175 0 011.534.205c.123.041.247.096.37.151l.397.178 2.438 1.121a9.254 9.254 0 00-.657.438z"/></g></svg>