<svg xmlns="http://www.w3.org/2000/svg" width="76" height="51"><path d="M7.082 50.431l-5.158-5.389v2.041c0 1.36.052 2.315.104 2.524.103.34.233.471 1.208.497v.183c-.468-.013-.923-.026-1.39-.026-.455 0-.923.013-1.391.026v-.17c.689-.013.871-.183.962-.471.091-.274.091-1.216.091-2.563v-2.472c-.481-.497-.715-.707-1.131-.877v-.17c.273.013.585.027.897.027.611 0 1.195-.027 1.702-.053.663.798 2.521 2.969 3.755 4.199v-.955c0-1.36-.039-2.315-.117-2.524-.129-.327-.246-.471-1.208-.497v-.184c.455.014.923.027 1.39.027.455 0 .806-.013 1.3-.027v.17c-.598.014-.793.184-.871.471-.104.275-.104 1.217-.091 2.564l.013 3.636zm7.225-2.889c0 1.622-1.443 2.851-3.028 2.851s-3.027-1.19-3.027-2.812c0-1.622 1.442-2.851 3.027-2.851 1.585 0 3.028 1.19 3.028 2.812zm-1.559.039c0-1.556-.624-2.629-1.482-2.629-.857 0-1.481 1.007-1.481 2.577 0 1.556.624 2.629 1.481 2.629.858 0 1.482-1.007 1.482-2.577zm7.121 2.864c-.884 0-1.391-.235-1.794-.759-.402-.536-.623-1.334-.779-1.87l-.741-.039c0 1.36.013 1.87.078 2.079.065.197.195.301.663.314v.144c-.377-.013-.884-.013-1.391-.013-.493 0-1 .013-1.39.013v-.144c.468-.013.598-.117.663-.314.078-.209.078-.732.078-2.171v-.248c0-1.439-.013-1.962-.078-2.171-.065-.197-.221-.301-.689-.314v-.144c.325.013.715.013 1.131.013.571 0 1.13-.039 1.637-.039 1.351 0 2.287.484 2.287 1.464 0 .772-.663 1.217-1.287 1.348.325.588.871 1.386 1.17 1.713.481.497.883.876 1.429.876v.053c-.169.104-.637.209-.987.209zm-3.301-2.851l.845-.04c.286-.013.779-.471.779-1.229 0-.785-.48-1.269-1.182-1.269-.117 0-.429.039-.429.039-.013.563-.013 1.204-.013 2.302z" fill="#212121"/><path d="M23.676 50.301c-.507-.013-1.079-.013-1.598-.013-.52 0-1.014.013-1.404.013v-.144c.468-.013.598-.117.663-.314.078-.209.078-.732.078-2.171v-.248c0-1.439-.013-1.962-.078-2.172-.065-.196-.208-.3-.689-.313v-.144h2.326c1.793 0 2.157-.053 2.157-.053.026.654.052 1.191.117 1.688l-.078.013c-.26-.85-.533-1.4-1.715-1.4a2.18 2.18 0 00-.715.092 46.919 46.919 0 00-.039 2.263v.052h.338c.845-.013 1.04-.183 1.066-.837h.143c-.013.301-.026.588-.026.955 0 .366.013.654.026.954h-.143c-.026-.654-.208-.824-1.066-.837l-.338-.013c0 1.112.013 1.923.065 2.093.065.249.208.366.91.379zm7.835-2.759c0 1.622-1.442 2.851-3.027 2.851-1.586 0-3.028-1.19-3.028-2.812 0-1.622 1.442-2.851 3.028-2.851 1.585 0 3.027 1.19 3.027 2.812zm-1.559.039c0-1.556-.624-2.629-1.481-2.629-.858 0-1.481 1.007-1.481 2.577 0 1.556.623 2.629 1.481 2.629.857 0 1.481-1.007 1.481-2.577zm1.793 2.59c.468-.013.598-.118.663-.314.078-.209.078-.733.078-2.171v-.249c0-1.439-.013-1.962-.078-2.171-.065-.196-.195-.301-.663-.314v-.144c.39.013.884.013 1.391.013.506 0 1-.013 1.39-.013v.144c-.468.013-.598.118-.663.314-.078.209-.078.732-.078 2.171v1.897c0 .562.494.667 1.105.667.78 0 1.351-.458 1.78-1.766l.104.026c-.143.798-.208 1.57-.247 2.041-1.351-.013-2.261-.013-2.963-.013-.714 0-1.221.013-1.78.013v-.131zm11.383.129c-.494-.013-.975-.013-1.429-.013-.455 0-.897.013-1.3.013v-.143c.273-.027.351-.092.351-.21a.53.53 0 00-.091-.248l-1.091-1.687c-.273-.432-.468-.524-.65-.524v.184c0 1.438.013 1.961.078 2.171.065.196.195.301.663.314v.143c-.377-.013-.884-.013-1.391-.013-.494 0-1 .013-1.39.013v-.143c.468-.013.598-.118.663-.314.078-.21.078-.733.078-2.171v-.249c0-1.439-.013-1.962-.078-2.171-.065-.196-.195-.301-.663-.314v-.144c.39.013.884.013 1.39.013.494 0 1.001-.013 1.391-.013v.144c-.468.013-.598.118-.663.314-.078.209-.078.732-.078 2.106.208 0 .429-.053.741-.367l1.585-1.595c.104-.105.169-.197.169-.262 0-.105-.078-.157-.702-.183v-.144c.364.013.689.013 1.014.013.325 0 .649-.013 1.013-.013v.144c-.455.039-.714.183-1.221.667l-1.261 1.203 1.975 2.773c.312.458.507.536.91.576v.13zm8.394-.823c-1.104.667-2.17.942-3.17.942-1.91 0-3.716-1.19-3.716-3.283 0-2.368 2.053-3.649 3.911-3.649.779 0 1.351.183 2.014.497l.234 1.726-.104.052c-.182-.497-.429-.967-.715-1.281-.325-.367-.754-.628-1.364-.628-1.209 0-2.118 1.203-2.118 2.93 0 1.7.922 3.086 2.598 3.086.027 0 .169 0 .312-.013l.013-.641c0-.758-.026-1.268-.169-1.451-.156-.183-.324-.236-.831-.262v-.183c.481.013 1.078.026 1.676.026a62.1 62.1 0 001.676-.026v.183c-.455.026-.623.092-.74.262-.065.104-.091.235-.091.824v.968l.545-.236zm5.782.968c-.883 0-1.39-.235-1.793-.759-.403-.536-.623-1.334-.779-1.87l-.741-.039c0 1.36.013 1.87.078 2.079.065.197.195.301.663.314v.144c-.377-.013-.884-.013-1.391-.013-.494 0-1 .013-1.39.013v-.144c.468-.013.598-.117.663-.314.078-.209.078-.732.078-2.171v-.248c0-1.439-.014-1.962-.078-2.171-.065-.197-.221-.301-.689-.314v-.144c.325.013.715.013 1.13.013.572 0 1.131-.039 1.638-.039 1.351 0 2.287.484 2.287 1.464 0 .772-.663 1.217-1.287 1.348.325.588.871 1.386 1.17 1.713.48.497.883.876 1.429.876v.053c-.182.104-.637.209-.988.209zm-3.3-2.851l.845-.04c.285-.013.779-.471.779-1.229 0-.785-.481-1.269-1.182-1.269-.117 0-.429.039-.429.039-.013.563-.013 1.204-.013 2.302zm9.993-.052c0 1.622-1.443 2.851-3.028 2.851s-3.028-1.19-3.028-2.812c0-1.622 1.443-2.851 3.028-2.851s3.028 1.19 3.028 2.812zm-1.56.039c0-1.556-.623-2.629-1.481-2.629-.858 0-1.481 1.007-1.481 2.577 0 1.556.623 2.629 1.481 2.629.858 0 1.481-1.007 1.481-2.577zm6.562-2.211c-.104-.275-.208-.379-.987-.405v-.144c.377.013.753.013 1.13.013.364 0 .663-.013 1.066-.013v.144c-.52.013-.65.143-.715.379-.078.222-.104.994-.091 2.106v.798c0 1.36-.974 2.158-2.313 2.158-1.143 0-2.261-.641-2.261-2.132v-.824c0-1.439-.013-1.962-.078-2.172-.065-.196-.195-.3-.663-.313v-.144c.39.013.884.013 1.391.013.494 0 1-.013 1.39-.013v.144c-.468.013-.598.117-.662.313-.078.21-.078.733-.078 2.172v.588c0 1.099.558 1.714 1.455 1.714.78 0 1.494-.537 1.494-1.701v-.588c0-1.138-.013-1.923-.078-2.093zm1.287 4.801c.468-.014.598-.118.663-.314.078-.21.078-.733.078-2.172v-.248c0-1.439-.013-1.962-.078-2.171-.065-.196-.208-.301-.689-.314v-.144c.325.013.715.013 1.131.013.571 0 1.078-.039 1.52-.039 1.416-.013 2.391.562 2.391 1.517 0 1.138-1.066 1.583-2.196 1.583-.247 0-.377-.013-.572-.053v-.091c1.052 0 1.364-.667 1.364-1.439 0-.824-.506-1.269-1.195-1.269-.143 0-.377.04-.377.04-.013.614-.013 1.242-.013 2.367v.222c0 1.112.013 1.923.065 2.106.065.249.208.366.91.379v.144c-.507-.013-1.079-.013-1.599-.013-.519 0-1.013.013-1.403.013zM56.369 19.682c0 9.849-7.511 17.919-17.087 18.73a21.27 21.27 0 01-1.586.065c-.532 0-1.065-.026-1.585-.065-9.577-.811-17.087-8.894-17.087-18.73C19.024 9.297 27.392.873 37.709.873c10.292 0 18.66 8.424 18.66 18.809z" fill="#212121"/><path d="M49.859 32.225l-10.603 2.367c-.078.013-.13.078-.117.157l.143 3.662c-.52.039-1.053.066-1.586.066-.532 0-1.065-.027-1.585-.066l.143-3.662c0-.079-.052-.144-.117-.157l-10.603-2.367c-.182-.04-.156-.314.039-.314h10.655a.159.159 0 00.156-.157l.078-1.818c0-.079-.052-.144-.117-.157l-8.498-1.897c-.182-.039-.156-.314.039-.314h8.537a.158.158 0 00.156-.157l.078-1.7c0-.078-.052-.144-.117-.157l-6.757-1.504c-.182-.039-.156-.314.039-.314h6.783a.158.158 0 00.156-.157l.078-1.687c0-.079-.052-.144-.117-.157l-5.341-1.19c-.182-.04-.156-.314.039-.314h5.354c.078 0 .156-.066.156-.144l.078-1.792c0-.079-.052-.144-.117-.157l-4.171-.929c-.182-.039-.156-.314.039-.314h4.171c.078 0 .156-.065.156-.144l.065-1.661c0-.078-.052-.144-.117-.157l-3.223-.719c-.182-.039-.156-.314.039-.314h3.21a.158.158 0 00.156-.157l.065-1.674c0-.079-.052-.144-.117-.157l-2.43-.536c-.182-.04-.156-.314.039-.314h2.417a.151.151 0 00.156-.157l.052-1.282c0-.078-.052-.144-.117-.157l-1.78-.405c-.182-.04-.156-.314.038-.314h1.768c.078 0 .156-.066.156-.144l.065-1.413c0-.078-.052-.144-.117-.157l-1.261-.288c-.182-.039-.156-.313.039-.313h1.235c.078 0 .156-.066.156-.144l.051-1.334c0-.079-.051-.144-.116-.157l-.845-.183c-.182-.04-.156-.314.039-.314h.806c.077 0 .155-.066.155-.144l.039-1.06c0-.078-.052-.144-.117-.157l-.493-.104c-.182-.04-.156-.314.039-.314h.454c.078 0 .156-.066.156-.144l.065-1.491.065 1.491c0 .078.078.144.156.144h.455c.182 0 .221.274.039.314l-.494.104c-.078.013-.13.079-.117.157l.039 1.06c0 .078.078.144.156.144h.806c.182 0 .221.274.039.314l-.845.183c-.078.013-.13.078-.117.157l.052 1.334c0 .078.065.144.156.144h1.235c.182 0 .221.274.039.313l-1.261.288c-.078.013-.13.079-.117.157l.065 1.413c0 .078.078.144.156.144h1.767c.182 0 .221.274.039.314l-1.793.405c-.078.013-.13.079-.117.157l.052 1.282c0 .078.078.157.156.157h2.417c.182 0 .221.274.039.314l-2.43.536c-.078.013-.13.078-.117.157l.065 1.674c0 .079.078.157.156.157h3.21c.182 0 .221.275.039.314l-3.21.719c-.078.013-.13.079-.117.157l.065 1.661c0 .079.078.144.156.144h4.171c.182 0 .221.275.039.314l-4.171.929c-.078.013-.13.078-.117.157l.078 1.792c0 .078.078.144.156.144h5.354c.181 0 .22.274.038.314l-5.34 1.19c-.078.013-.13.078-.117.157l.065 1.687c0 .078.078.157.156.157h6.783c.182 0 .221.275.039.314l-6.757 1.504c-.078.013-.13.079-.117.157l.078 1.7c0 .079.078.157.156.157h8.537c.182 0 .221.275.039.314l-8.498 1.897c-.078.013-.13.078-.117.157l.078 1.818c0 .091.078.157.156.157h10.655c-.026.013 0 .274-.182.314z" fill="#eaeaea"/></svg>