<svg width="1180" height="700" fill="none" xmlns="http://www.w3.org/2000/svg"><path fill="#fff" d="M0 0h1180v700H0z"/><path fill="#fff" d="M0 0h1180v700H0z"/><path d="M9.026 85.096H5.33V94h-.98v-8.904H.654V84.2h8.372v.896zm6.672 3.962L18.89 84.2h1.106l-3.808 5.712V94h-.98v-4.088L11.4 84.2h1.106l3.192 4.858zM23.59 94h-.98v-9.8h4.06c.504 0 .952.07 1.344.21.401.14.737.336 1.008.588.28.252.49.55.63.896.15.345.224.719.224 1.12 0 .401-.075.775-.224 1.12-.15.345-.364.644-.644.896s-.62.448-1.022.588c-.392.14-.83.21-1.316.21h-3.08V94zm2.996-5.068c.681 0 1.227-.159 1.638-.476.41-.317.616-.798.616-1.442 0-.644-.206-1.125-.616-1.442-.41-.317-.957-.476-1.638-.476H23.59v3.836h2.996zM39.71 84.2v.896h-5.628v3.388h5.208v.896h-5.208v3.724h5.768V94h-6.748v-9.8h6.608zm10.095 0v.896H44.19v3.696h5.194v.896H44.19V94h-.98v-9.8h6.594zm5.505 0h1.372l4.186 9.8h-1.036l-1.106-2.632h-5.46L52.16 94h-1.036l4.186-9.8zm3.038 6.272L55.996 84.9l-2.352 5.572h4.704zm5.313-1.372c0 .653.093 1.237.28 1.75.187.513.448.947.784 1.302.336.355.733.625 1.19.812.467.187.975.28 1.526.28 1.167 0 2.049-.285 2.646-.854.597-.57 1.031-1.353 1.302-2.352l.826.336c-.261 1.13-.803 2.04-1.624 2.73-.821.69-1.866 1.036-3.136 1.036-.728 0-1.39-.126-1.988-.378a4.578 4.578 0 01-1.526-1.064 4.78 4.78 0 01-.98-1.596 5.815 5.815 0 01-.336-2.002c-.01-.7.108-1.358.35-1.974a4.973 4.973 0 011.008-1.624 4.65 4.65 0 011.54-1.064 4.61 4.61 0 011.932-.378c1.167 0 2.096.303 2.786.91.7.607 1.19 1.381 1.47 2.324l-.91.406c-.196-.85-.583-1.517-1.162-2.002-.57-.495-1.302-.742-2.198-.742a3.83 3.83 0 00-1.498.294 3.598 3.598 0 00-1.204.84 3.878 3.878 0 00-.798 1.302c-.187.504-.28 1.073-.28 1.708zm18.18-4.9v.896h-5.628v3.388h5.208v.896h-5.208v3.724h5.768V94h-6.748v-9.8h6.608zm521.943 4.9c0 .653.094 1.237.28 1.75.187.513.448.947.784 1.302.336.355.733.625 1.19.812.467.187.976.28 1.526.28 1.167 0 2.049-.285 2.646-.854.598-.57 1.032-1.353 1.302-2.352l.826.336c-.261 1.13-.802 2.04-1.624 2.73-.821.69-1.866 1.036-3.136 1.036-.728 0-1.39-.126-1.988-.378a4.581 4.581 0 01-1.526-1.064 4.79 4.79 0 01-.98-1.596 5.815 5.815 0 01-.336-2.002c-.009-.7.108-1.358.35-1.974a4.983 4.983 0 011.008-1.624 4.653 4.653 0 011.54-1.064 4.613 4.613 0 011.932-.378c1.167 0 2.096.303 2.786.91.7.607 1.19 1.381 1.47 2.324l-.91.406c-.196-.85-.583-1.517-1.162-2.002-.569-.495-1.302-.742-2.198-.742a3.83 3.83 0 00-1.498.294 3.607 3.607 0 00-1.204.84 3.878 3.878 0 00-.798 1.302 4.908 4.908 0 00-.28 1.708zm16.122-5.04a4.73 4.73 0 011.988.392 4.764 4.764 0 011.596 1.092c.448.457.798.994 1.05 1.61.252.616.373 1.265.364 1.946a4.952 4.952 0 01-.364 1.96 5.12 5.12 0 01-1.05 1.624c-.448.457-.98.821-1.596 1.092a4.714 4.714 0 01-1.988.364 4.714 4.714 0 01-1.988-.364 5.055 5.055 0 01-1.596-1.092 5.12 5.12 0 01-1.05-1.624 4.952 4.952 0 01-.364-1.96 4.915 4.915 0 01.364-1.946 4.956 4.956 0 011.05-1.61 4.77 4.77 0 011.596-1.092 4.73 4.73 0 011.988-.392zm0 9.184c.569 0 1.097-.098 1.582-.294a3.647 3.647 0 001.26-.84c.355-.364.63-.798.826-1.302a4.754 4.754 0 00.294-1.708c0-.625-.098-1.19-.294-1.694a3.798 3.798 0 00-.826-1.316 3.5 3.5 0 00-1.246-.84 4.221 4.221 0 00-1.596-.294c-.579 0-1.111.103-1.596.308a3.647 3.647 0 00-1.26.84 3.92 3.92 0 00-.812 1.316 4.641 4.641 0 00-.294 1.694c0 .625.098 1.195.294 1.708a4 4 0 00.84 1.302c.355.355.775.63 1.26.826a4.146 4.146 0 001.568.294zm9.164-9.044v8.904h6.132V94h-7.112v-9.8h.98zm13.119-.14a4.73 4.73 0 011.988.392 4.764 4.764 0 011.596 1.092c.448.457.798.994 1.05 1.61.252.616.373 1.265.364 1.946a4.952 4.952 0 01-.364 1.96 5.12 5.12 0 01-1.05 1.624c-.448.457-.98.821-1.596 1.092a4.714 4.714 0 01-1.988.364 4.71 4.71 0 01-1.988-.364 5.055 5.055 0 01-1.596-1.092 5.12 5.12 0 01-1.05-1.624 4.934 4.934 0 01-.364-1.96c-.01-.681.112-1.33.364-1.946a4.956 4.956 0 011.05-1.61 4.77 4.77 0 011.596-1.092 4.727 4.727 0 011.988-.392zm0 9.184a4.19 4.19 0 001.582-.294 3.647 3.647 0 001.26-.84 3.84 3.84 0 00.826-1.302 4.754 4.754 0 00.294-1.708c0-.625-.098-1.19-.294-1.694a3.813 3.813 0 00-.826-1.316 3.509 3.509 0 00-1.246-.84 4.229 4.229 0 00-1.596-.294c-.579 0-1.111.103-1.596.308a3.628 3.628 0 00-1.26.84 3.905 3.905 0 00-.812 1.316 4.641 4.641 0 00-.294 1.694c0 .625.098 1.195.294 1.708a4 4 0 00.84 1.302c.354.355.774.63 1.26.826a4.146 4.146 0 001.568.294zm14.414.756c-.103-.205-.178-.476-.224-.812-.047-.336-.08-.812-.098-1.428-.019-.737-.206-1.255-.56-1.554-.346-.308-.868-.462-1.568-.462h-2.8V94h-.98v-9.8h4.242c.476 0 .905.075 1.288.224.382.14.704.331.966.574.27.243.476.527.616.854.149.317.224.653.224 1.008 0 .597-.164 1.106-.49 1.526-.327.41-.826.719-1.498.924.532.177.928.457 1.19.84.261.383.396.924.406 1.624a7.866 7.866 0 00.098 1.274 2.6 2.6 0 00.14.434c.065.121.149.238.252.35V94h-1.204zm-2.086-5.152c.653 0 1.171-.163 1.554-.49.392-.336.588-.798.588-1.386 0-.588-.196-1.045-.588-1.372-.383-.336-.901-.504-1.554-.504h-3.164v3.752h3.164zm14.505-3.892a2.9 2.9 0 00-.826.112 2.013 2.013 0 00-.672.308c-.186.13-.336.299-.448.504a1.5 1.5 0 00-.154.7c0 .56.215.994.644 1.302.43.299 1.097.532 2.002.7 1.176.224 2.016.55 2.52.98.514.42.77.994.77 1.722 0 .42-.093.807-.28 1.162a2.715 2.715 0 01-.742.896 3.375 3.375 0 01-1.106.588 4.49 4.49 0 01-1.4.21c-.466 0-.91-.06-1.33-.182a4.067 4.067 0 01-1.148-.546 3.96 3.96 0 01-.924-.924 5.349 5.349 0 01-.644-1.33l.854-.532c.234.821.612 1.465 1.134 1.932.532.457 1.223.686 2.072.686.766 0 1.377-.168 1.834-.504.467-.345.7-.826.7-1.442 0-.243-.046-.457-.14-.644a1.227 1.227 0 00-.448-.518 2.74 2.74 0 00-.812-.406 8.515 8.515 0 00-1.246-.294 6.692 6.692 0 01-1.358-.364 4.279 4.279 0 01-1.036-.602 2.686 2.686 0 01-.672-.826 2.348 2.348 0 01-.224-1.036c0-.355.075-.686.224-.994.15-.317.36-.588.63-.812a3.12 3.12 0 01.994-.546c.392-.13.826-.196 1.302-.196.812 0 1.512.196 2.1.588.598.392 1.022.952 1.274 1.68l-.868.49c-.392-1.241-1.25-1.862-2.576-1.862zm7.48 4.144c0 .653.094 1.237.28 1.75.187.513.448.947.784 1.302.336.355.733.625 1.19.812.467.187.976.28 1.526.28 1.167 0 2.049-.285 2.646-.854.598-.57 1.032-1.353 1.302-2.352l.826.336c-.261 1.13-.802 2.04-1.624 2.73-.821.69-1.866 1.036-3.136 1.036-.728 0-1.39-.126-1.988-.378a4.581 4.581 0 01-1.526-1.064 4.79 4.79 0 01-.98-1.596 5.815 5.815 0 01-.336-2.002c-.009-.7.108-1.358.35-1.974a4.983 4.983 0 011.008-1.624 4.653 4.653 0 011.54-1.064 4.613 4.613 0 011.932-.378c1.167 0 2.096.303 2.786.91.7.607 1.19 1.381 1.47 2.324l-.91.406c-.196-.85-.583-1.517-1.162-2.002-.569-.495-1.302-.742-2.198-.742a3.83 3.83 0 00-1.498.294 3.607 3.607 0 00-1.204.84 3.878 3.878 0 00-.798 1.302 4.908 4.908 0 00-.28 1.708zm12.552.518V94h-.98v-9.8h.98v4.522h5.992V84.2h.98V94h-.98v-4.382h-5.992zm17.214-5.418v.896h-5.628v3.388h5.208v.896h-5.208v3.724h5.768V94h-6.748v-9.8h6.608zm13.441 9.8v-9.324L715.943 94h-1.428l-3.766-9.324V94h-.98v-9.8h1.806l3.654 9.114 3.654-9.114h1.806V94h-.98zm11.234-9.8v.896h-5.628v3.388h5.208v.896h-5.208v3.724h5.768V94h-6.748v-9.8h6.608zM35.1 200.88C63 201.6 66.24 234 31.23 234H3.6c.54-19.17.54-43.83 0-63h24.3c28.62 0 27.63 28.17 7.2 29.88zm-12.33-27.9l-9.9.09c-.18 8.28-.27 17.55-.27 26.82h12.42c20.25 0 24.03-27-2.25-26.91zm-9.9 59.13l13.23.09c29.7.09 29.52-30.42-.99-30.33l-12.51.09c-.09 10.44.09 20.88.27 30.15zm85.83-22.32c13.86 4.41 14.4 21.24 23.85 24.21 0 0-10.08 4.05-14.76-2.34-4.32-4.23-6.03-19.44-16.11-20.97H73.86c0 8.19.18 16.11.36 23.31h-9.36c.54-19.17.54-43.83 0-63h24.21c28.62 0 31.86 32.85 9.63 38.79zm-11.61-36.81l-12.96.09c-.27 10.89-.36 23.49-.27 35.73h15.03c.81-.09 1.53-.09 2.25-.09 18.9-1.98 18.72-35.82-4.05-35.73zm73.965 61.83c-46.35 6.39-54.45-62.37-9.72-65.25 42.75-2.79 48.69 59.94 9.72 65.25zm-.45-1.26c28.26-3.87 21.42-64.53-9.09-62.64-33.75 2.16-24.57 67.23 9.09 62.64zm44.745-1.44l31.23-.18V234h-40.5c.54-19.17.54-43.83 0-63h9.36c-.54 18.54-.54 42.21-.09 61.11zM243.805 171h9.36c-.54 19.17-.54 43.83 0 63h-9.36c.54-19.17.54-43.83 0-63zm78.152 0c-.45 19.17-.45 43.83 0 63h-9.27c.45-17.37.45-39.33.09-57.51L289.467 234h-2.7c-7.29-19.26-15.66-38.61-23.49-57.87V234h-2.07v-63h9.99c7.29 19.35 12.87 32.4 20.79 51.21l20.7-51.03V171h9.27zm46.256 63.81c-46.35 6.39-54.45-62.37-9.72-65.25 42.75-2.79 48.69 59.94 9.72 65.25zm-.45-1.26c28.26-3.87 21.42-64.53-9.09-62.64-33.75 2.16-24.57 67.23 9.09 62.64zM4.032 289.728V297H1.824v-16.8h2.208v7.512h9.624V280.2h2.208V297h-2.208v-7.272H4.032zm25.4 3.84c-.385 1.152-1 2.056-1.849 2.712-.848.64-1.928.96-3.24.96a6.34 6.34 0 01-2.304-.408 5.483 5.483 0 01-1.824-1.2 5.844 5.844 0 01-1.176-1.896c-.288-.752-.432-1.584-.432-2.496 0-.816.128-1.576.384-2.28.272-.72.64-1.344 1.104-1.872a5.276 5.276 0 011.704-1.248c.672-.304 1.416-.456 2.232-.456 1.52 0 2.744.44 3.672 1.32.928.864 1.392 2.04 1.392 3.528 0 .496-.048.96-.144 1.392H20.72c0 .624.096 1.176.288 1.656.192.464.448.856.768 1.176.336.32.72.56 1.152.72.432.16.904.24 1.416.24.88 0 1.592-.216 2.136-.648.544-.448.928-1.08 1.152-1.896l1.8.696zm-2.4-3.432l.023-.336c0-.816-.296-1.448-.888-1.896-.576-.464-1.296-.696-2.16-.696-.88 0-1.624.264-2.232.792-.592.512-.944 1.224-1.056 2.136h6.312zm4.282 3.624c0-.576.104-1.08.312-1.512.208-.448.496-.816.864-1.104a3.792 3.792 0 011.344-.672c.512-.16 1.08-.24 1.704-.24.848 0 1.656.12 2.424.36l1.032.288v-1.176c0-.832-.264-1.464-.792-1.896-.512-.448-1.2-.672-2.064-.672-.816 0-1.488.208-2.016.624-.528.416-.864.992-1.008 1.728l-1.872-.528c.224-1.104.76-1.976 1.608-2.616.848-.64 1.944-.96 3.288-.96 1.552 0 2.744.4 3.576 1.2.848.784 1.272 1.88 1.272 3.288V297h-1.992v-1.8c-.288.608-.784 1.104-1.488 1.488-.704.368-1.512.552-2.424.552-1.056 0-1.952-.312-2.688-.936-.72-.64-1.08-1.488-1.08-2.544zm7.68-1.248l-1.056-.312c-.8-.24-1.504-.36-2.112-.36-.736 0-1.32.152-1.752.456-.416.304-.624.752-.624 1.344 0 .528.192.96.576 1.296.4.32.984.48 1.752.48.96 0 1.736-.232 2.328-.696.592-.48.888-1.136.888-1.968v-.24zm4.504-1.128c0-.88.128-1.688.384-2.424a5.644 5.644 0 011.08-1.896 5.051 5.051 0 011.68-1.224 5.018 5.018 0 012.136-.456c.88 0 1.656.208 2.328.624.672.4 1.192.96 1.56 1.68V280.2h2.088V297h-1.992v-2.04a4.434 4.434 0 01-1.608 1.656c-.688.416-1.464.624-2.328.624a5.585 5.585 0 01-2.16-.408 4.89 4.89 0 01-1.68-1.2 6.034 6.034 0 01-1.104-1.872c-.256-.72-.384-1.512-.384-2.376zm9.264-.024c0-.624-.104-1.192-.312-1.704a4.071 4.071 0 00-.816-1.296 3.605 3.605 0 00-1.152-.816 3.22 3.22 0 00-2.664 0 3.605 3.605 0 00-1.152.816 4.071 4.071 0 00-.816 1.296c-.192.496-.288 1.064-.288 1.704 0 .64.096 1.216.288 1.728.208.496.48.92.816 1.272a3.53 3.53 0 002.496 1.032 3.47 3.47 0 001.32-.264 3.797 3.797 0 001.152-.792c.336-.352.608-.776.816-1.272.208-.496.312-1.064.312-1.704zm7.254-5.736V297h-2.064v-11.376h2.064zm-2.184-4.368h2.304v2.424h-2.304v-2.424zM63.225 297v-11.376h2.064v1.848c.4-.672.92-1.184 1.56-1.536.64-.368 1.368-.552 2.184-.552 1.216 0 2.184.368 2.904 1.104.736.736 1.104 1.776 1.104 3.12V297h-2.088v-6.768c0-1.008-.232-1.76-.696-2.256-.448-.512-1.08-.768-1.896-.768-.432 0-.84.088-1.224.264-.368.16-.688.392-.96.696-.272.304-.488.68-.648 1.128-.16.432-.24.92-.24 1.464V297h-2.064zm14.855.696c.448 1.648 1.568 2.472 3.36 2.472 1.104 0 1.936-.352 2.496-1.056.56-.688.84-1.68.84-2.976v-1.272c-.336.64-.84 1.16-1.512 1.56-.672.384-1.488.576-2.448.576-.72 0-1.4-.128-2.04-.384a5.077 5.077 0 01-1.68-1.152 5.91 5.91 0 01-1.128-1.776c-.272-.704-.408-1.48-.408-2.328 0-.88.136-1.688.408-2.424a6.077 6.077 0 011.152-1.896 4.986 4.986 0 011.704-1.224 5.195 5.195 0 012.112-.432c1.712 0 2.992.648 3.84 1.944v-1.704h2.088v10.368c0 1.776-.472 3.224-1.416 4.344-.944 1.104-2.28 1.656-4.008 1.656-2.736 0-4.48-1.168-5.232-3.504l1.872-.792zm6.792-6.48c0-.576-.096-1.104-.288-1.584a3.709 3.709 0 00-.744-1.272 3.154 3.154 0 00-1.152-.84 3.22 3.22 0 00-1.416-.312c-.528 0-1.016.096-1.464.288a3.154 3.154 0 00-1.152.84c-.32.352-.576.792-.768 1.32a5.296 5.296 0 00-.264 1.728c0 .576.088 1.104.264 1.584.192.464.448.864.768 1.2.32.32.704.568 1.152.744a3.97 3.97 0 001.464.264c.512 0 .984-.096 1.416-.288a3.286 3.286 0 001.152-.816c.32-.352.568-.768.744-1.248a4.416 4.416 0 00.288-1.608zM44.82 572.665V580H8.235v-64.485h8.685v57.15h27.9zm32.46-13.185c-3.69.12-6.84.42-9.45.9-2.58.45-4.694 1.05-6.344 1.8-1.62.75-2.805 1.635-3.555 2.655a5.792 5.792 0 00-1.08 3.42c0 1.2.194 2.235.584 3.105.39.87.915 1.59 1.575 2.16a7.17 7.17 0 002.386 1.215c.93.24 1.92.36 2.97.36 1.41 0 2.7-.135 3.87-.405 1.17-.3 2.264-.72 3.284-1.26 1.05-.54 2.04-1.185 2.97-1.935.96-.75 1.89-1.605 2.79-2.565v-9.45zm-25.874-18.63c2.52-2.43 5.235-4.245 8.145-5.445 2.91-1.2 6.135-1.8 9.674-1.8 2.55 0 4.816.42 6.796 1.26 1.98.84 3.644 2.01 4.995 3.51 1.35 1.5 2.37 3.315 3.06 5.445.69 2.13 1.035 4.47 1.035 7.02V580h-3.556c-.78 0-1.38-.12-1.8-.36-.42-.27-.75-.78-.99-1.53l-.9-4.32c-1.2 1.11-2.37 2.1-3.51 2.97a22.01 22.01 0 01-3.6 2.16c-1.26.57-2.61 1.005-4.05 1.305-1.41.33-2.984.495-4.724.495-1.77 0-3.436-.24-4.995-.72-1.56-.51-2.925-1.26-4.095-2.25-1.14-.99-2.055-2.235-2.745-3.735-.66-1.53-.99-3.33-.99-5.4 0-1.8.495-3.525 1.485-5.175.99-1.68 2.595-3.165 4.815-4.455s5.114-2.34 8.684-3.15c3.57-.84 7.95-1.32 13.14-1.44v-3.555c0-3.54-.764-6.21-2.294-8.01-1.53-1.83-3.766-2.745-6.706-2.745-1.98 0-3.645.255-4.995.765-1.32.48-2.474 1.035-3.464 1.665-.96.6-1.8 1.155-2.52 1.665-.69.48-1.38.72-2.07.72-.54 0-1.006-.135-1.395-.405-.39-.3-.72-.66-.99-1.08l-1.44-2.565zm59.286 39.87c-3.6 0-6.375-1.005-8.325-3.015-1.92-2.01-2.88-4.905-2.88-8.685v-27.9h-5.49c-.48 0-.885-.135-1.215-.405-.33-.3-.495-.75-.495-1.35v-3.195l7.47-.945 1.845-14.085c.09-.45.285-.81.585-1.08.33-.3.75-.45 1.26-.45h4.05v15.705h13.185v5.805h-13.185v27.36c0 1.92.465 3.345 1.395 4.275.93.93 2.13 1.395 3.6 1.395.84 0 1.56-.105 2.16-.315.63-.24 1.17-.495 1.62-.765.45-.27.825-.51 1.125-.72.33-.24.615-.36.855-.36.42 0 .795.255 1.125.765l2.34 3.825c-1.38 1.29-3.045 2.31-4.995 3.06-1.95.72-3.96 1.08-6.03 1.08zm37.212-47.025c3.33 0 6.33.555 9 1.665 2.67 1.11 4.95 2.685 6.84 4.725 1.89 2.04 3.33 4.515 4.32 7.425 1.02 2.88 1.53 6.105 1.53 9.675 0 3.6-.51 6.84-1.53 9.72-.99 2.88-2.43 5.34-4.32 7.38-1.89 2.04-4.17 3.615-6.84 4.725-2.67 1.08-5.67 1.62-9 1.62-3.36 0-6.39-.54-9.09-1.62-2.67-1.11-4.95-2.685-6.84-4.725-1.89-2.04-3.345-4.5-4.365-7.38-.99-2.88-1.485-6.12-1.485-9.72 0-3.57.495-6.795 1.485-9.675 1.02-2.91 2.475-5.385 4.365-7.425 1.89-2.04 4.17-3.615 6.84-4.725 2.7-1.11 5.73-1.665 9.09-1.665zm0 40.68c4.5 0 7.86-1.5 10.08-4.5 2.22-3.03 3.33-7.245 3.33-12.645 0-5.43-1.11-9.66-3.33-12.69-2.22-3.03-5.58-4.545-10.08-4.545-2.28 0-4.275.39-5.985 1.17-1.68.78-3.09 1.905-4.23 3.375-1.11 1.47-1.95 3.285-2.52 5.445-.54 2.13-.81 4.545-.81 7.245 0 5.4 1.11 9.615 3.33 12.645 2.25 3 5.655 4.5 10.215 4.5zM1.824 622.2h7.608c.8 0 1.528.112 2.184.336a5.029 5.029 0 011.68.936c.464.384.824.848 1.08 1.392.256.528.384 1.096.384 1.704a3.88 3.88 0 01-.696 2.256c-.448.656-1.056 1.16-1.824 1.512.976.32 1.736.824 2.28 1.512.56.688.84 1.56.84 2.616a3.93 3.93 0 01-.432 1.824 4.375 4.375 0 01-1.128 1.416c-.48.4-1.056.72-1.728.96a6.57 6.57 0 01-2.136.336H1.824v-16.8zm7.704 7.176c.96 0 1.704-.224 2.232-.672.544-.464.816-1.104.816-1.92 0-.384-.08-.728-.24-1.032a2.244 2.244 0 00-.648-.792 2.75 2.75 0 00-.96-.504 4.104 4.104 0 00-1.2-.168H4.032v5.088h5.496zm.336 7.536c.928 0 1.688-.248 2.28-.744.608-.496.912-1.16.912-1.992 0-.4-.08-.776-.24-1.128a2.243 2.243 0 00-.648-.888 2.864 2.864 0 00-1.008-.6 3.67 3.67 0 00-1.296-.216H4.032v5.568h5.832zm7.571-3.6c0-.832.136-1.608.408-2.328a5.844 5.844 0 011.176-1.896 5.606 5.606 0 011.824-1.248c.704-.304 1.488-.456 2.352-.456.864 0 1.648.152 2.352.456.72.304 1.328.72 1.824 1.248.512.528.904 1.16 1.176 1.896a6.21 6.21 0 01.432 2.328c0 .848-.144 1.632-.432 2.352a5.392 5.392 0 01-1.176 1.872 5.543 5.543 0 01-1.848 1.248c-.704.304-1.48.456-2.328.456-.864 0-1.648-.152-2.352-.456a5.606 5.606 0 01-1.824-1.248 5.905 5.905 0 01-1.176-1.872 6.603 6.603 0 01-.408-2.352zm9.408 0c0-1.2-.344-2.168-1.032-2.904-.672-.768-1.544-1.152-2.616-1.152-.528 0-1.016.104-1.464.312a3.154 3.154 0 00-1.152.84 4.03 4.03 0 00-.768 1.272 4.85 4.85 0 00-.264 1.632c0 .592.088 1.136.264 1.632.192.496.448.928.768 1.296.32.352.704.632 1.152.84.448.192.936.288 1.464.288.528 0 1.016-.096 1.464-.288a3.569 3.569 0 001.152-.84 3.52 3.52 0 00.768-1.272 4.926 4.926 0 00.264-1.656zm3.928.072c0-.88.128-1.688.384-2.424a5.644 5.644 0 011.08-1.896 5.051 5.051 0 011.68-1.224 5.018 5.018 0 012.136-.456c.88 0 1.656.208 2.328.624.672.4 1.192.96 1.56 1.68V622.2h2.088V639h-1.992v-2.04a4.434 4.434 0 01-1.608 1.656c-.688.416-1.464.624-2.328.624a5.585 5.585 0 01-2.16-.408 4.89 4.89 0 01-1.68-1.2 6.034 6.034 0 01-1.104-1.872c-.256-.72-.384-1.512-.384-2.376zm9.264-.024c0-.624-.104-1.192-.312-1.704a4.071 4.071 0 00-.816-1.296 3.605 3.605 0 00-1.152-.816 3.22 3.22 0 00-2.664 0 3.605 3.605 0 00-1.152.816 4.071 4.071 0 00-.816 1.296c-.192.496-.288 1.064-.288 1.704 0 .64.096 1.216.288 1.728.208.496.48.92.816 1.272a3.53 3.53 0 002.496 1.032 3.47 3.47 0 001.32-.264 3.797 3.797 0 001.152-.792c.336-.352.608-.776.816-1.272.208-.496.312-1.064.312-1.704zm14.814-5.736l-7.296 16.128h-2.208l2.808-6.216-4.344-9.912h2.256l3.192 7.488 3.384-7.488h2.208z" fill="#000"/><path fill="#082E4E" d="M891 149h289v275H891z"/><path d="M924.008 388.076v-1.044h2.97l.522-2.646h-2.952v-1.044h3.168l.792-3.942h1.08l-.792 3.942h3.168l.792-3.942h1.08l-.792 3.942h2.952v1.044h-3.168l-.522 2.646h3.15v1.044h-3.366l-.774 3.924h-1.08l.774-3.924h-3.168l-.774 3.924h-1.08l.774-3.924h-2.754zm7.218-1.044l.522-2.646h-3.168l-.522 2.646h3.168zm6.576-1.332c0-.984.114-1.872.342-2.664.24-.804.576-1.488 1.008-2.052a4.388 4.388 0 011.566-1.296 4.413 4.413 0 012.034-.468c.744 0 1.422.156 2.034.468.612.3 1.134.732 1.566 1.296.432.564.762 1.248.99 2.052.24.792.36 1.68.36 2.664 0 .984-.12 1.878-.36 2.682-.228.792-.558 1.47-.99 2.034a4.57 4.57 0 01-1.566 1.314c-.612.3-1.29.45-2.034.45-.744 0-1.422-.15-2.034-.45a4.57 4.57 0 01-1.566-1.314c-.432-.564-.768-1.242-1.008-2.034-.228-.804-.342-1.698-.342-2.682zm8.748 0c0-.78-.084-1.5-.252-2.16-.168-.672-.414-1.248-.738-1.728a3.449 3.449 0 00-1.188-1.134c-.468-.276-1.008-.414-1.62-.414-.612 0-1.152.138-1.62.414a3.449 3.449 0 00-1.188 1.134c-.324.48-.57 1.056-.738 1.728a8.744 8.744 0 00-.252 2.16c0 .78.084 1.506.252 2.178a5.65 5.65 0 00.738 1.728c.324.48.72.858 1.188 1.134.468.264 1.008.396 1.62.396.612 0 1.152-.132 1.62-.396a3.685 3.685 0 001.188-1.134 5.65 5.65 0 00.738-1.728 8.963 8.963 0 00.252-2.178zm2.73 2.7c0-.78.222-1.476.666-2.088.444-.612 1.062-1.038 1.854-1.278-.588-.264-1.044-.612-1.368-1.044-.312-.432-.468-.972-.468-1.62a2.907 2.907 0 011.026-2.214 3.667 3.667 0 011.152-.684 4.29 4.29 0 011.494-.252c.54 0 1.032.084 1.476.252.456.168.846.396 1.17.684a2.907 2.907 0 011.026 2.214c0 .648-.162 1.188-.486 1.62-.312.432-.762.78-1.35 1.044.792.24 1.41.666 1.854 1.278.444.612.666 1.308.666 2.088 0 .504-.096.99-.288 1.458a3.494 3.494 0 01-.846 1.206 4.262 4.262 0 01-1.368.81c-.54.204-1.158.306-1.854.306-.696 0-1.314-.102-1.854-.306a4.262 4.262 0 01-1.368-.81 3.494 3.494 0 01-.846-1.206 3.806 3.806 0 01-.288-1.458zm6.876-5.976c0-.684-.234-1.212-.702-1.584-.456-.384-1.062-.576-1.818-.576s-1.368.192-1.836.576c-.456.372-.684.9-.684 1.584s.228 1.224.684 1.62c.468.384 1.08.576 1.836.576s1.362-.192 1.818-.576c.468-.396.702-.936.702-1.62zm.684 5.904c0-.864-.294-1.542-.882-2.034-.576-.492-1.35-.738-2.322-.738s-1.752.246-2.34.738c-.576.492-.864 1.17-.864 2.034 0 .864.276 1.548.828 2.052.564.504 1.356.756 2.376.756 1.02 0 1.806-.252 2.358-.756.564-.504.846-1.188.846-2.052zm6.597-1.422c.612-.288 1.128-.57 1.548-.846.432-.288.78-.582 1.044-.882.264-.312.456-.636.576-.972.12-.348.18-.732.18-1.152 0-.84-.288-1.512-.864-2.016-.576-.516-1.338-.774-2.286-.774-.456 0-.87.078-1.242.234a3.067 3.067 0 00-.972.594c-.264.24-.468.528-.612.864a2.498 2.498 0 00-.216 1.026c0 .444.054.84.162 1.188.12.348.294.684.522 1.008l-.972.63c-.624-.84-.936-1.728-.936-2.664 0-.54.102-1.044.306-1.512.204-.48.492-.894.864-1.242.384-.36.84-.642 1.368-.846a4.619 4.619 0 011.764-.324c.66 0 1.254.096 1.782.288.528.18.972.444 1.332.792.372.336.654.738.846 1.206.204.468.306.978.306 1.53 0 1.08-.276 1.968-.828 2.664-.552.684-1.458 1.32-2.718 1.908-1.044.48-1.866.984-2.466 1.512-.588.516-.9 1.128-.936 1.836h6.984V392h-8.334c0-.636.084-1.206.252-1.71.168-.516.414-.978.738-1.386.324-.408.72-.774 1.188-1.098a10.235 10.235 0 011.62-.9zm15.413-7.506v1.152h-7.236v4.356h6.696v1.152h-6.696v4.788h7.416V392h-8.676v-12.6h8.496zm7.088 9.18h-5.688v-1.224c1.056-.948 1.77-1.956 2.142-3.024.384-1.092.576-2.466.576-4.122v-.81h1.152v.81c0 1.584-.198 2.97-.594 4.158-.384 1.188-1.056 2.244-2.016 3.168h4.428v-4.248h1.152v4.248h2.25v1.044h-2.25V392h-1.152v-3.42zm13.707-9.18v1.152h-7.236v4.356h6.696v1.152h-6.696v4.788h7.416V392h-8.676v-12.6h8.496z" fill="#fff"/><path fill="#C18B2C" d="M602 149h289v275H602z"/><path d="M635.008 388.076v-1.044h2.97l.522-2.646h-2.952v-1.044h3.168l.792-3.942h1.08l-.792 3.942h3.168l.792-3.942h1.08l-.792 3.942h2.952v1.044h-3.168l-.522 2.646h3.15v1.044h-3.366l-.774 3.924h-1.08l.774-3.924h-3.168l-.774 3.924h-1.08l.774-3.924h-2.754zm7.218-1.044l.522-2.646h-3.168l-.522 2.646h3.168zm7.98-1.332c0 .84.12 1.59.36 2.25.24.66.576 1.218 1.008 1.674.432.456.942.804 1.53 1.044.6.24 1.254.36 1.962.36 1.5 0 2.634-.366 3.402-1.098.768-.732 1.326-1.74 1.674-3.024l1.062.432c-.336 1.452-1.032 2.622-2.088 3.51-1.056.888-2.4 1.332-4.032 1.332-.936 0-1.788-.162-2.556-.486a5.887 5.887 0 01-1.962-1.368 6.144 6.144 0 01-1.26-2.052 7.477 7.477 0 01-.432-2.574c-.012-.9.138-1.746.45-2.538.312-.804.744-1.5 1.296-2.088a5.977 5.977 0 011.98-1.368 5.925 5.925 0 012.484-.486c1.5 0 2.694.39 3.582 1.17.9.78 1.53 1.776 1.89 2.988l-1.17.522c-.252-1.092-.75-1.95-1.494-2.574-.732-.636-1.674-.954-2.826-.954-.684 0-1.326.126-1.926.378a4.624 4.624 0 00-1.548 1.08 4.985 4.985 0 00-1.026 1.674c-.24.648-.36 1.38-.36 2.196zm15.364-4.212c-.372.576-.822 1.02-1.35 1.332a4.11 4.11 0 01-1.71.558l-.234-1.062c.876-.084 1.602-.378 2.178-.882.588-.516 1.02-1.194 1.296-2.034h.972V392h-1.152v-10.512zm3.376 6.912c0-.78.222-1.476.666-2.088.444-.612 1.062-1.038 1.854-1.278-.588-.264-1.044-.612-1.368-1.044-.312-.432-.468-.972-.468-1.62a2.907 2.907 0 011.026-2.214 3.667 3.667 0 011.152-.684 4.29 4.29 0 011.494-.252c.54 0 1.032.084 1.476.252.456.168.846.396 1.17.684a2.907 2.907 0 011.026 2.214c0 .648-.162 1.188-.486 1.62-.312.432-.762.78-1.35 1.044.792.24 1.41.666 1.854 1.278.444.612.666 1.308.666 2.088 0 .504-.096.99-.288 1.458a3.494 3.494 0 01-.846 1.206 4.262 4.262 0 01-1.368.81c-.54.204-1.158.306-1.854.306-.696 0-1.314-.102-1.854-.306a4.262 4.262 0 01-1.368-.81 3.494 3.494 0 01-.846-1.206 3.806 3.806 0 01-.288-1.458zm6.876-5.976c0-.684-.234-1.212-.702-1.584-.456-.384-1.062-.576-1.818-.576s-1.368.192-1.836.576c-.456.372-.684.9-.684 1.584s.228 1.224.684 1.62c.468.384 1.08.576 1.836.576s1.362-.192 1.818-.576c.468-.396.702-.936.702-1.62zm.684 5.904c0-.864-.294-1.542-.882-2.034-.576-.492-1.35-.738-2.322-.738s-1.752.246-2.34.738c-.576.492-.864 1.17-.864 2.034 0 .864.276 1.548.828 2.052.564.504 1.356.756 2.376.756 1.02 0 1.806-.252 2.358-.756.564-.504.846-1.188.846-2.052zm3.389-8.928h5.454c.612 0 1.158.084 1.638.252.48.156.888.378 1.224.666.336.288.594.63.774 1.026.18.384.27.804.27 1.26 0 .624-.168 1.2-.504 1.728-.336.516-.762.9-1.278 1.152.72.312 1.272.714 1.656 1.206.384.492.576 1.134.576 1.926 0 .48-.102.93-.306 1.35a3.281 3.281 0 01-.846 1.062c-.348.3-.768.54-1.26.72a4.71 4.71 0 01-1.566.252h-5.832v-12.6zm5.688 5.58c.72 0 1.308-.192 1.764-.576.456-.396.684-.942.684-1.638 0-.684-.24-1.224-.72-1.62a2.674 2.674 0 00-1.728-.594h-4.428v4.428h4.428zm.126 5.868c.792 0 1.434-.204 1.926-.612.504-.42.756-1.008.756-1.764s-.252-1.344-.756-1.764c-.492-.432-1.134-.648-1.926-.648h-4.554v4.788h4.554zm9.541-3.942c.612-.288 1.128-.57 1.548-.846.432-.288.78-.582 1.044-.882.264-.312.456-.636.576-.972.12-.348.18-.732.18-1.152 0-.84-.288-1.512-.864-2.016-.576-.516-1.338-.774-2.286-.774-.456 0-.87.078-1.242.234a3.067 3.067 0 00-.972.594c-.264.24-.468.528-.612.864a2.498 2.498 0 00-.216 1.026c0 .444.054.84.162 1.188.12.348.294.684.522 1.008l-.972.63c-.624-.84-.936-1.728-.936-2.664 0-.54.102-1.044.306-1.512.204-.48.492-.894.864-1.242.384-.36.84-.642 1.368-.846a4.619 4.619 0 011.764-.324c.66 0 1.254.096 1.782.288.528.18.972.444 1.332.792.372.336.654.738.846 1.206.204.468.306.978.306 1.53 0 1.08-.276 1.968-.828 2.664-.552.684-1.458 1.32-2.718 1.908-1.044.48-1.866.984-2.466 1.512-.588.516-.9 1.128-.936 1.836h6.984V392h-8.334c0-.636.084-1.206.252-1.71.168-.516.414-.978.738-1.386.324-.408.72-.774 1.188-1.098a10.235 10.235 0 011.62-.9zm7.497-1.206c0 .84.12 1.59.36 2.25.24.66.576 1.218 1.008 1.674.432.456.942.804 1.53 1.044.6.24 1.254.36 1.962.36 1.5 0 2.634-.366 3.402-1.098.768-.732 1.326-1.74 1.674-3.024l1.062.432c-.336 1.452-1.032 2.622-2.088 3.51-1.056.888-2.4 1.332-4.032 1.332-.936 0-1.788-.162-2.556-.486a5.887 5.887 0 01-1.962-1.368 6.144 6.144 0 01-1.26-2.052 7.477 7.477 0 01-.432-2.574c-.012-.9.138-1.746.45-2.538.312-.804.744-1.5 1.296-2.088a5.977 5.977 0 011.98-1.368 5.925 5.925 0 012.484-.486c1.5 0 2.694.39 3.582 1.17.9.78 1.53 1.776 1.89 2.988l-1.17.522c-.252-1.092-.75-1.95-1.494-2.574-.732-.636-1.674-.954-2.826-.954-.684 0-1.326.126-1.926.378a4.624 4.624 0 00-1.548 1.08 4.985 4.985 0 00-1.026 1.674c-.24.648-.36 1.38-.36 2.196z" fill="#fff"/><path fill="#EFAC37" d="M602 424h578v275H602z"/><path d="M635.008 656.076v-1.044h2.97l.522-2.646h-2.952v-1.044h3.168l.792-3.942h1.08l-.792 3.942h3.168l.792-3.942h1.08l-.792 3.942h2.952v1.044h-3.168l-.522 2.646h3.15v1.044h-3.366l-.774 3.924h-1.08l.774-3.924h-3.168l-.774 3.924h-1.08l.774-3.924h-2.754zm7.218-1.044l.522-2.646h-3.168l-.522 2.646h3.168zm15.72-7.632v1.152h-7.236v4.356h6.696v1.152h-6.696v4.788h7.416V660h-8.676v-12.6h8.496zm11.179 0v1.152h-7.218v4.752h6.678v1.152h-6.678V660h-1.26v-12.6h8.478zm5.279 0h1.764l5.382 12.6h-1.332l-1.422-3.384h-7.02L670.354 660h-1.332l5.382-12.6zm3.906 8.064l-3.024-7.164-3.024 7.164h6.048zm5.031-1.764c0 .84.12 1.59.36 2.25.24.66.576 1.218 1.008 1.674.432.456.942.804 1.53 1.044.6.24 1.254.36 1.962.36 1.5 0 2.634-.366 3.402-1.098.768-.732 1.326-1.74 1.674-3.024l1.062.432c-.336 1.452-1.032 2.622-2.088 3.51-1.056.888-2.4 1.332-4.032 1.332-.936 0-1.788-.162-2.556-.486a5.887 5.887 0 01-1.962-1.368 6.144 6.144 0 01-1.26-2.052 7.477 7.477 0 01-.432-2.574c-.012-.9.138-1.746.45-2.538.312-.804.744-1.5 1.296-2.088a5.977 5.977 0 011.98-1.368 5.925 5.925 0 012.484-.486c1.5 0 2.694.39 3.582 1.17.9.78 1.53 1.776 1.89 2.988l-1.17.522c-.252-1.092-.75-1.95-1.494-2.574-.732-.636-1.674-.954-2.826-.954-.684 0-1.326.126-1.926.378a4.624 4.624 0 00-1.548 1.08 4.985 4.985 0 00-1.026 1.674c-.24.648-.36 1.38-.36 2.196zm13.186 2.538c.192.864.576 1.566 1.152 2.106.588.528 1.35.792 2.286.792.432 0 .84-.066 1.224-.198a2.892 2.892 0 001.71-1.566c.18-.384.27-.816.27-1.296 0-1.02-.288-1.806-.864-2.358-.576-.564-1.338-.846-2.286-.846-.336 0-.684.066-1.044.198-.348.12-.636.276-.864.468l-.684-.846 4.626-4.248h-6.084V647.4h7.92v.774l-4.23 3.816c.18-.036.426-.054.738-.054.552 0 1.068.09 1.548.27.48.18.894.444 1.242.792.36.336.636.75.828 1.242.204.48.306 1.032.306 1.656 0 .66-.114 1.254-.342 1.782-.228.528-.54.978-.936 1.35-.396.372-.858.66-1.386.864a4.913 4.913 0 01-1.692.288c-1.164 0-2.148-.324-2.952-.972a4.478 4.478 0 01-1.602-2.484l1.116-.486zm17.217-8.838v.864a10.69 10.69 0 00-3.096 3.672c-.78 1.488-1.17 3.186-1.17 5.094 0 .936.072 1.926.216 2.97h-1.206a21.562 21.562 0 01-.162-2.772c0-3.504 1.248-6.432 3.744-8.784h-6.336V647.4h8.01z" fill="#fff"/></svg>