<svg xmlns="http://www.w3.org/2000/svg" width="100" height="50"><g fill="#212121"><path d="M34.987 6.196a18.907 18.907 0 0116.306.346 19.245 19.245 0 015.45 4.093l-1.211 1.859a19.642 19.642 0 00-7.742-2.825 19.91 19.91 0 00-10.9 1.528 19.127 19.127 0 01-1.903-5.001z"/><path d="M32.089 15.479c4.21-3.892 9.862-5.679 15.556-4.886 5.623.778 10.539 4.035 13.524 8.95-4.21 3.892-9.818 5.665-15.455 4.886-5.681-.792-10.626-4.05-13.625-8.95z"/><path d="M45.238 28.492c-1.154 0-2.307-.101-3.446-.317a20.542 20.542 0 004.931-2.695c.548.043 1.095.072 1.643.072 3.936 0 7.742-1.182 11.015-3.387-3.547 3.92-8.65 6.327-14.143 6.327zM66.964 8.459c-.072.058-.158.115-.273.216l-.26.231c-.072.057-.144.129-.259.23l-.246.245c-.072.087-.144.159-.158.188l-.072.072c-.159.173-.303.36-.462.576-.057.087-.115.159-.201.289l-.058.086-.159.245a7.676 7.676 0 00-.879 2.249s-.26 1.081-.346 1.47l-.043.043v.13a19.546 19.546 0 01-1.702 4.035 19.893 19.893 0 00-5.507-5.779l3.172-4.901.086-.13.144-.187c.101-.13.217-.245.361-.389l.187-.173c.13-.101.245-.202.433-.317l.187-.115c.217-.13.447-.231.75-.332.159-.043.303-.086.476-.13.158-.029.331-.057.548-.072a4.373 4.373 0 011.614.216c.13.044.26.101.39.159l.418.187 2.566 1.182c-.245.159-.49.317-.707.476zm-63.94 29.44H2.015v-1.514h1.009v-.59a2.676 2.676 0 01.649-1.975 2.438 2.438 0 011.802-.634c.274 0 .562.014.836.057.217.044.433.087.649.159v1.542c-.187-.057-.36-.101-.519-.144a2.37 2.37 0 00-.548-.058c-.706 0-1.067.418-1.067 1.225v.447h2.12v1.499H4.855v6.429H3.024zm8.651 6.601a2.692 2.692 0 01-2.105-.836 3.274 3.274 0 01-.75-2.249v-5.102h1.831v4.54c-.029.519.13 1.038.447 1.441.331.346.793.534 1.269.505a1.73 1.73 0 001.297-.519c.361-.404.534-.923.505-1.456v-4.511H16v7.999h-1.831v-1.239a4.09 4.09 0 01-.981 1.009c-.447.288-.98.432-1.513.418zm9.976-.014a5.248 5.248 0 01-1.759-.303 5.527 5.527 0 01-1.643-.894l.822-1.239a5.81 5.81 0 001.34.735c.404.158.851.245 1.284.245.317.014.648-.058.922-.231a.741.741 0 00.332-.634v-.029a.544.544 0 00-.144-.389 1.522 1.522 0 00-.39-.288 6.585 6.585 0 00-.576-.231 39.708 39.708 0 00-.678-.216c-.288-.087-.591-.173-.894-.288a2.9 2.9 0 01-.807-.433 2.164 2.164 0 01-.591-.663 2.064 2.064 0 01-.231-.965v-.029a2.24 2.24 0 01.822-1.787c.274-.217.577-.39.908-.491a3.655 3.655 0 011.11-.173c.519 0 1.038.087 1.529.246.504.158.98.374 1.413.662l-.721 1.298a6.109 6.109 0 00-1.168-.548 3.135 3.135 0 00-1.096-.202 1.391 1.391 0 00-.822.216.7.7 0 00-.302.563v.028c0 .145.057.289.158.389.115.116.26.217.404.289.187.086.375.173.577.245.216.072.446.144.677.216.288.086.591.202.88.317.288.115.547.26.793.447.23.173.432.389.591.648.158.289.245.606.23.923v.029c.015.375-.072.764-.23 1.11a2.09 2.09 0 01-.635.778 2.951 2.951 0 01-.951.476 3.867 3.867 0 01-1.154.173zm5.479-11.127h1.975v1.744H27.13zm.072 2.969h1.831v7.999h-1.831zm8.636 8.187a4.497 4.497 0 01-1.687-.317 4.035 4.035 0 01-1.355-.894 4.083 4.083 0 01-1.211-2.94v-.029c0-.562.101-1.11.317-1.614.216-.49.519-.951.894-1.326.389-.389.85-.692 1.355-.908a4.072 4.072 0 011.701-.332c.591 0 1.168.101 1.701.332a4.065 4.065 0 012.235 2.219c.216.505.317 1.067.317 1.615v.029c0 .547-.115 1.095-.331 1.614-.217.49-.519.951-.894 1.326a4.027 4.027 0 01-1.355.893 4.439 4.439 0 01-1.687.332zm.029-1.614c.346 0 .692-.072 1.009-.202.288-.13.548-.317.764-.548.216-.23.375-.504.49-.807a2.56 2.56 0 00.159-.98v-.029c0-.346-.058-.677-.188-.994a2.684 2.684 0 00-.504-.822 2.765 2.765 0 00-.779-.562 2.51 2.51 0 00-1.989 0c-.289.13-.548.317-.765.548-.216.23-.374.504-.49.807a2.871 2.871 0 00-.173.98v.029c0 .346.058.677.188.994a2.45 2.45 0 001.268 1.355c.332.173.664.245 1.01.231zm6.704-6.574h1.831v1.225c.129-.187.274-.36.432-.533a2.35 2.35 0 01.548-.447c.216-.13.447-.23.678-.302.274-.072.562-.116.836-.116a2.693 2.693 0 012.105.836c.519.62.793 1.413.749 2.22v5.102h-1.831v-4.54a2.147 2.147 0 00-.446-1.441 1.623 1.623 0 00-1.269-.505 1.731 1.731 0 00-1.298.519 2.07 2.07 0 00-.504 1.456v4.511h-1.831zm12.745 8.159a5.244 5.244 0 01-1.759-.303 5.532 5.532 0 01-1.644-.894l.822-1.239c.404.302.865.547 1.341.735.403.158.85.245 1.283.245.317.014.649-.058.922-.231a.741.741 0 00.332-.634v-.029a.544.544 0 00-.144-.389 1.517 1.517 0 00-.389-.288 6.734 6.734 0 00-.577-.231 37.06 37.06 0 00-.678-.216c-.288-.087-.591-.173-.893-.288a2.892 2.892 0 01-.808-.433 2.177 2.177 0 01-.591-.663 1.918 1.918 0 01-.231-.965v-.029a2.243 2.243 0 01.822-1.787c.274-.217.577-.39.908-.491a3.661 3.661 0 011.111-.173c.519 0 1.038.087 1.528.246.504.158.98.374 1.413.662l-.721 1.298a6.109 6.109 0 00-1.168-.548 3.135 3.135 0 00-1.096-.202 1.388 1.388 0 00-.821.216.698.698 0 00-.303.563v.028c0 .145.057.289.158.389.116.116.26.217.404.289.188.086.375.173.577.245.216.072.447.144.677.216.289.086.591.202.88.317.288.115.548.26.793.447.23.173.432.389.591.648.159.289.245.606.231.923v.029c.014.375-.072.764-.231 1.11-.144.302-.36.576-.634.778a2.966 2.966 0 01-.952.476 3.52 3.52 0 01-1.153.173zm8.203.014a2.693 2.693 0 01-2.105-.836 3.257 3.257 0 01-.735-2.249v-5.102h1.831v4.54a2.143 2.143 0 00.447 1.441c.331.346.793.534 1.268.505a1.73 1.73 0 001.298-.519c.36-.404.533-.923.504-1.456v-4.511h1.831v7.999h-1.831v-1.239a3.836 3.836 0 01-.98 1.009 2.754 2.754 0 01-1.528.418zm7.266-11.141h1.975v1.744h-1.975zm.072 2.969h1.831v7.999h-1.831zm7.512 8.143c-.318 0-.62-.043-.923-.116a2.002 2.002 0 01-.735-.389 1.845 1.845 0 01-.476-.72 3.655 3.655 0 01-.173-1.11v-4.209h-1.009v-1.585h1.009v-2.191h1.831v2.191h2.148v1.585h-2.148v3.921a.993.993 0 00.259.763c.202.173.462.246.721.231.39 0 .779-.101 1.139-.274v1.499a3.27 3.27 0 01-.735.303 4.846 4.846 0 01-.908.101zm7.598.044a4.452 4.452 0 01-1.615-.303 3.96 3.96 0 01-1.312-.85 4.044 4.044 0 01-.88-1.312 4.237 4.237 0 01-.317-1.686v-.029c0-.548.087-1.11.289-1.629.187-.49.461-.936.807-1.326a3.85 3.85 0 011.24-.893 3.961 3.961 0 011.586-.332 3.714 3.714 0 011.672.346c.462.216.88.533 1.197.937.331.404.577.879.721 1.369.158.534.245 1.096.245 1.643v.245c0 .087-.015.173-.029.26h-5.882c.057.576.346 1.124.778 1.513.433.346.966.534 1.528.519.404.015.808-.072 1.183-.245.36-.187.692-.432.98-.721l1.081.952c-.374.447-.85.821-1.369 1.095a3.9 3.9 0 01-1.903.447zm1.802-4.756a2.65 2.65 0 00-.202-.822 1.958 1.958 0 00-.404-.663 1.85 1.85 0 00-.605-.447 1.759 1.759 0 00-.808-.158 1.867 1.867 0 00-1.398.576c-.375.418-.62.951-.678 1.528h4.095zm7.007 4.727a5.24 5.24 0 01-1.759-.303 5.52 5.52 0 01-1.644-.894l.822-1.239c.403.302.865.547 1.341.735.418.158.85.245 1.297.245.317.014.649-.058.923-.231a.743.743 0 00.331-.634v-.029a.544.544 0 00-.144-.389 1.517 1.517 0 00-.389-.288 6.606 6.606 0 00-.577-.231c-.216-.072-.447-.144-.677-.216-.289-.087-.591-.173-.894-.288a2.887 2.887 0 01-.807-.433 2.12 2.12 0 01-.577-.663 1.908 1.908 0 01-.231-.965v-.029c0-.346.072-.692.216-1.009.145-.303.346-.562.606-.778.274-.217.577-.39.908-.491a3.655 3.655 0 011.11-.173c.519 0 1.038.087 1.529.246.504.158.98.374 1.412.662l-.72 1.298a6.137 6.137 0 00-1.168-.548 3.135 3.135 0 00-1.096-.202 1.391 1.391 0 00-.822.216.648.648 0 00-.288.563v.028c0 .145.058.289.159.389.115.116.259.217.403.289.188.086.375.173.577.245.216.072.447.144.678.216.288.086.591.202.879.317.288.115.548.26.793.447.231.173.432.389.591.648.159.289.231.606.231.923v.029c.014.375-.072.764-.231 1.11-.144.302-.36.576-.634.778a2.966 2.966 0 01-.952.476 3.96 3.96 0 01-1.196.173z"/></g></svg>