<svg xmlns="http://www.w3.org/2000/svg" width="81" height="60"><path d="M0 60V0h81v60z" fill="transparent"/><path d="M15.634 51.773h-3.227V42.2H3.21v9.573H0V29.984h3.21v9.572h9.197v-9.572h3.227zm24.997 0h-3.093V29.984h3.093zm13.974-5.448l4.682-16.341h3.094l-6.338 21.787H53.2l-6.364-21.787h3.094zM77.944 42.2h-6.221v6.929H81v2.644H68.513V29.984H81v2.644h-9.277v6.928h6.221V42.2zm-49.811 9.573h-3.094V29.984h3.094zM42.887 1.342a3.39 3.39 0 01.533-.378l.025-.017h.002c.905-.507 2.238-1.239 3.319-.829 1.08.411 1.668 1.873 2.015 2.855h.002c.006.019.078.259.103.361 1.501 5.464-.086 13.71-.086 13.71h-.002a8.205 8.205 0 01-.455 1.854c-1.564 4.175-10.327 6.75-14.472 5.174-4.146-1.575-2.119-8.115.099-11.98 2.373-4.142 4.614-7.559 8.917-10.75z" fill="#212121"/><path d="M36.989 9.503s3.307-5.261 6.557-7.671c.126-.109.261-.203.404-.286l.019-.013h.002c.684-.384 1.712-1.011 2.528-.702.815.311 1.24 1.491 1.501 2.233h.002c.003.015.059.196.076.273 1.133 4.127-.065 10.354-.065 10.354a6.244 6.244 0 01-.343 1.401c-1.181 3.154-8.58 5.186-11.712 3.997-3.133-1.19.082-8.135 1.031-9.586z" fill="#535353"/><path d="M39.677 7.757s2.227-3.543 4.416-5.165c.084-.073.175-.138.27-.192l.012-.007h.002c.461-.257 1.177-.766 1.726-.557.548.209.811 1.088.986 1.589h.002c.004.01.04.132.052.182.764 2.778-.044 6.973-.044 6.973-.04.316-.114.631-.231.942-.796 2.124-6.654 3.591-8.763 2.789-2.106-.802 1.395-6.291 1.572-6.554z" fill="#BDBDBD"/><path d="M18.404 57.232h.917c.285 0 .518.083.668.234a.616.616 0 01.177.447v.008c0 .363-.219.545-.443.635.316.094.56.284.56.655v.011c0 .462-.376.735-.943.735h-.936v-2.725zm1.469.72c0-.28-.209-.455-.568-.455h-.609v.958h.583c.36 0 .594-.179.594-.495zm-.556.758h-.623v.98h.657c.391 0 .638-.178.638-.491v-.008c0-.301-.236-.481-.672-.481zm4.038-1.478h.29v2.725h-.29zm3.384 0h.274l1.414 2.145v-2.145h.285v2.725h-.244l-1.449-2.195v2.195h-.282v-2.725zm5.065 0h.29v1.219h1.307v-1.219h.289v2.725h-.289v-1.234h-1.307v1.234h-.29zm8.072 0h.763c.755 0 1.271.545 1.271 1.347v.027c0 .798-.518 1.351-1.271 1.351h-.763zm.289.269v2.187h.469c.59 0 .977-.431.977-1.078v-.027c0-.646-.387-1.082-.977-1.082zm4.84 1.417v-1.707h.29v1.7c0 .514.259.798.684.798.413 0 .676-.269.676-.787v-1.711h.29v1.692c0 .7-.391 1.075-.974 1.075-.575 0-.966-.375-.966-1.06zm5.034-.305v-.031c0-.802.48-1.393 1.167-1.393.688 0 1.159.588 1.159 1.386v.03c0 .802-.475 1.393-1.162 1.393-.694 0-1.164-.589-1.164-1.385zm2.026-.004v-.027c0-.658-.367-1.124-.864-1.124-.498 0-.861.462-.861 1.121v.026c0 .658.367 1.125.864 1.125.499 0 .861-.465.861-1.121zm3.376-1.377h.274l1.414 2.145v-2.145h.285v2.725h-.243l-1.45-2.195v2.195h-.282v-2.725zm5.067 1.377v-.027c0-.79.496-1.389 1.206-1.389.351 0 .587.102.819.292l-.173.234a.92.92 0 00-.654-.253c-.514 0-.895.466-.895 1.116v.02c0 .685.368 1.128.924 1.128a.98.98 0 00.583-.194v-.766h-.676v-.261h.954v1.167a1.391 1.391 0 01-.872.319c-.74 0-1.216-.565-1.216-1.386z" fill="#212121"/></svg>