<svg xmlns="http://www.w3.org/2000/svg" width="78" height="52"><path d="M7.031 51.422l-5.294-5.495v2.081c0 1.387.053 2.36.107 2.574.106.346.24.48 1.24.506v.187c-.48-.013-.947-.027-1.427-.027-.467 0-.947.014-1.427.027v-.173c.707-.014.894-.187.987-.48.093-.28.093-1.241.093-2.614v-2.521c-.493-.507-.733-.72-1.16-.893v-.174c.28.014.6.027.92.027.627 0 1.227-.027 1.747-.053.68.813 2.587 3.027 3.854 4.281v-.974c0-1.387-.04-2.36-.12-2.574-.133-.333-.253-.48-1.24-.507v-.186c.467.013.947.026 1.427.026.467 0 .827-.013 1.334-.026v.173c-.614.013-.814.187-.894.48-.107.28-.106 1.24-.093 2.614l.013 3.708zm7.402-2.948c0 1.654-1.48 2.908-3.107 2.908-1.627 0-3.108-1.214-3.108-2.868 0-1.653 1.481-2.907 3.108-2.907s3.107 1.214 3.107 2.867zm-1.587.04c0-1.587-.64-2.68-1.52-2.68s-1.521 1.027-1.521 2.627c0 1.587.641 2.68 1.521 2.68.88 0 1.52-1.026 1.52-2.627zm7.308 2.922c-.907 0-1.427-.24-1.84-.774-.414-.546-.64-1.36-.8-1.907l-.76-.04c0 1.387.013 1.907.08 2.121.066.2.2.307.68.32v.147c-.387-.014-.907-.014-1.427-.014-.507 0-1.027.014-1.427.014v-.147c.48-.013.613-.12.68-.32.08-.214.08-.747.08-2.214v-.253c0-1.467-.013-2.001-.08-2.214-.067-.2-.227-.307-.707-.32v-.147c.334.013.734.013 1.16.013.587 0 1.161-.04 1.681-.04 1.387 0 2.347.494 2.347 1.494 0 .787-.68 1.24-1.32 1.374.333.6.893 1.413 1.2 1.747.493.506.907.893 1.467.893v.054c-.187.106-.654.213-1.014.213zm-3.4-2.907l.866-.04c.294-.014.801-.48.801-1.254 0-.8-.494-1.294-1.214-1.294-.12 0-.44.04-.44.04-.013.574-.013 1.227-.013 2.348z" fill="#212121"/><path d="M24.048 51.289c-.52-.013-1.106-.013-1.64-.013-.533 0-1.04.013-1.44.013v-.146c.48-.014.613-.12.68-.32.08-.214.08-.747.08-2.214v-.254c0-1.467-.013-2-.08-2.213-.067-.2-.213-.307-.707-.32v-.147h2.387c1.841 0 2.214-.053 2.214-.053.027.666.053 1.213.12 1.72l-.08.013c-.267-.867-.547-1.427-1.76-1.427-.307 0-.44.014-.734.094-.026.6-.04 1.16-.04 2.307v.053h.347c.867-.013 1.067-.187 1.094-.853h.146c-.013.306-.026.6-.026.973 0 .374.013.667.026.974h-.146c-.027-.667-.214-.84-1.094-.854l-.347-.013c0 1.133.014 1.96.067 2.134.067.253.213.373.933.386zm8.042-2.815c0 1.654-1.48 2.908-3.107 2.908-1.627 0-3.108-1.214-3.108-2.868 0-1.653 1.481-2.907 3.108-2.907s3.107 1.214 3.107 2.867zm-1.587.04c0-1.587-.64-2.68-1.52-2.68-.881 0-1.521 1.027-1.521 2.627 0 1.587.64 2.68 1.521 2.68.88 0 1.52-1.026 1.52-2.627zm1.827 2.641c.48-.014.613-.12.68-.32.08-.214.08-.747.08-2.214v-.254c0-1.467-.013-2-.08-2.213-.067-.2-.2-.307-.68-.321v-.146c.4.013.907.013 1.427.013.507 0 1.027-.013 1.427-.013v.146c-.48.014-.614.121-.68.321-.08.213-.08.746-.08 2.213v1.934c0 .573.507.68 1.133.68.8 0 1.387-.467 1.827-1.8l.107.027c-.147.813-.213 1.6-.253 2.08-1.387-.013-2.321-.013-3.041-.013-.72 0-1.254.013-1.827.013v-.133zm11.683.134c-.507-.014-1.001-.014-1.467-.014-.467 0-.921.014-1.334.014v-.147c.28-.027.36-.093.36-.213 0-.08-.04-.16-.093-.254l-1.121-1.72c-.28-.44-.48-.534-.666-.534v.187c0 1.467.013 2 .08 2.214.066.2.2.307.68.32v.147c-.387-.014-.907-.014-1.427-.014-.507 0-1.027.014-1.427.014v-.147c.48-.013.613-.12.68-.32.08-.214.08-.747.08-2.214v-.253c0-1.467-.013-2.001-.08-2.214-.067-.2-.2-.307-.68-.32v-.147c.4.013.907.013 1.427.013.507 0 1.027-.013 1.427-.013v.147c-.48.013-.614.12-.68.32-.08.213-.08.747-.08 2.147.213 0 .44-.053.76-.373l1.627-1.627c.106-.107.173-.2.173-.267 0-.107-.08-.16-.72-.187v-.147c.373.014.707.014 1.04.014.334 0 .667-.014 1.04-.014v.147c-.466.04-.733.187-1.253.68l-1.294 1.227 2.027 2.827c.32.467.52.547.934.587v.134zm9.735-.001c-.48-.014-1.12-.027-1.734-.027-.627 0-1.253.013-1.734.027v-.174c.587-.013.747-.146.827-.386.094-.267.107-.921.107-2.708v-.08c-.413-.013-.774-.013-1.227-.013h-.88c-.387 0-.72 0-1.067.013v.08c0 1.787.013 2.441.107 2.708.08.24.24.373.827.386v.174a62.248 62.248 0 00-1.734-.027c-.614 0-1.254.013-1.734.027v-.174c.587-.013.747-.146.827-.386.093-.267.107-.921.107-2.708v-.306c0-1.787-.014-2.441-.107-2.708-.08-.24-.24-.373-.827-.386v-.174c.494.014 1.12.027 1.734.027.613 0 1.253-.013 1.734-.027v.174c-.587.013-.747.146-.827.386-.094.267-.107.921-.107 2.614.347.014.68.014 1.067.014h.88c.453 0 .814 0 1.227-.014 0-1.72-.013-2.347-.107-2.614-.08-.24-.24-.373-.827-.386v-.174c.494.014 1.121.027 1.734.027.627 0 1.254-.013 1.734-.027v.174c-.587.013-.747.146-.827.386-.093.267-.107.921-.107 2.708v.306c0 1.787.014 2.441.107 2.708.08.24.24.373.827.386zm6.481-2.814c0 1.654-1.48 2.908-3.107 2.908-1.627 0-3.108-1.214-3.108-2.868 0-1.653 1.481-2.907 3.108-2.907s3.107 1.214 3.107 2.867zm-1.6.04c0-1.587-.64-2.68-1.521-2.68-.88 0-1.52 1.027-1.52 2.627 0 1.587.64 2.68 1.52 2.68.894 0 1.521-1.026 1.521-2.627zm6.308 2.774c-.453-.013-1-.013-1.52-.013-.547 0-1.094.013-1.534.013v-.147c.587-.013.733-.093.8-.346.053-.174.054-1.027.054-2.161v-1.093c0-.934-.014-1.614-.014-1.614l-.64.013c-.747.014-1.254.641-1.534 1.654l-.093-.027c.053-.48.133-1.333.12-1.96 0 0 .44.08 1.56.08h2.508c1.133 0 1.56-.08 1.56-.08-.013.627.067 1.48.12 1.96l-.093.027c-.281-1.013-.774-1.64-1.534-1.654l-.64-.013s-.014.68-.014 1.614v1.093c-.013 1.134 0 1.987.054 2.161.066.253.213.346.8.346v.147zm6.548.001c-1.267-.013-2.214-.013-3.001-.013-.787 0-1.4.013-1.973.013v-.146c.48-.014.613-.12.68-.32.08-.214.08-.747.08-2.214v-.254c0-1.467-.014-2-.08-2.213-.067-.2-.214-.307-.707-.32v-.147h2.48c1.814 0 2.174-.053 2.174-.053.027.666.053 1.093.12 1.6l-.093.013c-.267-.893-.68-1.293-1.747-1.293-.307 0-.507.013-.8.093-.027.6-.027 1.147-.027 2.28l.387-.013c.866-.013 1.067-.187 1.093-.853h.147c-.013.306-.027.6-.027.973 0 .374.014.667.027.974h-.147c-.026-.667-.213-.841-1.093-.854l-.387-.013v1.747c0 .573.507.68 1.133.68.894 0 1.547-.573 1.907-1.694l.107.027a27.33 27.33 0 00-.253 2zm.427-.134c.48-.014.613-.12.68-.32.08-.214.08-.747.08-2.214v-.254c0-1.467-.014-2-.08-2.213-.067-.2-.2-.307-.68-.321v-.146c.4.013.907.013 1.427.013.506 0 1.026-.013 1.427-.013v.146c-.48.014-.614.121-.681.321-.08.213-.08.746-.08 2.213v1.934c0 .573.507.68 1.134.68.8 0 1.387-.467 1.827-1.8l.107.027c-.147.813-.214 1.6-.254 2.08-1.387-.013-2.32-.013-3.04-.013-.72 0-1.254.013-1.827.013v-.133zm-14.31-31.087c0 10.042-7.708 18.27-17.537 19.097-.533.04-1.08.067-1.627.067-.547 0-1.094-.027-1.627-.067-9.829-.827-17.537-9.069-17.537-19.097C19.274 9.479 27.862.89 38.451.89c10.562 0 19.151 8.589 19.151 19.178z" fill="#212121"/><path d="M50.921 32.856L40.038 35.27c-.08.014-.133.08-.12.16l.147 3.734c-.533.04-1.08.067-1.627.067-.547 0-1.094-.027-1.627-.067l.147-3.734c0-.08-.054-.146-.12-.16l-10.883-2.414c-.186-.04-.16-.32.04-.32h10.936c.08 0 .16-.066.16-.16l.08-1.853c0-.08-.053-.147-.12-.16l-8.722-1.934c-.187-.04-.16-.32.04-.32h8.762c.08 0 .16-.067.16-.16l.08-1.734c0-.08-.053-.147-.12-.16l-6.935-1.534c-.186-.04-.16-.32.04-.32h6.962c.08 0 .16-.066.16-.16l.08-1.72c0-.08-.054-.147-.12-.16l-5.481-1.214c-.187-.04-.16-.32.04-.32h5.494c.08 0 .16-.066.16-.146l.08-1.827c0-.081-.053-.147-.12-.161l-4.281-.946c-.186-.04-.16-.32.04-.32h4.281c.08 0 .16-.067.16-.147l.067-1.694c0-.08-.053-.147-.12-.16l-3.308-.733c-.186-.04-.16-.32.04-.32h3.295c.08 0 .159-.067.159-.16l.067-1.707c0-.081-.053-.147-.12-.16l-2.494-.547c-.186-.04-.16-.32.04-.32h2.481c.093 0 .16-.067.16-.16l.053-1.307c0-.08-.053-.147-.12-.16l-1.827-.414c-.187-.04-.16-.32.04-.32h1.814c.08 0 .16-.067.16-.147l.067-1.44c0-.08-.054-.147-.12-.16l-1.294-.293c-.187-.04-.16-.32.04-.32h1.267c.08 0 .16-.067.16-.147l.053-1.36c0-.08-.053-.147-.12-.16l-.867-.187c-.186-.04-.16-.32.04-.32h.827c.08 0 .16-.067.16-.147l.04-1.08c0-.08-.053-.147-.12-.16l-.506-.107c-.187-.04-.16-.32.04-.32h.466c.08 0 .16-.066.16-.147l.067-1.52.067 1.52c0 .081.08.147.16.147h.466c.187 0 .227.28.04.32l-.506.107c-.08.013-.134.08-.12.16l.04 1.08c0 .08.08.147.16.147h.827c.186 0 .226.28.04.32l-.867.187c-.08.013-.134.08-.12.16l.053 1.36c0 .08.067.147.16.147h1.267c.187 0 .227.28.04.32l-1.294.293c-.08.013-.133.08-.12.16l.067 1.44c0 .08.08.147.16.147h1.814c.187 0 .227.28.04.32l-1.841.414c-.08.013-.133.08-.12.16l.054 1.307c0 .08.08.16.16.16h2.48c.187 0 .227.28.04.32l-2.494.547c-.08.013-.133.079-.12.16l.067 1.707c0 .08.08.16.16.16h3.294c.187 0 .227.28.04.32l-3.294.733c-.08.013-.133.08-.12.16l.067 1.694c0 .08.08.147.16.147h4.281c.186 0 .226.28.04.32l-4.281.946c-.08.014-.133.08-.12.161l.08 1.827c0 .08.08.146.16.146h5.494c.187 0 .227.28.04.32l-5.481 1.214c-.08.013-.133.08-.12.16l.067 1.72c0 .08.08.16.16.16h6.961c.187 0 .227.28.04.32l-6.934 1.534c-.08.013-.134.08-.12.16l.08 1.734c0 .08.08.16.16.16h8.761c.187 0 .227.28.04.32l-8.948 1.947c-.08.013-.133.08-.12.16l.08 1.854c0 .093.08.16.16.16h10.936c.186 0 .226.266.04.306z" fill="#eaeaea"/></svg>