<svg style="background-color:#259b97" xmlns="http://www.w3.org/2000/svg" viewBox="0 0 960 960"><defs><style>.cls-1{fill:#fff}</style></defs><g id="Artwork"><path class="cls-1" d="M466.62 507.65H435a10.9 10.9 0 01-10.89-10.88v-32.72h99v33.22a10.35 10.35 0 01-10.33 10.34h-4.51v-2h4.51a8.37 8.37 0 008.36-8.36V466H426v30.74a8.92 8.92 0 008.91 8.9h31.67z"/><path class="cls-1" d="M438.91 498.69h27.71v1.98h-27.71zm47.5.99h1.98v27.71h-1.98z"/><path class="cls-1" d="M487.4 509.66l-7.63-7.54 1.39-1.41 6.24 6.16 6.23-6.16 1.39 1.41-7.62 7.54zm-6.24 16.68l-1.39-1.41 7.63-7.53 7.62 7.53-1.39 1.41-6.23-6.16-6.24 6.16zm-7.62-13.8h27.71v1.98h-27.71z"/><path class="cls-1" d="M498.81 521.16l-7.53-7.63 7.53-7.62 1.41 1.39-6.16 6.23 6.16 6.24-1.41 1.39zm-22.81 0l-1.41-1.39 6.16-6.24-6.16-6.23 1.41-1.39 7.54 7.62-7.54 7.63zm240.44 3.26a28.7 28.7 0 1128.7-28.7 28.73 28.73 0 01-28.7 28.7zm0-55.42a26.72 26.72 0 1026.72 26.72A26.75 26.75 0 00716.44 469z"/><path class="cls-1" d="M708.83 504.73l-1.4-1.4 8-8v-18.6l10.7 10.7zm8.6-23.25v11.85l5.92-5.92z"/><path class="cls-1" d="M715.45 514.74v-18.61l-8-8 1.4-1.4 17.3 17.27zm2-16.63V510l5.92-5.93zM480.47 644.29h20.78v1.98h-20.78zm-41.78 41.56h69.71v1.98h-69.71z"/><path class="cls-1" d="M490.86 660.12a11.36 11.36 0 01-11.38-11.31v-11.45h22.76v11.45a11.35 11.35 0 01-11.38 11.31zm-9.4-20.78v9.47a9.4 9.4 0 0018.8 0v-9.47z"/><path class="cls-1" d="M489.88 659.13h1.98v24.24h-1.98zm-30.65-35.62h7.85v1.98h-7.85z"/><path class="cls-1" d="M474.52 687.83h-22.75v-39.35a11.85 11.85 0 016.93-10.79v-21.11h8.91v21.07c4.22 1.66 6.91 5.83 6.91 10.83zm-20.77-2h18.79v-37.35c0-4.46-2.38-8-6.22-9.19l-.69-.21v-20.52h-4.95V639l-.64.24a9.83 9.83 0 00-6.29 9.2z"/><path class="cls-1" d="M458.7 652.11h1.98v27.9h-1.98zm36.62 34.73h-2a2.48 2.48 0 00-4.95 0h-2a4.46 4.46 0 018.91 0zm228.79-41.54h1.98v13.8h-1.98z"/><path class="cls-1" d="M729.07 687.83h-35.63A10.88 10.88 0 01682.55 677v-32.7h57.39v32.79a10.84 10.84 0 01-10.87 10.74zm-44.55-41.56V677a8.9 8.9 0 008.92 8.86h35.63a8.76 8.76 0 008.9-8.78v-30.8z"/><path class="cls-1" d="M738.93 674v-2a9.4 9.4 0 100-18.79v-2a11.38 11.38 0 110 22.75zm-5.67 0H716.9l4-15.83h8.89zm-13.82-2h11.35l-2.63-11.88h-5.76zm-29.97-19.79h1.98v20.78h-1.98zM708.91 639l-.27-.3a6 6 0 010-8.64l3.79-4.13a4 4 0 000-6l-1.61-1.75 1.46-1.34 1.61 1.76a6 6 0 010 8.63l-3.79 4.13a4 4 0 000 6l.28.3zm-9.73 0l-.28-.3a6 6 0 010-8.64l3.78-4.13a4 4 0 000-6l-1.6-1.75 1.45-1.34 1.61 1.76a6 6 0 010 8.63l-3.78 4.13a4 4 0 000 6l.28.3zm19.45 0l-.28-.3a6 6 0 010-8.64l3.78-4.13a4 4 0 000-6l-1.6-1.75 1.47-1.28 1.61 1.76a6 6 0 010 8.63l-3.78 4.13a4 4 0 000 6l.28.3z"/><path class="cls-1" d="M708.91 639l-.27-.3a6 6 0 010-8.64l3.79-4.13a4 4 0 000-6l-1.61-1.75 1.46-1.34 1.61 1.76a6 6 0 010 8.63l-3.79 4.13a4 4 0 000 6l.28.3zm-5.33-338.14h-2v-20.77a7.92 7.92 0 1115.83.1h-2a5.94 5.94 0 10-11.87-.1zm27.7 0h-2v-20.77a7.92 7.92 0 1115.83.1h-2a5.94 5.94 0 10-11.88-.1z"/><path class="cls-1" d="M702.59 292.95h27.71v1.98h-27.71zm0-6.93h27.71V288h-27.71z"/><path class="cls-1" d="M755 343.42h-77.15A10.9 10.9 0 01667 332.53v-28.69A10.91 10.91 0 01677.85 293h17.81v2h-17.81a8.92 8.92 0 00-8.91 8.91v28.69a8.92 8.92 0 008.91 8.91H755a8.92 8.92 0 008.91-8.91v-28.76a8.92 8.92 0 00-8.91-8.91h-17.78v-2H755a10.91 10.91 0 0110.89 10.89v28.69A10.9 10.9 0 01755 343.42z"/><path class="cls-1" d="M732.4 315.74a9.08 9.08 0 01-5.27-1.76l-5.3-3.78a6.77 6.77 0 00-8.25 0l-5.3 3.78a8.76 8.76 0 01-10.54 0l-5.31-3.78a6.75 6.75 0 00-8.24 0l-1.81 1.29-1.15-1.61 1.81-1.29a8.75 8.75 0 0110.54 0l5.31 3.79a6.78 6.78 0 008.24 0l5.31-3.79a8.75 8.75 0 0110.53 0l5.31 3.79a6.78 6.78 0 008.24 0l5.31-3.79a8.65 8.65 0 019.75-.48l-1 1.71a6.74 6.74 0 00-7.6.39l-5.31 3.79a9.08 9.08 0 01-5.27 1.74zm0 13.87a9.08 9.08 0 01-5.27-1.76l-5.3-3.79a6.8 6.8 0 00-8.25 0l-5.3 3.79a8.76 8.76 0 01-10.54 0l-5.31-3.79a6.78 6.78 0 00-8.24 0l-1.81 1.3-1.15-1.61 1.81-1.3a8.76 8.76 0 0110.54 0l5.31 3.79a6.78 6.78 0 008.24 0l5.31-3.79a8.75 8.75 0 0110.53 0l5.31 3.79a6.78 6.78 0 008.24 0l5.31-3.79a8.65 8.65 0 019.75-.48l-1 1.71a6.77 6.77 0 00-7.6.38l-5.31 3.79a9.08 9.08 0 01-5.27 1.76zM286.12 680.9h-29.69v-15.83h29.69zm-27.71-2h25.73v-11.85h-25.73zm-8.91-19.77h1.98v27.71h-1.98zm-54.43-14.84h27.71v1.98h-27.71zm34.64 20.78h13.85v1.98h-13.85zm34.64-13.86h13.85v1.98h-13.85zm-49.48-26.71h1.98v6.93h-1.98zm0 27.7h1.98v6.93h-1.98z"/><path class="cls-1" d="M223.77 687.83h-29.69v-71.25h29.69zm-27.71-2h25.73v-67.27h-25.73z"/><path class="cls-1" d="M293 687.83h-71.21v-29.69H293zm-69.27-2h67.29v-25.71h-67.25zm62.39-46.49h-29.69v-1a7.93 7.93 0 017.92-7.92h13.85a7.93 7.93 0 017.92 7.92zm-27.63-2h25.56a5.94 5.94 0 00-5.85-5h-13.85a6 6 0 00-5.86 5.02z"/><path class="cls-1" d="M279.19 632.41h-15.83v-8.9h15.83zm-13.85-2h11.87v-4.94h-11.87zM208.62 334.8h48.49v1.98h-48.49zM258.1 315h-2v-4a8.82 8.82 0 00-8.72-8.9h-29.05a8.82 8.82 0 00-8.72 8.9v4h-2v-4a10.8 10.8 0 0110.7-10.88h29.09A10.8 10.8 0 01258.1 311zm0 7.93h-50.47v-7.92h1.98v5.94h46.51v-5.94h1.98v7.92z"/><path class="cls-1" d="M222.48 307.33h20.78v1.98h-20.78z"/><path class="cls-1" transform="rotate(-45 212.083 339.252)" d="M207.19 338.27h9.8v1.98h-9.8z"/><path class="cls-1" transform="rotate(-45 253.645 339.257)" d="M252.66 334.36h1.98v9.8h-1.98z"/><path class="cls-1" d="M269.98 287.3h1.98v51.97h-1.98z"/><path class="cls-1" d="M286.42 288.29h-30.91l7.92-15.83h15.08zm-27.71-2h24.51l-5.94-11.87h-12.63zm16.71 56.44h-2a2.48 2.48 0 00-4.95 0h-2a4.46 4.46 0 018.91 0zm-19.3-5.95h-46.51a8.91 8.91 0 01-8.9-8.9v-4.95a8.91 8.91 0 017.8-8.84l.24 2a6.93 6.93 0 00-6.06 6.88v4.95a6.92 6.92 0 006.92 6.92h46.51a6.93 6.93 0 006.93-6.92v-4.95a6.94 6.94 0 00-6.07-6.88l.25-2a8.92 8.92 0 017.8 8.84v4.95a8.92 8.92 0 01-8.91 8.9zm30 149.34h-29.69v-21.78h1.98v19.8h25.73v-19.8h1.98v21.78z"/><path class="cls-1" d="M256.44 477.21h28.68v1.98h-28.68zm25.95 43.54h-77.65a10.46 10.46 0 01-10.66-10.23v-19.46h99v19.46a10.46 10.46 0 01-10.69 10.23zM196.06 493v17.48a8.49 8.49 0 008.68 8.25h77.65a8.49 8.49 0 008.68-8.25V493z"/><path class="cls-1" transform="rotate(-45 205.458 523.227)" d="M200.57 522.24h9.8v1.98h-9.8z"/><path class="cls-1" transform="rotate(-45 281.669 523.23)" d="M280.67 518.33h1.98v9.8h-1.98z"/><path class="cls-1" d="M229.71 472.26h-14.84v-1a7.92 7.92 0 1115.83 0v1zm-12.78-2h11.71a5.94 5.94 0 00-11.71 0z"/><path class="cls-1" d="M203 492.05h-2v-24.24a11.39 11.39 0 0122.12-3.8l-1.87.66a9.41 9.41 0 00-18.25 3.14zm47.49-28.7h41.56v1.98h-41.56zm181.49-121.91h83.13v1.98h-83.13zm84.12-11.87H431v-18.81a10.8 10.8 0 0110.7-10.88h63.7a10.8 10.8 0 0110.7 10.88zm-83.13-2h81.15v-16.81a8.82 8.82 0 00-8.72-8.9h-63.71a8.82 8.82 0 00-8.72 8.9z"/><path class="cls-1" d="M432 343.42a7.93 7.93 0 01-7.92-7.92v-6.93a7.93 7.93 0 017.92-7.91v2a6 6 0 00-5.94 5.93v6.93a6 6 0 005.94 5.94zm83.11 0v-2a5.94 5.94 0 005.89-5.92v-6.93a5.94 5.94 0 00-5.93-5.93v-2a7.92 7.92 0 017.91 7.91v6.93a7.92 7.92 0 01-7.87 7.94zm7.89-48.49h-36.59v-22.76H523zm-34.63-2H521v-18.8h-32.61z"/><path class="cls-1" d="M508.18 288.36l-6.93-6.88-6.23 6.23-1.39-1.4 7.62-7.62 6.93 6.87 3.38-3.38 4.23 4-1.36 1.44-2.83-2.68-3.42 3.42zm-77.19 40.22h1.98v13.85h-1.98zm83.13 0h1.98v13.85h-1.98z"/></g></svg>