<svg xmlns="http://www.w3.org/2000/svg" width="140" height="28"><path d="M29.998 23.378h-.371v3.695h.371zm2.135.956h.363v2.739h-.363zm0-.928h.363v.631h-.363zm2.219.928h.409l.947 2.266.947-2.266h.399l-1.16 2.739h-.381zm6.927 1.17a1.077 1.077 0 00-1.04-.872 1.056 1.056 0 00-1.059.872zm-2.099.335a1.038 1.038 0 001.022.928 1.088 1.088 0 00.984-.603h.39a1.47 1.47 0 01-1.337.928 1.424 1.424 0 01-1.218-.657 1.43 1.43 0 012.313-1.673c.224.295.336.66.316 1.03zm7.688-1.17h-.576v-.335h.576v-.956h.362v.956h.641v.335h-.641v2.404h-.362zm2.878-1.291h.39v1.356a.924.924 0 01.826-.455 1.23 1.23 0 01.929.418c.208.262.311.594.288.928v1.439h-.372v-1.43a1.083 1.083 0 00-.158-.659.866.866 0 00-.691-.34.874.874 0 00-.692.34 1.093 1.093 0 00-.139.669v1.439h-.372zm6.889 2.126a1.084 1.084 0 00-1.049-.872 1.075 1.075 0 00-1.058.872zm-2.107.335a1.047 1.047 0 001.03.928 1.08 1.08 0 00.929-.603h.389a1.463 1.463 0 01-1.327.928 1.43 1.43 0 010-2.86 1.41 1.41 0 011.095.53c.231.292.347.659.325 1.03zm8.745-1.207a1.068 1.068 0 00-1.067 1.058 1.085 1.085 0 102.172 0 1.069 1.069 0 00-.332-.759 1.06 1.06 0 00-.773-.299zm1.458 2.441h-.343v-.501a1.27 1.27 0 01-1.115.566 1.529 1.529 0 01-1.142-.566 1.311 1.311 0 01-.297-.873 1.453 1.453 0 01.438-1.015 1.443 1.443 0 011.029-.405 1.234 1.234 0 011.059.529v-1.43h.371zm2.117-2.739h.353v.4a.81.81 0 01.789-.455v.362a.813.813 0 00-.492.195.74.74 0 00-.279.706v1.531h-.371zm5.376 1.17a1.08 1.08 0 00-1.054-.854c-.247 0-.487.085-.679.24a1.084 1.084 0 00-.375.614zm-2.108.335a1.05 1.05 0 001.031.928 1.088 1.088 0 00.984-.603h.38a1.457 1.457 0 01-1.327.928 1.43 1.43 0 010-2.86 1.41 1.41 0 011.095.53c.231.292.347.659.325 1.03zm4.754-.121a1.094 1.094 0 001.104 1.068 1.08 1.08 0 001.087-1.068 1.056 1.056 0 00-1.068-1.086 1.085 1.085 0 00-1.095 1.086zm2.553 1.355h-.362v-.52a1.169 1.169 0 01-1.059.585 1.59 1.59 0 01-1.207-.585 1.478 1.478 0 01-.269-.863c.001-.303.103-.596.288-.836a1.54 1.54 0 011.179-.575 1.171 1.171 0 011.068.575v-.52h.362zm2.099-2.739h.324v.353a.779.779 0 01.733-.408 1.143 1.143 0 01.929.408l.075.112a.776.776 0 01.046-.112 1.119 1.119 0 01.872-.408 1.225 1.225 0 01.846.408 1.076 1.076 0 01.259.827v1.559h-.371v-1.522a1.006 1.006 0 00-.14-.594.711.711 0 00-.612-.325.783.783 0 00-.613.306 1.076 1.076 0 00-.112.613v1.522h-.371v-1.569a.843.843 0 00-.129-.538.757.757 0 00-.942-.264.746.746 0 00-.275.217 1.007 1.007 0 00-.13.585v1.569h-.372zM38.818 6.499a2.679 2.679 0 00-.928.334 2.07 2.07 0 00-.724.929c-.418.928-.836 1.912-1.282 2.924l-1.327 3.241c-.137.328-.285.708-.446 1.142-.158.436-.306.863-.436 1.262h-.817a204.164 204.164 0 00-1.857-4.484 127.71 127.71 0 01-1.709-4.187 1.517 1.517 0 00-.677-.752 2.917 2.917 0 00-.929-.344v-.687h4.81v.734a3.651 3.651 0 00-.79.13c-.315.083-.473.185-.473.334.011.055.03.108.056.158.042.096.076.195.102.297.287.715.687 1.699 1.216 2.98.529 1.281.928 2.302 1.272 3.082.251-.603.566-1.346.928-2.237.362-.891.79-1.857 1.226-2.99.074-.185.139-.362.195-.529a1.3 1.3 0 00.102-.492.43.43 0 00-.053-.182.434.434 0 00-.123-.143 1.59 1.59 0 00-.409-.241 2.729 2.729 0 00-.464-.158l-.381-.074v-.669h3.946zm6.286-4.819c.005.384-.134.755-.39 1.04a1.233 1.233 0 01-.929.446 1.225 1.225 0 01-.928-.418 1.395 1.395 0 01-.39-.928c-.025-.383.102-.76.353-1.049.115-.134.258-.241.418-.314.16-.074.334-.113.51-.113a1.282 1.282 0 01.975.399 1.312 1.312 0 01.381.928zm1.318 14.512h-4.986v-.687l.493-.046c.152-.005.302-.033.445-.084a.753.753 0 00.437-.325c.1-.188.148-.4.139-.613v-6.36c.01-.226-.041-.45-.149-.649a1.28 1.28 0 00-.427-.465 1.868 1.868 0 00-.594-.176 3.337 3.337 0 00-.687-.111v-.697l3.658-.223.149.14v8.411c-.008.213.04.424.139.613.1.164.254.289.436.353.297.121.61.199.929.232zm14.8 0H56.18v-.687l.529-.046a1.56 1.56 0 00.474-.084.751.751 0 00.436-.325c.1-.188.148-.4.139-.613V9.136a2.48 2.48 0 00-.519-1.708 1.599 1.599 0 00-1.263-.595A2.953 2.953 0 0054.964 7a3.7 3.7 0 00-.817.428 2.33 2.33 0 00-.557.519c-.13.186-.232.335-.297.446v5.933c-.009.205.043.408.148.585a.93.93 0 00.437.353c.155.069.316.122.482.157.172.035.346.06.52.075v.687h-5.05v-.678l.501-.046c.152-.007.302-.035.446-.084a.736.736 0 00.427-.325c.107-.186.159-.398.148-.613v-6.36a1.436 1.436 0 00-.158-.649 1.314 1.314 0 00-.417-.483 1.426 1.426 0 00-.474-.186 3.835 3.835 0 00-.585-.074v-.706l3.426-.223.149.14v1.457h.055c.167-.167.372-.371.622-.603.223-.208.462-.397.715-.567.29-.18.602-.32.929-.417.387-.125.791-.19 1.197-.195a2.633 2.633 0 012.201.928 3.97 3.97 0 01.715 2.47v5.366c-.008.203.037.404.13.585a.825.825 0 00.427.353c.14.064.286.114.436.148.166.033.333.054.502.065zm9.525-5.71c-.585.177-1.104.344-1.55.511a6.35 6.35 0 00-1.254.631c-.329.224-.61.511-.826.845a2.195 2.195 0 00-.269 1.161 1.501 1.501 0 00.954 1.584c.208.08.43.113.652.096.463.011.918-.115 1.309-.362.356-.23.67-.519.929-.854zm3.658 5.524c-.334.121-.622.214-.863.288a2.978 2.978 0 01-.845.112 2.008 2.008 0 01-1.3-.39 1.713 1.713 0 01-.622-1.114h-.065a4.892 4.892 0 01-1.457 1.151 4.069 4.069 0 01-1.857.399 2.632 2.632 0 01-1.857-.706 2.458 2.458 0 01-.752-1.857 3.176 3.176 0 01.167-1.067c.11-.312.28-.599.501-.845.195-.228.431-.417.697-.557.256-.152.523-.285.798-.399l1.913-.66c.665-.199 1.314-.45 1.94-.752V8.57a4.492 4.492 0 00-.056-.53 2.209 2.209 0 00-.835-1.402 1.757 1.757 0 00-1.087-.287 2.534 2.534 0 00-.928.157c-.217.073-.416.19-.585.344.012.207.047.413.102.613.063.249.097.504.102.761a.933.933 0 01-.334.669c-.26.214-.592.321-.928.297a.85.85 0 01-.771-.372 1.423 1.423 0 01-.251-.826 1.49 1.49 0 01.344-.929c.258-.318.573-.585.928-.789a4.66 4.66 0 011.142-.492 4.36 4.36 0 011.245-.213 8.264 8.264 0 011.531.12c.431.075.838.25 1.189.511.362.275.641.644.808 1.068.203.549.297 1.132.278 1.717v5.172c-.012.225.036.449.139.65.108.172.258.312.437.408.155.078.327.117.501.112h.696zm7.994.186h-5.032v-.687l.52-.046c.151-.014.3-.042.446-.084a.751.751 0 00.436-.325c.108-.186.159-.398.149-.613V2.479a1.673 1.673 0 00-.158-.706 1.409 1.409 0 00-.427-.52 2.314 2.314 0 00-.687-.232 6.094 6.094 0 00-.808-.093V.232L80.719 0l.148.158v14.149c-.012.21.034.418.131.604a.925.925 0 00.445.362c.147.066.299.119.455.158.165.036.333.061.501.074zM89.53 1.68a1.52 1.52 0 01-.4 1.04 1.241 1.241 0 01-.928.412 1.256 1.256 0 01-.928-.412 1.39 1.39 0 01-.39-.928 1.453 1.453 0 01.39-1.021 1.247 1.247 0 011.433-.322c.16.069.303.169.423.294a1.296 1.296 0 01.381.928zm1.29 14.503h-4.957v-.678l.491-.046c.153-.005.303-.033.446-.084a.748.748 0 00.436-.325c.101-.188.149-.4.14-.613v-6.36a1.258 1.258 0 00-.102-.649 1.28 1.28 0 00-.427-.465 1.887 1.887 0 00-.576-.213 3.339 3.339 0 00-.687-.112v-.659l3.64-.223.148.14v8.411c-.008.213.041.424.139.613a.842.842 0 00.437.353c.297.121.609.199.928.232zM110.735 1.68c.007.386-.136.759-.399 1.04a1.217 1.217 0 01-1.857.028 1.395 1.395 0 01-.39-.928c-.025-.383.102-.76.353-1.049.116-.132.259-.239.42-.312a1.24 1.24 0 01.508-.115 1.3 1.3 0 01.929.399c.248.245.388.579.39.928zm1.263 14.503h-4.986v-.678l.502-.046c.151-.007.302-.035.445-.084a.73.73 0 00.427-.325c.108-.186.16-.398.149-.613v-6.36A1.323 1.323 0 00107.959 7a1.925 1.925 0 00-.575-.213 3.355 3.355 0 00-.696-.111v-.697l3.639-.223.149.14v8.411c-.008.213.04.424.139.613.102.167.26.292.445.353.144.062.294.112.446.148.162.04.326.068.492.084zm-7.548-9.684a2.617 2.617 0 00-.929.334c-.331.23-.587.553-.733.929l-1.272 2.924c-.445 1.012-.928 2.08-1.374 3.194-.142.328-.291.709-.446 1.142-.158.437-.297.864-.436 1.263h-.808c-.668-1.634-1.272-3.129-1.857-4.484-.585-1.356-1.132-2.73-1.736-4.141a1.546 1.546 0 00-.669-.752 2.96 2.96 0 00-.928-.344v-.687h4.772v.734a3.633 3.633 0 00-.78.13c-.315.083-.473.185-.473.334a1.042 1.042 0 000 .158c0 .083.074.185.111.297.279.715.687 1.699 1.208 2.98.519 1.281.927 2.302 1.271 3.082.251-.603.566-1.346.929-2.237.362-.891.789-1.857 1.226-2.99l.203-.529c.063-.156.095-.323.094-.492a.419.419 0 00-.177-.325 1.574 1.574 0 00-.409-.241 2.327 2.327 0 00-.473-.158l-.372-.074v-.669h3.946zm22.403 9.693h-5.041v-.687l.52-.046c.164-.004.327-.033.482-.084a.78.78 0 00.437-.325c.1-.188.148-.4.139-.613V9.136a2.52 2.52 0 00-.52-1.708 1.609 1.609 0 00-1.244-.585 2.96 2.96 0 00-1.021.167 3.984 3.984 0 00-.836.418 2.094 2.094 0 00-.547.519 3.2 3.2 0 00-.297.446v5.933c-.007.204.04.406.139.585.112.158.266.28.445.353.152.069.311.122.474.157.174.036.351.06.529.075v.687h-5.051v-.678l.492-.046c.152-.005.303-.033.446-.084a.748.748 0 00.436-.325 1.2 1.2 0 00.14-.613v-6.36a1.436 1.436 0 00-.149-.659 1.274 1.274 0 00-.427-.483 1.355 1.355 0 00-.474-.185 3.481 3.481 0 00-.584-.074v-.697l3.435-.223.149.14v1.457l.63-.603c.22-.207.456-.397.707-.567.288-.181.601-.321.927-.417a3.966 3.966 0 011.245-.195 2.606 2.606 0 012.2.928c.511.725.76 1.603.706 2.488v5.367c-.007.203.037.404.13.585a.827.827 0 00.427.352c.14.064.287.114.437.149.168.033.339.055.51.065zm9.414-7.186a3.369 3.369 0 00-.491-1.95 1.744 1.744 0 00-2.238-.557 1.465 1.465 0 00-.566.576c-.153.257-.257.54-.306.835a5.709 5.709 0 00-.084.994 3.258 3.258 0 00.501 1.857 1.548 1.548 0 001.319.733 1.572 1.572 0 001.383-.724 3.23 3.23 0 00.482-1.857zm2.016 8.634a1.644 1.644 0 00-.27-.928 1.42 1.42 0 00-.836-.511c-.195 0-.594-.065-1.197-.093a46.064 46.064 0 00-2.117-.055c-.6.073-1.162.333-1.607.743-.325.363-.496.84-.472 1.327 0 .244.055.485.157.706.126.248.315.46.548.613.296.211.63.362.984.445.491.125.997.184 1.504.177a4.375 4.375 0 002.433-.567 2.017 2.017 0 00.882-1.792zm.826-2.469c.272.268.495.582.659.928.171.392.253.817.241 1.244 0 .486-.11.966-.325 1.402a3.321 3.321 0 01-.984 1.133c-.515.343-1.082.6-1.68.761-.786.2-1.595.29-2.405.27a6.959 6.959 0 01-3.5-.687 2.197 2.197 0 01-1.133-2.071 1.99 1.99 0 01.836-1.69 3.811 3.811 0 012.135-.668v-.149a5.028 5.028 0 01-.65-.232 2.57 2.57 0 01-.575-.325 1.934 1.934 0 01-.437-.52 1.507 1.507 0 01-.167-.742c.003-.374.142-.734.39-1.013.326-.36.733-.637 1.188-.807v-.158a4.005 4.005 0 01-1.559-1.207 2.775 2.775 0 01-.557-1.708 3.018 3.018 0 011.058-2.433 4.103 4.103 0 012.786-.928c.311-.001.623.03.927.093.315.059.626.14.929.241h3.603v1.021h-2.433v.065c.257.29.452.627.575.994.127.342.193.703.196 1.067a2.897 2.897 0 01-1.106 2.294 3.843 3.843 0 01-2.571.928h-1.226a1.655 1.655 0 00-.501.306.72.72 0 00-.26.595.739.739 0 00.214.585c.15.14.337.237.538.278.231.061.467.098.705.111h.827c.307 0 .734 0 1.263.065.529.065.928.056 1.133.056.336.02.666.098.974.232.323.144.62.339.882.576M0 12.636l16.433-9.359 5.358 10.046v-.891L16.433.947 0 11.893z" fill="#212121"/><path d="M2.804 12.794l12.172-5.023 3.222 4.438v4.02l-3.222-3.119-12.172 4.001z" fill="#535353"/><path d="M0 19.2v-1.17l14.967-4.92 3.667 3.546v1.272l-3.445-2.804z" fill="#212121"/><path d="M3.565 26.154v-6.62l12.961-1.364v9.6z" fill="#535353"/><path d="M21.233 25.244l-.891 1.133V13.648l.891 1.254zm105.62-5.607h-97.44v.157h97.44z" fill="#212121"/></svg>