<svg style="background-color:#f7f7f7" id="Layer_1" data-name="Layer 1" xmlns="http://www.w3.org/2000/svg" viewBox="0 0 960 960"><defs><style>.cls-1{fill:none;stroke:#008582;stroke-miterlimit:10;stroke-width:.25px}.cls-2{fill:#008582}</style></defs><path class="cls-1" d="M197.66 278.43h564.68m0 403.35H197.66m-5.76-403.35h576.18M191.9 318.77h576.18M191.9 359.1h576.2m-576.2 40.34h576.2m-576.2 40.33h576.2M197.66 480.1h564.68M191.9 520.44h576.2m-576.2 40.33h576.2m-576.2 40.34h576.2m-576.2 40.33h576.2m-576.2 40.34h576.18M560.67 272.71V687.5m-40.34-414.79l.01 414.79M480 272.71V687.5m-40.33-414.79V687.5m-40.34-414.79V687.5M359 272.71V687.5m-40.34-414.79V687.5m-40.33-414.79V687.5m-40.34-414.79v414.53m484.02-414.53v414.53m-40.34-414.53V687.5m-40.33-414.79V687.5M601 272.71V687.5"/><path class="cls-2" d="M727.77 445.53H554.91V318.77h11.52v115.24h149.82V318.77h11.52v126.76z"/><path class="cls-2" d="M554.98 393.67h167.03v11.52H554.98zm151.08 253.54H253.94c-34.21 0-62.05-26.72-62.05-59.55V474.34h576.22v113.32c0 32.83-27.84 59.55-62.05 59.55zM203.42 485.87v101.79c0 26.48 22.66 48 50.52 48h452.12c27.86 0 50.52-21.54 50.52-48V485.87z"/><path class="cls-2" transform="rotate(-45 257.362 662.417)" d="M227.71 656.65H287v11.52h-59.29z"/><path class="cls-2" transform="rotate(-45 702.558 662.31)" d="M696.77 632.8h11.52v59h-11.52z"/><path class="cls-2" d="M399.33 364.86H312.9v-5.76a46.1 46.1 0 1192.19 0v5.76zm-74.43-11.52h68.19a34.58 34.58 0 00-68.19 0z"/><path class="cls-2" d="M243.92 480.1h-11.86V340.71A68.22 68.22 0 01364.59 318l-11.19 3.95a56.35 56.35 0 00-109.48 18.79zM514.57 313h253.51v11.52H514.57z"/><path class="cls-1" d="M191.9 272.71h576.2m-576.2 11.51h576.2m-564.69-11.51v414.53M191.9 272.71v414.53m51.84-414.53v414.53m-11.5-414.53v414.53m51.84-414.53v414.53m-11.51-414.53v414.53m51.84-414.53v414.53M312.9 272.71v414.53m51.85-414.53v414.53m-11.51-414.53v414.53m51.84-414.53v414.53m-11.51-414.53v414.53m51.84-414.53v414.53M433.9 272.71v414.53m51.85-414.53v414.53m-11.51-414.53v414.53m51.84-414.53v414.53m-11.51-414.53v414.53m51.84-414.53v414.53m-11.5-414.53v414.53m51.84-414.53v414.53m-11.51-414.53v414.53m51.84-414.53v414.53m-11.51-414.53v414.53m51.85-414.53l-.01 414.53m-11.5-414.53v414.53m51.84-414.53v414.53m-11.51-414.53v414.53m51.84-414.53v414.53m-11.51-414.53v414.53M191.9 313.01h576.2m-576.2 11.51h576.2m-576.2 28.79h576.2m-576.2 11.51h576.2m-576.2 28.8h576.2m-576.2 11.51h576.2m-576.2 28.79h576.2m-576.2 11.51h576.2m-576.2 28.79h576.2m-576.2 11.51h576.2m-576.2 28.8h576.2m-576.2 11.5h576.2m-576.2 28.8h576.2m-576.2 11.51h576.2m-576.2 28.79h576.2m-576.2 11.51h576.2m-576.2 29.05h576.2M191.9 647.2h576.2m-576.2 28.54h576.2m-576.2 11.5h576.2m-5.76-414.28v414.28m-564.68 0V272.96"/></svg>