<svg xmlns="http://www.w3.org/2000/svg" width="71" height="69"><path d="M34.99 31.69a.445.445 0 01.108.791c-.228.147-.456.308-.671.468l-.322.241a23.8 23.8 0 00-1.543 1.299 21.044 21.044 0 00-4.374 5.759c-.014.026-.027.053-.04.067a.68.68 0 01-.819.267.693.693 0 01-.402-.883c.027-.041.04-.094.067-.134a21.767 21.767 0 013.193-4.62.193.193 0 00-.174-.322 22.79 22.79 0 00-3.69.75.433.433 0 00-.295.295 21.137 21.137 0 01-1.114 2.785c-.027.04-.04.081-.054.107a.251.251 0 01-.04.067.708.708 0 01-.805.241.694.694 0 01-.402-.884c0-.013.013-.026.013-.04 0-.013.014-.027.014-.027.228-.455.429-.924.617-1.406a.219.219 0 00-.282-.281c-.577.241-1.127.522-1.677.817a.28.28 0 00-.067.04.69.69 0 01-.926-.87.637.637 0 01.282-.335.302.302 0 00.067-.04 22.703 22.703 0 013.3-1.46c.51-.174 1.02-.335 1.543-.469a22.201 22.201 0 015.34-.776c.108 0 .202-.04.282-.107l.362-.322c.121-.107.067-.308-.08-.335a21.6 21.6 0 00-5.515-.549c-.469.014-.939.04-1.395.081a20.79 20.79 0 00-2.911.495c-.363.094-.712.188-1.074.295a.815.815 0 01-.188.04c-.08 0-.187-.014-.281-.04a.7.7 0 01-.403-.884.63.63 0 01.376-.388h.013c.027-.014.054-.014.094-.027a21.496 21.496 0 014.535-.857c.456-.04.912-.067 1.382-.067 1.986-.04 3.998.174 6.024.669.376.094.752.201 1.127.308.282.067.55.148.805.241zm7.393-2.826a.443.443 0 01.631.482c-.054.268-.094.536-.134.804-.014.134-.041.268-.054.402a16.768 16.768 0 00-.161 2.008 21.05 21.05 0 00.993 7.151c.013.027.013.054.027.081a.685.685 0 01-.389.776.688.688 0 01-.913-.348c-.013-.053-.027-.094-.04-.147a22.485 22.485 0 01-1.02-5.517c-.013-.174-.241-.255-.349-.107a20.827 20.827 0 00-2.066 3.133.454.454 0 000 .415c.47.898.859 1.822 1.194 2.759.014.04.027.094.041.107.013.027.013.067.026.08a.701.701 0 01-.402.737.687.687 0 01-.912-.348c0-.014-.014-.027-.014-.04 0-.014-.013-.027-.013-.027a14.38 14.38 0 00-.564-1.433c-.08-.174-.322-.174-.402.013-.228.576-.43 1.165-.604 1.755-.014.026-.014.053-.027.08a.663.663 0 01-.362.375.668.668 0 01-.899-.348.63.63 0 01-.04-.442c0-.027.013-.054.026-.08a21.856 21.856 0 011.302-3.362c.228-.482.483-.951.751-1.419.886-1.554 1.959-3 3.22-4.326a.49.49 0 00.121-.268l.027-.482a.197.197 0 00-.295-.187 21.01 21.01 0 00-4.28 3.495c-.322.335-.631.683-.926 1.045a19.97 19.97 0 00-1.717 2.41c-.188.321-.376.643-.551.964a.63.63 0 01-.107.161 1.03 1.03 0 01-.228.174.679.679 0 01-.912-.87s0-.014.013-.014l.04-.08a22.647 22.647 0 013.529-4.848 22.671 22.671 0 015.756-4.352c.201-.121.443-.255.684-.362zm3.234-7.231a.445.445 0 01.791-.107c.148.228.309.456.47.67l.241.321c.416.536.846 1.045 1.302 1.54a21.07 21.07 0 005.769 4.366.28.28 0 01.067.04c.269.174.389.509.269.817a.697.697 0 01-.886.402c-.04-.027-.094-.041-.134-.067a21.875 21.875 0 01-4.629-3.187.193.193 0 00-.322.174 22.72 22.72 0 00.751 3.682.436.436 0 00.296.295c.966.308 1.905.683 2.79 1.111.041.027.081.041.108.054a.328.328 0 01.067.04.705.705 0 01.241.804.695.695 0 01-.885.401c-.014 0-.027-.013-.04-.013-.014 0-.027-.013-.027-.013a16.437 16.437 0 00-1.409-.616.219.219 0 00-.282.281c.242.576.523 1.125.819 1.674a.268.268 0 00.04.067.69.69 0 01-.872.924.642.642 0 01-.336-.281.28.28 0 00-.04-.067 22.5 22.5 0 01-1.462-3.295 20.1 20.1 0 01-.47-1.54 22.008 22.008 0 01-.778-5.33.432.432 0 00-.108-.281l-.322-.361c-.107-.121-.308-.067-.335.08a21.37 21.37 0 00-.55 5.504c.013.469.04.937.08 1.393.094.991.269 1.955.497 2.906.094.361.188.709.295 1.071.027.094.04.147.04.187 0 .081-.013.188-.04.282a.702.702 0 01-.886.401.637.637 0 01-.389-.375v-.013c-.013-.027-.013-.054-.027-.094a21.466 21.466 0 01-.858-4.526c-.04-.455-.067-.911-.067-1.379a23.108 23.108 0 01.671-6.013c.093-.375.201-.75.308-1.125.054-.281.148-.536.242-.804zm-2.845-7.379a.441.441 0 01.483-.629c.268.053.537.094.805.134.134.013.269.04.403.053.671.094 1.341.148 2.012.161 2.402.08 4.817-.241 7.165-.991.027-.013.054-.013.08-.027a.688.688 0 01.43 1.299c-.054.014-.094.027-.148.04a22.559 22.559 0 01-5.528 1.018c-.174.014-.255.241-.107.348a20.82 20.82 0 003.14 2.063.456.456 0 00.416 0 21.648 21.648 0 012.764-1.192c.04-.014.093-.027.107-.04.027-.014.067-.014.08-.027a.703.703 0 01.738.402c.161.348 0 .75-.349.91-.013 0-.026.014-.04.014-.013 0-.027.013-.027.013-.483.161-.966.348-1.435.562-.175.081-.175.322.013.402.577.228 1.167.429 1.758.603.027.013.053.013.08.027a.663.663 0 01.376.361c.161.348 0 .75-.349.897a.639.639 0 01-.443.041c-.026 0-.053-.014-.08-.027a21.91 21.91 0 01-3.368-1.299 20.795 20.795 0 01-1.422-.75 22.317 22.317 0 01-4.334-3.214.496.496 0 00-.268-.121l-.483-.026a.197.197 0 00-.188.294 20.984 20.984 0 003.502 4.272c.335.322.684.629 1.046.924a20.122 20.122 0 003.382 2.263c.08.04.134.081.16.107.054.054.135.148.175.228.161.348 0 .75-.335.897a.68.68 0 01-.537.014s-.014 0-.014-.014l-.08-.04a22.573 22.573 0 01-4.857-3.522 22.648 22.648 0 01-4.361-5.745c-.12-.187-.241-.442-.362-.683zM35.54 11.04a.444.444 0 01-.107-.79c.228-.147.456-.308.671-.468l.322-.241a24.402 24.402 0 001.543-1.299 21.044 21.044 0 004.374-5.759.302.302 0 01.04-.067.68.68 0 01.819-.268.695.695 0 01.402.884c-.027.04-.04.094-.067.134a21.792 21.792 0 01-3.193 4.62.194.194 0 00.174.322 22.92 22.92 0 003.69-.75.435.435 0 00.295-.295c.309-.964.684-1.901 1.114-2.785.026-.041.04-.081.053-.107.014-.027.027-.054.041-.067a.706.706 0 01.805-.241.693.693 0 01.402.883c0 .014-.013.027-.013.041 0 .013-.014.026-.014.026-.228.456-.429.924-.617 1.406a.22.22 0 00.282.282 19.515 19.515 0 001.677-.817c.027-.014.054-.027.067-.04a.69.69 0 01.926.87.64.64 0 01-.282.335.28.28 0 00-.067.04 22.667 22.667 0 01-3.301 1.46c-.509.174-1.019.334-1.543.468a22.138 22.138 0 01-5.34.777.43.43 0 00-.281.107l-.363.322c-.12.107-.067.308.081.334 1.852.429 3.69.603 5.514.549.47-.013.94-.04 1.396-.08a21.087 21.087 0 002.911-.495 33.7 33.7 0 001.074-.295.759.759 0 01.187-.04c.081 0 .188.013.282.04a.701.701 0 01.403.884.637.637 0 01-.376.388h-.013c-.027.014-.054.014-.094.027a21.496 21.496 0 01-4.535.857c-.457.04-.913.067-1.382.067a23.283 23.283 0 01-7.152-.978 7.068 7.068 0 01-.805-.241zm-7.406 2.826a.442.442 0 01-.63-.482c.053-.268.094-.536.134-.804.013-.133.04-.267.053-.401.094-.67.148-1.339.161-2.009a21.049 21.049 0 00-.992-7.151c-.014-.027-.014-.054-.027-.08a.685.685 0 01.389-.777.687.687 0 01.912.348c.014.054.027.094.04.147.577 1.808.913 3.67 1.02 5.518.014.174.242.254.349.107a20.684 20.684 0 002.066-3.134.454.454 0 000-.415 21.802 21.802 0 01-1.194-2.759c-.013-.04-.027-.093-.04-.107-.014-.027-.014-.067-.027-.08a.702.702 0 01.403-.737c.348-.16.751 0 .912.349 0 .013.013.026.013.04 0 .013.014.026.014.026.161.483.349.965.563 1.433.081.174.322.174.403-.013.228-.576.429-1.165.604-1.754.013-.027.013-.054.026-.081a.665.665 0 01.363-.375.67.67 0 01.899.349c.067.147.08.294.04.441 0 .027-.014.054-.027.081a21.778 21.778 0 01-1.301 3.361c-.229.482-.484.951-.752 1.42a22.25 22.25 0 01-3.22 4.325.543.543 0 00-.121.268l-.026.482a.197.197 0 00.295.187 21.005 21.005 0 004.28-3.495 20.286 20.286 0 002.643-3.455c.188-.321.376-.643.55-.964a.68.68 0 01.107-.161c.054-.053.148-.134.228-.174.349-.16.752 0 .899.335a.677.677 0 01.014.536s0 .013-.014.013a1.988 1.988 0 01-.04.08 22.49 22.49 0 01-3.529 4.848 22.656 22.656 0 01-5.755 4.352c-.188.121-.43.242-.685.362zm-3.22 7.231a.446.446 0 01-.792.107 11.76 11.76 0 00-.469-.669l-.242-.322a24.322 24.322 0 00-1.301-1.54 21.091 21.091 0 00-5.77-4.365c-.026-.014-.053-.027-.067-.041a.675.675 0 01-.268-.816.696.696 0 01.886-.402c.04.027.094.04.134.067 1.69.87 3.247 1.942 4.629 3.187.134.12.349.013.322-.174a22.711 22.711 0 00-.752-3.683.432.432 0 00-.295-.294 21.211 21.211 0 01-2.791-1.112c-.04-.027-.08-.04-.107-.054-.027-.013-.054-.026-.067-.04-.242-.174-.349-.509-.242-.803a.697.697 0 01.886-.402c.013 0 .027.013.04.013.014 0 .027.014.027.014.456.228.926.428 1.409.616a.219.219 0 00.282-.281 19.477 19.477 0 00-.819-1.674.28.28 0 00-.04-.067.69.69 0 01.872-.924c.148.053.268.16.336.281a.251.251 0 00.04.067 22.537 22.537 0 011.462 3.294 20.1 20.1 0 01.47 1.54c.469 1.714.738 3.509.778 5.33 0 .107.04.201.107.281l.322.362c.108.12.309.067.336-.08.429-1.848.604-3.683.55-5.504-.014-.469-.04-.938-.081-1.393a20.894 20.894 0 00-.496-2.906c-.094-.362-.188-.71-.295-1.071a.79.79 0 01-.041-.188c0-.08.014-.187.041-.281a.703.703 0 01.885-.402.634.634 0 01.389.375v.014c.014.026.014.053.027.093.443 1.46.738 2.987.859 4.527.04.455.067.91.067 1.379a23.151 23.151 0 01-.671 6.013c-.094.375-.201.75-.309 1.125-.053.281-.147.535-.241.803zm2.844 7.379a.441.441 0 01-.483.629c-.268-.053-.536-.093-.805-.134-.134-.013-.268-.04-.402-.053a16.85 16.85 0 00-2.013-.161 21.175 21.175 0 00-7.164.991c-.027.013-.054.013-.081.027a.687.687 0 01-.429-1.299c.054-.014.094-.027.147-.04a22.576 22.576 0 015.528-1.018c.175-.013.255-.241.108-.348a20.87 20.87 0 00-3.14-2.063.462.462 0 00-.416 0c-.899.469-1.825.857-2.764 1.192-.04.014-.094.027-.107.04-.027.014-.067.014-.081.027a.704.704 0 01-.738-.402.685.685 0 01.349-.91c.014 0 .027-.013.041-.013.013 0 .026-.014.026-.014.483-.161.966-.348 1.436-.562.174-.081.174-.322-.014-.402a20.69 20.69 0 00-1.757-.603c-.027-.013-.054-.013-.081-.027a.658.658 0 01-.375-.361.666.666 0 01.349-.897.636.636 0 01.442-.041c.027 0 .054.014.081.027a21.86 21.86 0 013.367 1.299c.483.228.953.482 1.423.75a22.28 22.28 0 014.333 3.214.503.503 0 00.269.121l.483.027a.197.197 0 00.188-.295 20.984 20.984 0 00-3.502-4.272 17.719 17.719 0 00-1.047-.924 20.305 20.305 0 00-2.415-1.714 33.811 33.811 0 00-.966-.549.68.68 0 01-.161-.107 1.023 1.023 0 01-.174-.228.672.672 0 01.335-.897.68.68 0 01.537-.014s.013 0 .013.014l.081.04a22.712 22.712 0 014.857 3.522 22.644 22.644 0 014.36 5.745c.121.187.242.428.362.683zM11.229 65.571h.711v1.272h1.301v-1.272h.711v3.214h-.711v-1.286H11.94v1.286h-.711zm3.488 1.62c0-.924.724-1.674 1.717-1.674.993 0 1.704.737 1.704 1.647v.014c0 .91-.724 1.66-1.717 1.66-.993 0-1.704-.736-1.704-1.647zm2.67 0c0-.562-.402-1.018-.979-1.018-.564 0-.967.456-.967 1.005v.013c0 .549.403 1.004.98 1.004.577-.013.966-.455.966-1.004zm2.12-.964h-.979v-.656h2.67v.656h-.98v2.558h-.711zm2.361-.656h2.429v.629h-1.718v.656h1.516v.63h-1.516v.669h1.744v.63h-2.455zm3.22 0h.712v2.571h1.61v.643h-2.308v-3.214zm4.495 0h.658l1.502 1.982v-1.982h.698v3.214h-.604l-1.556-2.036v2.036h-.698zm3.77 0h.711v1.272h1.302v-1.272h.711v3.214h-.711v-1.286h-1.302v1.286h-.711zm4.736-.028h.658l1.382 3.228h-.738l-.295-.723h-1.355l-.296.723h-.724zm.752 1.889l-.43-1.045-.429 1.045zm4.186-1.205h-.979v-.656h2.67v.656h-.98v2.558h-.711zm2.361-.656h1.476c.403 0 .725.107.939.321.188.188.282.429.282.737v.013c0 .522-.282.844-.684.991l.792 1.152h-.832l-.685-1.031h-.55v1.031h-.711v-3.214zm1.423 1.553c.348 0 .536-.174.536-.455v-.014c0-.307-.201-.455-.55-.455h-.698v.924zm3.139-1.581h.658l1.382 3.228h-.738l-.295-.723h-1.369l-.295.723h-.725zm.752 1.889l-.43-1.045-.429 1.045zm1.918-1.861h.658l1.502 1.982v-1.982h.698v3.214h-.604l-1.556-2.036v2.036h-.698zm3.623 1.62c0-.924.711-1.674 1.69-1.674.577 0 .94.161 1.262.442l-.443.536c-.242-.201-.47-.322-.845-.322-.51 0-.926.456-.926 1.005v.013c0 .589.402 1.018.979 1.018.269 0 .483-.067.671-.188v-.455h-.711v-.616h1.395v1.393a2.099 2.099 0 01-1.368.509c-1.02-.014-1.704-.71-1.704-1.661zM9.967 57.522c0-2.263-1.596-3.026-4.146-3.642-2.093-.536-3.099-.817-3.099-2.022 0-1.085.765-1.741 2.442-1.741 1.275 0 2.482.535 3.113 1.004.161.121.402.08.51-.107l.55-.991c.08-.161.04-.348-.108-.442a7.178 7.178 0 00-3.998-1.232c-2.589 0-4.575 1.339-4.575 3.83 0 1.982 1.261 2.705 3.743 3.361 2.16.563 3.462.938 3.462 2.196 0 1.058-.886 1.607-2.442 1.607-1.664 0-3.234-.75-4.025-1.352-.161-.121-.403-.081-.497.107L.32 59.169a.333.333 0 00.094.429c1.396 1.004 3.153 1.526 4.965 1.526 2.509.014 4.588-1.031 4.588-3.602zm7.273-2.102h4.95a.333.333 0 00.336-.335v-.978a.332.332 0 00-.336-.334h-4.95a.333.333 0 01-.336-.335v-2.906c0-.188.148-.335.336-.335h5.823a.332.332 0 00.335-.335v-1.084a.332.332 0 00-.335-.335H15.24a.332.332 0 00-.335.335v11.905c0 .187.148.334.335.334h7.97a.332.332 0 00.336-.334v-1.085a.332.332 0 00-.336-.335h-5.984a.331.331 0 01-.335-.335v-3.173c0-.188.161-.335.349-.335zm28.806-2.518l6.427 7.982c.067.08.161.12.268.12h1.154a.331.331 0 00.335-.335V48.791a.332.332 0 00-.335-.335h-1.329a.332.332 0 00-.335.335v7.754c0 .321-.402.455-.604.214l-6.507-8.182a.348.348 0 00-.268-.134h-1.06a.332.332 0 00-.336.335v11.905c0 .187.148.334.336.334h1.315a.332.332 0 00.335-.334v-7.567c0-.321.403-.455.604-.214zm-7.245 7.647c.08.214-.081.455-.309.455h-1.315a.421.421 0 01-.389-.268l-.51-1.406a.31.31 0 00-.188-.201 8.53 8.53 0 00-1.288-.428c-.094-.027-.187-.04-.268-.054l-.201-.04-.295-.04a.335.335 0 01-.269-.188l-.121-.267c-.093-.215-.067-.108-.147-.335l-.188-.509c-.08-.228.094-.469.322-.456.429.014.845.054 1.275.134l.214.041a.215.215 0 00.242-.282l-.201-.589-.161-.428-1.262-3.375-.281-.763a.336.336 0 00-.631 0l-1.771 4.58h.013l-1.757 4.62a.422.422 0 01-.389.267h-1.154a.328.328 0 01-.309-.455l4.736-11.905a.332.332 0 01.309-.214h1.288c.134 0 .268.08.309.214l.536 1.366 2.644 6.709.509 1.299.631 1.594zm31.449 0a.338.338 0 01-.308.455h-1.315a.42.42 0 01-.389-.268l-.51-1.406a.31.31 0 00-.188-.201 8.53 8.53 0 00-1.288-.428c-.094-.027-.188-.04-.268-.054l-.202-.04-.295-.04a.332.332 0 01-.268-.188l-.121-.267c-.094-.215-.067-.108-.148-.335l-.187-.509c-.081-.228.094-.469.322-.456.429.014.845.054 1.274.134l.215.041a.214.214 0 00.241-.282l-.201-.589-.161-.428-1.261-3.375-.282-.763a.335.335 0 00-.63 0l-1.771 4.58h.013l-1.758 4.62a.42.42 0 01-.389.267h-1.154a.328.328 0 01-.308-.455l4.736-11.905a.33.33 0 01.309-.214h1.288c.134 0 .268.08.308.214l.537 1.366 2.643 6.709.51 1.299.63 1.594z" fill="#212121"/></svg>