<svg xmlns="http://www.w3.org/2000/svg" width="128" height="57"><path d="M46.041 55.583c.188.067.39.134.645.134l-.068.698c-.509 0-.831-.188-1.154-.389-.322.187-.697.255-1.086.255a2.3 2.3 0 01-2.308-2.309 2.362 2.362 0 012.375-2.375 2.371 2.371 0 012.375 2.375 2.72 2.72 0 01-.779 1.611zm-1.663-.067c.187 0 .322 0 .509-.068-.389-.389-.644-.832-1.154-.832l.068-.644c.899.067 1.154.644 1.663 1.154a1.56 1.56 0 00.577-1.221c0-.899-.697-1.597-1.596-1.597-.899 0-1.597.698-1.597 1.597-.067.899.631 1.611 1.53 1.611zm4.669-1.087v-2.818h.698v2.818c0 .644.443 1.087 1.02 1.087s1.02-.443 1.02-1.087v-2.818h.697v2.818c0 1.02-.764 1.798-1.731 1.798-.925-.013-1.704-.711-1.704-1.798zm7.112-.201l-1.476-2.564h.765l1.02 1.799 1.019-1.799h.765l-1.476 2.564v1.919h-.698v-1.919zm10.373-2.618v4.603h-.068l-2.885-3.006v2.939h-.697v-4.603h.067l2.885 3.006V51.61zm5.944.001v4.549h-.698v-1.919h-1.986v1.919h-.698v-4.549h.698v1.919h1.986v-1.919zm2.375 2.307a2.371 2.371 0 012.375-2.375 2.37 2.37 0 012.375 2.375c0 1.275-1.02 2.309-2.375 2.309-1.288-.014-2.375-1.034-2.375-2.309zm3.972 0c0-.899-.698-1.597-1.597-1.597s-1.597.698-1.597 1.597c0 .9.698 1.597 1.597 1.597.886 0 1.597-.711 1.597-1.597zm6.722-2.308v4.603l-2.884-3.006v2.939h-.698v-4.603h.067l2.885 3.006V51.61zM6.605 35.788H4.431v7.113H2.646v-7.113H.472V33.99h6.146v1.798zm9.54-1.718v8.898h-1.798v-3.584H11.14v3.584H9.342V34.07h1.798v3.583h3.207V34.07zm5.059 1.718v1.731h3.073v1.798h-3.073v1.852h3.583v1.799h-5.381V34.07h5.381v1.798h-3.583zm8.829 2.698c0-2.564 2.107-4.671 4.603-4.671 2.563 0 4.602 2.107 4.602 4.671 0 2.563-2.106 4.603-4.602 4.603-2.483 0-4.603-2.04-4.603-4.603zm7.501 0c0-1.53-1.275-2.819-2.818-2.819a2.835 2.835 0 00-2.818 2.819c0 1.53 1.275 2.818 2.818 2.818 1.543 0 2.818-1.288 2.818-2.818zm3.449-.001c0-2.496 2.106-4.603 4.602-4.603 1.154 0 2.174.443 3.14 1.342l-1.02 1.409c-.577-.577-1.342-.966-2.106-.966-1.409 0-2.818 1.275-2.818 2.818 0 1.597 1.409 2.818 2.818 2.818.832 0 1.529-.442 2.106-1.02l1.02 1.477c-.765.765-1.731 1.342-3.073 1.342-2.616-.014-4.669-2.121-4.669-4.617zm11.848-2.697v1.731h3.073v1.798h-3.073v1.852h3.583v1.799h-5.381V34.07h5.381v1.798h-3.583zm11.513 5.892h-3.582l-.577 1.221h-1.919l4.227-9.086h.067l4.226 9.086h-1.918zm-.697-1.53l-1.087-2.376-1.087 2.376zm12.613-6.147v9.086h-.067l-5.314-5.127v4.993h-1.798v-9.086h.067l5.247 5.127v-4.993zm13.244.067l-4.16 9.086h-.067l-4.16-9.086h1.919l2.308 5.18 2.308-5.18zm2.241 0h1.798v8.898h-1.798zm10.051 7.099v1.799h-5.381V34.07h1.797v7.113h3.584zm7.755 0v1.799h-5.38V34.07h1.797v7.113h3.583zm7.608.511h-3.583L113 42.901h-1.919l4.226-9.086h.068l4.227 9.086h-1.92zm-.698-1.53l-1.086-2.376-1.087 2.376zm4.348 1.274l1.409-1.02c.389.645.967.899 1.731.899.832 0 1.409-.322 1.409-.832 0-.644-1.087-1.154-1.986-1.597-1.02-.51-2.106-1.02-2.106-2.429 0-1.53 1.274-2.563 2.938-2.563 1.221 0 2.24.51 2.63 1.597l-1.342.899c-.255-.51-.765-.765-1.275-.765-.644 0-1.154.39-1.154.832 0 .51.698.698 1.664 1.222 1.476.697 2.429 1.476 2.429 2.818 0 1.597-1.342 2.63-3.207 2.63-1.476-.027-2.563-.604-3.14-1.691zM56.857 23.186a12.25 12.25 0 006.91 2.107c2.563 0 4.925-.765 6.911-2.107zM68.383 6.412c1.02.697 1.852 1.731 2.496 2.818.067.188.322.255.443.188l3.838-1.597c-.255-.577-.577-1.087-.899-1.597-.322-.51-.698-.967-1.087-1.409l-.067-.067c-.067-.135-.188-.188-.255-.323l-.067-.067c-.323-.322-.645-.644-.967-.899l-.067-.067c-.134-.067-.188-.188-.322-.255a12.418 12.418 0 00-1.154-.832l-2.106 3.583c.026.202.026.389.214.524zm1.731 12.869c-1.409 0-2.053-.187-2.818-.443-.832-.255-1.731-.577-3.515-.577-1.731 0-2.684.322-3.516.577-.765.256-1.409.443-2.818.443s-2.053-.187-2.818-.443c-.577-.187-1.154-.389-1.985-.442.442.966 1.086 1.852 1.798 2.684.697.188 1.596.443 3.072.443 1.731 0 2.684-.323 3.516-.577.765-.255 1.409-.443 2.818-.443s2.053.188 2.818.443c.832.254 1.731.577 3.515.577 1.409 0 2.308-.188 3.006-.39.698-.832 1.342-1.731 1.798-2.684-.832.134-1.476.322-1.986.443-.778.188-1.409.389-2.885.389zM62.815.52h-.255c-.188 0-.322.067-.51.067h-.134c-.188 0-.39.067-.577.134-.832.188-1.597.389-2.308.698l1.731 3.771c.067.188.254.255.442.188.832-.322 1.731-.443 2.63-.443.899 0 1.798.188 2.63.443.188.067.389 0 .443-.188l1.731-3.771c-.765-.322-1.53-.577-2.308-.698-.188-.067-.389-.067-.577-.134h-.134c-.188 0-.322-.067-.51-.067h-1.932c-.107-.067-.242 0-.362 0zM51.61 15.242v.067h.51c.644.134 1.087.443 1.53.765.832.51 1.852 1.221 3.77 1.221 1.919 0 2.939-.644 3.771-1.221.698-.443 1.342-.832 2.563-.832 1.275 0 1.852.389 2.563.832.832.51 1.852 1.221 3.77 1.221 1.919 0 2.939-.644 3.771-1.221.51-.322.966-.577 1.53-.765h.51v-.067c.134-.765.187-1.53.187-2.309v-.765c0-.134 0-.255-.067-.442v-.255c0-.135 0-.255-.067-.322 0-.135 0-.188-.067-.323v-.134c-.067-.389-.134-.765-.255-1.087l-3.972 1.221c-.187.068-.322.255-.255.443.135.51.188 1.087.188 1.664 0 .698-.067 1.342-.255 1.987-.389.134-.764.188-1.342.188-1.274 0-1.851-.39-2.563-.833-.831-.51-1.851-1.221-3.77-1.221s-2.939.644-3.771 1.221c-.697.443-1.341.833-2.563.833-.576 0-.966-.068-1.341-.188-.188-.645-.255-1.275-.255-1.987 0-.577.067-1.154.188-1.664.067-.188-.068-.389-.255-.443l-3.972-1.221c-.134.389-.188.698-.255 1.087v.188c0 .134-.067.188-.067.322s0 .188-.067.322v.255c0 .134 0 .255-.068.443v.765c.121.725.188 1.49.376 2.255zm7.622-8.831a.51.51 0 00.134-.51l-2.107-3.583c-.255.134-.51.322-.698.51-.134.067-.187.134-.322.255l-.067.067c-.134.067-.188.188-.322.255 0 0-.067 0-.067.067a5.704 5.704 0 00-.899.899l-.067.067c-.134.134-.188.188-.255.322l-.067.067c-.389.443-.765.967-1.087 1.41a19.167 19.167 0 00-.899 1.596l3.838 1.598c.188.067.389 0 .443-.188.577-1.114 1.422-2.134 2.442-2.832z" fill="#212121"/></svg>