<svg xmlns="http://www.w3.org/2000/svg" viewBox="0 0 19.9 18.1"><path d="M15.1 14c-.9-.1-1.6-.9-1.6-2.5.4-.7.9-1.6 1.4-2.8l2.9-6.4c-3.4 0-4.6 1.7-4.9 2.3l-.1.2c-.2-2-1-2.9-2.4-2.9-1.3 0-2.5.4-3.5 1.2-1.4.9-2.6 2.2-3.4 3.6-.9 1.5-1.4 3.1-1.5 4.8 0 1.3.4 2.5 1.2 3.4.8.9 1.9 1.4 3.1 1.3 2.6 0 4.8-1.2 6.5-3.7.1 2.5.8 3.7 2.2 3.7 1.3 0 2-1 2.2-2.9-.6.5-1.4.7-2.1.7m-5-3.5c-.6 1.3-1.3 2.6-2.1 3.7-.3.5-.8.8-1.4.9-.8 0-1.3-.8-1.3-2.3.1-2.2.7-4.3 1.8-6.2 1.2-2.3 2.4-3.4 3.5-3.4 1 0 1.5 1 1.5 2.9l-2 4.4z" fill="#fff"/></svg>