<svg xmlns="http://www.w3.org/2000/svg" viewBox="0 0 283.5 287.8"><path d="M41.6 76.2c1.1 2.6 2.6 3.7 4.5 3.5l-2.3 2.9-10.2-22.1c-.5 0-1.2.1-2.1.5-.9.4-1.5.6-1.8.6l3.6-4.4L60 62.7l-2.4 3-9.7-2.1-7.7 9.5 1.4 3.1zm-7.4-15.6l5.6 11.9 7.4-9.1-13-2.8zm9.6-20.5c5.1 5.6 10.3 11.2 15.7 16.6 2.3 2.3 4 3.1 5.2 2.4-1.3 1.3-2.4 2-3.1 2.2-.8.2-1.6-.1-2.6-1L43.5 43.9l.3-3.8zm13.5 5.1l-.7 2.2 1-6.4 1.6 2.2c.6-2.2 1.8-4.3 3.6-5.6 2.8-2.1 6.3-2.3 9.3-.5 1.7 1 3.1 3 3.7 5.4.1.4.2.9.2 2.9 0 2.9-.7 6.2-3.2 8-.2.1-.4.3-1.3.8-.5.2-.9.4-1.3.5-.8.3-2 .2-2.7-.3l5.8 7.8-.8 3.7-15.2-20.7zm9.4 7.9c1.5 2 4.2 1 5.8-.2 2.1-1.6 2.9-3.7 2.3-6.3-.5-2.3-1.7-4.4-3.8-6.2-2.4-2-5.9-3.5-8.8-1.4-1.2.9-2.2 2.4-2.9 4.5l7.4 9.6zm4.8-28.9l1.4-3.6 5.7 11.3c.4-1.8 1.2-3.3 2.4-4.6 1.2-1.3 2.4-2.2 3.8-2.7 2.9-1 5.8.1 7.2 2.9l5.4 10.8-2.5 1.3-5.1-10.2c-1.3-2.7-3.9-4.2-6.8-2.8-2.2 1.1-3.6 3.5-4.2 5.9l6.1 12.1-2.6 1.3-10.8-21.7zm27.1-4.6c.9-.7 2-1.3 3.2-1.7 4.5-1.4 10.2.1 11.3 3.9.6 1.9 1.1 3.5 1.5 4.8l.1.5c.9 3.1 2.1 4.6 3.5 4.5-1.8.5-3.1.7-3.8.6-.8-.2-1.4-.9-1.8-2.1l-.8-2.6-.6-2.2v.1c-.6 3.8-2.4 9.3-6.6 10.5-2 .6-3.6.4-4.8-.7-1.2-1-1.6-2.3-1.2-3.9.5-2.2 2.3-4.1 5.3-5.8.1-.1 1.2-.7 2.6-1.6 1.7-1.1 3.6-2.5 3.4-3.2-.5-1.9-1.6-2.9-3.1-2.9-.5 0-1 .1-1.5.3-1.2.4-2.6 1.1-4.1 2.3l-4.4 3.3 1.8-4.1zm6.5 13.9c3.3-1 6.2-7.6 5.4-10.8l-.3-1-.1.1c-.7 1.3-4.3 3.4-5.5 4.1-.6.2-2.6 1.7-3.1 2.1-1.1 1.1-1.8 2.8-.1 4.5 1.3 1 2.6 1.4 3.7 1zM130.3 23c1.5 3.5 4.7 6.5 8.8 6.4 5.4-.2 8.5-2.6 12.1-6.4l-.5 1c-3 3.4-6.9 6.1-11.6 6.2-3.8.1-7-1-9.8-3.4-2.8-2.3-4.2-5.2-4.3-8.6-.2-7.7 6.6-12.9 13.8-13.1 2.9-.1 5.5.5 8.2 1.3.7.2 1.1.4 1.1.4l.3 6.1c-2.1-4-5.9-7.4-10.6-7.2-6.1.2-9.2 5.4-9 11.1.1 2.1.6 4.2 1.5 6.2zm23.2 5.1l1.5-10.9.6-4.3 2.8.4-.7 5.2c.2-.9 1.1-1.9 2.6-3s3.2-1.5 5.1-1.2c1.1.1 2.1.3 2.8.5l-1.5 1.6c-.2.2-1.2.3-2 .2h-.5c-2.5-.2-4.3.1-5.2.9-.9.7-1.3 1.3-1.4 1.9l-1.2 9.3-.2 2.1-3.1-.4.4-2.3zm30.2 3.1c-1.6 3.2-7.7 3.9-11.1 3-4.3-1.2-7.3-5.8-6-10.5 1.5-5.3 7.7-8.1 12.8-6.7 2 .6 6.1 2.3 5.4 4.9-.4 1.5-1.9 2-4.5 1.3l-9.7-2.7c-.3.5-.5 1-.6 1.6-1.2 4.3.4 9.9 5.8 11.5 2.7.7 6-.5 7.9-2.5v.1zm-13-11l9.2 2.2c1.1.3 1.6-.1 1.8-.7.4-1.6-1.6-3.5-3.6-4-2.9-.9-5.8-.2-7.4 2.5zm22.5 2.3c1.2 0 2.4.4 3.5.9 4.3 2 7.6 6.8 5.9 10.4-.8 1.8-1.5 3.4-2.1 4.6l-.2.4c-1.4 2.9-1.5 4.8-.3 5.7-1.7-.8-2.8-1.5-3.3-2.1-.5-.6-.5-1.6 0-2.8l1.1-2.5 1-2-.1.1c-3 2.5-8 5.4-11.9 3.5-1.9-.9-3-2.1-3.2-3.7-.3-1.5.3-2.8 1.7-3.8 1.8-1.3 4.4-1.6 7.8-.8.1 0 1.4.3 3 .5 2 .3 4.3.5 4.6-.2.9-1.8.8-3.2-.4-4.3-.4-.3-.8-.6-1.3-.8-1.1-.5-2.7-.9-4.6-1l-5.5-.4 4.3-1.7zm-4.3 14.8c3.2 1.5 9.7-1.6 11.2-4.5l.5-.9h-.1c-1.4.5-5.5-.3-6.9-.6-.6-.3-3-.5-3.7-.5-1.6.1-3.2.9-3 3.3.2 1.6.9 2.7 2 3.2zm25.6 10.9c-2.9 1.5-6.5 2.3-9.3.4-2.3-1.5-3-4.1-1.4-6.6l6-9.2-1.9-1.2 7.7-2.4-2.3 3.5 6 4-2.6.7-4.6-3-6.7 10c-.9 1.2-.8 2.3.1 3.3.2.2.4.4.7.6 2.2 1.4 5.8.8 8-.2l.3.1zm1.9 5.6l-1.2 1.7-2.5-1.9 1.4-1.6 9.5-12.1 2.2 1.8-9.4 12.1zM227.8 35c.5-.1 1 .1 1.3.4.4.3.7.7.7 1.2.1 1-.6 1.9-1.6 2.1-.5.1-1-.1-1.4-.4-.4-.3-.6-.7-.7-1.2 0-1 .7-1.9 1.7-2.1zm1.6 9.2l2.4 2.4-4.3 16.1 15.8-4.6.4.4-19.1 5.6-.5-.5 5.3-19.4zM246 82.1c-3.3 1.5-8.5-1.7-10.6-4.6-2.6-3.6-2.1-9.1 1.8-11.9 4.4-3.2 11-1.6 14.2 2.7 1.2 1.7 3.3 5.6 1.1 7.2-1.3.9-2.8.4-4.4-1.8l-5.9-8.2c-.5.2-1 .5-1.5.8-3.6 2.6-5.9 8-2.6 12.6 1.6 2.2 5 3.3 7.7 3l.2.2zm-3.3-16.8l5.8 7.4c.7.9 1.3.9 1.8.5 1.4-1 .9-3.7-.3-5.4-1.7-2.3-4.4-3.6-7.3-2.5zM5 143.9l14.1-6.6L6 129.7l25.6-12-.3 3.9-21.2 9.8 9.7 5.7 10.8-5-.3 3.9L9 145.6l19.7 11.5v.7L5 143.9zm8.7 30.2c-3.6-.2-6.7-5.5-7.2-9-.6-4.4 2.4-9 7.2-9.7 5.4-.8 10.5 3.7 11.3 9 .3 2.1.3 6.5-2.3 6.9-1.6.2-2.6-1-3.1-3.6l-1.5-10c-.6 0-1.1 0-1.7.1-4.4.6-9 4.3-8.1 10 .4 2.7 2.9 5.3 5.4 6.2v.1zm4.9-16.4l1.7 9.3c.2 1.1.8 1.4 1.4 1.3 1.7-.2 2.5-2.9 2.2-4.9-.4-2.9-2.2-5.3-5.3-5.7zM29.7 186c.8.8 1.5 1.9 2 3 1.8 4.4.9 10.1-2.8 11.7-1.9.8-3.4 1.4-4.7 1.9l-.5.2c-3 1.2-4.4 2.5-4.1 3.9-.7-1.7-1-3-.9-3.8.1-.8.7-1.5 1.9-2l2.5-1 2.1-.8h-.1c-3.9-.2-9.5-1.5-11.1-5.6-.8-1.9-.7-3.5.2-4.9.9-1.3 2.1-1.8 3.8-1.6 2.2.3 4.3 1.9 6.2 4.8.1.1.8 1.2 1.8 2.5 1.2 1.6 2.8 3.3 3.5 3.1 1.9-.7 2.8-1.8 2.6-3.4 0-.5-.2-.9-.4-1.5-.5-1.2-1.3-2.5-2.6-3.9l-3.7-4.1 4.3 1.5zm-13.2 7.9c1.3 3.2 8.2 5.5 11.2 4.3l1-.4-.1-.1c-1.4-.6-3.8-4-4.6-5.1-.2-.6-1.9-2.4-2.4-2.8-1.2-1-3-1.5-4.5.3-.8 1.4-1.1 2.7-.6 3.8zm7.5 16.2l9.5-5.5 3.7-2.2 1.4 2.5-4.5 2.6c.8-.4 2.2-.3 4 .2 1.8.5 3.1 1.6 4.1 3.3.6 1 1.1 1.8 1.3 2.5l-2.2-.3c-.3 0-1-.8-1.3-1.4l-.3-.4c-1.3-2.1-2.7-3.3-3.9-3.6-1.1-.3-1.8-.2-2.4.1l-8.1 4.7-1.8 1.1-1.6-2.7 2.1-.9zm21.2 24.5c-3.2 1.6-8.6-1.4-10.8-4.1-2.8-3.5-2.5-9 1.3-12 4.3-3.4 11-2.1 14.3 2.1 1.3 1.6 3.6 5.5 1.4 7.1-1.3 1-2.7.5-4.5-1.6l-6.3-7.9c-.5.3-1 .5-1.4.9-3.5 2.8-5.6 8.3-2 12.7 1.7 2.2 5.2 3.1 7.8 2.6l.2.2zm-4-16.6l6.2 7.2c.7.8 1.4.8 1.8.5 1.3-1 .8-3.8-.5-5.4-1.9-2.3-4.7-3.5-7.5-2.3zm26.2 13l-1.2-1.7 9.5 7.1c3.1 2.3 7.9 7.2 4.8 11.3-2.3 3.1-7.2 1.7-9.8-.2l-.8-.6c1.5 1.1 2.5 2.6 3.2 4.4.6 1.8.4 3.5-.8 5-2.6 3.5-6.9 2.6-10 .3l-9-6.8L67.4 231zm-4.8 25.3c2.5 1.8 4.8 1.2 7.1-1.8 2.4-3.2 2.2-6-.8-8.2l-5.6-4.2-7.1 9.4 6.4 4.8zm6.9-10.2c2.4 1.8 6.1 2.1 8-.5 2.4-3.2 1.3-6.2-3.9-10.1l-3.5-2.6-6.6 8.8 6 4.4zm6.4 16.8l5.2-9.7 2-3.8 2.5 1.3-2.4 4.6c.5-.8 1.7-1.4 3.5-2 1.8-.5 3.5-.3 5.2.6 1 .5 1.9 1 2.5 1.5l-2 .9c-.3.1-1.2-.2-1.9-.5l-.5-.2c-2.2-1.1-4.1-1.3-5.2-1-1.1.4-1.6.8-2 1.3l-4.4 8.3-.9 1.9-2.7-1.4 1.1-1.8zm21.4-6.4c1.2-.1 2.4.1 3.6.6 4.4 1.6 8.2 6.1 6.8 9.9-.7 1.9-1.2 3.5-1.7 4.8l-.2.5c-1.1 3.1-1 4.9.2 5.7-1.8-.6-2.9-1.2-3.4-1.8-.5-.6-.6-1.5-.2-2.8l.9-2.6.8-2.1-.1.1c-2.7 2.7-7.4 6.1-11.6 4.6-1.9-.7-3.1-1.8-3.5-3.4-.4-1.5.1-2.8 1.3-3.9 1.7-1.5 4.3-2 7.7-1.5.1 0 1.4.2 3.1.3 2 .1 4.4.1 4.6-.6.7-1.9.5-3.3-.8-4.2-.4-.3-.8-.5-1.4-.7-1.2-.4-2.7-.6-4.6-.6l-5.5.1 4-2.4zm-3 15.1c3.3 1.2 9.5-2.5 10.7-5.5l.4-1h-.1c-1.4.7-5.5.2-6.9 0-.6-.2-3.1-.2-3.7-.1-1.6.3-3.1 1.2-2.7 3.6.4 1.6 1.2 2.6 2.3 3zm16.6 7.4l2.9-17.2 2.9.5-.6 3.3c2.2-1.9 5.1-2.8 7.5-2.5 1.2.1 2.3.5 3.3 1 1.9 1.1 3 3.3 2.6 5.9l-2 11.9-2.8-.5 1.9-11.2c.5-3-.8-5.2-2.9-6-2.1-.7-5.1-.1-7.7 1.9l-2.4 13.4-2.7-.5zm31.7-14.6c1.7 0 3.7.4 5.7 1.5v-9.2l2.7-2.6.4 22.8c.1 3.2.8 5 2.2 5.3-3.1 0-4.8-.9-5-3-1.6 2.3-3.9 3.5-7 3.6-3.6.1-6-2.1-7.4-5.3-.9-2-.8-4.1-.3-6.1 1-3.7 4.7-7 8.7-7zm-6.8 7.1c-.1 1.6.2 3 .7 4.5 1.1 2.9 3.8 5.2 7.1 5.2 1.9 0 3.5-.9 4.7-2.7V269c-1-1.1-2.2-2-3.5-2.6-1.3-.6-2.7-.9-4.1-.7-1.4.2-2.6.9-3.5 2.1-.9 1-1.3 2.2-1.4 3.7zm35.7 7.2h-1c-.6 0-.8-.1-1-.1l-3.5-8.7.2-.1c3 7.8 8.5 8.7 13.2 7.3 2.2-.6 3.8-1.7 4.3-2.9.6-1.1.7-2.1.4-3-.7-2.6-4-3.2-7.7-3.6-5-.5-10.7-.7-12-5.2-.2-.8-.3-1.8.1-3.2.9-3 3.9-4.5 6.7-5.4 1.3-.4 2.8-.8 4.3-1.1 1.5-.3 2.7-.5 3.5-.6l1.3-.1 3.1 7.6h-.2c-1.1-2.9-2.6-4.1-5.3-5-1.9-.6-3.9-.7-6-.4-2.1.3-3.8 1-5 2.1-1.3 1.1-1.7 2.3-1.3 3.7.8 2.8 4.8 3.4 7.3 3.6 1.7.1 3.5.2 5.2.4 3.2.2 6.6 1.5 7.6 4.9 1.3 4.6-2.2 7.4-6.3 8.6-2.5.8-5.3 1.6-7.9 1.2zm31.8-16.4c-.3 3.3-1.5 6.7-4.6 8.1-2.5 1.2-5.1.4-6.3-2.3l-4.6-10-2.1.9 2-7.8 1.8 3.8 6.6-3-.7 2.6-5 2.3 4.9 10.9c.6 1.4 1.5 1.9 2.8 1.7l.9-.3c2.4-1.1 3.8-4.5 4.1-6.9h.2zm2.5-16.3c4.2-2.7 10.3-1.5 12.9 2.8 2.7 4.3.8 10.2-3.4 12.8-4.1 2.6-10.1 1.7-12.8-2.6-2.5-4.3-.8-10.4 3.3-13zm10.2 4.5c-1.6-2.4-3.3-3.8-5.3-4.4-1.9-.5-3.7-.2-5.3.7-1.5 1-2.4 2.4-2.5 4.3-.1 1.9.6 4 2.3 6.2 1.5 2.1 3.2 3.3 5.2 3.9 2 .5 3.7.4 5.2-.6 3-1.9 3.4-5.5.4-10.1zm10.1.2l-7.1-8.4-2.8-3.3 2.2-1.9 3.4 4c-.6-.8-.7-2.1-.5-4 .2-1.8 1.1-3.4 2.5-4.6.9-.8 1.6-1.4 2.3-1.8l.1 2.2c0 .3-.6 1.1-1.2 1.6l-.4.4c-1.8 1.7-2.8 3.3-2.8 4.4-.1 1.2.1 1.8.5 2.3l6.1 7.1 1.4 1.5-2.4 2-1.3-1.5zm12.5-34.6c.6 1.3 1.4 3.2 2.5 5.5 4 8.7 6.2 14.2 6.6 16.5.4 2.3-.4 4.5-2.5 6.8l-2.8-2.5c.1-.1.2-.1.3-.2.3-.1 1.2-.8 1.8-1.4 1.4-1.4 2.7-3.8 1.6-6.6l-19.4-4.2 2.2-2.6 15.7 3.5-6.5-14.2.5-.6zm18.9-7.3c1.6 2.9 2.4 6.4.6 9.3-1.5 2.4-4 3.1-6.5 1.6l-9.3-5.8-1.2 1.9-2.6-7.6 3.6 2.2 3.8-6.1.8 2.5-2.9 4.7 10.2 6.4c1.3.8 2.4.8 3.3-.2.2-.2.4-.4.6-.7 1.4-2.2.7-5.8-.4-8v-.2zm7.9-17.7c2.9 2.1 2.7 8.2 1.3 11.5-1.8 4.1-6.9 6.3-11.3 4.3-5-2.2-6.9-8.8-4.7-13.7.9-1.9 3.2-5.7 5.7-4.6 1.5.7 1.7 2.2.6 4.7l-4.1 9.2c.5.3.9.6 1.5.8 4 1.8 9.9 1.2 12.2-4 1.1-2.5.4-6-1.2-8.1v-.1zm-12.9 11.2l3.6-8.8c.4-1 .1-1.6-.4-1.8-1.5-.7-3.7 1.1-4.5 2.9-1.3 2.7-1.1 5.8 1.3 7.7zm-6.9-24.5c7.2 2.5 14.4 4.8 21.7 7 3.1.9 5 .8 5.7-.4-.6 1.8-1.1 2.9-1.7 3.5-.6.5-1.5.7-2.7.3l-21.4-6.9-1.6-3.5zm2-7.4c7.4 2 14.7 3.8 22.2 5.4 3.2.7 5.1.4 5.6-.8-.4 1.8-.9 3-1.4 3.6-.5.6-1.4.8-2.7.5l-21.9-5.3-1.8-3.4zm25.6-18c3.4 1.1 5.1 7 4.6 10.6-.5 4.4-4.7 8.1-9.5 7.5-5.4-.6-9.2-6.3-8.6-11.6.2-2.1 1.4-6.4 4.1-6.1 1.6.2 2.3 1.6 2 4.3l-1.2 10c.5.2 1.1.3 1.6.4 4.4.5 9.8-1.9 10.5-7.5.3-2.7-1.4-5.9-3.6-7.4l.1-.2zm-8.9 14.6l.8-9.4c.1-1.1-.4-1.6-1-1.6-1.7-.2-3.2 2.1-3.4 4.2-.4 2.8.7 5.6 3.6 6.8zm12.1-18l-11 .1-4.3.1v-2.9l5.2-.1c-.9-.1-2.1-.8-3.4-2.1-1.3-1.3-1.9-3-1.9-4.9 0-1.2 0-2.1.1-2.9l1.8 1.3c.2.2.4 1.2.4 1.9v.5c.1 2.5.8 4.2 1.6 5 .8.8 1.4 1.1 2.1 1.1l9.4-.1 2.1-.1v3.1h-2.1zm-5.6-15.8c2.8-.4 4.7-1.9 5.7-4.3.5-1.3.7-2.6.5-3.9-.3-2.2-1.6-4.8-4.2-4.4-1.4.2-2.2 2.4-2.7 4.9-.2 1.3-.5 2.6-.7 3.8-.5 2.6-1.7 4.9-3.6 5.3-2.6.6-4.4-.4-5.6-3.1-.4-1-.7-2-.9-3.2-.3-2-.2-4.3.3-6.9l5.2-.8v.2c-1.5.5-2.8 1.3-3.9 2.7-1.1 1.4-1.4 3.7-.8 6.4.3.9.5 1.4 1 2.3.5.8 1.3 1.2 2.4 1 1.6-.4 2.5-2.5 2.8-5.1l.6-3.9c.4-2.6 1.6-4.8 3.6-5.3.9-.2 1.7-.2 2.5.1.9.3 1.5.6 1.9.9 1.3 1.1 2.2 2.7 2.5 5.2.3 2.4.4 4.6.4 7.1l-7 1.1v-.1z" fill="#fff"/></svg>