<svg xmlns="http://www.w3.org/2000/svg" width="1200" height="1226"><path d="M557.928 184.156a307.056 307.056 0 008.114-7.011c18.312 7.58 41.493 13.128 61.076 4.954-18.934 6.172-40.167 0-57.207-8.472l.27-.271c25.317 10.015 53.907 13.995 73.03-9.744-18.934 20.49-45.224 16.051-68.026 5.197l.459-.46c14.255 5.413 32.702 9.257 47.498 2.707-14.336 4.439-30.998 0-43.954-6.037l2.434-2.165c57.829 24.821 64.538-31.128 54.097-72.189-6.519-25.525-28.915-47.477-53.285-56.409-37.868-12.452-54.936-7.904-90.775 6.009-32.457 12.56-37.57 16.647-65.781 36.19-17.636 12.233-34.622 20.408-48.417 37.136l-28.022 32.319c-2.704-1.868-5.653-3.817-8.466-5.847 8.709-14.183 25.345-32.237 34.812-42.387a363.737 363.737 0 00-38.598 39.653l-.271-.189c12.55-19.922 35.162-43.308 51.554-59.549-18.338 15.13-41.546 36.542-56.53 55.705l-.299-.216c9.576-15.132 23.992-30.993 35.975-43.769-11.874 10.828-28.59 26.499-39.734 40.818l-.378-.298c13.523-16.619 22.098-28.853 38.273-43.307 16.661-14.996 21.638-22.521 42.006-35.487 65.646-41.521 126.802-67.668 199.481-38.896 20.205 8.121 31.89 20.22 44.062 37.895 12.848 18.948 14.173 32.238 16.229 54.488 2.029 24.36.243 50.129-15.878 69.861-8.114 9.663-21.233 20.112-34.107 21.491-20.341 2.247-41.357-3.789-59.642-11.72zm51.689 796.302c-14.227 13.751-41.005 30.886-58.37 39.063 17.581-4.848 45.36-21.225 61.426-33.189v.46c-13.144 12.154-31.158 23.496-46.279 32.186a267.981 267.981 0 0047.443-27.07c3.624 20.301.784 14.026-9.44 23.037-14.281 13.527-33.108 20.246-50.148 29.418-15.228 9.987-32.458 15.237-48.93 22.388-33.377 14.402-54.097 18.375-89.909 23.011a42.55 42.55 0 01-10.494 0 87.352 87.352 0 011.217-15.267c21.233-1.76 45.982-8.991 65.43-16.052-19.34 5.411-41.898 10.279-62.022 10.581 27.86-3.168 60.48-14.05 85.96-25.526-25.398 9.444-59.182 18.516-86.393 18.948a278.701 278.701 0 0058.884-15.126 301.585 301.585 0 01-40.869 8.71c18.068-4.064 37.542-11.094 53.906-16.243A484.597 484.597 0 00599.177 983.3a307.73 307.73 0 01-37.867 25.198 241.952 241.952 0 0048.307-28.12zm-82.443 244.094c36.002-3.651 79.089-9.927 112.304-24.138 14.715-6.638 61.725-25.586 65.187-38.44a52.237 52.237 0 00-3.841-8.579c-16.554 11.426-44.846 24.631-63.78 32.265 19.313-9.263 45.198-23.062 61.535-36.217l-.243-.513c-19.34 13.527-62.373 34.024-84.526 39.435 22.612-8.418 62.806-29.448 81.713-44.936l-.216-.433c-16.825 11.727-43.467 24.198-62.915 31.973 17.5-8.418 45.982-23.394 60.805-36.137-.947-1.921-1.705-3.439-2.056-4.304a88.953 88.953 0 01-7.952 7.714 348.991 348.991 0 01-59.236 30.554 380.71 380.71 0 01-37.164 11.486c-50.77 13.095-134.918 20.165-173.677-22.448-27.346-30.313-34.974-60.083-30.106-99.871 6.979-54.008 45.983-86.079 75.736-36.468 5.41-2.162 11.063-4.164 16.553-6.276-12.063-16.403-35.001-38.49-57.802-33.51 22.424-7.064 46.523 13.128 60.345 28.341-22.613-28.367-57.856-51.185-84.824-16.647 25.967-37.462 64.727-15.483 89.881 12.453-15.552-19.545-41.302-42.201-68.485-35.406 29.753-8.906 59.993 16.511 76.979 37.759-32.674-46.232-76.114-63.257-114.874-9.555-13.308 18.597-21.801 35.192-26.156 53.949-6.816 29.367-3.218 44.383 4.815 72.534 9.196 32.184 33.891 61.531 64.781 74.767 37.002 15.78 66.89 24.661 107.219 20.567zm488.334-281.799l.623.136c-3.498 26.39-12.311 57.139-23.888 79.609a266.43 266.43 0 0030.943-74.304c-5.035 29.774-21.125 72.564-38.922 97.195 19.934-22.71 38.651-66.717 45.364-95.896a282.341 282.341 0 01-27.215 78.708 278.174 278.174 0 0032.461-78.844 72.399 72.399 0 0111.277 6.903c-7.146 33.888-27.045 76.165-45.983 105.402-24.885 38.459-50.012 63.713-85.661 92.025-25.724 20.336-65.295 34.215-98.024 29.78-28.266-3.761-38.057-.302-58.532-15.408-19.151-14.151-26.751-19.813-40.573-40.27-14.958-22.146-9.034-26.823-17.203-45.308a71.12 71.12 0 01-7.168-33.844c.406-49.583 41.899-60.789 82.173-63.415a90.6 90.6 0 0115.796.352 21.886 21.886 0 01-.568 3.275c-25.046-3.248-54.799 3.059-75.356 19.277 21.016-14.404 48.146-18.41 72.895-14.567-30.511-2.707-78.44 9.365-84.769 41.199 8.114-29.966 54.096-38.925 82.253-34.919-21.638-1.407-45.982 3.735-63.347 17.59 16.986-11.475 40.924-15.614 60.372-12.88a49.034 49.034 0 00-6.41 12.78c-16.229-2.304-31.62-5.663-43.899 9.142-17.853 22.066 2.704 53.998 11.278 73.087 6.357 14.05 12.172 20.356 21.423 32.204 28.698 29.589 96.535 23.202 128.101.493 25.831-18.596 67.323-63.634 83.308-91.271 28.859-49.915 24.074-55.437 39.251-98.231zm-487.144 141.729c7.763 9.333 18.447 12.391 29.131 17.621 42.547 20.788 100.079 11.747 114.875-34.457a68.714 68.714 0 002.298-38.741c-3.218-14.664-1.217-19.542-8.114-34.534-2.434-5.197-4.192-9.609-6.41-14.806-4.193-9.772-10.063-14.454-14.525-23.359-4.815-10.178-5.41-14.021-12.659-23.712-4.382-5.928-7.276-11.26-11.306-17.106-14.823-21.654-41.14-59.548-8.629-7.525 27.833 44.472-7.897-10.448-20.691-21.654 11.847 21.058 23.856 37.38 35.162 60.063-4.733-8.905-60.29-86.996-32.458-44.959 25.642 38.815 26.319 38.056-.649 4.845-9.305-11.45-10.684-19.165-16.581-13.155-6.896 7.011 27.049 53.08 32.946 61.633 5.896 8.553 12.415 14.102 16.093 24.09 4.03 10.827 8.115 18.27 10.603 29.018 3.435 15.508 5.951 12.833 5.735 29.639 0 8.74 1.108 15.619-2.949 23.816-4.761 9.585-10.062 14.885-20.935 16.514-8.115.996-15.824 2.706-24.074.815a116.923 116.923 0 01-30.348-10.963c-.676.373-1.38.704-2.055 1.056a97.269 97.269 0 0047.903 15.509c-19.07 1.428-37.057-3.983-53.638-12.783l-.406.191c23.1 15.458 50.743 23.363 78.089 14.161-29.022 12.531-58.586 5.411-85.039-9.716 18.121 12.743 39.165 21.141 61.507 21.654-24.776 1.68-48.686-6.447-69.297-19.491-4.653 1.951-9.143 3.952-13.579 6.336zm328.448-207.205c.189 22.033-11.684 41.413-18.203 61.876a375.025 375.025 0 01-44.224 95.173c-11.902 13.859-20.747 30.715-36.516 40.601a17.122 17.122 0 000 3.521 221.792 221.792 0 0032.945-31.46 209.796 209.796 0 01-32.052 36.005c0 .242.163.513.27.785 17.934-12.099 40.573-36.519 49.093-53.978-8.114 20.034-29.05 44.554-46.523 59.55l.297.513a192.068 192.068 0 0038.247-35.674 241.6 241.6 0 01-35.677 39.435c2.435 3.359 5.166 6.527 7.547 9.585 19.313-14.151 63.806-78.337 71.975-97.604 4.842-13.264 9.413-26.663 14.903-39.682 12.118-21.844 14.878-46.692 18.935-70.917-3.841 16.457-10.82 31.831-17.527 47.206 5.977-17.053 12.063-36.488 14.335-54.974l-.622-.65c-5.058 25.389-17.446 53.052-28.292 75.573 9.196-23.982 20.394-53.756 22.828-79.876l-.378-.218c-3.328 18.813-11.172 38.707-18.718 55.868 5.87-16.836 12.902-38.95 14.255-58.168a52.496 52.496 0 00-6.898-2.49zM171.38 824.413c10.82 5.225 18.69 7.12 29.997 13.534 31.566 17.541 102.784 43.471 138.081 46.746 7.926.65 18.502.162 25.859 2.409l-.378 1.029a222.056 222.056 0 01-64.538-8.12 220.426 220.426 0 0056.964 13.317c-28.969-.298-52.961-6.849-80.442-14.915 27.211 10.313 50.715 18.948 80.144 21.492a238.995 238.995 0 01-60.128-8.797 229.153 229.153 0 0061.102 13.939 42.832 42.832 0 01-7.412 10.313 265.655 265.655 0 01-87.23-21.519c-14.281-6.251-34.027-8.525-51.987-15.725-18.934-7.714-56.802-23.846-71.57-36.542 1.649-1.975 3.597-4.628 5.788-7.362 17.69 10.475 39.463 19.137 58.208 26.336-17.689-8.796-36.866-18.54-52.906-30.071 23.018 13.073 50.958 23.602 75.897 32.643-23.423-11.368-50.309-23.711-71.461-38.787a433.576 433.576 0 0053.907 23.9c-14.877-7.416-33.323-16.565-47.929-26.77 4.625-1.056 6.816.758 10.034 2.95zM238 836.486c9.575-20.842 8.385-54.866-10.819-70.376 19.231 12.965 23.154 43.037 18.366 64.692 9.413-32.211 0-75.79-42.71-77.901 44.576-.216 56.802 45.094 49.067 79.605 7.383-25.253 3.894-58.6-17.798-75.788 13.226 9.095 20.502 24.361 23.45 39.734-1.677-20.192-9.737-38.896-29.59-46.339-33.271-12.506-73.815 10.097-102.541 27.203C92.48 796.94 69.624 850.75 73.709 888.645c4.868 44.769 28.373 74.706 57.424 106.944 15.931 17.646 40.058 35.186 60.047 48.341 11.928 7.634 21.422 10.691 33.674 16.706 30.565 15.016 60.778 25.003 95.373 26.763a55.695 55.695 0 003.327-11.204c-27.698-2.897-57.126-12.582-81.794-23.464 25.561 9.011 53.772 16.755 80.874 18.264-30.672-3.43-69.865-16.645-97.184-31.58 30.808 11.988 64.591 23.142 97.752 25.002-25.884-2.977-53.366-11.988-77.169-22.518 24.696 8.669 53.854 16.756 80.713 17.62-38.435-5.25-83.851-19.109-104.975-31.208-36.732-21.11-68.594-43.928-93.614-80.199-18.934-27.446-30.645-49.073-21.341-83.34 7.654-28.097 22.017-52.322 45.144-70.16a144.583 144.583 0 0124.072-15.482c38.247-18.055 55.991 16.538 47.173 49.073A74.673 74.673 0 00238 836.486zm169.729 31.912c7.113-24.577 16.959-50.806 42.871-61.199 33.973-9.501 53.231-.298 78.846 23.44 10.306 9.528 11.171 17.351 17.88 13.886 7.897-4.115-21.261-34.241-11.686-24.361 7.574 7.741 19.394 19.976 19.692 19.542.919-1.488-36.029-45.013-17.014-24.604 48.227 51.781-1.325-6.306 4.193-.866 38.381 37.894 14.011 13.994 20.069-12.857-33.324-16.944-59.019-33.889-85.932-60.144-91.721-89.54-54.935-43.769-148.117-27.474-25.614.704-30.511-6.632-51.202-14.291-.595.514-1.163 1.055-1.705 1.57 17.934 10.583 26.346 15.266 47.632 16.24-21.908 1.299-29.915-2.057-49.363-11.314 29.483 16.754 38.707 18.676 72.247 14.075-32.918 7.498-44.901 6.09-75.357-8.283 18.582 10.828 31.294 17.242 53.095 17.188-23.125 2.03-37.867-3.817-58.235-14.075-2.407 5.414-2.704 5.414-1.324 7.173 6.87 8.661 23.64 16.078 33.026 18.433 6.167 1.326 28.265 4.196 34.595 3.437 17.499-2.517 36.38-10.826 49.66-13.019 24.344-2.924 57.316 3.167 50.337 35.188-4.517 20.625-32.864 32.264-47.038 77.847-5.598 18.947-1.703 44.607-20.096 84.856a157.358 157.358 0 00-7.871 17.297 50.4 50.4 0 01-38.03 29.774c-13.957 2.084-18.934-2.707-27.778-11.883-9.306-9.745-7.899-13.723-13.525-23.901a112.155 112.155 0 01-8.493-17.81l-2.245-.704a105.234 105.234 0 0024.911 47.314c-12.793-11.963-25.966-31.587-29.942-48.721l-.406-.136c4.273 25.822 22.883 54.407 45.387 66.992-24.614-11.233-46.956-41.575-52.122-68.887 2.299 21.114 14.687 43.633 28.861 59.117-15.878-14.996-30.997-38.653-34.271-60.605l-9.358-2.707a28.232 28.232 0 003.3 12.235c11.225 24.36 3.245 18.947 23.099 46.854 10.17 14.318 13.308 14.67 26.183 24.713 20.745 16.432 39.896 12.068 59.858-2.707 14.47-11.071 35.163-36.785 40.112-53.594 4.437-14.643 8.683-28.664 12.091-43.606 2.57-11.071 1.163-19.11 3.165-29.396zm566.743-225.933a18.195 18.195 0 014.031-2.706c11.901 12.072 23.234 35.187 29.185 50.128a188.146 188.146 0 00-22.072-50.995c13.335 15.727 28.324 46.313 33.027 66.506-1.708-19.192-13.306-48.723-24.345-66.804 5.572 1.49 23.21 39.763 26.044 47.044a207.184 207.184 0 00-3.106-10.177 433.11 433.11 0 0118.583 48.911c7.678 16.241 9.678 35.188 12.985 52.808 3.136 16.702 9.819 70.592 7.568 87.835-3.106-.406-6.462-.677-9.819-1.137a307.118 307.118 0 00-4.834-67.371 302.679 302.679 0 010 64.691c.432-14.264-.814-73.407-12.935-84.965 10.824 11.883 8.121 71.026 6.382 84.397a301.395 301.395 0 00-4.834-62.256 301.957 301.957 0 010 59.82 17.607 17.607 0 01-3.307-3.356c-1.266-64.8-12.633-127.219-41.977-185.468-5.004-8.201-7.005-17.891-10.576-26.878zm101.186 79.931c12.684-20.49 25.86-51.429 27.046-75.491a48.157 48.157 0 00-4.774-24.167 48.159 48.159 0 00-16.081-18.655c-17.226-12.208-37.025-13.263-57.226-13.778-16.533-.459-21.642-3.274-38.412 1.381-8.79 2.463-18.934 4.168-26.778 8.77-21.259 12.613-20.232 6.821-38.3 20.138-6.87 5.062-13.524 7.769-20.178 12.424-30.618 21.167-42.493 27.772-76.493 45.42-56.369 29.233-118.364 60.605-178.14 60.93-79.982.432-115.496-39.818-152.093-92.031-10.035-14.346-17.121-20.652-24.344-16.89 9.684 27.907 25.021 48.533 46.47 70.375-22.964-18.054-41.6-36.108-55.206-62.255l-.189.271c15.58 40.601 43.114 65.883 74.139 95.061-32.458-24.523-61.561-45.283-82.118-79.849a40.771 40.771 0 00-.704 1.949c11.36 24.551 27.049 44.255 46.74 64.095-20.043-15.888-36.461-31.696-49.661-50.832a26.492 26.492 0 002.029 13.94c19.312 38.382 97.131 91.407 132.321 111.789 73.03 42.334-87.962 88.376-114.686 91.759l-44.088 3.086c-.217.46-.406.893-.595 1.353a388.366 388.366 0 0066.836-4.519 406.54 406.54 0 01-67.81 9.636c33.296 0 60.02-1.49 92.451-9.908-31.918 11.044-58.884 14.157-92.289 16.484a409.515 409.515 0 0070.028-4.683 419.564 419.564 0 01-73.95 9.988c-.649 3.709-1.163 7.525-1.705 11.586 22.857-2.084 15.662-.325 32.919 0 14.254.324 19.204-5.413 31.213-6.821 14.823-1.895 33.432-4.872 47.741-12.668 37.435-19.489 52.121-17.783 86.879-47.802 91.964-79.335 140.922 9.718 41.357 82.34 14.47-6.198 29.321-19.326 39.788-31.29a138.289 138.289 0 01-36.596 35.81c17.96-8.796 40.572-28.799 50.201-46.312-7.384 18.731-30.159 41.576-47.09 52.105a140.887 140.887 0 0042.546-34.213c-10.576 14.778-26.074 30.559-41.492 39.41a241.414 241.414 0 004.355 7.2 236.346 236.346 0 0051.959-46.394c9.386-12.478 13.984-21.519 14.958-37.244 2.949-58.413 11.361-80.364 68.514-42.145 38.652 27.636 66.106 30.83 81.496 42.145 9.522 7.01 19.719 7.443 28.996 16.484 4.68 4.547 13.226 18.947 16.039 25.172 2.949 6.631 1.975 17.837.569 24.957-4.625 23.494-30.916 33.996-52.366 34.89l-.54 1.164c17.473-.623 36.596-4.656 46.847-19.327-9.602 17.215-31.078 22.521-49.174 24.496 30.917-.866 56.802-10.447 61.184-44.147-2.272 35.377-28.671 47.342-60.805 50.725 22.071-.623 45.36-5.414 58.667-24.902-13.037 22.737-40.896 28.935-65.186 30.451a158.204 158.204 0 00-6.221 15.184c49.742 5.743 120.095-38.138 97.861-95.304a124.088 124.088 0 00-24.885-36.758c-36.46-33.32-51.391-34.458-94.263-51.97-30.24-12.316-49.472-34.592-77.412-38.679-.568 0-172.19-2.87-104.732-16.972 40.573-8.472 48.093-6.74 89.91-23.278 61.669-24.361 112.223-7.417 109.95 63.961a85.577 85.577 0 0011.28 5.17c3.002-21.817-5.139-41.793-17.095-59.929 12.767 16.241 21.774 34.133 22.748 55.084-.892-32.698-11.523-50.617-32.161-75.113 23.506 23.305 35.353 41.819 38.734 75.248.811-23.333-7.222-42.984-19.908-62.093 15.12 19.434 25.614 41.576 24.858 66.099 6.005-18.514-13.308-56.517-22.937-68.995-27.697-37.733-10.82-49.264 22.721-74.788l40.193-25.282c8.709-4.385 14.065-5.251 22.829-11.206 10.982-7.443 30.781-12.883 43.791-14.671 8.845-1.245 18.314-4.519 27.048-4.033 20.583 1.191 39.357 10.828 45.035 31.859 4.704 22.791-6.925 42.064-13.528 52.213a61.149 61.149 0 0014.744-23.223 61.322 61.322 0 003.086-27.338c3.728 21.653-1.95 39.248-16.232 55.948 23.558-23.927 25.91-49.371 15.287-81.202 13.517 32.102 12.201 59.007-10.442 85.56 17.417-17.702 25.075-37.028 22.804-62.012 4.703 28.34-4.623 51.293-24.613 71.35 1.758 7.038 3.326 14.157 4.653 20.031 2.975-6.01 7.889-10.747 11.678-16.295zm54.101-137.612c5.246 13.29 15.005 32.129 17.387 41.279 3.005 11.503 8.251 24.171 10.01 35.025 3.839 23.629 11.738 47.639 9.849 72.027-1.899 24.387-1.387 45.067-8.332 69.347-6.281 21.843-6.251 32.048-21.99 50.995-13.175 15.861-19.256 22.168-36.03 31.073-20.663 10.963-33.085 15.7-56.1 7.525-9.116-3.437-18.282-5.115-27.267-8.688-8.974-3.573-20.797-9.014-29.749-13.669-27.968-21.953-24.154-55.083 10.089-65.152a170.153 170.153 0 01-1.542-18.162c-17.23 7.795-35.866 21.843-38.273 42.062.703-21.654 20.313-37.894 38.002-47.26-29.428 12.696-56.801 40.602-35.622 72.759-24.533-32.807 4.409-64.638 35.163-79.85-23.073 9.636-46.199 27.067-49.066 53.702 1.218-27.664 25.237-48.072 48.362-59.008a70.749 70.749 0 00-1.028-5.223 169.511 169.511 0 01-20.637 16.24c-25.02 17.892-39.031 39.844-27.968 71.079 4.896 12.939 20.097 29.775 30.213 39.141a62.911 62.911 0 0022.044 14.426c11.5 5.251 22.857 12.641 34.455 16.62 24.593 8.445 44.422 2.706 70.331-4.276 27.186-7.255 51.387-29.91 65.488-53.785 19.98-33.861 27.799-62.255 31.045-101.178 2.251-26.607-2.191-80.742-9.93-105.185-4.382-13.831-5.105-26.12-11.487-39.058-7.176-14.536-10.392-27.203-17.447-42.063h-1.136a517.863 517.863 0 0125.859 78.496c-7.819-24.361-18.934-53.73-31.166-76.114 7.548 17.377 30.242 80.715 28.644 97.633-3.84-23.766-24.151-72.461-35.458-94.304a485.723 485.723 0 0125.015 76.385c-7.135-21.654-19.356-54.947-31.447-75.789a41.742 41.742 0 01-10.231 2.923zM715.728 700.525c-13.524 27.067-66.918 34.619-115.686 18.704-51.202-16.674-97.671-58.683-100.295-104.887a181.82 181.82 0 0016.229 23.602c-2.705-4.871-15.39-30.044-16.229-35.566.217-3.33.595-6.713 1.136-10.096 8.71 19.705 23.235 43.145 40.924 55.218-11.901-12.262-19.61-27.935-25.804-43.687-2.082-5.414-10.522-29.558-7.627-33.916a153.135 153.135 0 0028.725 53.079c-7.655-13.533-20.962-45.202-18.149-60.009 19.42-.595 36.38 104.428 115.901 101.342 33.594-1.299 48.688-11.179 67.026-1.787a139.292 139.292 0 01-51.932 19.191c18.69-.406 42.763-5.414 59.506-13.886a29.897 29.897 0 011.812 1.922c-22.856 15.997-61.995 27.853-89.016 22.98 26.183 9.339 69.758 1.083 94.67-12.153.243.92.459 1.841.622 2.707a164.584 164.584 0 01-65.242 24.36c22.567-.8 44.777-5.87 65.458-14.941a24.64 24.64 0 01-2.029 7.823zM123.37 486.123a47.761 47.761 0 019.007.379c9.575 22.926 19.258 46.637 29.537 69.211 4.489 9.826 10.819 15.727 16.229 25.254 8.465 15.321 13.172 27.88 26.831 42.199 9.44 9.879 12.253 18.163 18.772 27.69-10.224-10.61-21.368-24.036-27.887-32.102a444.313 444.313 0 0034 46.15c-13.2-12.37-38.247-39.979-47.334-55.191 2.839 11.774 32.836 49.805 41.897 60.469a373.95 373.95 0 01-39.545-43.66 460.35 460.35 0 0035.84 48.316 74.034 74.034 0 01-7.98 5.413c-16.689-17.756-23.478-20.138-37.407-45.338-7.737-13.75-24.587-32.779-31.62-50.318-5.545-13.859-16.013-30.208-24.344-53.269a163.083 163.083 0 0010.144 19.813c-9.522-19.272-14.201-39.708-18.934-60.55 9.386 28.204 18.284 56.544 39.436 78.495-18.934-23.196-25.695-52.05-32.134-80.58 6.492 19.327 12.605 38.599 23.316 56.166-9.196-18.813-13.308-38.409-17.851-58.547zm154.445-14.617a40.936 40.936 0 019.792.325c6.14 36.92 21.638 79.253 22.505 119.233.243 13.046-1.489 34.322-6.952 46.014-2.975 6.415-6.33 10.827-9.278 17.838-3.489 8.364-7.438 12.803-13.524 19.354-6.519 7.091-9.845 13.533-17.229 20.408-19.26 17.811-20.125 15.971-40.573 26.364-24.75 12.532-63.969 20.437-86.339 3.98-21.638-17.243-22.801-48.425-19.663-73.895 2.109-17.053 9.114-28.719 15.471-44.202a129.21 129.21 0 011.515 2.518c-8.628 19.867-16.852 41.629-14.2 63.771-.867-21.221 7.897-39.735 17.337-58.25-12.144 28.881-19.339 51.781-4.949 80.689-11.415-27.717-4.085-47.775 8.817-73.732l.217.405c-6.33 15.591-12.037 32.645-9.819 49.832-.514-15.997 5.762-30.992 12.659-45.068a81.75 81.75 0 005.409 7.85c-11.523 23.495-16.445 66.966 19.394 70.999a82.34 82.34 0 0048.686-11.315c20.99-12.776 47.904-41.738 55.964-65.341 8.061-23.603 12.902-27.068 8.493-59.549-2.705-20.3-10.386-41.955-14.092-67.668-.427-2.971-.869-5.94-1.325-8.906a1097.228 1097.228 0 008.33 30.397c-3.245-16.429-6.275-33.564-8.114-50.238 5.41 22.926 11.442 46.503 18.933 68.806a601.322 601.322 0 01-12.495-69.942c3.976 16.241 8.113 32.48 12.901 48.721-2.974-15.645-6.356-33.13-7.898-49.398zm-82.686 67.669c-3.165 6.199-6.14 11.909-9.738 17.892a232.022 232.022 0 00-4.977-12.235c15.797-14.265 22.343-47.855 14.526-69.997 5.572 20.517-.542 48.966-16.013 64.178 17.5-19.652 22.991-69.51-5.193-80.067 29.428 13.535 13.118 65.829 1.135 74.816 10.522-15.943 15.878-36.515 9.007-55.219 4.193 16.241-.892 38.626-11.711 50.698a50.853 50.853 0 00-1.001-1.543c11.739-16.835 14.39-38.354-.487-54.135-15.58-15.862-32.458-11.558-52.311-9.338-25.481 2.707-42.278 7.038-59.858 27.067-40.573 49.155-35.163 110.761-14.039 166.819 22.667 59.954 22.072 57.328 55.584 108.649l-.621.568c-13.524-11.856-32.458-39.059-40.357-51.022 9.468 17.241 23.343 39.735 36.786 54.351-16.77-14.941-40.383-48.721-51.04-68.156 7.195 19.245 31.538 56.625 46.199 72.623-15.121-13.535-30.889-36.081-41.926-52.783 8.115 14.887 24.128 41.143 38.166 56.247l-7.655 7.01c-7.411-9.04-13.902-17.593-21.828-26.309-16.228-17.378-41.898-80.418-47.578-104.346-13.064-54.974-16.959-101.395 8.98-154.583 16.716-34.268 41.519-57.681 79.387-65.909 21.639-4.25 62.211-1.977 80.983 10.177 37.976 24.686 32.837 60.523 15.553 94.574zm744.478-163.867c58.181 27.067 110.574 66.261 155.127 112.357a64.715 64.715 0 0112.11 13.317 530.326 530.326 0 00-41.487-36.405 448.315 448.315 0 0141.819 43.903 464.377 464.377 0 00-63.407-53.864 441.7 441.7 0 0157.558 57.058 567.713 567.713 0 00-43.598-38.327 432.373 432.373 0 0139.005 40.601 78.445 78.445 0 01-12.523 4.575c-37.226-42.578-83.853-75.573-131.701-105.185-12.93-10.097-27.725-14.264-41.601-22.683a110.704 110.704 0 013.651-4.52c21.342 2.056 38.788 13.912 56.369 25.362-17.013-13.073-31.024-24.604-52.203-29.775 29.753 4.386 52.041 26.067 76.33 38.68-24.073-15.293-42.682-35.674-69.649-43.687 3.813-2.03 26.615 9.609 31.917 12.505 6.789 3.708 13.795 8.581 20.313 12.803-13.713-10.556-27.508-21.328-43.277-27.581 1.772.061 3.527.362 5.22.893zm65.133-55.11a119.482 119.482 0 0129.32 85.182l-2.03-1.273c1.488-26.77-9.628-60.279-29.238-79.551 16.906 18.947 25.178 48.018 24.344 73.082-1.106-29.585-19.719-81.202-53.231-80.634 32.457 1.543 47.572 52.322 46.658 80.526-.945-22.115-9.769-48.911-26.129-64.719 13.737 15.646 21.878 42.226 21.094 62.608-4.543-2.139-9.116-4.168-13.683-6.253-3.516-19.543-7.654-42.929-25.425-54.839-20.557-13.723-61.13 10.828-72.841 34.485-35.921 72.757-18.393 99.906 26.669 162.568-4.679-5.712-9.359-11.287-13.902-16.701 14.118 20.192 29.509 41.034 41.843 62.255a919.44 919.44 0 00-58.533-73.082c16.635 25.714 35.163 49.154 51.392 75.79-14.118-19.381-29.888-38.6-45.305-56.843 12.658 18.054 28.59 39.573 40.058 59.549-2.326 1.245-4.571 2.706-7.005 4.195-20.341-19.759-40.789-49.858-58.046-73.082-30.863-41.63-31.133-69.916-20.232-118.745 2.055-9.231 7.195-16.675 11.089-25.282 7.06-14.779 31.62-40.601 45.983-51.185 22.45-16.511 42.195-21.844 69.027-11.747a40.952 40.952 0 0118.096 13.723zm-12.497-65.422c1.433-2.139 2.705-4.331 4.003-6.578a309.505 309.505 0 0163.081 32.482 329.892 329.892 0 00-60.863-36.867c25.827 9.42 65.757 30.343 84.069 49.425-16.905-20.733-55.94-43.551-81.283-55.407a307.711 307.711 0 0164.921 33.429 342.188 342.188 0 00-62.865-38.112l.973-2.165c31.51 9.799 80.203 51.726 106.927 73.84 50.955 42.172 82.633 102.479 78.432 169.742-2.241 35.458-18.934 59.549-47.517 79.578a103.792 103.792 0 01-26.533 13.534c-18.774 5.414-55.075 10.124-73.548 3.817-9.738-3.33-24.502-9.149-31.055-17.134-9.086-11.071-14.008-34.782-12.9-48.884 1.001-10.692 2.705-21.655 4.058-32.265a43.664 43.664 0 018.49 4.602c-6.272 18.622-3.377 45.799 7.548 62.553-8.814-16.24-9.658-40.006-3.759-57.465-5.708 22.629-.241 56.843 23.638 68.86-21.638-13.155-24.341-45.365-17.547-66.315-3.438 15.591-1.116 35.729 7.678 48.938-6.794-12.965-7.387-31.561-3.437-45.528l3.005 2.274a83.606 83.606 0 00-2.221 26.581c1.919 26.58 36.16 32.291 56.663 29.611 22.965-2.977 34.543-12.451 50.613-22.872 14.141-9.284 17.91-17.242 23.427-33.266 13.789-39.87-2.713-93.248-27.216-125.918-23.206-30.939-64.432-70.133-97.507-89.513-12.764-7.254-26.292-13.94-39.302-20.95zm-697.901 21.41c-3.57 13.75-8.656 36.108-8.385 49.967.27 22.52-5.87 66.668 0 89.323a58.01 58.01 0 01-7.303-.866c-8.331-21.843-8.818-46.259-7.222-69.321-3.165 20.708-4.571 42.361-.27 63.014-8.115-28.015-5.41-58.249-2.407-86.833-5.573 28.854-10.198 59.278-3.95 88.43-6.194-21.275-6.491-43.93-4.95-65.883a264.906 264.906 0 00-2.542 65.504c-5.193-2.706-2.246-65.882.135-78.496 8.98-47.91 11.496-81.203 28.266-129.627.567.433 1.162.84 1.812 1.272a435.975 435.975 0 00-12.47 48.722 402.616 402.616 0 0116.392-46.502l.595.325a402.358 402.358 0 00-15.715 67.506 410.254 410.254 0 0120.962-64.746l.677.38a442.44 442.44 0 00-11.604 45.852 398.405 398.405 0 0115.282-43.796c4.841 3.249 8.277 7.146 6.762 12.803zm633.688-71.702v1.191c-25.046-5.414-56.017-6.361-79.927-6.442 25.371 1.732 54.611 4.412 79.143 11.423-31.782-6.686-73.328-7.444-105.759-6.091 32.187 1.327 72.192 3.519 103.271 12.235-24.344-4.819-52.475-5.847-77.062-5.928 21.64 1.516 51.392 3.979 74.492 10.394-10.549 17.026-8.521 10.502-27.643 7.551-9.819-1.515-20.557-1.272-30.754-2.408-43.034-5.603-82.985 2.219-125.532 6.739-4.788 1.327-22.261 6.389-26.02 6.47v-4.412c16.228-8.554 42.736-15.321 60.886-18.379a253.295 253.295 0 00-56.558 10.827c15.769-6.713 54.096-17.811 71.002-17.025-15.418-3.519-57.235 5.71-73.031 10.826a264.01 264.01 0 0157.207-16.077 268.013 268.013 0 00-55.341 10.122c7.276-4.519 34.947-9.69 44.792-12.396 21.855-6.064 32.161-5.414 54.096-6.01 38.139-1.434 75.412-2.111 112.738 7.282zm-622.355 99.663c39.437-10.394 101.432-50.914 41.952-123.428-25.561-31.182-67.296-44.202-106.705-36.974-40.005 7.335-86.149 60.388-105.489 94.736-24.966 43.796-36.623 101.314-39.085 151.28a504.897 504.897 0 019.386-54.621 479.911 479.911 0 00-6.086 74.165c2.11-28.8 7.736-69.673 17.501-96.659-7.385 28.015-10.982 67.859-10.82 96.902a500.236 500.236 0 0110.82-72.189 452.19 452.19 0 00-5.924 73.786c4.68-.785 9.278-1.813 13.876-2.978 5.977-84.315 8.114-127.623 64.564-194.209 36.812-43.443 85.824-58.791 131.346-17.459 9.819 9.311 15.229 12.153 20.476 25.579 9.386 25.118-6.086 41.927-27.751 51.834l-.731 1.76c19.258-7.85 37.489-19.976 33.053-43.308 6.627 24.171-11.793 38.246-31.457 48.098 38.355-16.239 47.632-38.517 25.02-74.409 25.886 35.811 16.661 61.065-22.315 80.419 25.128-10.611 45.982-26.662 40.059-56.842 9.386 35.188-22.126 55.245-50.716 66.938a67.545 67.545 0 00-.974 7.579zm341.838-62.634c-16.879 6.306-32.297 15.537-47.877 24.36-23.396 13.534-52.04 43.146-77.087 46.016-22.639 2.706-36.975-19.273-49.661-30.398-22.693-19.922-65.132-62.092-57.234-93.708 8.331-33.157 43.845-25.525 60.371-21.653 2.895-3.086 6.248-6.849 9.711-10.693-18.934-5.63-45.793-8.12-64.051 1.029 18.934-11.53 47.173-9.608 67.622-5.089-27.049-8.255-75.736-13.073-87.556 21.465 10.116-36.974 61.724-34.213 90.612-27.501-23.479-7.308-53.881-10.61-76.655 1.056 23.369-13.94 57.775-11.72 82.578-4.71l2.03-2.057c-40.952-11.179-104.489-18.704-114.118 41.251-4.841 32.697 10.144 54.866 30.889 78.171 22.126 24.875 61.508 59.279 70.326 91.327 21.882 78.496-67.81 78.496-62.211-4.656 2.245-16.241 3.3-24.198 9.602-39.438a193.851 193.851 0 01-6.275-5.278c-3.597 9.203-7.005 18.542-9.657 27.934a215.056 215.056 0 016.14-31.1l-.459-.434a244.284 244.284 0 00-13.173 41.9 201.55 201.55 0 018.114-46.799 295.234 295.234 0 00-12.171 34.186 258.396 258.396 0 018.114-38.68l-.243-.297c-8.115 25.497-13.795 42.172-12.983 69.482 1.081 36.813-7.601 55.787-45.117 66.641-29.185 8.418-26.913 4.196-53.042 5.142-24.019.975-28.671 2.14-51.743-1.677-21.45-3.546-48.255-8.121-53.475-36.108-3.949-22.656 12.686-41.008 31.971-50.048a23.692 23.692 0 006.248-15.998c-17.932 9.582-41.518 24.632-48.903 45.285 5.87-22.25 30.862-39.6 49.066-50.833-29.754 15.861-65.403 39.951-52.745 78.928-15.687-40.6 22.235-67.668 52.988-86.372-22.693 11.747-51.392 29.206-60.02 55.029 6.492-24.362 31.539-43.309 51.392-55.624a437.934 437.934 0 00-8.602 4.926c-26.723 16.241-61.345 43.877-54.448 79.281 7.276 34.619 40.87 45.067 71.138 53.215 12.848 3.464 19.583 3.491 32.458 4.845 40.572 4.277 38.299 0 74.815-3.762 37.299-6.091 66.106-31.48 104.353-16.539 71.245 27.799 78.034 108.839 126.775 166.682 56.613 67.155 100.593 49.128 105.245 31.751-30.97-4.007-64.267-21.654-88.394-42.685 24.56 17.079 55.639 30.26 85.149 32.102a23.407 23.407 0 01-.623-1.49c-36.867-6.712-79.901-32.995-99.862-65.151 22.423 27.257 64.05 48.722 99.295 51.807.134-.541.27-1.109.432-1.677-24.181-5.144-49.472-19.327-68.27-36.001 19.799 13.534 46.821 25.281 70.651 26.688a22.462 22.462 0 00-3.058-18.216c-5.733-8.445-21.097.866-43.655-12.342-51.392-30.154-125.315-97.931-101.296-193.994 11.604-46.529 78.44-87.754 120.364-105.563a80.66 80.66 0 01-1.378-6.335 294.807 294.807 0 00-45.982 22.196 326.931 326.931 0 0145.197-26.635v-.487c-17.744 6.74-50.716 21.924-60.886 32.725 8.249-12.235 43.467-30.993 60.075-39.14a282.845 282.845 0 00-50.77 23.847 332.247 332.247 0 0150.148-29.233zm168.348-64.15a84.218 84.218 0 00-16.824-14.021 156.208 156.208 0 01-15.255-13.318c-16.472-15.104-41.249-24.361-63.645-20.679-12.876 2.354-23.532 10.015-32.918 18.947-12.28 11.692-21.638 38.787-23.722 54.839-4.273 33.266.839 25.091 4.464 52.592 7.654 55.543 86.555 98.607-19.367 210.099-26.02 27.365-49.66 38.761-56.126 47.26a200.126 200.126 0 0059.507-42.226c-15.417 19.624-27.048 28.556-45.36 45.095 30.429-21.844 50.527-33.753 71.002-66.261-18.15 34.483-33.08 47.125-61.211 72.352 20.936-14.969 30.701-21.141 48.687-40.061-23.424 28.258-44.683 50.59-60.48 50.238 15.228 11.937 39.356 23.251 47.578 17.106 9.9-7.362 18.935-26.147 23.641-43.308 14.984-55.705 54.097-108.595 103.081-138.721 19.691-7.363 54.097-7.985 72.57 2.3a467.338 467.338 0 012.706-5.034 94.805 94.805 0 00-53.313-9.149c18.312-4.493 38.354-1.705 55.747 4.763-22.802-10.988-55.422-16.239-77.845-1.352 22.126-17.54 56.422-13.887 81.009-4.467a105.425 105.425 0 00-61.426-10.502 103.904 103.904 0 0146.983.596 81.637 81.637 0 00-37.868-4.385c-24.668 3.085-34.162 10.34-55.124 21.112-34.487 15.754-21.964-3.762-28.617-40.601a201.55 201.55 0 00-21.774-49.804c-13.119-22.684-5.572-27.312-7.899-50.454a136.887 136.887 0 010-24.361c.568-12.56 7.872-33.672 18.475-40.927 22.151-11.856 49.551 10.124 63.698 25.661 4.598-.813 9.25-1.327 13.903-1.733a144.857 144.857 0 00-43.278-29.774 144.818 144.818 0 0148.85 29.558h.812c-16.743-17.567-46.821-39.708-72.68-38.924 27.779-3.031 62.211 20.463 80.956 38.41a153.285 153.285 0 00-54.096-39.709 159.585 159.585 0 0160.669 39.302zM608.536 88.554c-40.762 23.413-130.076 95.764-154.501 136.637a475.656 475.656 0 0135.163-37.354 359.99 359.99 0 00-38.083 48.722c11.793-14.833 41.491-48.722 55.827-56.598-15.958 13.534-39.95 43.876-51.392 61.714a401.79 401.79 0 0141.817-45.582c-10.819 12.234-31.43 36.46-39.166 51.428a73.601 73.601 0 006.925 7.661c5.679-6.848 9.547-14.346 15.011-21.357 38.409-45.067 82.795-85.642 133.186-116.877a36.103 36.103 0 00-.244-10.233 284.434 284.434 0 00-28.156 19.246 233.044 233.044 0 0127.778-23.007l-.568-2.328c-17.392 9.554-37.408 25.172-47.767 37.732 11.062-16.241 29.103-31.264 46.198-43.308l-.595-1.895a219.89 219.89 0 00-33.702 22.737 271.988 271.988 0 0132.458-26.879zm337.076 140.047c-15.148 32.807-49.471 56.246-80.524 23.684-4.246-4.439-3.326-5.9-8.113-7.037 10.061 15.131 24.803 27.366 44.981 24.496-22.829 5.224-38.625-8.661-51.229-25.688h-.677c20.557 32.482 45.739 40.332 79.955 19.733-38.192 25.823-63.564 14.103-87.935-20.355 13.714 23.143 32.621 42.361 62.05 37.895a50.964 50.964 0 01-41.493-8.445c-15.742-11.828-17.446-18.271-26.453-29.341-2.866 0-5.815.352-9.088.622 29.753 43.308 62.941 74.463 119.607 30.749 9.847-7.579 11.469-14.21 18.718-22.195 12.551-13.832 7.899-9.366 14.309-25.931 4.544-11.422 8.52-35.702 6.897-46.015-6.275-38.707-34.757-81.447-69.108-100.745-41.628-23.414-64.916-31.995-112.792-35.189-41.952-2.706-71.516-3.816-109.654 8.879a173.57 173.57 0 0148.877-5.739 159.331 159.331 0 00-59.67 14.508c24.344-9.311 57.533-12.424 82.958-6.983-25.29-3.275-58.072 1.921-80.929 13.317a154.383 154.383 0 0157.775-9.203c-18.42 1.002-41.329 5.874-58.126 15.076 1.758 13.914.379 12.371 3.895 10.828 14.633-6.118 26.182-6.686 41.303-9.663 35.541-7.12 70.325-7.877 105.759.46 45.198 10.637 106.029 51.969 114.279 100.826 3.435 20.383 4.165 18.217-.568 37.896a60.584 60.584 0 01-5.004 13.56z" fill="rgba(0, 0, 0, 0.025)"/></svg>